<svg width="714" height="365" viewBox="0 0 714 365" fill="none" xmlns="http://www.w3.org/2000/svg">
<path fill-rule="evenodd" clip-rule="evenodd" d="M111.443 205.362C232.395 176.614 447.354 182.54 591.567 218.597C735.78 254.654 754.636 307.188 633.683 335.935C518.573 363.294 318.318 359.248 174.932 327.713C150.146 323.9 126.471 319.259 104.689 313.813C-18.3669 283.046 -34.4566 238.219 68.7513 213.69C80.5268 210.891 93.3466 208.477 107.002 206.443C108.459 206.08 109.94 205.719 111.443 205.362Z" fill="#64FCD9"/>
<path fill-rule="evenodd" clip-rule="evenodd" d="M121.512 266.422C110.236 274.876 93.2134 271.889 82.6515 262.558C72.0896 253.227 66.9881 239.111 64.6673 225.21C60.1564 198.192 64.8728 169.719 77.8544 145.599C80.7586 140.203 84.5089 134.654 90.3179 132.703C146.099 113.967 203.906 101.27 262.404 94.902C306.365 90.1168 351.115 88.9314 394.553 97.2143C437.992 105.497 480.257 123.736 512.466 154.037C525.076 165.901 543.501 168.999 560.802 169.7C578.102 170.4 595.88 169.323 612.265 174.919C640.04 184.405 657.951 210.721 673.839 235.4C678.128 242.064 682.462 248.817 684.966 256.336C692.707 279.583 682.1 307.067 693.777 328.608C686.668 330.788 679.032 331.228 671.72 329.879C673.119 336.377 664.492 339.949 657.906 340.846C628.872 344.8 599.837 348.754 570.803 352.707C569.822 349.781 570.731 346.313 573.02 344.244C524.136 339.334 475.222 334.715 426.282 330.386C420.806 329.902 414.307 329.85 411.021 334.257C393.085 358.309 352.665 360.554 332.175 338.637C324.626 330.562 319.06 319.606 308.663 315.851C267.414 300.949 226.165 286.048 184.916 271.147C173.465 267.01 155.823 262.582 131.991 257.862C130.342 257.352 129.156 257.396 128.432 257.994C124.818 260.982 122.473 265.701 121.512 266.422Z" fill="white"/>
<path fill-rule="evenodd" clip-rule="evenodd" d="M70.7074 180.796C73.0937 169.606 87.6401 164.521 98.3428 168.566C109.046 172.611 115.441 184.681 120.244 195.065C126.8 209.237 128.892 258.237 116.748 267.342C105.472 275.796 93.2135 271.889 82.6516 262.558C72.0897 253.227 66.9883 239.11 64.6674 225.209C60.1565 198.192 73.4119 171.21 70.7074 180.796Z" fill="#00160A"/>
<path fill-rule="evenodd" clip-rule="evenodd" d="M90.5743 266.072C102.706 266.072 112.541 246.193 112.541 221.67C112.541 197.148 98.5198 177.605 90.5743 177.269C82.6288 176.934 68.6074 197.148 68.6074 221.67C68.6074 246.193 78.4423 266.072 90.5743 266.072Z" fill="white"/>
<path fill-rule="evenodd" clip-rule="evenodd" d="M398.403 345.333C401.691 343.176 404.717 340.623 407.713 338.05C412.71 333.757 417.782 329.212 420.649 323.177C422.836 318.573 423.593 313.392 424.071 308.283C425.624 291.682 425.735 273.368 420.649 257.544C415.563 241.72 405.141 228.429 392.376 218.274C386.354 213.485 379.479 209.671 372.034 208.134C361.083 205.874 347.967 208.371 338.48 214.475C328.992 220.578 321.914 228.805 316.497 238.925C307.798 255.176 304.444 276.928 309.017 294.898C310.541 300.888 312.657 309.278 315.384 314.79C319.587 323.286 330.812 345.862 351.786 352.383C375.076 359.625 391.278 350.008 398.403 345.333Z" fill="#00160A"/>
<path fill-rule="evenodd" clip-rule="evenodd" d="M372.209 345.982C403.298 341.419 416.272 321.451 416.272 289.498C416.272 257.544 391.563 223.408 364.46 223.408C337.356 223.408 315.385 250.611 315.385 284.168C315.385 317.724 341.12 350.546 372.209 345.982Z" fill="white"/>
<path fill-rule="evenodd" clip-rule="evenodd" d="M203.525 170.184C202.713 169.448 202.841 168.16 203.035 167.081C203.174 166.308 203.587 165.322 204.364 165.433C205.722 165.627 204.828 168.446 206.156 168.792C211.531 170.193 216.85 171.81 222.096 173.639C223.173 174.014 224.238 173.153 225.163 172.485C226.087 171.817 227.56 171.378 228.223 172.306C226.792 173.581 225.209 174.924 223.296 175.052C222.54 175.103 221.787 174.956 221.044 174.806C215.585 173.701 210.173 172.361 204.829 170.792C204.364 170.656 203.884 170.509 203.525 170.184Z" fill="#00160A"/>
<path fill-rule="evenodd" clip-rule="evenodd" d="M299.803 289.497C269.575 277.748 240.656 262.632 213.755 244.518C205.548 238.992 199.465 230.706 195.367 221.701C191.269 212.696 189.042 202.955 187.406 193.198C185.408 181.282 184.256 169.225 183.959 157.146C184.911 156.999 185.355 158.278 185.427 159.239C187.028 180.559 188.105 202.525 197.07 221.934C198.52 225.074 200.36 228.315 203.464 229.838C232.474 244.074 261.483 258.309 290.493 272.544C289.176 273.373 287.465 272.696 286.068 272.009C258.268 258.347 230.468 244.685 202.669 231.023C205.977 237.449 212.154 241.827 218.193 245.798C242.453 261.751 268.288 275.308 295.199 286.21C291.956 282.545 288.496 278.234 289.073 273.374C289.985 274.239 290.44 275.463 290.947 276.613C293.056 281.399 296.452 285.483 299.803 289.497Z" fill="#00160A"/>
<path fill-rule="evenodd" clip-rule="evenodd" d="M661.922 0.072331C662.213 -0.171421 662.669 0.248812 662.598 0.621208C662.528 0.993605 662.179 1.23736 661.859 1.44035C661.546 1.03286 661.552 0.411145 661.873 0.00978026L661.922 0.072331Z" fill="#00160A"/>
<path fill-rule="evenodd" clip-rule="evenodd" d="M484.05 199.301C484.577 198.442 485.838 198.549 486.822 198.77C528.521 208.153 566.662 229.949 599.82 256.92C600.77 257.693 601.803 258.644 601.784 259.869C596.182 255.71 590.581 251.551 584.979 247.393C581.255 244.628 577.531 241.864 573.733 239.201C546.775 220.302 516.138 206.671 484.05 199.301Z" fill="#00160A"/>
<path fill-rule="evenodd" clip-rule="evenodd" d="M425.759 211.835C424.922 211.875 424.133 211.483 423.385 211.107C399.408 199.025 373.354 191.746 347.49 184.539C347.973 183.628 349.305 183.777 350.297 184.059C373.905 190.763 397.63 197.51 419.879 207.867C422.043 208.874 424.266 209.973 425.759 211.835Z" fill="#00160A"/>
<path fill-rule="evenodd" clip-rule="evenodd" d="M333.021 282.62C332.673 283.012 332.015 283.075 331.6 282.756C336.709 266.904 350.178 254.015 366.24 249.608C366.464 250.671 365.182 251.361 364.152 251.706C349.786 256.517 337.932 268.288 333.021 282.62Z" fill="#00160A"/>
<path fill-rule="evenodd" clip-rule="evenodd" d="M242.062 279.404C248.715 283.118 254.394 288.559 258.39 295.047C257.362 295.625 256.228 294.52 255.544 293.559C251.36 287.679 246.141 282.283 239.533 279.381C217.49 269.701 195.805 259.204 174.538 247.92C175.37 247.498 176.364 247.901 177.206 248.303C186.1 252.55 194.994 256.796 203.888 261.043C209.911 263.918 215.933 266.794 221.955 269.669C226.957 272.057 231.958 274.446 236.96 276.834C238.679 277.655 240.399 278.476 242.062 279.404Z" fill="#00160A"/>
<path fill-rule="evenodd" clip-rule="evenodd" d="M319.969 256.674C320.781 254.506 321.251 252.13 323.255 250.971C317.128 263.742 315.323 278.181 316.131 292.322C316.232 294.091 316.389 295.863 316.752 297.597C317.347 300.448 318.497 303.182 320.12 305.601C320.072 306.076 319.432 306.29 318.998 306.092C318.563 305.894 318.305 305.448 318.086 305.025C314.245 297.6 313.837 288.875 314.46 280.54C314.614 278.477 314.827 276.416 315.17 274.376C316.193 268.308 317.335 262.397 319.491 256.634L319.969 256.674Z" fill="#00160A"/>
<path fill-rule="evenodd" clip-rule="evenodd" d="M632.004 251.098C633.001 251.115 634.066 251.274 634.806 251.943C635.168 252.27 635.424 252.694 635.67 253.116C636.909 255.237 638.022 257.431 639.002 259.683C638.617 260.558 637.551 260.967 636.6 260.876C635.649 260.785 634.786 260.302 633.962 259.817C631.694 258.482 629.481 257.052 627.33 255.534C626.739 255.116 626.077 254.44 626.381 253.783C627.307 251.788 629.804 251.058 632.004 251.098ZM636.926 259.952C637.128 259.719 637.33 259.486 637.533 259.253C636.854 257.987 636.175 256.722 635.496 255.456C634.905 254.354 634.233 253.176 633.085 252.679C632.208 252.3 631.205 252.392 630.264 252.555C629.636 252.665 628.97 252.826 628.538 253.294C628.105 253.763 628.064 254.635 628.61 254.963C631.382 256.626 634.154 258.289 636.926 259.952Z" fill="#00160A"/>
<path fill-rule="evenodd" clip-rule="evenodd" d="M345.501 285.52C344.94 284.361 345.253 282.981 345.659 281.759C348.808 272.27 356.704 265.068 365.253 259.883C365.646 259.644 366.097 259.4 366.543 259.514C366.988 259.628 367.243 260.317 366.847 260.551C358.407 265.546 350.423 272.398 347.312 281.699C346.861 283.048 346.485 284.492 345.501 285.52Z" fill="#00160A"/>
<path fill-rule="evenodd" clip-rule="evenodd" d="M104.67 210.939C105.106 210.087 106.352 211.021 106.72 211.905C109.517 218.621 110.091 226.243 108.331 233.302C106.572 240.362 102.488 246.822 96.8657 251.44C95.9328 250.996 96.6634 249.597 97.4236 248.896C102.498 244.222 106.019 237.89 107.313 231.114C108.607 224.338 107.666 217.154 104.67 210.939Z" fill="#00160A"/>
<path fill-rule="evenodd" clip-rule="evenodd" d="M78.898 233.031C79.0441 233.31 79.1945 233.609 79.1679 233.923C79.1412 234.237 78.8567 234.55 78.5487 234.483C78.3394 234.438 78.1993 234.244 78.0967 234.056C77.6086 233.161 77.5177 232.058 77.8527 231.095C78.4723 231.5 78.8196 232.284 78.7024 233.015L78.898 233.031Z" fill="#00160A"/>
<path fill-rule="evenodd" clip-rule="evenodd" d="M119.995 242.611C120.488 242.989 120.197 243.949 119.576 243.989C119.252 243.681 119.444 243.028 119.884 242.945L119.995 242.611Z" fill="#00160A"/>
<path fill-rule="evenodd" clip-rule="evenodd" d="M75.6311 234.05C75.2456 233.053 75.0121 231.63 75.9779 231.171C76.6648 233.099 77.3517 235.026 78.0385 236.954C78.1414 237.242 78.2458 237.549 78.1828 237.849C78.1199 238.149 77.8188 238.421 77.5246 238.335C77.2786 238.264 77.1557 237.995 77.0633 237.756C76.5859 236.521 76.1085 235.286 75.6311 234.05Z" fill="#00160A"/>
<path fill-rule="evenodd" clip-rule="evenodd" d="M73.604 232.1C74.438 232.526 74.3199 233.716 74.3378 234.653C74.3754 236.629 75.5459 238.371 76.4932 240.105C76.6825 240.452 76.8696 240.849 76.7567 241.227C76.6437 241.605 76.0626 241.817 75.85 241.484C74.4835 239.345 73.5101 236.956 72.9929 234.471C72.813 233.607 72.8084 232.482 73.604 232.1Z" fill="#00160A"/>
<path fill-rule="evenodd" clip-rule="evenodd" d="M217.376 118.735C189.636 123.82 162.073 131.385 137.218 144.711C136.524 143.726 137.799 142.556 138.884 142.031C168.702 127.615 201.068 118.487 234.025 115.199C241.671 114.436 249.461 113.992 256.983 115.564C275.89 119.514 290.264 135.846 297.259 153.85C301.239 164.092 303.911 175.942 312.944 182.198C303.599 181.152 294.63 178.027 285.753 174.924C282.298 173.716 278.843 172.509 275.388 171.301C268.272 168.813 261.156 166.326 254.04 163.839C262.312 165.184 270.447 167.372 278.278 170.358C277.653 168.575 276.423 167.01 274.839 165.98C262.572 162.824 249.675 162.133 237.14 163.963C234.729 164.315 233.975 160.879 232.559 158.895C231.188 156.974 228.712 156.261 226.426 155.673C210.579 151.602 194.733 147.53 178.886 143.458C179.568 142.733 180.736 142.876 181.71 143.077C198.188 146.481 214.485 150.766 230.507 155.907C229.349 153.527 228.192 151.147 227.034 148.767C226.854 148.396 226.668 147.993 226.743 147.588C226.848 147.019 227.412 146.671 227.925 146.402C242.468 138.785 260.107 137.309 275.714 142.403C277.867 143.106 280.347 144.403 280.44 146.665C280.787 155.113 287.451 161.767 293.666 167.498C296.418 170.035 299.273 172.636 302.801 173.885C299.652 164.091 296.475 154.233 291.594 145.177C286.712 136.12 279.973 127.813 271.082 122.637C255.225 113.406 235.423 115.426 217.376 118.735ZM277.146 146.5C276.644 145.586 276.042 144.588 275.037 144.312C268.247 142.443 261.268 140.557 254.261 141.258C250.849 141.599 247.532 142.546 244.235 143.49C239.589 144.82 234.942 146.151 230.296 147.481C229.903 147.593 229.448 147.767 229.351 148.164C229.28 148.448 229.429 148.736 229.573 148.992C231.553 152.508 233.533 156.025 235.513 159.541C235.9 160.229 236.325 160.954 237.028 161.312C237.564 161.585 238.188 161.605 238.789 161.609C247.443 161.672 256.232 159.633 264.662 161.591C266.882 162.106 269.045 162.895 271.307 163.18C273.568 163.465 276.027 163.179 277.808 161.757C279.981 160.023 280.682 156.933 280.261 154.186C279.841 151.438 278.482 148.937 277.146 146.5ZM309.526 179.918C307.445 176.975 303.6 176.03 300.393 174.384C293.332 170.761 289.015 163.385 282.634 158.665C281.45 160.628 279.774 162.29 277.801 163.457C277.273 163.769 276.643 164.185 276.691 164.797C276.712 165.058 276.86 165.289 277.004 165.508C277.953 166.951 278.902 168.394 279.851 169.837C280.451 170.75 281.072 171.684 281.964 172.315C282.75 172.871 283.692 173.152 284.616 173.424C292.909 175.867 301.203 178.309 309.496 180.752C309.817 180.675 309.717 180.188 309.526 179.918Z" fill="#00160A"/>
<path fill-rule="evenodd" clip-rule="evenodd" d="M74.0382 226.345C72.2008 221.063 72.4155 215.193 74.0539 209.846C75.6922 204.499 78.692 199.643 82.2729 195.347C82.5581 195.005 82.8538 194.66 83.2334 194.427C83.526 194.248 83.8626 194.141 84.2051 194.118C84.4381 194.807 83.9512 195.513 83.4991 196.083C80.5484 199.804 77.8483 203.781 76.099 208.196C74.3497 212.611 73.5918 217.511 74.582 222.156C74.894 223.619 75.2457 225.461 74.0382 226.345H74.0382Z" fill="#00160A"/>
<path fill-rule="evenodd" clip-rule="evenodd" d="M105.089 220.041C106.891 228.168 103.704 237.195 97.1976 242.389C97.1208 242.45 97.0415 242.512 96.9482 242.543C96.5777 242.667 96.2269 242.211 96.287 241.825C96.3472 241.439 96.6525 241.145 96.9356 240.876C98.5563 239.337 100.008 237.611 101.16 235.695C103.719 231.438 104.709 226.261 103.903 221.359C103.828 220.903 103.747 220.396 103.999 220.008C104.251 219.619 104.988 219.589 105.089 220.041Z" fill="#00160A"/>
<path fill-rule="evenodd" clip-rule="evenodd" d="M101.942 194.346C102.094 194.655 102.237 195.014 102.11 195.335C101.984 195.656 101.448 195.78 101.309 195.465C100.59 193.832 99.4276 192.397 97.9797 191.354C97.572 191.061 97.9623 190.335 98.4641 190.31C98.9659 190.285 99.3857 190.67 99.7204 191.045C100.607 192.037 101.356 193.151 101.942 194.346Z" fill="#00160A"/>
<path fill-rule="evenodd" clip-rule="evenodd" d="M99.3714 188.329C99.0447 188.037 99.4336 187.443 99.8713 187.447C100.309 187.452 100.658 187.8 100.943 188.132C102.633 190.097 103.955 192.375 104.824 194.816C104.947 195.164 105.059 195.563 104.885 195.888C104.711 196.214 104.119 196.269 104.025 195.913C103.256 193.004 101.616 190.332 99.3714 188.329Z" fill="#00160A"/>
<path fill-rule="evenodd" clip-rule="evenodd" d="M99.2958 197.758C98.5426 197.132 97.7895 196.505 97.0363 195.879C96.7333 195.627 97.0625 195.081 97.4564 195.065C97.8502 195.05 98.181 195.342 98.4653 195.615C98.918 196.05 99.3706 196.485 99.8233 196.919C100.129 197.213 100.415 197.77 100.05 197.984C99.8074 198.126 99.5114 197.937 99.2958 197.758Z" fill="#00160A"/>
<path fill-rule="evenodd" clip-rule="evenodd" d="M409.584 294.92C408.181 303.067 403.784 310.664 397.419 315.939C393.908 318.849 389.859 321.047 385.703 322.925C380.987 325.056 376.096 326.8 371.096 328.133C371.167 326.812 372.707 326.171 373.98 325.811C381.413 323.709 388.728 320.795 394.884 316.129C401.039 311.462 405.979 304.89 407.584 297.334C407.826 296.193 408.439 294.7 409.584 294.92Z" fill="#00160A"/>
<path fill-rule="evenodd" clip-rule="evenodd" d="M92.6405 223.301C91.6586 223.609 90.5487 223.254 89.7817 222.568C89.0148 221.882 88.5548 220.909 88.2963 219.913C88.0632 219.014 87.9788 218.077 88.0477 217.152C88.1749 215.441 88.826 213.791 89.7893 212.372C90.2737 211.659 90.8874 210.965 91.7164 210.727C93.1038 210.33 94.5548 211.404 95.1513 212.718C95.7142 213.958 95.7337 215.37 95.6767 216.731C95.6019 218.519 95.3842 220.384 94.3884 221.87C93.9612 222.508 93.3731 223.071 92.6405 223.301ZM92.0586 212.232C89.2462 214.17 88.3969 218.45 90.2561 221.315C90.6565 221.932 91.2743 222.531 92.0074 222.471C92.8686 222.4 93.3774 221.491 93.6815 220.682C94.6924 217.993 95.0851 214.743 93.388 212.426C93.2463 212.232 93.0744 212.037 92.8405 211.984C92.5657 211.921 92.2907 212.072 92.0586 212.232Z" fill="#00160A"/>
<path fill-rule="evenodd" clip-rule="evenodd" d="M85.5392 201.056C81.9812 204.06 80.3514 208.721 79.0656 213.196C78.4452 215.356 77.8653 217.548 77.7556 219.792C77.7082 220.761 77.7029 221.85 77.0096 222.529C76.2466 222.191 76.1713 221.152 76.2394 220.321C76.8065 213.391 79.2674 206.625 83.2852 200.95C83.6605 200.42 84.1293 199.852 84.7766 199.8C85.4239 199.747 86.0355 200.637 85.5392 201.056Z" fill="#00160A"/>
<path fill-rule="evenodd" clip-rule="evenodd" d="M355.619 306.501C355.953 306.81 355.56 307.423 355.105 307.435C354.65 307.447 354.271 307.106 353.954 306.779C351.904 304.658 350.254 302.154 349.113 299.434C349.428 299.053 350.061 299.108 350.452 299.41C350.843 299.712 351.056 300.183 351.271 300.627C352.339 302.832 353.822 304.835 355.619 306.501Z" fill="#00160A"/>
<path fill-rule="evenodd" clip-rule="evenodd" d="M357.926 303.032C356.547 301.875 355.38 300.466 354.501 298.895C354.387 298.692 354.275 298.464 354.323 298.237C354.404 297.855 354.914 297.705 355.275 297.854C355.636 298.002 355.875 298.343 356.094 298.666C356.927 299.895 357.76 301.124 358.592 302.353C358.37 302.579 358.148 302.805 357.926 303.032Z" fill="#00160A"/>
<path fill-rule="evenodd" clip-rule="evenodd" d="M344.194 302.114C344.756 303.766 345.442 305.376 346.244 306.926C347.335 309.033 348.65 311.042 350.312 312.735C350.665 313.094 350.165 313.745 349.664 313.698C349.162 313.652 348.795 313.221 348.493 312.818C346.655 310.374 345.05 307.754 343.707 305.007C343.455 304.49 343.206 303.944 343.227 303.37C343.247 302.796 343.625 302.192 344.194 302.114Z" fill="#00160A"/>
<path fill-rule="evenodd" clip-rule="evenodd" d="M172.223 150.205C170.284 167.012 173.319 183.951 176.342 200.597C176.856 203.427 177.371 206.258 178.063 209.05C180.27 217.943 184.299 226.38 189.83 233.686C190.562 234.653 191.324 236.041 190.529 236.958C180.265 230.582 170.233 223.832 160.459 216.727C159.568 216.079 158.631 215.365 158.269 214.324C151.014 193.477 148.769 171.274 146.575 149.31C146.539 148.953 146.505 148.58 146.63 148.243C146.845 147.663 147.459 147.349 148.02 147.088C155.613 143.573 163.206 140.058 170.798 136.542C175.594 134.322 180.483 132.074 185.724 131.394C183.603 133.262 180.923 134.488 178.123 134.872C176.581 135.083 175.338 136.327 174.694 137.744C174.051 139.161 173.902 140.745 173.762 142.296C177.488 139.723 181.213 137.151 184.938 134.579C185.893 133.92 187.53 133.444 187.932 134.532C183.661 137.178 179.477 139.963 175.388 142.881C173.156 144.474 172.537 147.48 172.223 150.205ZM182.755 225.026C181.504 222.886 180.248 220.737 179.327 218.436C178.285 215.83 177.689 213.071 177.098 210.328C174.496 198.251 171.888 186.138 170.778 173.834C169.668 161.53 170.089 148.962 173.465 137.079C169.628 138.447 165.948 140.219 162.278 141.988C157.731 144.178 153.185 146.369 148.639 148.559C148.416 148.667 148.182 148.784 148.049 148.992C147.885 149.25 147.915 149.58 147.951 149.883C148.597 155.339 149.243 160.794 149.888 166.25C150.872 174.561 151.857 182.882 153.471 191.094C154.693 197.309 156.273 203.452 158.202 209.485C159.056 212.155 160.118 214.992 162.446 216.554C170.869 222.204 179.292 227.855 187.715 233.505C186.061 230.679 184.408 227.852 182.755 225.026Z" fill="#00160A"/>
<path fill-rule="evenodd" clip-rule="evenodd" d="M390.91 266.888C392.376 268.295 393.568 269.985 394.401 271.838C394.48 272.015 394.558 272.204 394.532 272.397C394.469 272.869 393.802 273.032 393.389 272.794C392.977 272.556 392.762 272.09 392.552 271.663C391.659 269.841 390.4 268.2 388.871 266.866C388.891 266.435 389.396 266.16 389.823 266.225C390.25 266.29 390.599 266.589 390.91 266.888Z" fill="#00160A"/>
<path fill-rule="evenodd" clip-rule="evenodd" d="M397.638 291.38C397.766 291.056 398.306 291.142 398.466 291.452C398.626 291.761 398.529 292.136 398.422 292.468C395.246 302.293 386.277 309.237 376.775 313.277C376.296 313.48 375.747 313.679 375.272 313.466C374.797 313.254 374.668 312.42 375.165 312.265C385.261 309.12 393.762 301.219 397.638 291.38Z" fill="#00160A"/>
<path fill-rule="evenodd" clip-rule="evenodd" d="M386.612 272.238C387.518 273.375 388.233 274.665 388.716 276.037C388.763 276.168 388.807 276.311 388.766 276.443C388.624 276.905 387.923 276.586 387.618 276.212C386.672 275.051 385.727 273.891 384.781 272.73C384.631 272.546 384.474 272.346 384.453 272.109C384.411 271.624 384.997 271.277 385.473 271.375C385.949 271.473 386.308 271.857 386.612 272.238Z" fill="#00160A"/>
<path fill-rule="evenodd" clip-rule="evenodd" d="M400.095 269.453C399.586 269.133 399.426 268.481 399.278 267.899C398.472 264.733 396.743 261.809 394.359 259.576C394.02 259.259 393.648 258.922 393.555 258.467C393.462 258.013 393.837 257.448 394.289 257.558C394.464 257.6 394.603 257.73 394.732 257.856C397.327 260.4 399.335 263.538 400.56 266.959C400.877 267.846 400.978 269.122 400.095 269.453Z" fill="#00160A"/>
<path fill-rule="evenodd" clip-rule="evenodd" d="M369.75 281.455C371.298 281.209 372.939 281.608 374.202 282.537C374.711 282.912 375.158 283.367 375.54 283.87C376.796 285.524 377.308 287.721 376.913 289.759C376.518 291.797 375.223 293.644 373.441 294.709C373.014 294.964 372.554 295.178 372.062 295.254C371.692 295.311 371.312 295.288 370.942 295.227C369.085 294.922 367.462 293.663 366.474 292.061C365.063 289.773 364.906 286.763 366.07 284.34C366.478 283.49 367.052 282.698 367.835 282.173C368.406 281.791 369.071 281.562 369.75 281.455ZM373.13 292.573C373.963 291.716 374.555 290.629 374.824 289.465C375.275 287.516 374.692 285.248 373.064 284.086C371.435 282.925 368.784 283.309 367.866 285.086C367.097 286.573 367.003 288.391 367.615 289.949C368.226 291.506 369.532 292.776 371.106 293.343C371.825 293.601 372.598 293.121 373.13 292.573V292.573Z" fill="#00160A"/>
<path fill-rule="evenodd" clip-rule="evenodd" d="M361.751 274.093C366.947 270.24 374.8 270.209 380.029 274.02C386.937 264.897 392.722 254.976 397.224 244.535C398.018 242.691 396.403 240.764 394.917 239.379C388.183 233.103 380.971 226.64 371.906 224.449C362.805 222.25 352.063 223.859 344.107 228.673C336.15 233.486 329.788 240.393 323.962 247.517C323.754 246.07 324.767 244.751 325.737 243.632C331.685 236.77 338.364 230.297 346.522 226.078C354.68 221.858 365.463 221.027 374.245 223.834C376.931 224.692 379.463 225.953 381.886 227.366C394.2 234.549 403.747 245.727 410.037 258.252C416.326 270.776 419.489 284.615 420.709 298.493C421.03 302.146 421.219 305.841 420.633 309.462C420.078 312.898 418.835 316.202 417.29 319.341C413 328.059 406.245 335.688 397.761 340.757C383.448 349.309 364.649 349.905 349.398 343.043C334.146 336.181 322.661 322.294 318.188 306.585C331.852 303.571 344.993 298.338 356.896 291.172C354.469 285.284 356.555 277.946 361.751 274.093ZM392.029 341.736C391.701 341.532 391.229 341.728 391.1 342.122C391.772 342.14 392.448 341.882 392.969 341.407C392.743 340.992 392.039 341.21 392.034 341.696L392.029 341.736ZM340.623 336.076C348.702 341.66 358.33 345.318 368.262 345.805C374.635 346.118 381.075 345.124 387.028 342.909C389.397 342.028 391.684 340.958 393.968 339.89C396.591 338.664 399.231 337.427 401.562 335.74C403.061 334.654 404.415 333.394 405.71 332.088C410.629 327.124 414.794 321.343 417.043 314.832C421.599 301.643 417.885 287.271 413.998 273.885C404.792 274.805 395.794 277.609 387.773 282.057C389.947 288.297 388.741 295.733 384.025 300.495C379.309 305.258 371.043 306.658 365.319 303.064C364.228 302.378 362.825 303.242 361.864 304.09C353.867 311.144 347.565 319.97 343.587 329.687C342.697 331.861 341.912 334.097 340.623 336.076ZM360.639 302.135C360.894 301.889 361.168 301.61 361.187 301.259C361.201 300.972 361.038 300.707 360.88 300.464C359.18 297.836 357.479 295.208 355.779 292.58C344.671 299.782 332.161 304.903 319.123 307.588C323.408 317.973 330.258 327.333 338.925 334.644C343.672 322.453 351.134 311.282 360.639 302.135ZM362.456 299.858C365.691 302.681 370.232 304.239 374.605 303.687C375.814 303.535 377.004 303.227 378.106 302.736C379.117 302.285 380.047 301.683 380.906 301.009C384.257 298.375 386.535 294.561 387.182 290.498C387.62 287.746 387.293 284.806 385.757 282.428C385.163 281.509 384.405 280.694 383.651 279.884C382.066 278.182 380.456 276.459 378.462 275.191C374.708 272.804 369.691 272.279 365.471 273.833C361.251 275.387 357.946 278.976 356.912 283.126C356.44 285.02 356.418 286.997 356.687 288.925C357.261 293.041 359.221 297.035 362.456 299.858ZM413.534 271.837C411.36 261.654 406.576 251.999 399.727 243.973C395.555 254.583 389.516 264.508 381.947 273.194C381.546 273.654 381.84 274.348 382.146 274.872C382.916 276.194 383.716 277.551 384.95 278.49C386.184 279.428 387.973 279.856 389.348 279.122C396.789 275.15 405.073 272.655 413.534 271.837Z" fill="#00160A"/>
<path fill-rule="evenodd" clip-rule="evenodd" d="M515.836 178.534C462.24 178.656 408.644 178.778 355.048 178.901C340.833 178.933 327.538 170.999 317.924 160.528C308.31 150.057 301.143 135.467 294.756 122.767C300.068 121.217 306.779 122.621 312.168 121.344C325.377 118.214 336.425 112.556 349.782 110.632C381.105 106.118 415.002 108.256 446.58 112.063C408.058 100.093 367.839 93.5942 327.507 92.8232C283.854 91.9887 240.304 97.8268 197.481 106.34C161.258 113.54 125.418 122.662 90.1604 133.654C97.7704 132.837 108.544 134.099 109.856 143.035C105.829 133.924 91.9635 133.467 84.2386 139.755C76.5137 146.043 73.4117 156.254 70.7073 165.84C73.0936 154.65 87.64 149.565 98.3427 153.61C109.045 157.655 116.136 167.887 120.94 178.271C127.496 192.444 131.057 207.853 132.959 223.352C134.858 238.825 133.985 257.07 121.512 266.422C110.236 274.876 93.2134 271.889 82.6515 262.558C72.0896 253.227 66.9881 239.111 64.6673 225.21C60.1564 198.192 64.8728 169.719 77.8544 145.599C80.7586 140.203 84.5089 134.654 90.3179 132.703C146.099 113.967 203.906 101.27 262.404 94.902C306.365 90.1168 351.115 88.9314 394.553 97.2143C437.991 105.497 480.257 123.736 512.466 154.037C525.076 165.901 543.501 168.999 560.802 169.7C578.102 170.4 595.88 169.323 612.265 174.919C640.04 184.405 657.951 210.721 673.839 235.4C678.128 242.064 682.462 248.817 684.966 256.336C692.707 279.583 682.1 307.067 693.777 328.608C686.668 330.788 679.032 331.228 671.72 329.879C673.119 336.377 664.492 339.949 657.906 340.846C628.872 344.8 599.837 348.754 570.803 352.707C569.822 349.781 570.731 346.313 573.02 344.244C524.136 339.334 475.222 334.715 426.282 330.386C420.806 329.902 414.307 329.85 411.021 334.257C393.085 358.309 352.665 360.554 332.175 338.637C324.626 330.562 319.06 319.606 308.663 315.851C267.414 300.949 226.165 286.048 184.916 271.147C167.739 264.942 150.236 258.67 131.991 257.862C142.715 255.095 153.922 258.871 164.35 262.601C213.923 280.329 263.495 298.057 313.067 315.785C307.172 295.243 304.203 273.168 309.877 252.563C315.551 231.958 331.289 213.183 352.163 208.601C379.107 202.686 406.822 222.358 417.644 247.731C428.465 273.104 425.702 302.258 418.861 328.981C443.291 327.878 467.839 329.411 491.943 333.543C477.32 308.559 465.483 281.946 456.722 254.355C467.68 278.054 478.638 301.754 489.596 325.453C491.984 330.619 495.614 336.606 501.304 336.462C488.832 310.305 476.36 284.147 463.888 257.99C535.372 271.553 609.347 284.5 680.29 268.341C658.822 268.166 637.587 273.614 616.122 273.227C592.454 272.8 568.968 265.066 549.678 251.345C552.083 255.027 545.629 257.935 541.238 257.685C519.833 256.464 498.428 255.244 477.023 254.024C470.257 253.638 463.228 253.18 457.303 249.891C446.904 244.121 442.79 231.516 439.56 220.071C478.016 222.599 515.896 233.542 549.776 251.911C588.375 272.839 635.395 277.659 677.437 264.996C668.903 237.876 659.333 209.177 637.355 191.14C611.779 170.15 575.736 168.706 542.685 170.25C589.564 181.922 631.676 211.745 658.249 252.09C630.725 213.552 589.969 184.653 544.494 171.432C539.294 169.92 532.48 169.168 529.593 173.749C526.884 178.047 520.916 178.522 515.836 178.534ZM336.913 223.007C348.925 215.032 364.78 212.205 378.13 217.653C381.529 219.041 384.711 220.921 387.731 223.009C398.918 230.746 408.007 241.486 413.786 253.8C420.818 268.783 422.87 285.615 423.396 302.158C423.823 297.582 424.014 292.985 423.966 288.39C423.79 271.509 420.251 254.384 411.621 239.874C402.991 225.364 388.91 213.7 372.424 210.061C355.939 206.422 337.27 211.694 326.651 224.819C323.499 228.715 321.101 233.158 318.838 237.63C315.699 243.833 312.758 250.221 311.344 257.028C316.47 243.552 324.902 230.982 336.913 223.007ZM297.128 123.793C304.453 138.099 311.988 152.691 323.585 163.818C335.182 174.945 351.799 182.164 367.434 178.442C383.312 174.661 399.855 175.158 416.169 175.678C444.971 176.594 473.772 177.511 502.574 178.428C513.378 178.772 526.017 178.265 532.329 169.49C516.896 159.449 503.172 147.022 488.313 136.149C473.455 125.276 456.979 115.786 438.798 112.877C430.929 111.618 422.919 111.622 414.95 111.628C398.262 111.643 381.573 111.657 364.885 111.672C358.081 111.677 351.194 111.693 344.602 113.378C339.327 114.725 334.384 117.106 329.27 118.97C319.023 122.705 308.02 124.356 297.128 123.793ZM493.037 291.953C497.719 306.187 503.105 320.19 509.169 333.893C509.719 335.136 510.514 336.555 511.868 336.674C534.115 338.623 556.363 340.572 578.611 342.521C579.589 342.606 580.617 342.684 581.512 342.281C582.325 341.914 582.918 341.2 583.481 340.509C588.46 334.397 593.439 328.285 598.418 322.174C593.364 314.957 585.26 310.339 576.819 307.816C568.378 305.292 559.508 304.657 550.726 303.957C549.539 303.862 547.923 302.778 548.764 301.935C557.5 302.404 566.202 303.502 574.78 305.218C580.648 306.392 586.864 308.097 590.728 312.666C595.917 303.062 601.105 293.458 606.294 283.855C631.552 280.562 656.722 276.6 681.77 271.974C660.293 273.897 638.815 275.82 617.337 277.744C612.577 278.17 607.81 278.597 603.031 278.611C597.078 278.628 591.145 278.006 585.225 277.385C578.04 276.63 570.855 275.876 563.669 275.121C531.273 271.72 498.717 268.289 467.26 259.831C477.657 285.025 489.619 309.574 503.053 333.289C504.095 335.128 506.074 337.256 507.914 336.216C498.497 314.153 490.349 291.548 483.522 268.551C483.052 266.967 482.688 264.989 483.917 263.885C486.897 272.774 489.789 281.691 492.595 290.637C508.144 290.773 523.675 292.937 538.67 297.055C544.813 298.742 551.871 300.628 557.144 297.054C550.945 290.995 543.188 286.545 534.829 284.252C530.14 282.967 525.298 282.353 520.475 281.744C510.053 280.427 499.63 279.11 489.208 277.794C503.614 276.648 518.029 279.188 532.257 281.717C535.067 282.216 537.898 282.722 540.55 283.775C543.345 284.886 545.867 286.575 548.364 288.251C552.757 291.2 557.151 294.149 561.545 297.099C558.192 300.048 553.468 301.004 549.01 300.758C544.551 300.511 540.234 299.192 535.906 298.094C521.899 294.538 507.432 293.24 493.037 291.953ZM356.329 352.871C357.294 353.209 358.537 353.453 359.198 352.672C356.384 352.407 353.666 351.207 351.575 349.305C365.796 355.441 383.009 354.087 396.095 345.803C399.299 343.775 402.248 341.375 405.168 338.956C410.037 334.92 414.98 330.647 417.774 324.973C419.906 320.644 420.643 315.773 421.109 310.97C422.623 295.363 421.509 279.37 416.552 264.493C411.595 249.616 402.662 235.893 390.221 226.346C384.353 221.843 377.653 218.257 370.399 216.813C359.727 214.687 348.4 217.405 339.154 223.144C329.909 228.882 322.646 237.463 317.366 246.978C308.889 262.257 305.349 280.67 309.805 297.566C311.29 303.197 313.62 308.575 316.277 313.758C325.003 330.773 338.286 346.535 356.329 352.871ZM597.468 326.427C592.677 332.87 587.237 338.8 581.809 344.717C580.919 345.687 579.205 346.613 578.52 345.49C577.885 344.449 576.308 344.37 575.264 344.999C574.22 345.628 573.584 346.742 572.992 347.808C572.525 348.649 572.058 349.491 571.591 350.332C601.656 346.857 631.649 342.769 661.546 338.071C663.819 337.714 666.324 337.219 667.707 335.381C668.252 334.657 668.564 333.789 668.865 332.934C672.059 323.862 674.867 314.655 677.281 305.346C671.553 306.941 665.824 308.536 660.095 310.132C657.768 310.78 655.44 311.428 653.091 311.992C637.771 315.674 621.755 315.755 606.45 319.503C605.418 319.756 604.382 320.028 603.426 320.491C600.875 321.724 599.158 324.153 597.468 326.427ZM548.255 255.483C537.528 245.139 522.807 240.271 508.619 235.715C503.242 233.988 497.865 232.261 492.487 230.534C489.254 229.495 486.019 228.456 482.746 227.548C469.208 223.794 455.151 222.317 441.143 221.246C440.952 221.231 440.751 221.218 440.577 221.298C440.027 221.549 440.201 222.367 440.465 222.91C443.556 229.294 446.939 235.536 450.6 241.611C452.182 244.236 453.858 246.878 456.225 248.824C459.376 251.414 463.509 252.548 467.577 252.841C471.645 253.135 475.724 252.658 479.793 252.379C488.852 251.758 497.978 252.122 506.96 253.46C511.861 254.191 516.718 255.211 521.632 255.844C530.464 256.982 539.457 256.86 548.255 255.483ZM666.524 306.144C670.095 305.192 673.725 304.458 677.385 303.947C679.03 297.852 680.675 291.758 682.32 285.663C678.865 286.663 675.361 287.492 671.824 288.145C669.022 288.663 666.201 289.07 663.379 289.463C643.413 292.238 623.342 294.262 603.223 295.53C602.113 295.599 601.419 296.724 600.916 297.716C598.328 302.82 595.74 307.924 593.152 313.029C592.953 313.42 592.75 313.865 592.886 314.283C592.981 314.573 593.224 314.787 593.456 314.985C594.634 315.994 595.812 317.002 596.99 318.011C598.102 318.963 599.526 319.98 600.902 319.479C617.325 313.491 635.492 314.608 652.424 310.263C657.167 309.046 661.792 307.405 666.524 306.144ZM84.4986 230.888C81.838 236.049 79.1774 241.21 76.5168 246.371C76.0425 247.291 75.5554 248.268 75.6143 249.301C75.6595 250.094 76.0239 250.83 76.4036 251.528C80.43 258.925 87.0934 264.851 94.9099 267.987C95.8916 268.381 96.9447 268.738 97.9885 268.566C99.3128 268.348 100.346 267.332 101.242 266.332C109.42 257.21 114.003 245.109 114.715 232.878C115.427 220.647 112.384 208.328 106.772 197.437C105.715 198.516 104.658 199.595 103.601 200.674C101.249 203.074 98.7018 206.248 99.7973 209.424C102.147 216.236 101.997 224.263 97.8321 230.143C95.9736 232.766 92.8909 234.993 89.7477 234.317C87.8369 233.906 86.2943 232.497 85.084 230.962C83.6318 229.121 82.512 227.018 81.7944 224.786C79.2838 228.065 75.7647 230.562 71.8396 231.848C70.2993 232.352 70.3231 234.523 70.6976 236.1C71.6534 240.124 72.8929 244.081 74.4039 247.931C76.6171 242.339 79.3662 236.96 82.6015 231.891C83.0315 231.217 83.8253 230.458 84.4986 230.888ZM96.4512 179.348C105.006 187.34 109.77 198.563 113.179 209.762C113.9 212.131 114.572 214.517 115.091 216.939C119.04 235.358 113.434 255.561 100.559 269.312C105.373 269.107 110.149 268.044 114.596 266.189C115.488 265.817 116.389 265.398 117.067 264.708C118.095 263.662 118.462 262.154 118.789 260.724C120.828 251.786 122.876 242.792 123.328 233.636C123.959 220.825 121.44 208.029 117.638 195.779C116.912 193.438 116.137 191.11 115.203 188.843C112.153 181.443 107.388 174.755 101.389 169.456C97.7401 166.233 92.8803 163.385 88.2254 164.812C85.3406 165.696 83.177 168.06 81.3306 170.447C71.7213 182.867 66.7266 198.775 67.5128 214.459C69.2253 203.722 73.341 193.375 79.4714 184.396C81.0956 182.016 82.9136 179.682 85.3539 178.151C87.7942 176.62 90.9826 176.015 93.5878 177.244C94.6634 177.752 95.5822 178.536 96.4512 179.348ZM607.515 285.588C606.94 286.067 606.591 286.756 606.257 287.425C605.212 289.52 604.168 291.614 603.123 293.709C629.587 291.777 656.169 289.828 682.047 283.964C682.981 281.302 683.298 278.426 682.967 275.625C682.927 275.284 682.869 274.926 682.65 274.662C682.235 274.162 681.465 274.221 680.823 274.325C663.73 277.092 646.637 279.859 629.544 282.625C623.451 283.611 617.334 284.6 611.163 284.719C609.887 284.743 608.495 284.771 607.515 285.588ZM83.1823 209.454C84.2607 206.041 86.3386 202.801 89.474 201.075C92.3167 199.51 93.4762 196.092 94.398 192.981C95.3516 189.762 96.3052 186.543 97.2588 183.325C97.4124 182.806 97.0034 182.305 96.6258 181.918C94.788 180.035 92.654 178.019 90.0226 178.003C87.8382 177.989 85.9065 179.387 84.3294 180.899C79.5724 185.457 76.5192 191.484 73.8916 197.526C72.9432 199.707 72.0373 201.908 71.2882 204.165C68.4229 212.799 67.9242 222.204 69.8606 231.092C72.5295 230.054 75.2395 228.992 77.5055 227.241C79.7715 225.49 81.5724 222.921 81.722 220.061C81.909 216.486 82.1038 212.867 83.1823 209.454ZM95.8158 163.663C103.409 168.15 109.729 174.766 113.866 182.556C114.676 184.082 115.404 185.652 116.094 187.237C126.574 211.327 127.858 239.286 119.63 264.236C121.373 262.656 123.723 261.891 125.519 260.373C129.195 257.267 129.736 251.893 129.944 247.086C130.845 226.317 130.448 204.839 122.209 185.752C119.192 178.764 115.159 172.216 110.276 166.377C109.478 165.423 108.621 164.46 107.491 163.942C106.29 163.392 104.917 163.405 103.597 163.433C101.003 163.489 98.4088 163.565 95.8158 163.663ZM688.466 282.701C688.214 279.887 686.941 277.284 686 274.619C685.059 271.955 684.453 268.96 685.531 266.348C686.865 263.113 686.729 259.407 685.718 256.057C684.706 252.707 682.875 249.664 680.87 246.796C677.002 241.262 672.419 236.229 667.27 231.86C669.344 245.104 676.062 257.083 682.35 268.922C683.494 271.075 684.646 273.29 684.98 275.705C685.26 277.731 684.948 279.788 684.605 281.805C683.285 289.572 681.502 297.261 679.269 304.817C678.795 306.421 679.59 308.101 680.408 309.56C683.368 314.837 686.941 319.77 691.033 324.226C689.841 320.457 688.65 316.687 687.458 312.918C685.93 308.083 684.382 303.049 685.085 298.026C685.813 292.815 688.933 287.942 688.466 282.701ZM93.7114 154.389C89.1211 153.071 83.7411 153.593 80.218 156.818C73.3034 163.146 68.9953 171.976 66.9984 181.134C65.0016 190.292 65.1865 199.803 66.2306 209.118C66.3464 194.634 71.5333 180.24 80.6829 169.011C82.3325 166.987 84.1628 165.019 86.5018 163.857C89.0933 162.571 92.0736 162.385 94.9624 162.222C98.6335 162.016 102.305 161.81 105.976 161.603C102.262 158.6 98.3018 155.708 93.7114 154.389ZM92.9843 202.084C90.9204 201.701 88.8107 202.861 87.4975 204.499C86.1843 206.136 85.5176 208.186 84.9181 210.198C83.9277 213.521 83.0423 216.916 82.9666 220.382C82.8909 223.849 83.6886 227.43 85.7826 230.193C86.8396 231.588 88.2932 232.787 90.0189 233.078C92.9589 233.575 95.6978 231.334 97.2895 228.812C100.619 223.537 100.783 216.732 99.056 210.738C98.9113 210.236 98.7501 209.728 98.4524 209.299C98.1163 208.814 97.6158 208.443 97.3681 207.908C97.1205 207.372 97.3104 206.558 97.8957 206.484C96.7664 204.514 95.2176 202.498 92.9843 202.084ZM691.911 328.082C689.391 324.828 686.87 321.574 684.349 318.321C682.037 315.336 679.679 312.265 678.57 308.656C676.682 314.709 674.794 320.763 672.907 326.816C672.782 327.214 672.661 327.661 672.849 328.034C673.112 328.559 673.812 328.642 674.398 328.658C679.067 328.781 683.735 328.905 688.404 329.029C689.657 329.062 691.084 329.023 691.911 328.082ZM105.913 195.592C106.083 194.903 105.77 194.195 105.449 193.561C103.84 190.375 101.862 187.376 99.5665 184.642C99.234 184.246 98.4551 183.943 98.347 184.448C97.1401 190.091 95.2273 195.582 92.6672 200.754C95.1256 201.423 97.3038 203.068 98.6199 205.25C100.304 202.229 102.423 199.451 104.89 197.028C105.315 196.61 105.77 196.171 105.913 195.592ZM422.859 307.11C422.998 306.691 422.894 306.201 422.598 305.873C422.275 306.836 422.28 307.906 422.612 308.866C422.919 308.349 423.008 307.708 422.853 307.128L422.859 307.11ZM426.433 329.808C426.185 329.918 425.937 330.028 425.689 330.138C426.483 330.512 427.444 330.512 428.238 330.137C427.703 329.862 427.071 329.784 426.486 329.92L426.433 329.808Z" fill="#00160A"/>
<path fill-rule="evenodd" clip-rule="evenodd" d="M418.956 302.935C418.182 302.935 417.481 303.248 416.973 303.756C416.466 304.263 416.152 304.964 416.152 305.739C416.152 306.216 416.27 306.665 416.482 307.057C416.594 307.265 416.733 307.459 416.899 307.635C416.701 307.772 416.522 307.932 416.366 308.112C415.941 308.604 415.684 309.245 415.684 309.945C415.684 310.501 415.846 311.02 416.125 311.456C416.414 311.906 416.828 312.268 417.318 312.493L418.818 313.181L417.456 314.113C416.104 315.04 415.217 316.595 415.217 318.358C415.217 319.032 415.346 319.676 415.582 320.264C415.678 320.506 415.794 320.741 415.929 320.969C415.693 321.092 415.465 321.229 415.245 321.381C413.517 322.573 412.413 324.578 412.413 327.238C412.413 327.586 412.432 327.922 412.468 328.247C412.145 328.199 411.815 328.173 411.478 328.173C409.671 328.173 408.035 328.906 406.851 330.09C405.667 331.274 404.935 332.91 404.935 334.716C404.935 336.523 405.667 338.159 406.851 339.343C408.035 340.527 409.671 341.26 411.478 341.26C413.3 341.26 414.948 340.513 416.132 339.256C417.307 338.007 418.021 336.26 418.021 334.249C418.021 333.904 418 333.567 417.96 333.239C418.284 333.289 418.617 333.314 418.956 333.314C420.763 333.314 422.399 332.582 423.583 331.398C424.767 330.214 425.499 328.578 425.499 326.771C425.499 325.312 425.022 323.964 424.215 322.877C424.056 322.663 423.884 322.459 423.7 322.265C423.9 322.094 424.086 321.908 424.257 321.71C425.031 320.81 425.499 319.639 425.499 318.358C425.499 316.869 424.866 315.527 423.854 314.589C423.57 314.326 423.256 314.095 422.92 313.901C423.257 313.748 423.558 313.53 423.807 313.264C424.277 312.763 424.565 312.089 424.565 311.347C424.565 310.63 424.295 309.976 423.853 309.48C423.405 308.979 422.781 308.64 422.077 308.562L420.643 308.402L421.375 307.159C421.62 306.742 421.76 306.257 421.76 305.739C421.76 304.964 421.446 304.263 420.939 303.756C420.431 303.248 419.73 302.935 418.956 302.935Z" fill="white" stroke="#00160A" stroke-width="1.86952"/>
<path fill-rule="evenodd" clip-rule="evenodd" d="M385.3 231.55C384.802 232.144 384.111 232.479 383.396 232.542C382.681 232.604 381.942 232.394 381.349 231.896C380.984 231.59 380.716 231.21 380.551 230.796C380.464 230.577 380.405 230.345 380.377 230.105C380.145 230.169 379.907 230.203 379.669 230.206C379.019 230.216 378.363 230.001 377.826 229.55C377.4 229.193 377.107 228.736 376.953 228.242C376.794 227.731 376.782 227.181 376.925 226.662L377.362 225.07L375.772 225.514C374.194 225.954 372.432 225.634 371.081 224.501C370.565 224.068 370.155 223.555 369.856 222.996C369.733 222.767 369.627 222.526 369.539 222.277C369.293 222.379 369.041 222.465 368.784 222.536C366.76 223.093 364.514 222.651 362.476 220.941C362.21 220.717 361.964 220.487 361.739 220.25C361.569 220.528 361.376 220.798 361.159 221.056C359.998 222.44 358.385 223.222 356.717 223.368C355.049 223.514 353.325 223.024 351.941 221.862C350.557 220.701 349.774 219.089 349.628 217.42C349.482 215.752 349.973 214.028 351.134 212.644C352.306 211.248 353.937 210.465 355.661 210.367C357.373 210.269 359.17 210.845 360.711 212.138C360.975 212.36 361.22 212.592 361.445 212.834C361.616 212.554 361.81 212.282 362.028 212.023C363.189 210.639 364.802 209.856 366.47 209.71C368.138 209.564 369.862 210.055 371.246 211.216C372.364 212.154 373.089 213.386 373.403 214.703C373.465 214.962 373.511 215.225 373.541 215.491C373.8 215.448 374.062 215.425 374.324 215.421C375.512 215.406 376.71 215.801 377.691 216.624C378.832 217.581 379.452 218.929 379.52 220.307C379.539 220.694 379.515 221.082 379.447 221.465C379.781 221.305 380.141 221.214 380.505 221.194C381.191 221.157 381.893 221.37 382.46 221.846C383.01 222.307 383.338 222.934 383.433 223.592C383.529 224.257 383.388 224.953 382.996 225.542L382.196 226.744L383.619 226.982C384.096 227.062 384.557 227.267 384.954 227.6C385.547 228.097 385.883 228.789 385.945 229.503C386.008 230.218 385.798 230.957 385.3 231.55Z" fill="white" stroke="#00160A" stroke-width="1.86952"/>
<path fill-rule="evenodd" clip-rule="evenodd" d="M372.231 239.792C371.598 240.546 370.72 240.972 369.811 241.051C368.902 241.131 367.962 240.864 367.208 240.231C366.941 240.007 366.715 239.752 366.532 239.476C366.429 239.321 366.338 239.157 366.26 238.983C366.075 239.023 365.888 239.049 365.7 239.059C364.826 239.109 363.932 238.838 363.208 238.231C362.623 237.74 362.235 237.102 362.054 236.416C361.867 235.711 361.898 234.955 362.157 234.259L362.832 232.446L360.992 233.044C359.045 233.677 356.89 233.38 355.28 232.029C354.806 231.631 354.413 231.171 354.102 230.667C353.971 230.454 353.852 230.231 353.749 229.999C353.512 230.099 353.27 230.189 353.022 230.268C350.589 231.046 347.95 230.702 345.994 229.061C345.809 228.906 345.634 228.742 345.472 228.571L344.773 227.835L344.096 228.592C342.556 230.317 340.543 231.347 338.512 231.603C336.539 231.851 334.549 231.366 332.994 230.061C331.402 228.725 330.577 226.791 330.512 224.753C330.445 222.661 331.176 220.459 332.705 218.637C334.233 216.815 336.275 215.714 338.347 215.416C340.365 215.126 342.413 215.603 344.005 216.938C344.192 217.095 344.367 217.259 344.531 217.43L345.23 218.161L345.904 217.407C347.444 215.682 349.457 214.652 351.488 214.397C353.461 214.148 355.451 214.634 357.005 215.938C358.24 216.974 359.014 218.37 359.328 219.895C359.381 220.149 359.42 220.405 359.446 220.662C359.7 220.639 359.955 220.632 360.211 220.641C361.471 220.685 362.705 221.119 363.72 221.971C365.203 223.215 365.887 225.072 365.761 226.941C365.736 227.319 365.678 227.691 365.588 228.054C365.939 227.961 366.298 227.923 366.654 227.938C367.412 227.97 368.166 228.243 368.792 228.769C369.387 229.268 369.778 229.921 369.956 230.622C370.138 231.341 370.094 232.109 369.815 232.812C369.643 233.245 369.389 233.634 369.074 233.962C369.544 233.904 370.005 233.941 370.439 234.059C370.921 234.19 371.383 234.426 371.792 234.769C372.546 235.402 372.972 236.28 373.052 237.189C373.131 238.098 372.864 239.037 372.231 239.792Z" fill="white" stroke="#00160A" stroke-width="1.86952"/>
<path fill-rule="evenodd" clip-rule="evenodd" d="M120.954 217.799C120.18 217.799 119.479 218.113 118.971 218.621C118.464 219.128 118.15 219.829 118.15 220.604C118.15 221.08 118.268 221.53 118.48 221.922C118.592 222.129 118.731 222.324 118.897 222.5C118.699 222.636 118.52 222.797 118.364 222.977C117.939 223.469 117.682 224.109 117.682 224.81C117.682 225.366 117.844 225.885 118.123 226.32C118.412 226.77 118.826 227.133 119.316 227.357L120.816 228.045L119.454 228.978C118.102 229.905 117.215 231.46 117.215 233.223C117.215 233.897 117.344 234.54 117.58 235.129C117.676 235.371 117.792 235.606 117.927 235.834C117.691 235.957 117.463 236.094 117.243 236.246C115.515 237.438 114.411 239.443 114.411 242.103C114.411 242.451 114.43 242.787 114.466 243.112C114.143 243.063 113.813 243.038 113.476 243.038C111.669 243.038 110.033 243.77 108.849 244.954C107.665 246.138 106.933 247.774 106.933 249.581C106.933 251.388 107.665 253.024 108.849 254.208C110.033 255.392 111.669 256.125 113.476 256.125C115.298 256.125 116.946 255.378 118.13 254.12C119.305 252.872 120.019 251.125 120.019 249.114C120.019 248.769 119.998 248.432 119.958 248.104C120.282 248.153 120.615 248.179 120.954 248.179C122.761 248.179 124.397 247.447 125.581 246.263C126.765 245.078 127.497 243.443 127.497 241.636C127.497 240.177 127.02 238.829 126.213 237.742C126.054 237.528 125.882 237.324 125.698 237.13C125.898 236.959 126.084 236.773 126.255 236.575C127.029 235.675 127.497 234.503 127.497 233.223C127.497 231.733 126.864 230.392 125.852 229.454C125.568 229.191 125.254 228.96 124.918 228.766C125.255 228.613 125.556 228.395 125.805 228.129C126.275 227.628 126.563 226.954 126.563 226.212C126.563 225.495 126.294 224.841 125.851 224.345C125.403 223.844 124.779 223.505 124.075 223.427L122.641 223.267L123.373 222.023C123.618 221.607 123.758 221.122 123.758 220.604C123.758 219.829 123.444 219.128 122.937 218.621C122.429 218.113 121.728 217.799 120.954 217.799Z" fill="white" stroke="#00160A" stroke-width="1.86952"/>
<path fill-rule="evenodd" clip-rule="evenodd" d="M120.954 243.038C119.141 243.038 117.499 243.777 116.316 244.991C115.136 246.202 114.413 247.884 114.414 249.775C114.415 250.372 114.487 250.948 114.624 251.495C114.15 251.146 113.643 250.859 113.115 250.636C112.221 250.258 111.237 250.049 110.205 250.049C108.14 250.049 106.27 250.886 104.917 252.239C103.564 253.592 102.727 255.462 102.727 257.527C102.727 259.592 103.564 261.461 104.917 262.815C106.27 264.168 108.14 265.005 110.205 265.005C112.765 265.005 115.024 263.719 116.372 261.758C116.543 261.509 116.699 261.25 116.839 260.984C117.078 261.164 117.329 261.325 117.589 261.466C118.45 261.935 119.438 262.201 120.487 262.201C122.165 262.201 123.684 261.521 124.783 260.421C125.883 259.322 126.563 257.803 126.563 256.125C126.563 255.426 126.445 254.756 126.343 253.294C127.072 252.239 127.498 250.96 127.498 249.581C127.498 247.775 126.765 246.139 125.581 244.955C124.397 243.77 122.761 243.038 120.954 243.038Z" fill="white" stroke="#00160A" stroke-width="1.86952"/>
<path fill-rule="evenodd" clip-rule="evenodd" d="M104.129 257.994C101.96 257.994 99.9826 258.815 98.4854 260.162C96.9687 261.527 95.9438 263.432 95.7103 265.574C95.6782 265.868 95.6617 266.161 95.6601 266.452C95.3713 266.422 95.0779 266.407 94.781 266.407C92.4579 266.407 90.3547 267.349 88.8322 268.871C87.3098 270.393 86.3682 272.497 86.3682 274.82C86.3682 277.143 87.3098 279.246 88.8322 280.769C90.3547 282.291 92.4579 283.233 94.781 283.233C96.5113 283.233 98.1197 282.711 99.4567 281.815C100.835 280.892 101.926 279.572 102.564 278.019C102.708 277.67 102.827 277.313 102.921 276.952C103.226 277.174 103.544 277.374 103.873 277.552C105.062 278.195 106.422 278.559 107.868 278.559C109.747 278.559 111.483 277.943 112.883 276.901C114.318 275.834 115.402 274.32 115.927 272.565C116.013 272.279 116.083 271.991 116.137 271.701C116.419 271.791 116.703 271.862 116.988 271.913C117.365 271.98 117.753 272.016 118.15 272.016C119.957 272.016 121.593 271.283 122.777 270.099C123.961 268.915 124.693 267.279 124.693 265.472C124.693 263.665 123.961 262.03 122.777 260.845C121.593 259.661 119.957 258.929 118.15 258.929C115.892 258.929 113.902 260.073 112.726 261.812C112.407 262.284 112.151 262.796 111.964 263.333C111.752 262.798 111.487 262.284 111.17 261.801C109.667 259.509 107.075 257.994 104.129 257.994Z" fill="white" stroke="#00160A" stroke-width="1.86952"/>
<path fill-rule="evenodd" clip-rule="evenodd" d="M49.9119 220.604C47.5887 220.604 45.4855 221.545 43.9631 223.068C42.4407 224.59 41.499 226.693 41.499 229.016C41.499 231.022 42.2006 232.863 43.372 234.309C44.5654 235.781 46.2459 236.843 48.1688 237.247C48.6012 237.338 49.0357 237.393 49.4688 237.415C49.2226 237.781 49.0074 238.163 48.824 238.556C48.3222 239.634 48.0424 240.836 48.0424 242.103C48.0424 244.521 49.0627 246.701 50.6963 248.235C51.3313 248.832 52.0579 249.329 52.8507 249.706C52.0315 249.514 51.1633 249.541 50.3436 249.806C49.3923 250.113 48.5746 250.718 47.9989 251.509C47.4381 252.28 47.1076 253.229 47.1076 254.255C47.1076 255.546 47.6307 256.714 48.4765 257.56C49.3223 258.406 50.4908 258.929 51.7814 258.929C52.8077 258.929 53.7568 258.598 54.5276 258.037C55.3188 257.462 55.9227 256.644 56.2294 255.693C56.4851 254.9 56.5189 254.062 56.3458 253.266C56.7394 254.028 57.2238 254.726 57.8004 255.34C58.9907 256.607 60.5661 257.504 62.332 258.033C62.5634 258.103 62.7954 258.165 63.0278 258.22C63.0085 258.453 62.9985 258.69 62.9985 258.929C62.9985 260.79 63.6031 262.511 64.627 263.904C65.6771 265.333 67.1678 266.419 68.8992 266.959C69.1128 267.026 69.3281 267.083 69.5446 267.132C69.5391 267.354 69.5421 267.577 69.5542 267.801C69.6736 270.024 70.656 272.017 72.1717 273.452C73.6792 274.879 75.7147 275.754 77.9547 275.754C78.1861 275.754 78.4154 275.745 78.6416 275.726L79.3104 275.671L79.5769 276.287C80.2329 277.803 81.3226 279.089 82.6893 279.987C84.0138 280.857 85.599 281.363 87.3023 281.363C89.6255 281.363 91.7287 280.421 93.2511 278.899C94.7736 277.377 95.7152 275.273 95.7152 272.95C95.7152 270.627 94.7736 268.524 93.2511 267.001C91.7287 265.479 89.6255 264.537 87.3023 264.537C87.07 264.537 86.8398 264.547 86.6132 264.565L85.9458 264.619L85.68 264.004C84.7146 261.773 82.811 260.042 80.4668 259.31C80.2533 259.244 80.0381 259.186 79.8217 259.137C79.827 258.916 79.824 258.693 79.8119 258.468C79.7089 256.555 78.9663 254.813 77.7966 253.428C76.5926 252.002 74.9368 250.955 73.0557 250.488C72.8091 250.427 72.5613 250.377 72.3128 250.336C72.3348 250.088 72.3462 249.836 72.3462 249.581C72.3462 246.8 70.9969 244.335 68.9185 242.804C68.7579 242.686 68.5932 242.574 68.4249 242.467C68.4784 242.28 68.5198 242.093 68.5494 241.906C68.5874 241.665 68.6071 241.419 68.6071 241.168C68.6071 239.625 67.859 238.256 66.707 237.406C66.4646 237.227 66.2056 237.072 65.9339 236.943C66.1248 236.694 66.3013 236.436 66.4625 236.17C67.2306 234.901 67.6723 233.412 67.6723 231.821C67.6723 229.498 66.7307 227.394 65.2083 225.872C63.6859 224.349 61.5826 223.408 59.2595 223.408C58.5174 223.408 57.7977 223.504 57.1123 223.684C56.9251 223.733 56.7387 223.789 56.5535 223.852C56.4338 223.698 56.3088 223.549 56.1788 223.404C54.6384 221.685 52.4014 220.604 49.9119 220.604Z" fill="white" stroke="#00160A" stroke-width="1.86952"/>
<path fill-rule="evenodd" clip-rule="evenodd" d="M47.1082 207.517C44.785 207.517 42.6818 208.459 41.1594 209.981C39.637 211.504 38.6953 213.607 38.6953 215.93C38.6953 217.486 39.1172 218.943 39.8534 220.193C40.616 221.488 41.7153 222.561 43.4974 223.946C43.8482 225.934 44.8978 227.681 46.3826 228.925C47.8437 230.149 49.7268 230.886 51.782 230.886C53.6602 230.886 55.3948 230.271 56.7947 229.23C58.2295 228.164 59.3132 226.652 59.8394 224.898C59.9237 224.618 59.9926 224.334 60.0464 224.049C60.3269 224.133 60.6086 224.198 60.8898 224.245C61.271 224.309 61.6635 224.343 62.0644 224.343C63.8785 224.343 65.5232 223.658 66.7128 222.542C67.8799 221.448 68.6077 219.938 68.6077 218.267C68.6077 216.596 67.8799 215.086 66.7128 213.991C65.5232 212.876 63.8785 212.191 62.0644 212.191C59.9942 212.191 58.1435 213.083 56.9415 214.49L55.7265 215.912L55.3186 214.087C54.8944 212.188 53.8281 210.532 52.3602 209.357C50.9209 208.206 49.0949 207.517 47.1082 207.517Z" fill="white" stroke="#00160A" stroke-width="1.86952"/>
<path fill-rule="evenodd" clip-rule="evenodd" d="M53.6509 194.431C51.7163 194.431 49.974 195.21 48.771 196.459C48.6339 196.602 48.5033 196.751 48.3794 196.906C48.1919 196.83 48.0027 196.762 47.812 196.701C47.0007 196.441 46.1358 196.3 45.2381 196.3C42.9149 196.3 40.8117 197.242 39.2893 198.764C37.7668 200.287 36.8252 202.39 36.8252 204.713C36.8252 207.036 37.7668 209.139 39.2893 210.662C40.8117 212.184 42.9149 213.126 45.2381 213.126C46.9342 213.126 48.5133 212.624 49.8343 211.76C51.1975 210.869 52.2864 209.593 52.9462 208.086L54.102 205.447L54.7158 208.262C55.0202 209.659 55.8402 210.877 56.9748 211.744C58.1076 212.61 59.5543 213.126 61.129 213.126C62.9431 213.126 64.5878 212.441 65.7775 211.325C66.9446 210.231 67.6723 208.721 67.6723 207.05C67.6723 205.378 66.944 203.868 65.7744 202.774C64.5825 201.659 62.934 200.974 61.1128 200.974C60.7923 200.974 60.4772 200.996 60.1689 201.037C60.1978 200.731 60.2022 200.419 60.1802 200.105C60.0691 198.521 59.3034 197.107 58.142 196.089C56.9666 195.058 55.3864 194.431 53.6509 194.431Z" fill="white" stroke="#00160A" stroke-width="1.86952"/>
<path d="M36.8259 209.387C41.4722 209.387 45.2388 205.62 45.2388 200.974C45.2388 196.328 41.4722 192.561 36.8259 192.561C32.1796 192.561 28.4131 196.328 28.4131 200.974C28.4131 205.62 32.1796 209.387 36.8259 209.387Z" fill="white" stroke="#00160A" stroke-width="1.86952"/>
<path d="M65.8027 261.733C68.384 261.733 70.4765 259.641 70.4765 257.06C70.4765 254.478 68.384 252.386 65.8027 252.386C63.2214 252.386 61.1289 254.478 61.1289 257.06C61.1289 259.641 63.2214 261.733 65.8027 261.733Z" fill="white" stroke="#00160A" stroke-width="1.86952"/>
<path d="M39.6299 250.516C42.2111 250.516 44.3037 248.424 44.3037 245.842C44.3037 243.261 42.2111 241.168 39.6299 241.168C37.0486 241.168 34.9561 243.261 34.9561 245.842C34.9561 248.424 37.0486 250.516 39.6299 250.516Z" fill="white" stroke="#00160A" stroke-width="1.86952"/>
<path d="M25.6084 225.277C28.1897 225.277 30.2822 223.185 30.2822 220.604C30.2822 218.022 28.1897 215.93 25.6084 215.93C23.0271 215.93 20.9346 218.022 20.9346 220.604C20.9346 223.185 23.0271 225.277 25.6084 225.277Z" fill="white" stroke="#00160A" stroke-width="1.86952"/>
<path d="M33.0869 234.625C35.6682 234.625 37.7607 232.532 37.7607 229.951C37.7607 227.37 35.6682 225.277 33.0869 225.277C30.5056 225.277 28.4131 227.37 28.4131 229.951C28.4131 232.532 30.5056 234.625 33.0869 234.625Z" fill="white" stroke="#00160A" stroke-width="1.86952"/>
<path fill-rule="evenodd" clip-rule="evenodd" d="M89.6394 148.627C86.6709 148.627 83.9835 149.83 82.0382 151.775C80.0929 153.721 78.8896 156.408 78.8896 159.377C78.8896 162.169 79.9543 164.713 81.6998 166.624C83.4607 168.552 85.9142 169.837 88.6668 170.083C88.837 170.098 89.0068 170.109 89.176 170.116C89.2491 170.269 89.3257 170.421 89.4064 170.57C90.2496 172.134 91.5049 173.444 93.0269 174.353C94.4968 175.231 96.2157 175.735 98.0523 175.735C98.3446 175.735 98.6339 175.722 98.9191 175.697L100.476 175.556L99.8631 176.994C99.5998 177.612 99.4544 178.292 99.4544 179.007C99.4544 180.426 100.03 181.712 100.96 182.642C101.891 183.572 103.176 184.148 104.596 184.148C106.015 184.148 107.301 183.572 108.231 182.642C109.161 181.712 109.737 180.426 109.737 179.007C109.737 177.812 109.329 176.712 108.645 175.839C107.946 174.947 106.96 174.292 105.825 174.015C105.115 173.842 104.389 173.826 103.693 173.953C104.301 173.525 104.858 173.031 105.352 172.482C106.916 170.743 107.867 168.443 107.867 165.92C107.867 163.645 107.094 161.551 105.795 159.887C104.468 158.187 102.594 156.935 100.436 156.398C100.271 156.356 100.105 156.32 99.9391 156.288C99.8902 156.125 99.8374 155.963 99.7806 155.801C99.0337 153.683 97.6414 151.869 95.8403 150.595C94.0883 149.355 91.9488 148.627 89.6394 148.627Z" fill="white" stroke="#00160A" stroke-width="1.86952"/>
<path fill-rule="evenodd" clip-rule="evenodd" d="M112.074 170.127C110.654 170.127 109.369 170.702 108.439 171.632C107.508 172.563 106.933 173.848 106.933 175.268C106.933 176.687 107.508 177.973 108.439 178.903C109.369 179.833 110.654 180.409 112.074 180.409C113.494 180.409 114.779 179.833 115.709 178.903C116.64 177.973 117.215 176.687 117.215 175.268C117.215 173.848 116.64 172.563 115.709 171.632C114.779 170.702 113.494 170.127 112.074 170.127ZM98.9873 145.823C96.4008 145.823 94.0575 146.82 92.362 148.439C90.6825 150.042 89.6396 152.256 89.6396 154.703C89.6396 157.15 90.6825 159.364 92.362 160.967C94.0575 162.586 96.4008 163.583 98.9873 163.583C101.574 163.583 103.917 162.586 105.613 160.967C107.292 159.364 108.335 157.15 108.335 154.703C108.335 152.256 107.292 150.042 105.613 148.439C103.917 146.82 101.574 145.823 98.9873 145.823Z" fill="white" stroke="#00160A" stroke-width="1.86952"/>
<path fill-rule="evenodd" clip-rule="evenodd" d="M108.335 158.91C106.716 158.91 105.226 159.458 104.04 160.379C102.827 161.321 101.931 162.651 101.54 164.184C101.498 164.349 101.462 164.515 100.956 164.831C99.9584 165.197 99.1058 165.863 98.5073 166.72C97.9258 167.553 97.585 168.567 97.585 169.659C97.585 171.079 98.1604 172.364 99.0908 173.295C100.021 174.225 101.306 174.801 102.726 174.801C104.218 174.801 105.562 174.165 106.82 172.768C106.987 172.804 107.154 172.834 107.321 172.858C107.652 172.906 107.99 172.931 108.335 172.931C110.271 172.931 112.023 172.146 113.292 170.878C114.561 169.609 115.345 167.856 115.345 165.92C115.345 163.984 114.561 162.232 113.292 160.963C112.023 159.694 110.271 158.91 108.335 158.91Z" fill="white" stroke="#00160A" stroke-width="1.86952"/>
<path d="M77.0201 174.8C81.1501 174.8 84.4982 171.661 84.4982 167.79C84.4982 163.918 81.1501 160.779 77.0201 160.779C72.89 160.779 69.542 163.918 69.542 167.79C69.542 171.661 72.89 174.8 77.0201 174.8Z" fill="white" stroke="#00160A" stroke-width="1.86952"/>
<path fill-rule="evenodd" clip-rule="evenodd" d="M64.8681 145.823C63.054 145.823 61.4093 146.508 60.2196 147.623C59.0525 148.717 58.3248 150.227 58.3248 151.899C58.3248 153.181 58.7531 154.369 59.4797 155.346C59.7425 155.7 60.0431 156.024 60.3778 156.311C59.9513 156.414 59.5314 156.561 59.1256 156.751C58.0361 157.26 57.1183 158.046 56.4805 159.012C55.8726 159.933 55.5205 161.018 55.5205 162.181C55.5205 163.852 56.2482 165.362 57.4154 166.456C58.605 167.572 60.2497 168.257 62.0638 168.257C64.4585 168.257 66.5617 167.062 67.7048 165.26C67.9672 164.846 68.1791 164.401 68.3375 163.933C68.5764 164.368 68.8624 164.772 69.1895 165.136C70.3945 166.477 72.201 167.322 74.2157 167.322C76.0299 167.322 77.6746 166.637 78.8642 165.522C80.0313 164.428 80.7591 162.918 80.7591 161.246C80.7591 159.575 80.0313 158.065 78.8642 156.971C77.6746 155.856 76.0299 155.17 74.2157 155.17C73.4572 155.17 72.7285 155.29 72.0517 155.512L70.0369 156.174L70.9079 154.24C71.2321 153.52 71.4115 152.729 71.4115 151.899C71.4115 150.227 70.6837 148.717 69.5166 147.623C68.327 146.508 66.6822 145.823 64.8681 145.823Z" fill="white" stroke="#00160A" stroke-width="1.86952"/>
<path fill-rule="evenodd" clip-rule="evenodd" d="M60.1947 130.867C58.3806 130.867 56.7359 131.552 55.5462 132.667C54.3791 133.761 53.6514 135.271 53.6514 136.943C53.6514 138.478 54.2656 139.878 55.2708 140.944C56.3063 142.041 57.7549 142.786 59.3862 142.973L60.2823 143.075L60.1947 144.421C60.1947 146.092 60.9224 147.602 62.0895 148.696C63.2792 149.811 64.9239 150.497 66.738 150.497C67.6383 150.497 68.4966 150.328 69.2772 150.021L70.7894 149.427L70.5429 151.033C70.4995 151.316 70.4771 151.605 70.4771 151.899C70.4771 153.57 71.2048 155.08 72.3719 156.174C73.5616 157.29 75.2063 157.975 77.0204 157.975C78.8345 157.975 80.4792 157.29 81.6689 156.174C82.836 155.08 83.5637 153.57 83.5637 151.899C83.5637 150.228 82.836 148.718 81.6689 147.623C80.4792 146.508 78.8345 145.823 77.0204 145.823C76.1203 145.823 75.2622 145.991 74.482 146.299L72.9684 146.895L73.2154 145.287C73.2589 145.004 73.2814 144.715 73.2814 144.421C73.2814 142.885 72.6671 141.486 71.6619 140.42C70.6265 139.322 69.1779 138.578 67.5466 138.391L66.6503 138.289L66.738 136.943C66.738 135.271 66.0103 133.761 64.8432 132.667C63.6535 131.552 62.0088 130.867 60.1947 130.867Z" fill="white" stroke="#00160A" stroke-width="1.86952"/>
<path d="M72.3461 185.083C75.9599 185.083 78.8894 182.362 78.8894 179.007C78.8894 175.651 75.9599 172.931 72.3461 172.931C68.7323 172.931 65.8027 175.651 65.8027 179.007C65.8027 182.362 68.7323 185.083 72.3461 185.083Z" fill="white" stroke="#00160A" stroke-width="1.86952"/>
<path fill-rule="evenodd" clip-rule="evenodd" d="M56.455 179.53L54.8409 177.815C53.6369 176.536 51.8734 175.735 49.9125 175.735C48.0983 175.735 46.4536 176.421 45.264 177.536C44.0969 178.63 43.3691 180.14 43.3691 181.811C43.3691 183.483 44.0969 184.993 45.264 186.087C46.4536 187.202 48.0983 187.887 49.9125 187.887C51.728 187.887 53.3739 187.201 54.5635 186.08C55.7298 184.98 56.4555 183.462 56.4553 181.774L56.455 179.53ZM56.4566 179.419L58.0707 181.134C59.2747 182.413 61.0382 183.214 62.9991 183.214C65.314 183.214 67.3558 182.097 68.9926 180.039C70.2652 179.605 71.3553 178.813 72.1193 177.79C72.8506 176.811 73.2815 175.62 73.2815 174.333C73.2815 172.662 72.5538 171.152 71.3867 170.058C70.197 168.943 68.5523 168.257 66.7382 168.257C64.4233 168.257 62.3815 169.374 60.7446 171.432C59.471 171.866 58.3803 172.659 57.6165 173.687C56.8857 174.672 56.4561 175.872 56.4563 177.174L56.4566 179.419Z" fill="white" stroke="#00160A" stroke-width="1.86952"/>
<path fill-rule="evenodd" clip-rule="evenodd" d="M61.1292 175.735C59.3151 175.735 57.6704 176.421 56.4808 177.536C55.3136 178.63 54.5859 180.14 54.5859 181.811C54.5859 182.901 54.8948 183.922 55.4345 184.803C55.7083 185.25 56.0414 185.661 56.4299 186.022C55.9072 186.02 55.3768 186.079 54.8505 186.202C53.4118 186.539 52.1596 187.319 51.2743 188.383C50.4225 189.407 49.9121 190.694 49.9121 192.094C49.9121 193.765 50.6398 195.275 51.807 196.369C52.9966 197.484 54.6413 198.17 56.4554 198.17C58.0005 198.17 59.4222 197.673 60.5451 196.836C61.6723 195.997 62.4988 194.815 62.8335 193.455C62.9954 192.797 63.036 192.123 62.966 191.459C63.3474 192.03 63.808 192.532 64.327 192.95C65.4774 193.875 66.9735 194.431 68.6073 194.431C70.4215 194.431 72.0662 193.745 73.2558 192.63C74.4229 191.536 75.1507 190.026 75.1507 188.355C75.1507 186.683 74.4224 185.172 73.2527 184.078C72.0608 182.963 70.4123 182.279 68.5911 182.279C68.2706 182.279 67.9555 182.3 67.6473 182.341C67.6762 182.035 67.6806 181.724 67.6585 181.41C67.5474 179.826 66.7818 178.412 65.6204 177.393C64.445 176.362 62.8647 175.735 61.1292 175.735Z" fill="white" stroke="#00160A" stroke-width="1.86952"/>
<path fill-rule="evenodd" clip-rule="evenodd" d="M313.152 240.935C311.338 240.935 309.693 241.62 308.503 242.735C307.336 243.829 306.608 245.339 306.608 247.011C306.608 248.1 306.917 249.122 307.457 250.003C307.731 250.45 308.064 250.86 308.452 251.221C307.93 251.219 307.399 251.278 306.873 251.401C305.434 251.738 304.182 252.518 303.297 253.582C302.445 254.606 301.935 255.893 301.935 257.293C301.935 258.964 302.662 260.474 303.829 261.568C305.019 262.684 306.664 263.369 308.478 263.369C310.023 263.369 311.445 262.872 312.568 262.036C313.695 261.196 314.521 260.014 314.856 258.654C315.018 257.996 315.058 257.322 314.988 256.658C315.37 257.23 315.831 257.732 316.349 258.149C317.5 259.074 318.996 259.63 320.63 259.63C322.444 259.63 324.089 258.945 325.278 257.829C326.445 256.735 327.173 255.225 327.173 253.554C327.173 251.882 326.445 250.372 325.275 249.278C324.083 248.163 322.435 247.478 320.614 247.478C320.293 247.478 319.978 247.5 319.67 247.541C319.699 247.234 319.703 246.923 319.681 246.609C319.57 245.025 318.804 243.611 317.643 242.592C316.467 241.562 314.887 240.935 313.152 240.935Z" fill="white" stroke="#00160A" stroke-width="1.86952"/>
<path fill-rule="evenodd" clip-rule="evenodd" d="M293.935 270C293.935 272.222 294.889 274.231 296.425 275.686C297.98 277.158 300.129 278.065 302.5 278.065C304.047 278.065 305.498 277.68 306.751 277.003C307.163 276.78 307.56 276.523 307.938 276.231C307.952 276.697 308.008 277.164 308.109 277.627C308.511 279.478 309.587 281.094 311.078 282.244C312.557 283.384 314.445 284.065 316.5 284.065C318.871 284.065 321.02 283.158 322.574 281.686C324.11 280.231 325.065 278.222 325.065 276C325.065 274.202 324.44 272.542 323.386 271.204C322.295 269.818 320.747 268.776 318.956 268.272C318.255 268.075 317.543 267.968 316.836 267.947C317.463 267.609 318.045 267.186 318.567 266.693C320.107 265.237 321.065 263.226 321.065 261C321.065 258.779 320.11 256.77 318.574 255.315C317.02 253.842 314.871 252.935 312.5 252.935C310.128 252.935 307.979 253.842 306.424 255.317C304.889 256.774 303.935 258.785 303.935 261.012L303.935 261.994L302.5 261.935C300.129 261.935 297.98 262.842 296.425 264.315C294.889 265.77 293.935 267.779 293.935 270Z" fill="white" stroke="#00160A" stroke-width="1.86952"/>
<path d="M63.934 204.713C67.5477 204.713 70.4773 201.993 70.4773 198.637C70.4773 195.281 67.5477 192.561 63.934 192.561C60.3202 192.561 57.3906 195.281 57.3906 198.637C57.3906 201.993 60.3202 204.713 63.934 204.713Z" fill="white" stroke="#00160A" stroke-width="1.86952"/>
<path d="M53.6508 176.67C57.2645 176.67 60.1941 173.95 60.1941 170.594C60.1941 167.238 57.2645 164.518 53.6508 164.518C50.037 164.518 47.1074 167.238 47.1074 170.594C47.1074 173.95 50.037 176.67 53.6508 176.67Z" fill="white" stroke="#00160A" stroke-width="1.86952"/>
<path fill-rule="evenodd" clip-rule="evenodd" d="M56.4556 134.605C54.6415 134.605 52.9968 135.291 51.8071 136.406C50.64 137.5 49.9123 139.01 49.9123 140.681C49.9123 142.359 50.6458 143.875 51.8208 144.97C52.2439 145.365 52.7172 145.699 53.2279 145.959C52.6673 146.063 52.115 146.244 51.5877 146.497C50.3385 147.096 49.3198 148.06 48.6998 149.243C48.5847 149.462 48.4836 149.689 48.3966 149.921C48.1567 149.841 47.9151 149.775 47.673 149.722C47.1912 149.617 46.6891 149.562 46.1732 149.562C44.3591 149.562 42.7144 150.247 41.5247 151.362C40.3576 152.456 39.6299 153.966 39.6299 155.638C39.6299 157.309 40.3576 158.819 41.5247 159.913C42.7144 161.028 44.3591 161.714 46.1732 161.714C47.4492 161.714 48.641 161.375 49.65 160.785C50.6805 160.184 51.5206 159.321 52.0595 158.293C52.1746 158.074 52.2757 157.848 52.3626 157.615C52.6026 157.695 52.8442 157.762 53.0863 157.814C53.5681 157.919 54.0702 157.975 54.5861 157.975C56.4002 157.975 58.0449 157.289 59.2346 156.174C60.4017 155.08 61.1294 153.57 61.1294 151.899C61.1294 150.221 60.3958 148.705 59.2198 147.611C58.7949 147.216 58.3193 146.882 57.8062 146.623C58.3687 146.518 58.9231 146.338 59.4523 146.084C60.5258 145.569 61.4288 144.785 62.0558 143.825C62.6534 142.91 62.9989 141.833 62.9989 140.681C62.9989 139.01 62.2712 137.5 61.1041 136.406C59.9144 135.291 58.2697 134.605 56.4556 134.605Z" fill="white" stroke="#00160A" stroke-width="1.86952"/>
<path fill-rule="evenodd" clip-rule="evenodd" d="M51.7816 126.193C50.1985 126.193 48.7449 126.715 47.6095 127.589C46.4729 128.463 45.6549 129.692 45.3592 131.098C45.3101 131.332 45.2762 131.567 45.2569 131.802C45.0188 131.801 44.7783 131.812 44.5365 131.836C43.0305 131.985 41.6749 132.609 40.6474 133.549C39.6351 134.474 38.9415 135.708 38.7489 137.09C38.7224 137.281 38.7058 137.471 38.6987 137.66C38.5135 137.712 38.3294 137.771 38.1471 137.838C36.9174 138.293 35.8682 139.085 35.1343 140.095C34.4328 141.062 34.0211 142.229 34.0211 143.486C34.0211 145.246 34.8284 146.827 36.1062 147.931C36.5566 148.321 37.0573 148.643 37.593 148.887C37.0139 149.024 36.4441 149.224 35.8945 149.484C34.4809 150.152 33.2913 151.177 32.4647 152.435C31.674 153.638 31.2168 155.055 31.2168 156.573C31.2168 158.76 32.1677 160.737 33.6957 162.17C35.2462 163.624 37.3895 164.518 39.7543 164.518C42.1191 164.518 44.2623 163.624 45.8129 162.17C47.3408 160.737 48.2918 158.76 48.2918 156.573C48.2918 156.395 48.2855 156.219 48.2723 156.045L48.2279 155.463L48.7308 155.168C50.5542 154.096 51.7816 152.201 51.7816 150.029C51.7816 148.932 51.468 147.903 50.9216 147.017C50.3479 146.086 49.5186 145.313 48.5259 144.776L47.0048 143.954L48.5255 143.132C50.118 142.27 51.2928 140.797 51.6614 139.048C51.7106 138.814 51.7446 138.579 51.7641 138.344C52.002 138.345 52.2423 138.334 52.4839 138.31C54.1401 138.146 55.6147 137.408 56.6703 136.307C57.6963 135.236 58.3249 133.822 58.3249 132.269C58.3249 130.598 57.5972 129.088 56.43 127.993C55.2404 126.878 53.5957 126.193 51.7816 126.193Z" fill="white" stroke="#00160A" stroke-width="1.86952"/>
<path d="M47.1078 196.3C50.7216 196.3 53.6511 193.58 53.6511 190.224C53.6511 186.868 50.7216 184.148 47.1078 184.148C43.494 184.148 40.5645 186.868 40.5645 190.224C40.5645 193.58 43.494 196.3 47.1078 196.3Z" fill="white" stroke="#00160A" stroke-width="1.86952"/>
<path d="M41.4994 190.691C45.1132 190.691 48.0427 187.971 48.0427 184.615C48.0427 181.26 45.1132 178.54 41.4994 178.54C37.8856 178.54 34.9561 181.26 34.9561 184.615C34.9561 187.971 37.8856 190.691 41.4994 190.691Z" fill="white" stroke="#00160A" stroke-width="1.86952"/>
<path fill-rule="evenodd" clip-rule="evenodd" d="M48.167 157.04C46.2796 157.04 44.537 157.616 42.2965 158.913C40.277 158.97 38.4319 159.679 36.9967 160.827C35.5597 161.977 34.5335 163.568 33.7663 165.975C31.591 167.41 30.1572 169.777 30.1572 172.464C30.1572 174.651 31.1082 176.628 32.6361 178.061C34.1867 179.515 36.3299 180.409 38.6947 180.409C40.7767 180.409 42.6864 179.715 44.1897 178.528C45.7037 177.333 46.8046 175.639 47.2555 173.658C47.3131 173.405 47.3591 173.152 47.3938 172.899C47.6483 172.92 47.9063 172.931 48.167 172.931C50.5318 172.931 52.675 172.036 54.2255 170.583C55.7535 169.15 56.7045 167.173 56.7045 164.986C56.7045 162.798 55.7535 160.821 54.2255 159.388C52.675 157.935 50.5318 157.04 48.167 157.04Z" fill="white" stroke="#00160A" stroke-width="1.86952"/>
<path d="M62.0638 133.671C65.6776 133.671 68.6072 130.951 68.6072 127.595C68.6072 124.239 65.6776 121.519 62.0638 121.519C58.4501 121.519 55.5205 124.239 55.5205 127.595C55.5205 130.951 58.4501 133.671 62.0638 133.671Z" fill="white" stroke="#00160A" stroke-width="1.86952"/>
<path fill-rule="evenodd" clip-rule="evenodd" d="M406.162 331.935C404.349 331.935 402.707 332.673 401.524 333.888C400.344 335.099 399.621 336.78 399.622 338.671C399.623 339.268 399.695 339.844 399.832 340.391C399.358 340.042 398.851 339.756 398.323 339.533C397.429 339.154 396.445 338.945 395.413 338.945C393.348 338.945 391.478 339.782 390.125 341.136C388.772 342.489 387.935 344.358 387.935 346.423C387.935 348.488 388.772 350.358 390.125 351.711C391.478 353.064 393.348 353.901 395.413 353.901C397.973 353.901 400.232 352.615 401.58 350.655C401.751 350.406 401.907 350.147 402.047 349.88C402.286 350.06 402.537 350.221 402.797 350.363C403.658 350.831 404.646 351.097 405.695 351.097C407.373 351.097 408.892 350.417 409.991 349.318C411.091 348.218 411.771 346.699 411.771 345.021C411.771 344.323 411.653 343.652 411.551 342.191C412.28 341.136 412.706 339.857 412.706 338.478C412.706 336.671 411.973 335.035 410.789 333.851C409.605 332.667 407.969 331.935 406.162 331.935Z" fill="white" stroke="#00160A" stroke-width="1.86952"/>
<path fill-rule="evenodd" clip-rule="evenodd" d="M371.074 357.241C372.778 357.862 374.573 357.729 376.101 356.992C377.623 356.258 378.878 354.925 379.523 353.148C379.727 352.587 379.856 352.021 379.915 351.46C380.241 351.95 380.619 352.392 381.039 352.783C381.75 353.444 382.603 353.977 383.573 354.33C385.513 355.036 387.556 354.889 389.291 354.08C391.025 353.272 392.451 351.801 393.158 349.861C393.864 347.92 393.717 345.877 392.908 344.143C392.099 342.408 390.629 340.982 388.688 340.276C386.283 339.4 383.719 339.836 381.782 341.218C381.536 341.393 381.301 341.583 381.079 341.786C380.916 341.535 380.735 341.297 380.539 341.075C379.89 340.341 379.053 339.753 378.067 339.394C376.49 338.82 374.83 338.94 373.421 339.597C372.012 340.254 370.853 341.449 370.279 343.026C370.04 343.682 369.921 344.352 369.518 345.761C368.472 346.503 367.634 347.559 367.163 348.855C366.545 350.553 366.674 352.34 367.381 353.858C368.089 355.376 369.376 356.623 371.074 357.241Z" fill="white" stroke="#00160A" stroke-width="1.86952"/>
<path d="M381.5 364.065C385.678 364.065 389.065 360.678 389.065 356.5C389.065 352.322 385.678 348.935 381.5 348.935C377.322 348.935 373.935 352.322 373.935 356.5C373.935 360.678 377.322 364.065 381.5 364.065Z" fill="white" stroke="#00160A" stroke-width="1.86952"/>
<path d="M391.5 362.065C395.678 362.065 399.065 358.678 399.065 354.5C399.065 350.322 395.678 346.935 391.5 346.935C387.322 346.935 383.935 350.322 383.935 354.5C383.935 358.678 387.322 362.065 391.5 362.065Z" fill="white" stroke="#00160A" stroke-width="1.86952"/>
<path fill-rule="evenodd" clip-rule="evenodd" d="M330.5 217.935C328.998 217.935 327.599 218.372 326.395 219.125C325.116 219.924 324.056 221.078 323.323 222.442C323.233 222.611 323.147 222.782 323.068 222.955C322.88 222.942 322.691 222.935 322.5 222.935C320.411 222.935 318.519 223.781 317.15 225.15C315.781 226.519 314.935 228.411 314.935 230.5C314.935 231.621 315.178 232.685 315.617 233.641C315.833 234.113 316.1 234.566 316.418 234.992C315.905 234.928 315.379 234.917 314.847 234.962C312.902 235.128 311.168 236.03 309.923 237.388C308.688 238.734 307.935 240.529 307.935 242.5C307.935 244.589 308.781 246.48 310.15 247.849C311.519 249.218 313.411 250.065 315.5 250.065C316.201 250.065 316.879 249.97 317.522 249.793C317.729 249.736 317.934 249.67 318.137 249.594C318.254 249.775 318.378 249.951 318.51 250.122C319.894 251.912 322.062 253.065 324.5 253.065C326.589 253.065 328.48 252.218 329.849 250.849C331.218 249.48 332.065 247.589 332.065 245.5C332.065 244.379 331.822 243.315 331.383 242.358C331.167 241.886 330.899 241.433 330.582 241.007C331.095 241.071 331.621 241.083 332.153 241.037C334.098 240.871 335.832 239.969 337.077 238.612C338.312 237.265 339.065 235.471 339.065 233.5C339.065 231.866 338.547 230.352 337.666 229.116C337.567 228.977 337.462 228.841 337.354 228.708C337.426 228.552 337.494 228.395 337.556 228.235C337.885 227.387 338.065 226.464 338.065 225.5C338.065 223.411 337.218 221.519 335.849 220.15C334.48 218.781 332.589 217.935 330.5 217.935Z" fill="white" stroke="#00160A" stroke-width="1.86952"/>
<path d="M339.5 238.065C343.678 238.065 347.065 234.678 347.065 230.5C347.065 226.322 343.678 222.935 339.5 222.935C335.322 222.935 331.935 226.322 331.935 230.5C331.935 234.678 335.322 238.065 339.5 238.065Z" fill="white" stroke="#00160A" stroke-width="1.86952"/>
<path d="M316 274.065C319.35 274.065 322.065 271.35 322.065 268C322.065 264.65 319.35 261.935 316 261.935C312.65 261.935 309.935 264.65 309.935 268C309.935 271.35 312.65 274.065 316 274.065Z" fill="white" stroke="#00160A" stroke-width="1.86952"/>
<path d="M329 222.565C331.797 222.565 334.065 220.297 334.065 217.5C334.065 214.702 331.797 212.435 329 212.435C326.202 212.435 323.935 214.702 323.935 217.5C323.935 220.297 326.202 222.565 329 222.565Z" fill="white" stroke="#00160A" stroke-width="1.86952"/>
<path d="M315 213.065C317.797 213.065 320.065 210.797 320.065 208C320.065 205.202 317.797 202.935 315 202.935C312.202 202.935 309.935 205.202 309.935 208C309.935 210.797 312.202 213.065 315 213.065Z" fill="white" stroke="#00160A" stroke-width="1.86952"/>
<path fill-rule="evenodd" clip-rule="evenodd" d="M310.777 297.935C307.616 297.935 304.861 298.92 302.977 300.548C301.188 302.094 300.2 304.226 300.478 306.591C300.724 308.684 301.894 310.594 303.612 312.099C305.429 313.69 307.861 314.832 310.536 315.268C311.003 315.345 311.471 315.398 311.936 315.429C311.66 315.792 311.425 316.181 311.229 316.592C310.712 317.681 310.493 318.895 310.639 320.175C310.927 322.713 312.562 324.978 314.89 326.582L316.564 327.735L314.598 328.255C313.365 328.581 312.335 329.212 311.66 330.055C311.047 330.821 310.737 331.764 310.854 332.785C311.009 334.149 311.866 335.364 313.079 336.253C314.367 337.197 316.066 337.776 317.867 337.776C319.275 337.776 320.54 337.422 321.532 336.806C322.48 336.218 323.176 335.391 323.465 334.416C323.627 333.868 323.656 333.29 323.567 332.71C324.002 333.159 324.459 333.572 324.936 333.944C326.679 335.302 328.894 336.264 331.323 336.831C331.549 336.884 331.775 336.933 332.001 336.978C332.004 337.2 332.017 337.422 332.04 337.644C332.242 339.582 333.227 341.363 334.704 342.811C336.272 344.349 338.395 345.511 340.775 346.092C340.983 346.143 341.191 346.189 341.399 346.23C341.416 346.436 341.441 346.642 341.476 346.846C341.866 349.178 343.375 351.252 345.493 352.754C347.667 354.296 350.49 355.237 353.49 355.237C353.8 355.237 354.106 355.227 354.407 355.207C354.595 355.194 354.785 355.177 354.975 355.156C355.066 355.321 355.161 355.483 355.261 355.641C357.282 358.849 361.456 361.057 366.041 361.057C369.103 361.057 371.801 360.07 373.676 358.445C375.469 356.89 376.497 354.747 376.298 352.37C376.096 349.943 374.66 347.765 372.549 346.18C370.36 344.537 367.44 343.526 364.311 343.526C363.997 343.526 363.688 343.536 363.384 343.556C363.197 343.568 363.007 343.584 362.817 343.605C362.727 343.44 362.632 343.279 362.533 343.122C361.027 340.733 358.3 338.901 355.094 338.119C354.885 338.068 354.675 338.022 354.466 337.981C354.45 337.773 354.426 337.566 354.393 337.359C354.072 335.363 352.915 333.555 351.249 332.113C349.48 330.581 347.137 329.46 344.549 328.959C344.309 328.912 344.07 328.871 343.83 328.836C343.83 328.602 343.819 328.367 343.796 328.132C343.51 325.206 341.428 322.647 338.527 321.046C338.332 320.938 338.135 320.836 337.936 320.739C337.991 320.537 338.028 320.335 338.048 320.135C338.072 319.897 338.072 319.652 338.047 319.404C337.883 317.761 336.691 316.341 335.066 315.444C334.737 315.263 334.398 315.107 334.056 314.982C334.305 314.711 334.533 314.419 334.739 314.108C335.593 312.823 336.011 311.316 335.849 309.704C335.604 307.273 334.102 305.094 331.922 303.507C329.658 301.858 326.654 300.845 323.453 300.845C322.432 300.845 321.452 300.948 319.753 300.958C317.428 299.097 314.211 297.935 310.777 297.935Z" fill="white" stroke="#00160A" stroke-width="1.86952"/>
<path d="M350.5 347.065C354.678 347.065 358.065 343.678 358.065 339.5C358.065 335.322 354.678 331.935 350.5 331.935C346.322 331.935 342.935 335.322 342.935 339.5C342.935 343.678 346.322 347.065 350.5 347.065Z" fill="white" stroke="#00160A" stroke-width="1.86952"/>
<path fill-rule="evenodd" clip-rule="evenodd" d="M305 276.935C302.629 276.935 300.471 277.845 298.855 279.334C297.227 280.836 296.15 282.926 295.964 285.268C295.944 285.512 295.935 285.755 295.935 285.996C295.695 286.024 295.455 286.062 295.215 286.11C293.12 286.528 291.286 287.669 289.983 289.26C288.703 290.823 287.935 292.822 287.935 295C287.935 297.503 288.949 299.769 290.59 301.41C292.23 303.05 294.497 304.065 297 304.065C298.809 304.065 300.495 303.535 301.91 302.622C303.371 301.678 304.543 300.327 305.265 298.728C305.507 298.192 305.694 297.636 305.827 297.069C306.102 297.581 306.435 298.06 306.818 298.495C308.205 300.071 310.236 301.065 312.5 301.065C314.589 301.065 316.48 300.218 317.849 298.849C319.218 297.48 320.065 295.589 320.065 293.5C320.065 290.78 318.629 288.395 316.474 287.063C316.306 286.959 316.134 286.862 315.959 286.772C315.992 286.575 316.017 286.379 316.035 286.184C316.055 285.959 316.065 285.731 316.065 285.5C316.065 283.568 315.341 281.806 314.15 280.469C312.946 279.117 311.264 278.2 309.057 277.891C307.836 277.279 306.458 276.935 305 276.935Z" fill="white" stroke="#00160A" stroke-width="1.86952"/>
<path d="M304 305.065C308.454 305.065 312.065 301.454 312.065 297C312.065 292.546 308.454 288.935 304 288.935C299.546 288.935 295.935 292.546 295.935 297C295.935 301.454 299.546 305.065 304 305.065Z" fill="white" stroke="#00160A" stroke-width="1.86952"/>
<path d="M298 292.065C302.454 292.065 306.065 288.454 306.065 284C306.065 279.546 302.454 275.935 298 275.935C293.546 275.935 289.935 279.546 289.935 284C289.935 288.454 293.546 292.065 298 292.065Z" fill="white" stroke="#00160A" stroke-width="1.86952"/>
<path d="M292 284.065C296.454 284.065 300.065 280.454 300.065 276C300.065 271.546 296.454 267.935 292 267.935C287.546 267.935 283.935 271.546 283.935 276C283.935 280.454 287.546 284.065 292 284.065Z" fill="white" stroke="#00160A" stroke-width="1.86952"/>
<path d="M292 270.065C296.454 270.065 300.065 266.454 300.065 262C300.065 257.546 296.454 253.935 292 253.935C287.546 253.935 283.935 257.546 283.935 262C283.935 266.454 287.546 270.065 292 270.065Z" fill="white" stroke="#00160A" stroke-width="1.86952"/>
</svg>
