<svg width="105" height="68" viewBox="0 0 105 68" fill="none" xmlns="http://www.w3.org/2000/svg">
<path fill-rule="evenodd" clip-rule="evenodd" d="M101.154 45.8065C99.542 49.6154 96.745 50.278 93.7835 53.3171C90.822 56.3563 81.9278 54.6171 78.8678 56.3859C70.5715 61.1813 70.3106 66.6059 56.3052 67.3086C51.2693 67.5613 46.8521 66.9884 42.3492 66.4049C37.629 65.7932 32.0337 67.6628 25.6472 63.745C10.0677 54.188 0.37572 38.4748 0.0125429 30.2143C-0.273058 23.7182 4.38193 19.2411 7.51672 16.2654C14.1801 9.9401 22.7584 11.6789 30.7945 9.44172C42.1333 6.28501 49.4022 -0.387017 57.5249 0.0176073C68.992 -0.282452 76.1458 8.99914 85.1716 9.44172C91.5892 9.75641 113.089 17.6134 101.154 45.8065Z" fill="#64FCD9"/>
<path fill-rule="evenodd" clip-rule="evenodd" d="M30.148 58.3626C30.3576 58.8539 30.3744 59.5987 29.8597 59.7415C29.1805 59.4072 28.6965 58.7057 28.6251 57.9521C25.8397 58.0735 23.0543 58.195 20.269 58.3165C19.2337 58.3616 17.956 58.5824 17.6478 59.5717C17.5275 58.7921 16.498 58.6129 15.7092 58.6235C13.3522 58.6552 10.9951 58.6868 8.63809 58.7185C8.60215 57.6425 8.56621 56.5665 8.53028 55.4906C8.52331 55.2821 8.51843 55.0636 8.61194 54.8771C8.86299 54.3765 9.584 54.4297 10.1291 54.5583C9.95386 52.8065 9.77865 51.0547 9.60345 49.3029C8.79074 49.4889 9.05219 47.4051 8.23416 47.566C7.73896 47.6634 7.27211 47.2086 7.16642 46.7151C7.06073 46.2216 7.21489 45.7137 7.36743 45.2326C7.82716 45.0922 8.48603 45.2312 8.95194 45.0922C9.41785 44.9532 9.70179 44.6847 9.68551 44.1988C9.34753 34.1079 8.61783 24.0301 7.49862 13.9958C6.78409 14.3032 5.93323 13.7485 5.64577 13.0257C5.35831 12.3029 5.48144 11.4889 5.63183 10.7257C5.68461 10.4579 5.74944 10.1733 5.94611 9.98403C6.19684 9.74271 6.5822 9.72759 6.93018 9.7268C17.8499 9.70196 28.7697 9.67711 39.6894 9.65226C39.9274 9.65172 40.1896 9.66004 40.3655 9.82035C40.5263 9.96691 40.5688 10.1995 40.6022 10.4145C40.7319 11.2505 40.8594 12.1222 40.6041 12.9289C40.3489 13.7355 39.586 14.4493 38.7457 14.3506C39.2053 24.3095 39.665 34.2685 40.1246 44.2275C40.8738 44.0637 41.7499 44.341 42.1236 45.0106C42.4972 45.6803 42.1564 46.6922 41.4081 46.8598C41.8855 47.2568 41.6551 48.1016 41.1298 48.4325C40.6044 48.7634 39.9362 48.7296 39.3179 48.6731C38.6995 48.6167 38.0397 48.5565 37.4914 48.8478C37.6208 50.0478 37.6047 51.2635 37.4435 52.4597C37.9753 52.1426 38.695 52.1757 39.1954 52.5404C39.5427 52.7936 39.8584 52.1775 39.8551 51.7476C39.8475 50.7465 39.8398 49.7454 39.8322 48.7443C40.3744 49.9879 40.5252 51.3988 40.2582 52.7289C40.9267 52.781 41.5952 52.8331 42.2637 52.8853C42.4647 52.9009 42.6824 52.9236 42.8298 53.0612C42.9765 53.1981 43.0146 53.4127 43.0401 53.6117C43.2046 54.8967 43.1801 56.2057 42.9674 57.4836C38.6361 57.1834 34.5262 57.2793 30.2207 57.8394C30.1127 57.8394 29.9385 57.8713 30.148 58.3626Z" fill="white"/>
<ellipse cx="25.0284" cy="36.028" rx="0.0723065" ry="0.289226" transform="rotate(21 25.0284 36.028)" fill="#FFB61D"/>
<path fill-rule="evenodd" clip-rule="evenodd" d="M58.8729 37.5057C58.8729 37.5057 58.2654 23.7034 58.6177 16.8086C58.6562 16.0559 58.6983 15.2845 58.4754 14.5644C58.2525 13.8444 57.703 13.1747 56.9623 13.0353C56.8163 11.7437 56.8358 10.4335 57.0203 9.14679C67.6958 9.2023 78.3713 9.25781 89.0468 9.31333C89.0853 10.1256 89.1239 10.9379 89.1625 11.7502C89.199 12.5193 88.8945 13.6082 88.1399 13.455C87.8333 13.3928 87.6863 13.8158 87.6701 14.1282C87.5377 16.6942 87.4053 19.2603 87.2728 21.8264C86.8792 29.4527 86.4855 37.0903 86.7497 44.7222C87.4319 44.7562 88.1142 44.7903 88.7965 44.8243C88.9775 45.2528 89.1623 45.7085 89.0948 46.1687C89.0274 46.6289 88.6002 47.0697 88.1454 46.9724C88.5417 47.8964 87.4844 49.055 86.528 48.7445C86.6047 49.8494 86.6815 50.9544 86.7582 52.0593C86.7726 52.2678 86.7943 52.4936 86.9357 52.6473C87.377 53.127 88.3225 52.3865 88.7885 52.8422C88.8516 53.929 88.9147 55.0158 88.9778 56.1025C88.995 56.3989 88.9968 56.7366 88.7814 56.9408C88.6369 57.0779 88.4286 57.1185 88.2321 57.1517C84.4027 57.7991 80.4772 57.8756 76.6254 57.3779C76.8323 58.3681 76.9922 59.5383 76.2919 60.2685C75.7754 60.807 75.8302 61.5799 76.0629 61.2151C76.0178 61.6884 75.5774 62.0905 75.1019 62.0925C74.6939 62.1356 74.7751 61.4538 75.0535 61.1524C75.6649 60.4906 76.4555 59.8985 76.6502 59.0188C76.8448 58.1391 74.7151 58.5877 74.7753 59.1262C74.39 58.6915 74.4402 57.943 74.8802 57.5637C73.7331 57.8254 72.5428 57.8972 71.3726 57.7752C72.8507 57.5512 74.3288 57.3272 75.8069 57.1031C75.3862 55.9385 70.5894 59.0218 70.4831 61.3398C70.2531 60.0059 70.4226 58.6056 70.9643 57.3651C70.834 57.1582 70.6651 56.9756 70.4689 56.8296C71.8167 56.3019 69.1102 59.1948 68.6707 58.0957C67.1894 58.2644 65.7082 58.4331 64.227 58.6017C64.2805 58.873 64.4205 59.1266 64.6214 59.3165C63.7431 59.4437 62.861 58.6067 62.942 57.7229C62.51 58.5022 63.1766 59.4313 63.8628 59.9998C64.549 60.5682 65.3809 61.2067 65.3518 62.0973C64.6697 62.3364 63.8315 61.8502 63.7005 61.1394C63.9484 61.6011 63.666 60.5903 63.3667 60.685C62.8113 60.8606 62.4051 62.4139 62.6724 61.8975C62.6431 62.5919 61.971 63.1921 61.2777 63.143C60.7864 62.1781 61.5981 60.8293 62.6808 60.8117C63.1271 60.8044 63.3917 60.245 63.2742 59.8144C63.1566 59.3839 62.7965 59.0701 62.4544 58.7835C62.2241 59.0843 61.9267 59.3333 61.5902 59.5072C61.5793 58.9995 61.6791 58.4897 61.8807 58.0236C61.4256 58.5406 61.1689 59.228 61.1739 59.9168C60.9417 59.3491 60.9624 58.6832 61.2295 58.131C59.883 58.3604 58.5157 58.4679 57.1499 58.4519C56.9249 56.8919 56.6999 55.3318 56.4749 53.7717C57.3196 53.5433 58.1946 53.4276 59.0695 53.4285C58.6311 50.8044 59.0695 50.7314 58.5249 49.5499C58.4509 49.3893 58.188 49.6962 58.0091 49.3345C57.8302 48.9729 57.7504 48.0312 57.7504 48.0312C57.7504 48.0312 57.0199 47.9245 56.9623 47.7279C56.7364 46.9565 56.4824 46.2673 57.0319 45.8523C57.6177 45.4098 58.5349 45.7888 59.1488 45.3862C59.0196 44.8766 59.1957 43.096 58.7755 41.9891C58.4449 41.118 57.7563 41.5076 57.0229 40.8775C56.5472 40.4687 56.0283 40.0523 55.8206 39.4604C55.6128 38.8685 55.8962 38.0578 56.5175 37.9714C57.125 37.8869 57.5843 38.4879 57.895 39.0168C57.7552 38.5501 58.1287 38.0026 58.6143 37.9625C59.2152 39.8572 58.8729 37.5057 58.8729 37.5057Z" fill="white"/>
<ellipse cx="69.3523" cy="33.8587" rx="0.144613" ry="0.289226" fill="#FFB61D"/>
<path fill-rule="evenodd" clip-rule="evenodd" d="M17.2297 17.9957C17.2926 18.045 17.3037 18.1359 17.2544 18.1988L15.3557 20.6226C15.3065 20.6855 15.2156 20.6966 15.1527 20.6473C15.0898 20.5981 15.0788 20.5072 15.128 20.4443L17.0267 18.0204C17.076 17.9575 17.1669 17.9465 17.2297 17.9957Z" fill="#E7EAEE"/>
<path fill-rule="evenodd" clip-rule="evenodd" d="M19.7029 18.6899C19.7637 18.7417 19.771 18.833 19.7192 18.8938L17.1781 21.8754C17.1263 21.9361 17.035 21.9434 16.9742 21.8916C16.9134 21.8398 16.9061 21.7485 16.958 21.6878L19.499 18.7061C19.5508 18.6454 19.6421 18.6381 19.7029 18.6899Z" fill="#E7EAEE"/>
<path fill-rule="evenodd" clip-rule="evenodd" d="M23.7342 18.8866C23.7973 18.9355 23.8089 19.0263 23.76 19.0895L21.6698 21.7891C21.6209 21.8523 21.53 21.8638 21.4669 21.8149C21.4037 21.766 21.3922 21.6752 21.4411 21.6121L23.5313 18.9124C23.5802 18.8493 23.671 18.8377 23.7342 18.8866Z" fill="#E7EAEE"/>
<path fill-rule="evenodd" clip-rule="evenodd" d="M29.3762 18.6686C29.4409 18.7154 29.4555 18.8057 29.4088 18.8705L27.7067 21.2284C27.66 21.2931 27.5696 21.3077 27.5048 21.261C27.4401 21.2142 27.4255 21.1238 27.4722 21.0591L29.1743 18.7012C29.221 18.6365 29.3114 18.6219 29.3762 18.6686Z" fill="#E7EAEE"/>
<path fill-rule="evenodd" clip-rule="evenodd" d="M68.0434 18.2467C68.1001 18.3029 68.1005 18.3945 68.0442 18.4512L66.0509 20.4612C65.9946 20.5179 65.9031 20.5183 65.8464 20.462C65.7897 20.4058 65.7893 20.3142 65.8455 20.2575L67.8389 18.2476C67.8951 18.1908 67.9867 18.1905 68.0434 18.2467Z" fill="#E7EAEE"/>
<path fill-rule="evenodd" clip-rule="evenodd" d="M70.8009 18.8065C70.8563 18.864 70.8546 18.9556 70.797 19.011L68.178 21.5316C68.1205 21.5869 68.0289 21.5852 67.9736 21.5276C67.9182 21.4701 67.9199 21.3786 67.9775 21.3232L70.5965 18.8026C70.654 18.7472 70.7456 18.7489 70.8009 18.8065Z" fill="#E7EAEE"/>
<path fill-rule="evenodd" clip-rule="evenodd" d="M77.0923 20.0706C77.1475 20.1283 77.1455 20.2199 77.0878 20.2751L75.3612 21.9265C75.3034 21.9817 75.2119 21.9796 75.1567 21.9219C75.1015 21.8642 75.1035 21.7727 75.1612 21.7175L76.8878 20.066C76.9456 20.0108 77.0371 20.0129 77.0923 20.0706Z" fill="#E7EAEE"/>
<path fill-rule="evenodd" clip-rule="evenodd" d="M80.3769 20.1868C80.4313 20.2453 80.428 20.3368 80.3695 20.3912L78.5791 22.0554C78.5206 22.1098 78.4291 22.1064 78.3748 22.0479C78.3204 21.9894 78.3237 21.8979 78.3822 21.8436L80.1726 20.1793C80.231 20.1249 80.3226 20.1283 80.3769 20.1868Z" fill="#E7EAEE"/>
<path fill-rule="evenodd" clip-rule="evenodd" d="M48.8551 30.78C48.7974 30.2729 48.7725 29.7622 48.7807 29.252C48.4599 29.1263 48.103 29.1469 47.7591 29.1694C46.4461 29.2553 45.1332 29.3412 43.8202 29.427C43.6032 29.4412 43.3816 29.455 43.1716 29.3987C42.957 29.3413 42.7115 29.2174 42.5338 29.3507C42.3798 29.4662 42.3925 29.6969 42.4206 29.8873C42.4735 30.2456 42.5264 30.6039 42.5793 30.9622C42.5882 31.0231 42.6003 31.0897 42.6475 31.1292C42.691 31.1657 42.7524 31.169 42.8092 31.1705C44.6513 31.2194 46.4951 31.2024 48.336 31.1197C48.5693 31.1093 48.8815 31.0119 48.8551 30.78V30.78Z" fill="white"/>
<path fill-rule="evenodd" clip-rule="evenodd" d="M55.1558 22.1971C55.1966 22.0375 55.0473 21.8811 54.8862 21.8468C54.7251 21.8124 54.5597 21.8626 54.4 21.9027C53.7632 22.0627 51.9946 22.062 51.7544 22.0637C51.0516 22.0685 50.3489 22.0733 49.6462 22.0782C49.4797 22.0793 49.3387 22.2164 49.2795 22.372C49.2204 22.5277 49.2258 22.6993 49.2319 22.8657C49.2383 23.0376 49.2447 23.2095 49.2511 23.3814C49.2549 23.4839 49.2684 23.6036 49.3563 23.6564C49.3944 23.6792 49.4401 23.6846 49.4842 23.6892C50.1655 23.7611 50.8522 23.7802 51.5364 23.7465C52.7468 23.6867 53.9577 23.4618 55.1632 23.5863C55.0426 23.1339 55.04 22.6507 55.1558 22.1971Z" fill="white"/>
<path fill-rule="evenodd" clip-rule="evenodd" d="M76.9332 58.3433C76.9475 58.2439 77.0287 58.1656 77.1186 58.1209C77.3637 57.9988 77.6731 58.0838 77.8799 58.2631C78.0866 58.4425 78.2092 58.6989 78.3071 58.9545C78.342 59.0455 78.371 59.1588 78.3067 59.232C78.2825 59.2595 78.2486 59.2762 78.2149 59.2905C77.9319 59.4101 77.593 59.3967 77.3267 59.2434C77.0603 59.0902 76.8766 58.797 76.8676 58.4899C76.9829 58.5052 77.0395 58.633 77.0994 58.7327C77.3053 59.0751 77.7996 59.2042 78.1466 59.0064C77.8181 58.6737 77.3906 58.4401 76.9332 58.3433Z" fill="#00160A"/>
<path fill-rule="evenodd" clip-rule="evenodd" d="M75.2398 55.4164C75.3395 55.2927 75.4393 55.1689 75.5391 55.0451C75.4731 55.6011 75.0162 56.088 74.4655 56.189C74.2955 56.0584 74.0074 56.1453 73.938 56.3481C73.8357 56.3689 73.7327 56.2886 73.699 56.1898C73.6653 56.0909 73.6869 55.9813 73.725 55.884C73.7824 55.7373 73.8751 55.6076 73.9669 55.4795C74.2764 55.0478 74.6344 54.5834 75.1548 54.4768C75.2893 54.4493 75.441 54.4518 75.5494 54.5362C75.6578 54.6205 75.6879 54.8078 75.5796 54.8923C75.4541 54.7238 75.2015 54.6962 75.0055 54.7719C74.8095 54.8476 74.6568 55.0029 74.5107 55.1538C74.3691 55.3001 74.2275 55.4463 74.086 55.5925C74.0081 55.6729 73.9371 55.8214 74.0345 55.8764C74.1455 55.638 74.4814 55.6186 74.6757 55.4414C74.844 55.2878 74.9568 54.9939 75.1814 55.0322C75.0643 55.3022 74.8514 55.5294 74.5897 55.664C74.4773 55.7218 74.3467 55.7719 74.2908 55.8852C74.4643 55.9645 74.6743 55.9197 74.8358 55.818C74.9972 55.7163 75.12 55.565 75.2398 55.4164Z" fill="#00160A"/>
<path fill-rule="evenodd" clip-rule="evenodd" d="M70.5341 54.8441C70.8084 54.8925 71.1059 54.7388 71.2251 54.4871C71.3444 54.2353 71.2748 53.9078 71.0635 53.7263C71.1245 53.6516 71.2424 53.6423 71.3277 53.6872C71.4129 53.7321 71.4688 53.8194 71.5009 53.9103C71.6036 54.2014 71.489 54.5338 71.2888 54.7689C71.0887 55.004 70.8146 55.1614 70.5463 55.3141C70.422 55.3849 70.2921 55.4573 70.1494 55.4662C70.0067 55.475 69.8479 55.3994 69.8103 55.2614C69.798 55.2163 69.8007 55.1645 69.829 55.1274C69.968 54.9453 70.2954 55.3775 70.4449 55.2039C70.409 55.065 70.373 54.926 70.3371 54.7871C70.4018 54.8096 70.4667 54.8322 70.5341 54.8441Z" fill="#00160A"/>
<path fill-rule="evenodd" clip-rule="evenodd" d="M68.0192 54.4169C67.7132 54.3797 67.4954 54.0489 67.5289 53.7425C67.5624 53.436 67.8026 53.1781 68.0883 53.0625C68.1758 53.0271 68.2851 53.0062 68.3572 53.0671C68.4294 53.1279 68.3798 53.2855 68.2897 53.2576C68.069 53.1894 67.858 53.4112 67.7969 53.6339C67.7581 53.7757 67.7557 53.9363 67.8342 54.0606C67.9128 54.1849 68.0896 54.2519 68.2151 54.1755C68.3057 54.1204 68.3978 54.2479 68.4193 54.3517C68.4408 54.4555 68.4884 54.5926 68.5937 54.5802C68.7669 54.4942 68.8316 54.2864 68.9302 54.1201C69.0288 53.9538 69.252 53.8092 69.4038 53.9289C69.4233 53.9443 69.4409 53.9654 69.4419 53.9902C69.4431 54.0173 69.4249 54.0408 69.4074 54.0614C69.2383 54.2613 69.0515 54.4462 68.8499 54.6131C68.7149 54.7248 68.528 54.8328 68.3754 54.7466C68.2311 54.665 68.1838 54.437 68.0192 54.4169Z" fill="#00160A"/>
<path fill-rule="evenodd" clip-rule="evenodd" d="M69.4923 57.5522C69.3426 57.4192 69.1901 57.2828 69.0924 57.108C68.9946 56.9333 68.9601 56.7101 69.0547 56.5336C69.0806 56.4853 69.1206 56.4387 69.1747 56.4299C69.2288 56.4212 69.291 56.4715 69.2753 56.524C69.2062 56.7537 69.3066 57.0234 69.509 57.1521C69.5872 57.2019 69.6921 57.2951 69.6265 57.3605C69.5483 57.4385 69.6908 57.5441 69.7998 57.5619C70.0091 57.5961 70.2184 57.6303 70.4277 57.6645C70.3869 57.8371 70.1741 57.9209 70.0006 57.8838C69.8272 57.8468 69.6863 57.7247 69.5538 57.6069C69.5333 57.5887 69.5128 57.5704 69.4923 57.5522Z" fill="#00160A"/>
<path fill-rule="evenodd" clip-rule="evenodd" d="M61.7819 62.7991C61.8027 62.6708 61.8235 62.5425 61.8443 62.4141C61.8562 62.3405 61.8687 62.2653 61.9041 62.1996C61.9464 62.1211 62.0177 62.0631 62.0872 62.0073C62.2778 61.854 62.4685 61.7007 62.6591 61.5475C62.8092 61.6619 62.8394 61.9042 62.7219 62.0519C62.7123 61.9159 62.6241 61.7883 62.5002 61.7313C62.3617 62.1427 62.1108 62.5157 61.7819 62.7991Z" fill="#00160A"/>
<path fill-rule="evenodd" clip-rule="evenodd" d="M76.4929 60.917C76.5633 61.2946 76.7079 61.6583 76.916 61.9811C77.0799 62.2354 76.9299 62.568 76.7799 62.8307C76.7123 62.857 76.6484 62.769 76.6596 62.6973C76.6708 62.6256 76.7233 62.5684 76.7572 62.5042C76.8903 62.2523 76.725 61.9535 76.5783 61.7092C76.4317 61.4649 76.3056 61.1317 76.4929 60.917L76.4929 60.917Z" fill="#00160A"/>
<path fill-rule="evenodd" clip-rule="evenodd" d="M49.1992 31.4476C49.1963 31.5352 49.1921 31.6272 49.1464 31.7019C49.0629 31.8381 48.8797 31.8648 48.7204 31.8767C46.5716 32.0378 44.4126 32.061 42.2608 31.9461C42.234 31.9447 42.2064 31.943 42.1823 31.9313C42.123 31.9024 42.1071 31.8269 42.0981 31.7615C42.0383 31.3244 41.9784 30.8872 41.9185 30.4501C41.8757 30.1374 41.8395 29.7933 42.0128 29.5295C42.2484 29.171 42.7482 29.1283 43.1771 29.1223C45.1268 29.095 47.0764 29.0677 49.026 29.0404C49.1082 29.0392 49.2054 29.0458 49.249 29.1154C49.2742 29.1557 49.2734 29.2063 49.2719 29.2538C49.2476 29.9851 49.2234 30.7164 49.1992 31.4476ZM48.8574 31.1154C48.7996 30.6084 48.7748 30.0977 48.783 29.5875C48.4622 29.4618 48.1052 29.4824 47.7614 29.5049C46.4484 29.5908 45.1355 29.6767 43.8225 29.7625C43.6055 29.7767 43.3839 29.7905 43.1739 29.7342C42.9593 29.6768 42.7138 29.5529 42.5361 29.6862C42.3821 29.8017 42.3948 30.0324 42.4229 30.2228C42.4758 30.5811 42.5287 30.9394 42.5815 31.2977C42.5905 31.3586 42.6025 31.4252 42.6497 31.4647C42.6932 31.5012 42.7547 31.5044 42.8114 31.5059C44.6535 31.5548 46.4974 31.5379 48.3383 31.4552C48.5716 31.4447 48.8838 31.3474 48.8574 31.1154V31.1154Z" fill="#FFB61D"/>
<path fill-rule="evenodd" clip-rule="evenodd" d="M74.9163 59.0374C75.0145 58.6914 75.1884 58.3671 75.4222 58.0939C75.4181 58.4649 75.223 58.8287 74.9163 59.0374L74.9163 59.0374Z" fill="#00160A"/>
<path fill-rule="evenodd" clip-rule="evenodd" d="M75.7968 61.1295C75.7327 61.3272 75.6339 61.5136 75.5062 61.6776C75.4519 61.7475 75.3824 61.8184 75.2939 61.8228C75.4089 61.5552 75.5409 61.2684 75.7968 61.1295L75.7968 61.1295Z" fill="#00160A"/>
<path fill-rule="evenodd" clip-rule="evenodd" d="M77.3727 62.1884C77.5147 62.2878 77.6568 62.3873 77.7989 62.4867C77.8305 62.5089 77.8658 62.5487 77.8433 62.5801C77.6275 62.5594 77.4322 62.3969 77.3727 62.1884Z" fill="#00160A"/>
<path fill-rule="evenodd" clip-rule="evenodd" d="M77.633 62.133C77.4862 62.1779 77.3616 61.9374 77.483 61.8434C77.5655 61.9233 77.6263 62.0254 77.6572 62.136L77.633 62.133Z" fill="#00160A"/>
<path fill-rule="evenodd" clip-rule="evenodd" d="M75.7651 57.9932C75.8722 58.1288 75.8757 58.3241 75.8179 58.487C75.7601 58.6499 75.6498 58.788 75.5414 58.9226C75.4402 59.0484 75.3121 59.1866 75.1511 59.1743C75.1236 59.0648 75.2252 58.9706 75.308 58.8939C75.5602 58.6603 75.7254 58.3347 75.7651 57.9932Z" fill="#00160A"/>
<path fill-rule="evenodd" clip-rule="evenodd" d="M76.9604 61.5431C77.1399 61.3795 77.4093 61.3215 77.6402 61.3968C77.8711 61.4722 78.0545 61.6778 78.103 61.9158C78.1386 62.0903 78.1564 62.3346 78.3336 62.3519C78.3655 62.4659 78.1623 62.509 78.0888 62.4162C78.0153 62.3234 78.0287 62.192 78.0102 62.0751C77.9608 61.7623 77.6226 61.5271 77.3121 61.5895C77.1856 61.6149 77.0129 61.661 76.9604 61.5431L76.9604 61.5431Z" fill="#00160A"/>
<path fill-rule="evenodd" clip-rule="evenodd" d="M63.5841 63.5499C63.4982 63.2743 63.6952 62.9575 63.5741 62.6954C63.5343 62.6093 63.4644 62.5415 63.4034 62.4689C63.2015 62.2289 63.0872 61.9169 63.0864 61.6033C63.0861 61.5078 63.1294 61.3821 63.2244 61.3914C63.3494 61.4035 63.3174 61.59 63.3091 61.7154C63.2934 61.9532 63.5007 62.1367 63.631 62.3363C63.8252 62.6335 63.8547 63.0312 63.7067 63.3538C63.6522 63.4726 63.7603 63.5961 63.8354 63.7031C64.0308 63.9814 64.0146 64.3898 63.7978 64.6518C63.7164 64.5972 63.7128 64.4771 63.7426 64.3837C63.7724 64.2903 63.8269 64.2029 63.8325 64.105C63.8443 63.8997 63.6453 63.7462 63.5841 63.5499H63.5841Z" fill="#00160A"/>
<path fill-rule="evenodd" clip-rule="evenodd" d="M67.804 34.5314C67.9164 34.4073 68.1085 34.5425 68.2653 34.6013C68.5691 34.7152 68.9044 34.4959 69.2255 34.5422C69.0466 34.9111 68.5414 34.9543 68.1348 34.9016C68.0329 34.8884 67.9258 34.87 67.8472 34.8038C67.7687 34.7376 67.735 34.6075 67.804 34.5314L67.804 34.5314Z" fill="#00160A"/>
<path fill-rule="evenodd" clip-rule="evenodd" d="M68.5945 33.3559C68.5348 33.28 68.5439 33.1727 68.556 33.077C68.5646 33.0088 68.5731 32.9407 68.5817 32.8726C68.6019 32.7124 68.6679 32.5084 68.8294 32.5071C68.9982 32.5058 69.0625 32.726 69.066 32.8947C69.069 33.041 69.0612 33.1984 68.9725 33.3147C68.8837 33.4309 68.6849 33.4709 68.5945 33.3559V33.3559Z" fill="#00160A"/>
<path fill-rule="evenodd" clip-rule="evenodd" d="M67.5801 32.5935C67.6594 32.6117 67.6776 32.7148 67.6792 32.7961C67.6847 33.0659 67.629 33.4165 67.3638 33.4663C67.234 33.2213 67.2583 32.9027 67.4237 32.6802C67.4614 32.6295 67.5185 32.5793 67.5801 32.5935L67.5801 32.5935Z" fill="#00160A"/>
<path fill-rule="evenodd" clip-rule="evenodd" d="M68.1043 32.9472C68.1243 32.982 68.111 33.0254 68.0995 33.0638C67.9868 33.4411 68.1117 33.8786 68.4065 34.1396C68.1861 34.2789 67.878 34.0866 67.8018 33.8372C67.7256 33.5878 67.8071 33.3206 67.8881 33.0727C67.9212 32.9716 68.0515 32.8549 68.1043 32.9472L68.1043 32.9472Z" fill="#00160A"/>
<path fill-rule="evenodd" clip-rule="evenodd" d="M55.5636 24.3136C55.1766 24.3382 54.7895 24.3629 54.4025 24.3875C52.7279 24.4941 51.0533 24.6007 49.3788 24.7073C49.1424 24.7224 48.8246 24.6744 48.7973 24.4391C48.7125 23.7103 48.728 22.9699 48.8432 22.2453C48.8912 21.9433 49.2824 21.8626 49.5881 21.8525C51.4379 21.7916 53.2877 21.7306 55.1375 21.6696C55.3652 21.6621 55.5671 21.837 55.6626 22.0438C55.7581 22.2507 55.7693 22.485 55.779 22.7126C55.7974 23.1481 55.8158 23.5836 55.8343 24.0191C55.8375 24.0948 55.8382 24.1784 55.7892 24.2363C55.7363 24.2987 55.6453 24.3084 55.5636 24.3136ZM55.1581 22.5326C55.1989 22.373 55.0496 22.2166 54.8885 22.1822C54.7274 22.1479 54.562 22.198 54.4023 22.2382C53.7655 22.3981 51.9968 22.3974 51.7567 22.3991C51.0539 22.4039 50.3512 22.4088 49.6485 22.4136C49.482 22.4147 49.341 22.5518 49.2818 22.7075C49.2227 22.8631 49.2281 23.0348 49.2342 23.2012C49.2406 23.3731 49.247 23.5449 49.2534 23.7168C49.2572 23.8193 49.2707 23.9391 49.3586 23.9918C49.3967 24.0146 49.4424 24.02 49.4865 24.0247C50.1677 24.0965 50.8545 24.1157 51.5387 24.0819C52.7491 24.0222 53.96 23.7973 55.1655 23.9217C55.0449 23.4694 55.0423 22.9861 55.1581 22.5326Z" fill="#FFB61D"/>
<path fill-rule="evenodd" clip-rule="evenodd" d="M27.5371 53.9297C27.4582 53.9553 27.3398 53.9593 27.3256 53.8776C27.4454 53.7349 27.6929 53.7284 27.8201 53.8645C27.7524 53.9384 27.6394 53.9667 27.5448 53.9336L27.5371 53.9297Z" fill="#00160A"/>
<path fill-rule="evenodd" clip-rule="evenodd" d="M69.3524 32.1071C69.4598 32.222 69.5584 32.3509 69.6036 32.5016C69.6335 32.6016 69.491 32.6796 69.3945 32.6398C69.298 32.6 69.2437 32.5 69.1863 32.4129C69.1288 32.3257 69.0441 32.2373 68.94 32.2447C68.8345 32.2523 68.7658 32.1082 68.8178 32.016C68.8697 31.9238 68.9957 31.8948 69.0972 31.9247C69.1988 31.9546 69.2801 32.0298 69.3524 32.1071L69.3524 32.1071Z" fill="#00160A"/>
<path fill-rule="evenodd" clip-rule="evenodd" d="M31.9342 51.1976C31.8076 50.5898 31.6671 49.9787 31.4022 49.4172C31.1373 48.8556 30.736 48.3408 30.1919 48.0415C29.9053 47.8839 29.5887 47.7905 29.2869 47.6643C28.9175 47.5099 28.569 47.3054 28.2539 47.0582C28.5351 46.8997 28.8837 47.0486 29.1703 47.1971C29.8387 47.5434 30.5224 47.9014 31.0266 48.4603C31.6975 49.2041 31.9737 50.2165 32.1732 51.1982C32.1008 51.2396 32.0064 51.2394 31.9342 51.1976Z" fill="#00160A"/>
<path fill-rule="evenodd" clip-rule="evenodd" d="M28.8007 56.4453C28.802 56.3968 28.8128 56.3394 28.8572 56.32C28.9986 56.2584 29.0461 56.6567 29.1735 56.5699C29.3216 56.4689 29.5307 56.6896 29.4535 56.8514C29.3762 57.0132 29.1325 57.0362 28.9902 56.9272C28.8479 56.8182 28.796 56.6245 28.8007 56.4453Z" fill="#00160A"/>
<path fill-rule="evenodd" clip-rule="evenodd" d="M28.3283 54.6867C28.169 54.42 28.2263 54.0769 28.3397 53.7877C28.4081 53.6133 28.5128 53.4304 28.6917 53.3745C28.8705 53.3186 29.1053 53.4912 29.0347 53.6647C28.8677 53.7182 28.6939 53.7818 28.5804 53.9154C28.4668 54.049 28.4422 54.2741 28.5742 54.3895C28.6398 54.4468 28.6267 54.5518 28.5976 54.6339C28.5685 54.716 28.5284 54.8044 28.5577 54.8864C28.587 54.9685 28.7309 54.9953 28.7514 54.9107C28.774 54.8175 28.9186 54.8212 28.9869 54.8885C29.0552 54.9557 29.0824 55.0551 29.1455 55.1273C29.2086 55.1994 29.3455 55.2261 29.3882 55.1403C29.429 55.0586 29.562 55.0639 29.6174 55.1364C29.6729 55.2089 29.6616 55.3152 29.6176 55.3951C29.522 55.5691 29.2772 55.6409 29.1027 55.5462C29.0001 55.4906 28.9293 55.3918 28.8425 55.3139C28.7556 55.2359 28.6314 55.1764 28.5242 55.2225C28.4217 55.2666 28.3325 55.1262 28.3375 55.0148C28.3426 54.9034 28.3855 54.7824 28.3283 54.6867Z" fill="#00160A"/>
<path fill-rule="evenodd" clip-rule="evenodd" d="M24.579 36.4372C24.786 36.2582 24.8596 35.9413 24.7529 35.6893C24.713 35.5951 24.6742 35.448 24.7735 35.4235C25.0756 35.6878 25.1012 36.2083 24.8266 36.501C24.7788 36.5519 24.7149 36.5989 24.6457 36.5895C24.5765 36.5802 24.5262 36.4829 24.579 36.4372H24.579Z" fill="#00160A"/>
<path fill-rule="evenodd" clip-rule="evenodd" d="M24.0999 34.8418C24.2541 34.8459 24.3703 35.0015 24.3836 35.1553C24.3968 35.309 24.3334 35.4582 24.2659 35.597C24.2242 35.6828 24.1544 35.7816 24.0604 35.7655C23.9895 35.7534 23.9481 35.6807 23.9176 35.6156C23.8496 35.4708 23.7838 35.316 23.799 35.1568C23.8141 34.9976 23.94 34.8375 24.0999 34.8418V34.8418Z" fill="#00160A"/>
<path fill-rule="evenodd" clip-rule="evenodd" d="M25.1827 35.5654C25.0504 35.6015 24.977 35.414 24.9812 35.2769C24.9848 35.1555 25.0021 35.0286 25.0731 34.93C25.1441 34.8315 25.3209 34.7131 25.3883 34.8763C25.4558 35.0394 25.4156 35.2864 25.2899 35.4732C25.263 35.5131 25.2292 35.5527 25.1827 35.5654Z" fill="#00160A"/>
<path fill-rule="evenodd" clip-rule="evenodd" d="M23.6619 36.523C23.7073 36.5145 23.7526 36.506 23.798 36.4976C23.8117 36.6488 23.9585 36.7512 24.0999 36.8068C24.2413 36.8623 24.3988 36.8977 24.505 37.0063C24.5435 37.0456 24.5699 37.1175 24.5252 37.1495C24.5056 37.1635 24.4795 37.1631 24.4554 37.1616C24.0844 37.1371 23.681 36.8943 23.6619 36.523Z" fill="#00160A"/>
<path fill-rule="evenodd" clip-rule="evenodd" d="M23.6131 34.6263C23.512 34.6035 23.5092 34.4416 23.5924 34.3799C23.6756 34.3182 23.7918 34.3322 23.8913 34.3611C24.1106 34.4247 24.3123 34.5478 24.4693 34.7135C24.1965 34.8352 23.8558 34.4522 23.6131 34.6263V34.6263Z" fill="#00160A"/>
<path fill-rule="evenodd" clip-rule="evenodd" d="M17.2859 54.5528C17.5487 54.6759 17.901 54.4274 17.8731 54.1385C18.0424 54.285 18.2292 54.4915 18.1531 54.7021C18.1247 54.7806 18.0627 54.8423 17.9968 54.8936C17.7656 55.073 17.4725 55.1522 17.1835 55.1975C16.8807 55.2449 16.5409 55.2502 16.3024 55.0576C16.0669 54.8674 16.0023 54.4967 16.1595 54.2379C16.1982 54.1742 16.253 54.1145 16.3254 54.0967C16.484 54.0577 16.6173 54.2429 16.6154 54.4063C16.6135 54.5696 16.5319 54.7211 16.5046 54.8821C16.4997 54.9109 16.4967 54.9407 16.5038 54.9689C16.5334 55.0866 16.7137 55.0908 16.8033 55.0089C16.8929 54.927 16.926 54.8019 16.9878 54.6976C17.0497 54.5932 17.176 54.5014 17.2859 54.5528ZM17.2911 55.0581C17.3422 55.0102 17.3934 54.9624 17.4446 54.9145C17.4254 54.8531 17.3429 54.8219 17.2878 54.8551C17.2327 54.8883 17.2219 54.9759 17.2672 55.0215L17.2911 55.0581Z" fill="#00160A"/>
<path fill-rule="evenodd" clip-rule="evenodd" d="M16.0778 56.2803C16.1392 56.4537 16.3795 56.4981 16.5474 56.4229C16.5803 56.4081 16.6137 56.388 16.6287 56.3553C16.6721 56.2602 16.5332 56.1643 16.5531 56.0617C16.5699 55.9749 16.6851 55.9504 16.7716 55.9684C16.8581 55.9865 16.9471 56.0275 17.0311 55.9999C17.1284 55.9678 17.1746 55.8582 17.1989 55.7587C17.2233 55.6592 17.2424 55.549 17.32 55.4821C17.3976 55.4152 17.5543 55.4441 17.5575 55.5465C17.5638 55.7447 17.4126 55.9118 17.2542 56.0312C17.0959 56.1506 16.9146 56.2525 16.8107 56.4214C16.712 56.5818 16.6548 56.8195 16.4674 56.8381C16.4073 56.844 16.348 56.8226 16.2935 56.7966C15.9023 56.6092 15.6695 56.139 15.7576 55.7143C15.7967 55.5259 15.9852 55.319 16.1498 55.4186C16.283 55.4991 16.2563 55.7008 16.1884 55.8409C16.1205 55.9809 16.0258 56.1336 16.0778 56.2803V56.2803Z" fill="#00160A"/>
<path fill-rule="evenodd" clip-rule="evenodd" d="M26.56 43.5165C26.7384 45.9992 28.379 48.1004 29.9494 50.0316C30.3956 50.5802 30.8711 51.1509 31.5286 51.4112C32.7663 51.9012 34.303 51.1592 35.4466 51.8406C29.4631 51.8544 23.4803 52.1821 17.531 52.8218C17.019 52.8768 16.4902 52.9328 15.998 52.7816C15.5057 52.6305 15.0558 52.2143 15.0354 51.6997C14.7739 45.124 14.5125 38.5483 14.2511 31.9726C14.2027 30.7545 14.1537 29.5313 13.9314 28.3326C13.6405 26.7638 13.6335 25.1581 13.6275 23.5626C13.6196 21.488 13.6118 19.4134 13.6039 17.3389C20.3477 17.0469 27.1019 16.9973 33.8493 17.1903C34.126 17.602 34.182 18.1187 34.2283 18.6127C35.0113 26.9756 35.2545 35.3785 35.4971 43.7744C35.5699 46.2901 35.6426 48.8059 35.7153 51.3217C35.5905 51.2801 35.4657 51.2385 35.3409 51.1969C35.0468 43.2521 34.7527 35.3073 34.4585 27.3626C34.4529 27.2109 34.4374 27.0389 34.3178 26.9454C34.2262 26.8739 34.1002 26.8711 33.984 26.8716C27.7293 26.8944 21.4746 26.9171 15.2199 26.9399C14.735 26.9417 14.0538 27.1939 14.2111 27.6526C14.9708 29.8675 14.703 32.2802 14.712 34.6217C14.7171 35.923 14.8106 37.2221 14.904 38.52C15.018 40.1029 15.1319 41.6857 15.2459 43.2686C15.5166 42.5661 15.7873 41.8637 16.0581 41.1612C16.1209 40.9983 16.1775 40.7953 16.0617 40.6647C15.2012 39.694 15.471 37.9599 16.5856 37.2964C16.7996 37.1691 17.0391 37.0749 17.2144 36.8979C17.7077 36.4002 17.4745 35.5221 17.8383 34.9231C18.3783 34.0339 20.0465 34.0007 20.1045 32.9619C20.1569 32.0237 21.0086 31.2669 21.931 31.0872C22.8533 30.9074 23.8091 31.2 24.6398 31.6393C25.4506 32.0682 26.2544 32.7641 26.2893 33.6807C26.3031 34.0413 26.1935 34.394 26.0851 34.7382C25.6924 35.9854 25.2312 37.3275 24.1466 38.0577C25.5459 39.5275 26.4145 41.4923 26.56 43.5165ZM25.5291 46.8357C26.3343 48.4209 27.8625 49.5501 28.6484 51.1449C28.6836 51.2165 28.7204 51.2924 28.7869 51.3363C28.8627 51.3862 28.9601 51.3839 29.0508 51.3813C29.7382 51.3616 30.428 51.4321 31.0972 51.5903C29.5131 50.2164 28.3183 48.4537 27.2344 46.6587C26.8435 46.0112 26.4541 45.3236 26.4157 44.5682C26.3039 42.3654 25.4953 40.2031 24.1345 38.4673C23.6342 37.8292 22.5578 37.9526 21.9832 38.5246C21.4085 39.0967 21.2246 39.948 21.1408 40.7545C21.1136 41.017 21.0951 41.2893 21.1821 41.5384C21.2691 41.7876 21.488 42.009 21.7517 42.0183C22.0154 42.0276 22.2721 41.7503 22.1807 41.5027C22.2744 41.7034 22.368 41.9041 22.4617 42.1047C22.0774 42.518 21.3318 42.3834 20.9782 41.9436C20.6247 41.5038 20.5948 40.8796 20.7155 40.3284C21.0005 39.0273 22.0868 37.9373 23.387 37.6479C23.4022 37.3943 23.027 37.3189 22.796 37.4247C22.5649 37.5305 22.3447 37.7256 22.0944 37.6816C21.8656 37.6414 21.7352 37.925 21.654 38.1427C21.1964 39.3689 19.8873 40.0025 18.8287 40.7723C18.4678 41.0347 18.1116 41.3317 17.6783 41.4386C17.245 41.5455 16.7046 41.3869 16.5503 40.9682C15.2249 44.3928 14.911 48.2019 15.6578 51.7973C15.7109 52.0528 15.946 52.2391 16.1968 52.3115C16.4475 52.3839 16.7145 52.3635 16.9746 52.3424C20.8325 52.0304 24.6904 51.7184 28.5483 51.4063C27.6294 49.6357 25.9008 48.3615 25.1134 46.5286C24.9297 46.101 24.8001 45.6481 24.5669 45.2454C24.2138 44.6356 23.6378 44.1665 23.3495 43.5235C23.0014 44.0024 22.6532 44.4813 22.305 44.9602C22.2267 45.068 22.2629 45.2176 22.3023 45.3449C22.3896 45.627 22.4808 45.9167 22.6666 46.1462C22.8524 46.3757 23.1577 46.5339 23.4438 46.4605C24.0271 46.3109 24.6917 46.5629 25.0291 47.0617C24.3156 46.9272 23.6022 46.7926 22.8887 46.658C22.7853 46.6386 22.6769 46.6167 22.5968 46.5486C22.5288 46.4909 22.4898 46.4069 22.4528 46.3257C22.32 46.0341 22.1873 45.7425 22.0545 45.451C21.9388 45.1967 21.8252 44.8897 21.9729 44.6526C22.0979 44.4518 22.3577 44.3915 22.5525 44.2574C23.0902 43.8872 23.0198 43.0683 22.7748 42.4632C22.5297 41.8582 22.1625 41.2352 22.3041 40.598C22.5942 41.5408 22.8909 42.4978 23.4323 43.3223C23.832 43.931 24.3567 44.4535 24.7231 45.0828C25.047 45.6388 25.2377 46.262 25.5291 46.8357ZM14.0726 17.9419C14.0891 19.4152 14.1056 20.8886 14.1221 22.3619C14.1257 22.6866 14.2451 23.1257 14.5688 23.1C20.9646 22.5917 27.3892 22.4472 33.8014 22.6675C33.979 22.6736 34.1257 22.5104 34.1652 22.3372C34.2046 22.1639 34.1638 21.9837 34.1256 21.8102C33.8348 20.4876 33.6965 19.1316 33.7144 17.7776C33.7172 17.5627 33.431 17.4903 33.2162 17.4864C26.93 17.3715 20.641 17.4062 14.3565 17.5904C14.2946 17.5922 14.2294 17.595 14.1773 17.6285C14.0804 17.6909 14.0713 17.8266 14.0726 17.9419M34.4375 26.262C34.4616 25.1568 34.3945 24.0496 34.2371 22.9553C33.7224 23.1489 33.1577 23.2083 32.614 23.126C32.0747 23.0444 31.5272 23.0397 30.9818 23.0352C28.4821 23.0146 25.982 22.994 23.4826 23.0381C20.4581 23.0915 17.436 23.2397 14.4159 23.4118C14.3334 23.4165 14.2444 23.4237 14.1819 23.4778C14.1007 23.5479 14.0939 23.6693 14.0938 23.7766C14.0929 24.6328 14.1296 25.4891 14.2039 26.3421C14.2084 26.3937 14.2143 26.4487 14.2471 26.4888C14.2988 26.5519 14.3933 26.5528 14.4748 26.5484C20.4473 26.2265 26.4338 26.4343 32.415 26.4398C33.0938 26.4404 33.7817 26.4373 34.4375 26.262ZM20.4995 32.4322C20.3375 32.8233 20.3308 33.2777 20.0986 33.6317C19.6268 34.3506 18.4551 34.3406 18.0139 35.0787C17.6566 35.6764 17.9296 36.546 17.4605 37.0606C17.2248 37.3193 16.8613 37.412 16.5669 37.6013C15.9501 37.9981 15.6927 38.8329 15.8821 39.5415C16.0716 40.2501 16.6498 40.8169 17.3268 41.0991C17.4471 41.1493 17.5762 41.1922 17.7056 41.1763C17.8518 41.1583 17.9777 41.0683 18.0964 40.9812C18.9158 40.3805 19.7351 39.7799 20.5544 39.1792C20.8561 38.958 21.1693 38.7234 21.3322 38.3866C21.6082 37.8163 21.4089 37.045 21.8443 36.5846C22.0123 36.407 22.2536 36.3068 22.4045 36.1143C22.5553 35.9219 22.5368 35.5615 22.2975 35.5109C22.0368 35.4557 22.1056 35.0408 22.3127 34.8729C22.5197 34.7051 22.8139 34.6001 22.8918 34.3452C22.9653 34.1048 22.8548 33.7452 23.0925 33.6637C23.2293 33.6168 23.3649 33.7233 23.4859 33.8022C24.0201 34.1505 24.8265 33.9683 25.159 33.4243C25.2883 33.2128 25.6209 33.4379 25.6813 33.6782C25.7418 33.9185 25.7509 34.2282 25.979 34.325C26.2049 33.9706 26.1369 33.4886 25.9155 33.1313C25.6941 32.7741 25.3452 32.517 24.9967 32.2821C24.2816 31.8 23.4968 31.361 22.6368 31.2962C21.7768 31.2314 20.8295 31.6354 20.4995 32.4322ZM23.0629 35.5278C22.8641 36.2568 21.8398 36.5729 21.7557 37.3239C21.9473 37.534 22.2986 37.4347 22.5354 37.2773C22.656 37.1971 22.7726 37.1016 22.8385 36.9726C22.9044 36.8435 22.9085 36.6742 22.8158 36.5629C22.7352 36.4661 22.9168 36.335 23.0245 36.4001C23.1322 36.4652 23.1591 36.6057 23.1919 36.7272C23.2617 36.9864 23.4046 37.2254 23.5998 37.4096C23.7625 37.563 24.0001 37.6819 24.2054 37.5933C24.29 37.5568 24.357 37.4896 24.4196 37.422C25.0686 36.7207 25.4722 35.7965 25.5456 34.8438C25.5539 34.7356 25.5493 34.6077 25.4606 34.5452C25.3735 34.4837 25.2554 34.5194 25.1498 34.5338C25.0441 34.5482 24.904 34.5085 24.899 34.402C25.0197 34.2852 25.226 34.2711 25.3615 34.3703C25.4186 34.4122 25.4747 34.3134 25.4726 34.2426C25.4668 34.0403 25.4017 33.84 25.2874 33.673C25.036 33.9534 24.7097 34.1808 24.3394 34.2498C23.9692 34.3188 23.5543 34.2076 23.3155 33.9163C23.1714 34.224 23.1074 34.5687 23.1316 34.9076C23.1403 35.0293 22.9634 35.0668 22.8479 35.0276C22.7324 34.9884 22.6004 34.9201 22.4988 34.9875C22.4002 35.053 22.4113 35.2122 22.4902 35.3005C22.5691 35.3888 22.6898 35.4244 22.8039 35.456C22.8902 35.4799 22.9766 35.5038 23.0629 35.5278ZM15.785 42.5622C15.8026 42.4873 15.8107 42.3893 15.7432 42.3525C15.5734 42.852 15.4139 43.3551 15.2648 43.8612C15.2076 44.0555 15.1542 44.2748 15.2525 44.4519C15.3234 44.455 15.3597 44.3696 15.376 44.3005C15.5123 43.721 15.6486 43.1416 15.785 42.5622Z" fill="#00160A"/>
<path fill-rule="evenodd" clip-rule="evenodd" d="M31.7568 57.1783C35.4389 56.8814 39.1379 56.7946 42.8298 56.9183C42.7222 55.677 42.6145 54.4357 42.5069 53.1944C38.7403 53.3642 34.9738 53.534 31.2072 53.7037C31.0914 54.8064 30.6637 55.8745 29.9865 56.7524C29.6603 57.1754 29.9407 57.7728 30.1503 58.2642C30.3598 58.7555 30.3766 59.5003 29.8619 59.6431C29.1827 59.3088 28.6987 58.6073 28.6273 57.8537C25.8419 57.9751 23.0566 58.0966 20.2712 58.2181C19.2359 58.2632 17.9582 58.484 17.65 59.4733C17.5297 58.6937 16.5002 58.5145 15.7114 58.5251C13.3544 58.5568 10.9973 58.5884 8.6403 58.6201C8.60436 57.5441 8.56843 56.4681 8.53249 55.3922C8.52553 55.1837 8.52065 54.9651 8.61415 54.7787C8.86521 54.2781 9.58621 54.3313 10.1313 54.4599C9.95607 52.7081 9.78086 50.9563 9.60566 49.2045C8.79296 49.3905 9.0544 47.3067 8.23637 47.4676C7.74118 47.565 7.27432 47.1102 7.16863 46.6167C7.06295 46.1232 7.21711 45.6153 7.36964 45.1342C7.82938 44.9938 8.48824 45.1328 8.95415 44.9938C9.42006 44.8548 9.704 44.5863 9.68773 44.1004C9.34974 34.0095 8.62004 23.9317 7.50083 13.8974C6.7863 14.2048 5.93544 13.6501 5.64798 12.9273C5.36052 12.2045 5.48365 11.3905 5.63405 10.6273C5.68683 10.3595 5.75165 10.0749 5.94833 9.88562C6.19905 9.6443 6.58441 9.62919 6.9324 9.62839C17.8521 9.60355 28.7719 9.5787 39.6916 9.55385C39.9296 9.55331 40.1918 9.56163 40.3677 9.72194C40.5286 9.8685 40.571 10.1011 40.6044 10.3161C40.7341 11.1521 40.8616 12.0238 40.6063 12.8305C40.3511 13.6371 39.5882 14.3509 38.7479 14.2522C39.2075 24.2111 39.6672 34.1701 40.1268 44.129C40.876 43.9653 41.7521 44.2426 42.1258 44.9122C42.4994 45.5819 42.1586 46.5938 41.4103 46.7614C41.8877 47.1584 41.6573 48.0032 41.132 48.3341C40.6066 48.665 39.9384 48.6312 39.3201 48.5747C38.7018 48.5182 38.0419 48.4581 37.4936 48.7494C37.623 49.9494 37.6069 51.1651 37.4457 52.3613C37.9775 52.0441 38.6972 52.0773 39.1976 52.442C39.5449 52.6952 39.8606 52.0791 39.8573 51.6492C39.8497 50.6481 39.842 49.647 39.8344 48.6459C40.3766 49.8895 40.5275 51.3004 40.2605 52.6305C40.929 52.6826 41.5974 52.7347 42.2659 52.7869C42.4669 52.8025 42.6846 52.8252 42.832 52.9628C42.9787 53.0997 43.0168 53.3143 43.0423 53.5133C43.2068 54.7983 43.1823 56.1073 42.9696 57.3852C38.6383 57.085 34.2771 57.2162 29.9717 57.7763C30.4182 57.3147 31.1167 57.2299 31.7568 57.1783ZM18.9066 53.918C19.2173 53.0538 20.3523 52.8986 21.2706 52.8883C21.6932 52.8836 22.1159 52.8788 22.5385 52.8741C23.4526 52.8638 24.3702 52.8538 25.2768 52.971C25.3896 53.1054 25.5024 53.2399 25.6152 53.3744C25.9766 53.2596 26.4055 53.4119 26.6134 53.729C27.2317 53.0869 27.9947 52.5281 28.8766 52.3983C29.7585 52.2684 30.7617 52.676 31.0988 53.5012C31.2206 53.0828 31.3728 52.6387 31.7244 52.3812C32.076 52.1237 32.6841 52.1864 32.8281 52.5977C33.3956 51.9684 34.5427 52.0209 35.0504 52.6994C35.0561 52.369 35.5042 52.2528 35.8278 52.3197C36.1514 52.3867 36.5084 52.5302 36.7913 52.3594C37.0959 52.1756 37.1144 51.7486 37.0971 51.3933C36.5298 39.7276 35.9626 28.0619 35.3953 16.3962C35.3913 16.3142 35.3839 16.2241 35.3258 16.1662C35.2652 16.1058 35.1703 16.101 35.0847 16.0999C27.6644 16.0055 20.244 15.9111 12.8237 15.8167C12.6643 15.8147 12.4857 15.8202 12.3746 15.9346C12.2699 16.0425 12.263 16.209 12.2624 16.3594C12.2298 25.7182 12.6026 35.0785 13.3797 44.4052C13.4102 44.7716 13.6125 45.2659 13.9649 45.161C13.9828 46.2138 14.0007 47.2667 14.0185 48.3195C14.0226 48.558 14.0072 48.8368 13.8113 48.9731C13.7024 49.0488 13.5627 49.0596 13.4303 49.068C12.3469 49.1363 11.2635 49.2045 10.1801 49.2728C10.3493 50.9471 10.5185 52.6214 10.6877 54.2956C11.6573 54.3281 12.6297 54.2771 13.5907 54.1433C13.1303 52.6893 12.9684 51.1415 13.1179 49.6237C13.4428 49.6503 13.5452 50.0708 13.5617 50.3964C13.6015 51.1778 13.6413 51.9591 13.681 52.7405C13.7021 53.1538 13.7334 53.596 13.9879 53.9223C14.2424 54.2486 14.8076 54.3594 15.0562 54.0285C15.9417 52.8499 17.9549 52.7921 18.9066 53.918ZM39.4844 39.432C39.0917 31.0474 38.699 22.6627 38.3064 14.278C28.1386 14.1752 17.9709 14.0724 7.80318 13.9696C9.2641 24.2031 9.6834 34.5532 10.1008 44.882C11.0577 44.9953 12.0279 44.9951 12.9848 44.8814C12.7093 40.8018 12.4339 36.7222 12.1585 32.6426C12.0606 31.1927 11.9627 29.7425 11.9147 28.2902C11.8747 27.0819 11.8694 25.8728 11.8641 24.6639C11.8517 21.8662 11.8393 19.0686 11.827 16.271C11.8256 15.9636 11.922 15.5507 12.2294 15.5523C19.9429 15.59 27.6565 15.6277 35.3701 15.6654C35.5398 15.6662 35.7399 15.6833 35.828 15.8284C35.8707 15.8988 35.876 15.9848 35.8801 16.067C36.1931 22.2352 36.5061 28.4036 36.751 34.575C36.7918 35.6041 36.8307 36.6333 36.8697 37.6625C36.9507 39.8032 37.0316 41.9439 37.1126 44.0846C37.1203 44.2889 37.3996 44.338 37.6036 44.3245C38.3047 44.278 39.0059 44.2315 39.707 44.185C39.6328 42.6007 39.5586 41.0163 39.4844 39.432ZM5.90279 12.6815C6.04826 13.1874 6.47155 13.6531 6.99754 13.6734C14.6424 13.969 22.3018 13.5225 29.9462 13.8287C33.0442 13.9528 36.1656 14.1993 39.2313 13.7366C39.4411 13.705 39.6615 13.665 39.8235 13.528C39.9751 13.3998 40.0522 13.2055 40.1125 13.0163C40.361 12.2368 40.4211 11.398 40.2862 10.5911C40.2524 10.3893 40.1932 10.1691 40.0217 10.0576C39.8937 9.97445 39.7315 9.97137 39.5789 9.97101C34.9738 9.96003 30.3686 9.94906 25.7635 9.93809C25.0189 9.93631 24.2744 9.93454 23.5298 9.93276C21.0907 9.92695 18.6516 9.92114 16.2125 9.91533C13.0416 9.90777 9.87063 9.90022 6.70019 9.94932C6.18452 9.9573 5.97097 10.6037 5.90035 11.1145C5.82827 11.636 5.75731 12.1756 5.90279 12.6815ZM26.0744 54.084C23.7165 54.1695 21.3586 54.255 19.0007 54.3405C19.1952 54.3838 19.215 54.6628 19.1308 54.8434C19.0467 55.024 18.902 55.1949 18.9209 55.3933C18.9804 56.0164 18.7872 56.66 18.3945 57.1474C18.1162 57.4927 17.717 57.9233 17.9473 58.3023C18.6094 57.9762 19.3695 57.9298 20.1064 57.8892C22.814 57.7402 25.5216 57.5912 28.2291 57.4422C28.4054 56.7859 27.4355 56.1736 27.7047 55.5496C27.7662 55.4071 27.668 55.2501 27.5746 55.1261C27.1927 54.6194 26.7085 54.061 26.0744 54.084ZM9.03028 55.436C9.08742 56.357 9.20305 57.2745 9.37624 58.1809C11.6969 58.1738 14.0176 58.1668 16.3383 58.1597C16.4542 58.1593 16.6191 58.0664 16.5439 57.9782C16.1756 57.5463 15.8072 57.1145 15.4388 56.6826C15.2338 56.4422 15.0211 56.1861 14.9655 55.8751C14.8814 55.4049 15.1483 54.826 14.805 54.4938C13.0024 54.7998 11.1682 54.919 9.34121 54.8488C9.09018 54.8392 9.01472 55.1853 9.03028 55.436ZM28.2281 56.4098C28.4412 56.7721 28.31 57.3211 28.6491 57.5695C29.2221 57.9891 29.1295 59.0746 29.81 59.2782C29.9313 59.1561 30.0558 59.0292 30.1182 58.8688C30.1806 58.7083 30.1642 58.504 30.0334 58.3923C29.6743 58.0856 29.5914 57.5497 29.6895 57.0878C29.7877 56.6258 30.0347 56.2121 30.2463 55.7899C30.4912 55.3011 30.6925 54.7904 30.8468 54.2659C30.9158 54.0316 30.9616 53.7416 30.7833 53.5746C30.6348 53.4355 30.371 53.4312 30.2794 53.2495C30.2317 53.1549 30.2478 53.0365 30.1949 52.9446C30.1372 52.8444 30.0156 52.8039 29.9043 52.7725C29.5413 52.6703 29.1656 52.5791 28.7907 52.6196C28.4158 52.6602 28.0373 52.8567 27.8745 53.1968C27.7365 53.4849 27.2518 53.3448 27.0273 53.572C26.8 53.8022 27.0128 54.1965 27.2731 54.3886C27.5334 54.5808 27.869 54.7467 27.9351 55.0634C27.9945 55.3478 27.8019 55.6486 27.8909 55.9252C27.9516 56.1135 28.1278 56.2392 28.2281 56.4098ZM7.82936 47.0382C7.94105 47.2145 8.18514 47.2367 8.3938 47.2372C10.0294 47.2408 11.6589 47.0546 13.2839 46.8688C13.5777 46.8352 13.6499 46.4375 13.6005 46.1459C13.5511 45.8543 13.4785 45.5002 13.7029 45.3077C11.8313 45.1733 9.9486 45.1931 8.08017 45.3667C7.98849 45.3752 7.88848 45.388 7.82484 45.4545C7.75571 45.5268 7.75253 45.6379 7.75347 45.7379C7.75648 46.0579 7.75949 46.3779 7.7625 46.698C7.7636 46.8151 7.76664 46.9392 7.82936 47.0382ZM18.3569 53.8803C18.0096 53.6429 17.602 53.394 17.1957 53.5031C17.0912 53.5312 16.9722 53.5804 16.8827 53.5195C16.4344 53.2141 15.7201 53.4679 15.565 53.9877C15.5155 54.1536 15.336 54.2394 15.2268 54.3738C15.1176 54.5082 15.1582 54.7874 15.3295 54.7622C15.4718 54.7413 15.5446 54.9481 15.4841 55.0786C15.4235 55.209 15.2952 55.2959 15.2228 55.4201C15.0299 55.7512 15.297 56.153 15.5496 56.4411C15.9441 56.8909 16.3386 57.3407 16.7331 57.7906C17.0657 58.1697 17.4055 58.561 17.5765 59.0355C17.822 58.8719 17.7713 58.5017 17.6812 58.2208C17.5911 57.9399 17.5066 57.5871 17.7233 57.387C17.813 57.3041 17.9452 57.2617 18.0004 57.1528C18.0556 57.0438 17.8998 56.8785 17.8313 56.9796C17.7087 57.1604 17.5044 57.3216 17.2906 57.277C17.0768 57.2324 16.9835 56.8779 17.187 56.7987C17.2583 56.9432 17.4773 56.8641 17.6063 56.7675C17.7903 56.6297 17.9742 56.4919 18.1582 56.3541C18.3968 56.1754 18.6541 55.967 18.7006 55.6725C18.7503 55.3586 18.5562 54.9812 18.7728 54.7487C18.5918 54.5921 18.693 54.2801 18.5694 54.0751C18.5193 53.9922 18.4369 53.935 18.3569 53.8803ZM37.187 46.6209C37.392 46.5213 37.6251 46.5005 37.8521 46.4808C39.0177 46.3794 40.1821 46.2652 41.3451 46.1381C41.4899 46.1223 41.6396 46.1046 41.7649 46.0303C42.017 45.8807 42.0939 45.5241 41.9807 45.2537C41.8675 44.9832 41.6043 44.7981 41.3245 44.7107C41.0446 44.6234 40.7463 44.6206 40.4531 44.6233C39.4823 44.632 38.5119 44.6914 37.5472 44.8012C37.3762 44.8206 37.1848 44.8533 37.0853 44.9939C36.9961 45.1199 37.0124 45.2895 37.0325 45.4426C37.084 45.8354 37.1355 46.2282 37.187 46.6209ZM9.45243 48.6047C9.58617 48.8176 9.86566 48.894 10.1166 48.878C10.3676 48.862 10.6079 48.7731 10.856 48.732C11.6543 48.6 12.5155 48.9631 13.2621 48.6511C13.3214 48.6262 13.3817 48.5951 13.4178 48.5418C13.4533 48.4893 13.46 48.4229 13.4649 48.3597C13.4885 48.0574 13.4967 47.754 13.4894 47.451C13.4883 47.4037 13.4842 47.3508 13.4487 47.3196C13.4213 47.2955 13.3822 47.2912 13.3458 47.2884C12.0243 47.1866 10.7119 47.599 9.38675 47.5797C9.29786 47.5784 9.27568 47.7024 9.28493 47.7909C9.30092 47.9438 9.32063 48.0963 9.34404 48.2483C9.36308 48.3719 9.38591 48.4987 9.45243 48.6047ZM41.2517 46.8788C41.2397 46.8158 41.2234 46.749 41.1766 46.7051C41.1103 46.6429 41.0076 46.6473 40.917 46.6556C39.8613 46.7529 38.8062 46.8568 37.7518 46.9672C37.6077 46.9823 37.4421 47.0109 37.3703 47.1368C37.2827 47.2904 37.3917 47.4784 37.3988 47.655C37.4032 47.7656 37.3678 47.8846 37.4198 47.9823C37.4889 48.1123 37.666 48.1272 37.8131 48.1247C38.2402 48.1174 38.6671 48.1033 39.0941 48.0892C39.7601 48.0673 40.4261 48.0453 41.0921 48.0233C41.2234 48.019 41.2793 47.8555 41.2917 47.7247C41.3183 47.4427 41.3048 47.157 41.2517 46.8788ZM37.1864 52.7458C37.1323 52.7161 37.0924 52.6649 37.038 52.6358C36.9224 52.574 36.7788 52.6287 36.6708 52.703C36.5628 52.7772 36.4631 52.8731 36.3353 52.9022C36.2075 52.9313 36.0428 52.8499 36.0501 52.7191C36.06 52.5394 35.8001 52.4687 35.6378 52.5463C35.4754 52.6238 35.3577 52.7791 35.19 52.8443C35.0786 52.8876 34.9475 52.8903 34.856 52.9673C34.7645 53.0443 34.7853 53.2422 34.9046 53.2338C36.1367 53.1471 37.3688 53.0604 38.601 52.9737C38.7048 52.9664 38.8253 52.9491 38.8769 52.8587C38.9552 52.7215 38.7854 52.5556 38.6274 52.5587C38.4694 52.5618 38.3315 52.6596 38.1848 52.7182C37.9305 52.8198 37.6466 52.8036 37.3734 52.7858C37.3093 52.7816 37.2427 52.7767 37.1864 52.7458ZM22.2791 53.8147C23.2329 53.7546 24.1868 53.6945 25.1406 53.6345C25.197 53.6309 25.2591 53.6249 25.2982 53.5841C25.3742 53.5048 25.2927 53.3627 25.1862 53.336C25.0798 53.3092 24.9702 53.3526 24.8638 53.3794C24.7573 53.4062 24.6278 53.4098 24.5559 53.3269C24.4046 53.1526 24.1069 53.5045 23.9103 53.3837C23.6391 53.2173 23.3191 53.1206 23.0021 53.1471C22.685 53.1735 22.3739 53.3317 22.1942 53.5943C22.15 53.6589 22.1219 53.763 22.1894 53.8026C22.2158 53.8181 22.2485 53.8166 22.2791 53.8147ZM32.5957 52.428C32.4498 52.3456 32.2713 52.4569 32.1536 52.5761C32.0127 52.7189 31.8895 52.9493 32.0137 53.1068C32.0989 53.2149 32.2562 53.2249 32.3939 53.2257C32.7214 53.2277 33.049 53.2296 33.3766 53.2316C33.4354 53.2319 33.4967 53.2317 33.5491 53.205C33.6295 53.1639 33.668 53.0722 33.7001 52.9878C33.764 52.82 33.8122 52.5945 33.6655 52.491C33.6107 52.4523 33.541 52.443 33.4744 52.4349C33.3328 52.4177 33.1677 52.4085 33.0707 52.5131C32.9394 52.6546 32.9922 52.9467 32.8083 53.0056C32.7147 52.8158 32.7799 52.5321 32.5957 52.428ZM21.5757 53.7462C21.6224 53.7441 21.6704 53.7417 21.7128 53.722C21.8657 53.6511 21.8298 53.3956 21.6823 53.314C21.5348 53.2325 21.3487 53.2804 21.1997 53.3591C21.0644 53.4307 20.9034 53.3516 20.7589 53.3011C20.3607 53.1618 19.8883 53.2637 19.5829 53.5546C19.5042 53.6296 19.4326 53.7457 19.4856 53.8405C20.1823 53.8091 20.879 53.7777 21.5757 53.7462ZM33.9316 53.2669C33.9555 53.2823 33.9853 53.2848 34.0137 53.2861C34.2305 53.2961 34.501 53.2188 34.536 53.0046C34.5562 52.8803 34.4705 52.7478 34.3488 52.7154C34.1407 52.6598 33.9569 52.8759 33.8988 53.0833C33.8808 53.1476 33.8755 53.2307 33.9316 53.2669ZM31.8038 52.8452C31.8137 52.7545 31.7637 52.618 31.6827 52.6601C31.5996 52.8132 31.5486 52.9837 31.534 53.1572C31.5287 53.2204 31.5297 53.2891 31.5668 53.3405C31.604 53.3918 31.6899 53.4108 31.7301 53.3618C31.7497 53.338 31.7538 53.3055 31.7571 53.2748C31.7727 53.1316 31.7882 52.9884 31.8038 52.8452ZM18.1457 56.6412C18.0822 56.767 18.1275 56.937 18.2451 57.0146C18.3273 56.9138 18.4146 56.792 18.3842 56.6656C18.3538 56.5391 18.1283 56.5004 18.1094 56.6291M26.0609 53.7904C26.146 53.803 26.2541 53.7904 26.2854 53.7103C26.1943 53.6426 26.0714 53.6198 25.9621 53.6503C25.9367 53.6834 25.9274 53.7283 25.9374 53.7688C25.9728 53.7925 26.0181 53.8009 26.0597 53.7915L26.0609 53.7904Z" fill="#00160A"/>
<path fill-rule="evenodd" clip-rule="evenodd" d="M82.2134 17.4106C82.5481 17.4194 82.9272 17.4488 83.138 17.709C83.3113 17.923 83.3115 18.2244 83.3033 18.4997C82.9802 29.3359 82.5947 40.1702 82.147 51.0019C81.7459 47.8448 81.8963 44.6466 82.0472 41.4677C82.3122 35.8901 82.5771 30.3124 82.842 24.7348C82.8223 25.6837 82.4926 26.9507 81.544 26.9228C76.2945 26.768 71.0451 26.6133 65.7957 26.4585C65.3885 26.4465 64.8906 26.3736 64.7462 25.9928C70.5129 26.1489 76.2797 26.3051 82.0464 26.4613C82.2959 25.5571 82.3621 24.6027 82.2399 23.6727C76.4549 23.5591 70.67 23.4454 64.885 23.3317C64.7649 23.018 65.2439 22.8412 65.5797 22.8484C71.0515 22.9659 76.5232 23.0834 81.9949 23.2008C82.2846 23.2071 82.3943 22.8286 82.4134 22.5394C82.495 21.3059 82.5766 20.0724 82.6581 18.8389C82.6761 18.5681 82.6836 18.2653 82.5031 18.0627C82.3162 17.853 82.0012 17.8321 81.7203 17.8262C76.1028 17.7078 70.4854 17.5893 64.8679 17.4709C64.4958 24.8396 64.3799 32.2212 64.5205 39.5979C65.0954 38.1068 66.3016 36.8711 67.7782 36.2602C66.8001 35.3463 66.483 33.7956 67.0239 32.5711C66.4012 32.8921 65.8752 31.8992 66.0648 31.2248C66.1207 31.0261 66.4303 30.8346 66.5119 30.6371C66.7074 30.1641 66.6156 29.8668 66.5241 29.2168C66.4325 28.5669 67.3222 28.3823 67.8538 28.6988C68.3854 29.0153 68.9114 29.569 69.5046 29.3932C70.2241 29.1801 70.9871 29.7505 71.2583 30.4501C71.5296 31.1498 71.439 31.9307 71.3444 32.6751C71.2078 33.7497 70.8596 35.0666 69.7982 35.2832C69.719 36.0494 70.8459 36.1597 71.6054 36.288C72.6411 36.4631 73.4929 37.2525 73.9911 38.1773C74.4894 39.102 74.6853 40.1559 74.8423 41.1945C75.3454 44.5221 75.5063 47.9982 74.4202 51.1835C76.8933 51.1442 79.3664 51.105 81.8395 51.0657C80.4014 51.5667 78.8464 51.5862 77.3236 51.5898C73.1592 51.5995 68.9947 51.5298 64.833 51.3807C64.5827 51.3717 64.3103 51.354 64.1235 51.1871C63.9234 51.0084 63.8836 50.7151 63.8606 50.4479C63.7125 48.7269 63.73 46.9916 63.9129 45.2739C64.067 47.1827 64.221 49.0914 64.3751 51.0001C66.396 51.075 68.4169 51.1498 70.4377 51.2247C71.2054 51.2531 72.1788 51.1475 72.4179 50.4174C72.4164 50.6582 72.4149 50.899 72.4134 51.1397C72.9427 51.255 73.4944 51.2666 74.0282 51.1737C74.9559 48.4476 75.1438 45.4737 74.5665 42.6526C73.9425 42.5858 73.4128 43.1774 73.2811 43.791C73.1493 44.4045 73.2969 45.0381 73.3695 45.6614C73.5532 47.2391 73.2389 48.8711 72.4826 50.2678C73.129 48.419 73.2713 46.3967 72.8903 44.4755C72.6131 43.0779 72.063 41.7094 72.1194 40.2856C72.5727 41.1357 72.7898 42.1103 72.7399 43.0724C73.3558 42.8164 73.9717 42.5604 74.5875 42.3044C74.4873 40.9179 74.3736 39.4836 73.7125 38.2607C73.0515 37.0378 71.6831 36.0815 70.3194 36.3508C70.1983 37.2031 69.6188 38.0986 68.7597 38.1536C67.9006 38.2086 67.239 36.8902 67.9717 36.4384C66.2386 36.9286 65.2192 38.6705 64.3826 40.2655C64.0482 40.903 63.7058 41.5778 63.7294 42.2973C63.753 43.0168 64.2882 43.7735 65.0081 43.7702C65.8422 42.877 66.3265 41.6655 66.3381 40.4435C66.5545 43.6035 66.5454 46.7788 66.3109 49.9375C66.2871 50.2577 65.9431 50.6821 65.7644 50.4152C66.203 48.0106 66.255 45.5359 65.9179 43.115C65.1412 44.1859 64.0736 45.0436 62.8605 45.5713C62.3036 45.8136 62.1604 46.5489 62.2515 47.1494C62.3426 47.7499 62.5887 48.3416 62.5099 48.9439C62.431 49.5461 62.1051 50.1006 61.2598 49.8853C60.4146 49.6699 59.1929 50.0176 59.1929 50.0176C59.1929 50.0176 59.3513 52.7922 59.6264 53.618C60.6874 54.4415 62.2799 52.8819 63.5053 53.4317C64.2674 53.7736 65.1357 53.7547 65.9706 53.7295C66.4919 53.7138 67.2251 53.3217 66.9214 52.8977C65.5947 53.0371 64.2531 53.0353 62.9268 52.8922C62.3564 52.8306 61.9389 52.2788 61.8391 51.7139C61.7392 51.149 61.8848 50.5728 62.0293 50.0176C62.1175 50.4717 62.0856 51.2649 62.1345 51.5898C62.1835 51.9147 62.3261 52.4525 62.683 52.4874C65.4829 52.7609 66.4222 52.5831 68.382 52.126C68.7264 52.0456 69.1509 51.9442 69.5046 51.9464C69.9278 51.9491 70.3237 52.1773 70.7345 52.2791C72.1607 52.6325 73.6556 52.5222 75.1206 52.4096C77.9481 52.1924 80.7757 51.9752 83.6032 51.7579C84.7542 49.8203 82.571 46.8798 84.122 45.2448C84.2529 35.4147 84.3839 25.5846 84.5148 15.7545C77.159 15.5221 69.7958 15.5225 62.44 15.7558C61.9375 24.2886 61.8422 32.8454 62.1545 41.3874C61.6882 40.1678 61.6554 38.8319 61.635 37.5264C61.5245 30.4703 61.6076 23.4112 61.8842 16.3596C61.8969 16.0365 61.9303 15.6713 62.1835 15.4702C62.3735 15.3192 62.635 15.3062 62.8777 15.3C70.1531 15.1138 77.4335 15.117 84.7088 15.3097C84.7088 22.3021 85.0796 28.2853 84.5971 34.754C84.3293 38.343 84.5148 41.6685 84.5148 45.2739C85.2153 45.3581 86.1417 45.0261 86.365 44.3568C86.5884 43.6875 86.5023 42.9602 86.4311 42.2582C85.4741 32.8305 87.6476 23.3167 86.94 13.867C77.8745 13.4518 68.7924 13.3999 59.7228 13.7113C59.5351 13.7177 59.3295 13.7315 59.1929 13.8604C59.0399 14.0047 59.0283 14.24 59.0269 14.4503C58.9763 22.2472 58.9257 30.0442 58.8751 37.8411C58.4002 30.9538 58.2675 24.0387 58.6199 17.144C58.6584 16.3913 58.7005 15.6198 58.4776 14.8998C58.2547 14.1798 57.7052 13.5101 56.9645 13.3707C56.8185 12.0791 56.838 10.7688 57.0225 9.48218C67.698 9.53769 78.3735 9.5932 89.049 9.64871C89.0875 10.461 89.1261 11.2733 89.1647 12.0856C89.2012 12.8547 88.8966 13.9436 88.1421 13.7904C87.8355 13.7282 87.6884 14.1512 87.6723 14.4635C87.5399 17.0296 87.4074 19.5957 87.275 22.1618C86.8814 29.7881 86.4877 37.4257 86.7519 45.0576C87.4341 45.0916 88.1164 45.1257 88.7987 45.1597C88.9797 45.5882 89.1645 46.0439 89.097 46.5041C89.0295 46.9643 88.6024 47.4051 88.1475 47.3078C88.5439 48.2318 87.4865 49.3904 86.5302 49.0799C86.6069 50.1848 86.6836 51.2898 86.7604 52.3947C86.7748 52.6031 86.7964 52.8289 86.9379 52.9827C87.3792 53.4624 88.3247 52.7219 88.7907 53.1776C88.8538 54.2644 88.9169 55.3512 88.98 56.4379C88.9972 56.7343 88.999 57.0719 88.7836 57.2762C88.6391 57.4133 88.4307 57.4539 88.2343 57.4871C84.4049 58.1345 80.4794 58.211 76.6276 57.7133C76.8345 58.7035 76.9943 59.8737 76.2941 60.6039C75.7776 61.1424 74.7905 61.5621 75.0257 62.2703C75.4491 62.1808 75.8324 61.9153 76.0651 61.5505C76.02 62.0238 75.5796 62.4259 75.1041 62.4279C74.6961 62.471 74.7773 61.7892 75.0557 61.4878C75.6671 60.826 76.4577 60.2339 76.6524 59.3542C76.847 58.4745 75.8394 57.3993 75.1265 57.9502C74.6978 58.2816 74.7173 58.923 74.7775 59.4616C74.3922 59.0269 74.4424 58.2784 74.8824 57.8991C73.7353 58.1608 72.545 58.2326 71.3747 58.1106C72.8529 57.8866 74.331 57.6626 75.8091 57.4385C75.3884 56.2739 75.4981 54.929 76.102 53.8479C75.1771 53.7461 74.2356 53.7976 73.3273 53.9997C73.0732 54.0562 72.8134 54.1285 72.6102 54.2913C72.3968 54.4623 72.2679 54.7151 72.1513 54.9625C71.1613 57.0613 70.5916 59.3572 70.4853 61.6752C70.2553 60.3413 70.4248 58.941 70.9665 57.7005C70.8362 57.4936 70.6673 57.311 70.4711 57.165C71.8189 56.6373 72.4653 54.814 71.751 53.5552C71.6387 53.3572 71.4997 53.1747 71.3417 53.0109C70.3919 52.0266 68.7155 51.855 67.5859 52.6264C67.1033 53.234 67.3366 53.4385 67.1321 53.7987C67.0073 54.0185 66.7308 54.1563 66.612 54.3836C66.5675 54.4686 66.5564 54.5957 66.5119 54.6806C66.8421 54.9503 67.2563 55.1155 67.6814 55.1472C67.6395 55.6033 67.5976 56.0593 67.5556 56.5154C67.7969 56.5574 68.0381 56.5994 68.2794 56.6414C67.9564 56.963 68.2442 57.633 68.6998 57.62C69.1304 58.9895 69.561 60.3589 69.9915 61.7284C69.552 60.6293 69.1124 59.5302 68.6728 58.4311C67.1916 58.5998 65.7104 58.7685 64.2292 58.9371C64.2827 59.2084 64.4226 59.462 64.6236 59.6519C63.7453 59.7791 62.8632 58.9421 62.9442 58.0583C62.5122 58.8376 63.1788 59.7667 63.8649 60.3352C64.5511 60.9036 65.3831 61.5421 65.354 62.4327C64.6719 62.6718 63.8337 62.1856 63.7027 61.4748C63.9506 61.9365 64.4863 62.2266 65.0083 62.1819C64.6688 61.8409 64.3293 61.4999 63.9898 61.159C64.2408 61.3095 64.4917 61.4599 64.7426 61.6104C64.8555 61.3174 64.5948 60.9886 64.291 60.9095C63.9872 60.8303 63.6682 60.9257 63.3689 61.0204C62.8135 61.196 62.2393 61.3821 61.8079 61.7735C61.3764 62.1649 61.1288 62.823 61.386 63.3457C61.9358 63.1564 62.4073 62.7493 62.6746 62.2328C62.6453 62.9273 61.9732 63.5275 61.2799 63.4784C60.7886 62.5135 61.6003 61.1647 62.683 61.1471C63.1292 61.1398 63.3939 60.5804 63.2763 60.1498C63.1588 59.7193 62.7987 59.4055 62.4566 59.1189C62.2263 59.4197 61.9289 59.6687 61.5924 59.8426C61.5815 59.3349 61.6813 58.8251 61.8829 58.359C61.4277 58.876 61.1711 59.5634 61.1761 60.2522C60.9439 59.6845 60.9646 59.0186 61.2317 58.4664C59.8851 58.6958 58.5179 58.8033 57.152 58.7873C56.9271 57.2272 56.7021 55.6672 56.4771 54.1071C57.3217 53.8787 58.1968 53.763 59.0717 53.7638C58.6333 51.1397 59.0717 51.0668 58.5271 49.8853C58.4531 49.7247 58.1902 50.0315 58.0113 49.6699C57.8324 49.3083 57.7525 48.3666 57.7525 48.3666C57.7525 48.3666 57.0221 48.2599 56.9645 48.0633C56.7386 47.2919 56.4846 46.6027 57.0341 46.1876C57.6199 45.7452 58.5371 46.1242 59.1509 45.7215C58.9202 44.8109 58.8755 43.8536 59.0204 42.9255C59.3811 43.5386 59.2526 44.318 59.4511 45.0011C59.6495 45.6842 60.5845 46.2583 61.0316 45.705C60.3764 44.5367 59.4983 42.8567 58.6108 41.8536C58.0435 41.2124 57.2386 41.3656 56.6496 40.6576C56.0606 39.9497 55.8859 39.8092 55.6781 39.2173C55.4704 38.6254 55.7537 37.8148 56.375 37.7283C56.9826 37.6438 57.4419 38.2449 57.7525 38.7737C57.6128 38.307 57.9863 37.7596 58.4718 37.7194C59.0727 39.6142 60.1614 41.352 61.6042 42.7193C62.0569 43.1484 62.9706 43.4369 63.1505 42.8396C62.8295 42.3376 63.3873 41.7622 63.6978 41.2536C64.0731 40.6389 64.0895 39.8783 64.095 39.1581C64.15 32.0017 64.2049 24.8453 64.2598 17.6888C64.2641 17.1257 65.0257 16.9626 65.5887 16.9773C71.1303 17.1217 76.6719 17.2662 82.2134 17.4106ZM57.378 13.1129C57.4614 13.177 57.5751 13.1798 57.6803 13.1799C59.8409 13.1819 62.0015 13.1839 64.1621 13.1858C65.4142 13.187 66.6663 13.1881 67.9185 13.1892C70.3164 13.1914 72.7143 13.1936 75.1122 13.1958C79.407 13.1997 83.7018 13.2036 87.9966 13.2075C88.2303 13.2077 88.5072 13.1846 88.6259 12.9833C88.6864 12.8805 88.6883 12.7547 88.6885 12.6354C88.69 11.8322 88.6915 11.029 88.6929 10.2257C88.6931 10.1422 88.6899 10.0497 88.6325 9.98897C88.5714 9.92427 88.4719 9.9194 88.3829 9.91887C78.1969 9.85868 68.0109 9.79848 57.825 9.73829C57.6988 9.73754 57.5576 9.74272 57.4695 9.83319C57.3902 9.91476 57.3804 10.0394 57.3752 10.1531C57.3363 10.997 57.2975 11.8408 57.2587 12.6847C57.2516 12.8389 57.2556 13.0187 57.378 13.1129ZM75.8039 56.2146C75.7404 56.152 75.6225 56.2184 75.6061 56.306C75.5897 56.3937 75.6374 56.4793 75.6841 56.5551C75.8481 56.8213 76.0327 57.09 76.3039 57.2454C76.567 57.3962 76.8807 57.4228 77.183 57.446C78.2235 57.526 79.264 57.606 80.3044 57.686C80.9734 57.7375 81.6436 57.7889 82.3145 57.7773C84.3984 57.7413 86.4386 57.0988 88.5227 57.0887C88.6938 57.0879 88.7409 56.8544 88.733 56.6834C88.6919 55.7939 88.6509 54.9044 88.6098 54.0149C88.5987 53.774 88.5033 53.4529 88.2629 53.4724C84.2911 53.7953 80.2998 53.879 76.3179 53.723C76.341 54.5293 76.1069 55.341 75.658 56.0111C76.0878 56.03 76.5199 55.9968 76.9418 55.9123C76.6227 55.8075 76.2863 55.7555 75.9505 55.7593C76.5172 55.4582 77.2904 55.6265 77.6807 56.1359C77.7166 56.1828 77.7511 56.2374 77.7459 56.2964C77.7359 56.4111 77.5955 56.4575 77.4819 56.4762C76.9008 56.572 76.223 56.6282 75.8039 56.2146ZM61.3471 56.7851C61.2525 56.8537 61.1192 56.9224 61.0289 56.8483C60.9852 56.8124 60.969 56.7537 60.9551 56.6989C60.8836 56.4156 60.8114 56.1256 60.8383 55.8346C60.8652 55.5436 61.0107 55.2463 61.2726 55.1167C61.5386 54.985 61.852 54.7552 61.7705 54.4699C61.6931 54.1984 61.3331 54.1532 61.0509 54.1613C59.7315 54.1991 58.4121 54.2369 57.0927 54.2748C57.0388 54.2763 56.979 54.2804 56.9418 54.3193C56.8972 54.3661 56.9053 54.4404 56.9165 54.5041C57.1265 55.705 57.3366 56.9059 57.5467 58.1068C57.563 58.2005 57.5874 58.3061 57.67 58.3533C57.7244 58.3845 57.7911 58.3817 57.8537 58.3778C58.7098 58.3251 59.5641 58.2431 60.4146 58.1321C61.1139 58.0408 61.9386 57.9727 62.4091 58.4979C62.406 58.0344 62.7545 57.6569 62.9962 57.2614C63.238 56.8659 63.344 56.2701 62.9662 56.0016C62.575 55.7234 62.2349 55.3737 61.9677 54.975C61.8039 55.1804 62.0018 55.4682 62.042 55.7278C62.1102 56.1677 61.7074 56.5238 61.3471 56.7851ZM55.8682 38.457C55.8819 38.5863 55.9638 38.6968 56.0428 38.8002C56.4158 39.2884 56.7889 39.7767 57.162 40.2649C56.7375 39.9228 56.313 39.5808 55.8884 39.2387C56.3314 40.1977 57.1626 40.9705 58.1513 41.3425C58.3159 41.4044 58.4867 41.4567 58.6333 41.5537C58.8897 41.7234 59.0418 42.0076 59.191 42.2765C59.7008 43.1954 60.2945 44.0677 60.9622 44.879C61.2602 45.241 61.6573 45.6243 62.1211 45.5557C63.1078 45.4098 64.0254 44.8444 64.5994 44.0288C64.3348 43.7506 64.0702 43.4725 63.8056 43.1943C63.7138 43.0978 63.6155 42.9972 63.4872 42.9612C63.359 42.9253 63.1943 42.9833 63.1635 43.1129C63.0713 43.4997 62.5741 43.6674 62.1941 43.5503C61.8141 43.4333 61.5304 43.1231 61.2662 42.8259C59.999 41.4004 58.6783 39.8661 58.3731 37.9834C58.1511 37.8738 58.0048 38.2302 58.0113 38.4777C58.0185 38.7532 58.0257 39.0288 58.0329 39.3043C57.335 39.0191 57.095 37.9058 56.341 37.9091C56.6895 38.5087 57.0778 39.0852 57.5024 39.6335C56.8767 39.3305 56.3614 38.8054 56.0702 38.1742C55.9402 38.1786 55.8546 38.3277 55.8682 38.457ZM84.2726 50.8873C84.1804 51.3604 83.9241 51.8253 83.4991 52.0528C83.1953 52.2153 82.8397 52.2423 82.496 52.2659C80.2204 52.4224 77.9449 52.5789 75.6693 52.7354C75.9232 53.0762 76.2439 53.4517 76.6688 53.4424C79.8565 53.373 83.0442 53.3035 86.2319 53.2341C86.3441 53.2316 86.4738 53.2203 86.5376 53.1279C86.5863 53.0574 86.5783 52.9637 86.5683 52.8785C86.4282 51.684 86.288 50.4894 86.1479 49.2948C86.1389 49.2179 86.1263 49.1338 86.0686 49.0823C86.0006 49.0216 85.8977 49.0293 85.8072 49.0406C85.411 49.0903 85.0147 49.1399 84.6184 49.1896C84.4575 49.2097 84.2488 49.2855 84.2656 49.4468C84.3153 49.9263 84.3647 50.4142 84.2726 50.8873ZM64.7862 58.5397C65.8891 58.4561 66.9873 58.311 68.0741 58.1051C68.2664 58.0687 68.5023 57.9836 68.5155 57.7882C68.2898 57.806 68.0596 57.6742 67.9607 57.4706C67.8617 57.267 67.9003 57.0045 68.0538 56.8381C67.8799 56.8432 67.6976 56.8466 67.5423 56.7682C67.387 56.6898 67.2727 56.5006 67.3386 56.3396C67.4459 56.0771 67.4568 55.7764 67.3689 55.5068C67.3161 55.3449 67.1907 55.1726 67.0209 55.1868C66.7299 55.211 66.4388 54.9894 66.3847 54.7024C66.3305 54.4154 66.5209 54.103 66.8009 54.0196C66.7852 53.9463 66.6867 53.9347 66.612 53.9397C65.1626 54.0375 63.7132 54.1353 62.2637 54.2332C62.2134 54.2366 62.1536 54.2461 62.1326 54.292C62.1196 54.3204 62.1266 54.3534 62.1345 54.3836C62.2715 54.9059 62.6167 55.3704 63.0773 55.6522C62.8456 55.4148 63.0541 54.9664 63.3763 54.8876C63.6985 54.8087 64.0314 54.9958 64.2573 55.2387C64.4832 55.4817 64.64 55.7816 64.8611 56.0289C64.9256 56.101 64.9982 56.1734 65.0205 56.2676C65.0428 56.3617 64.986 56.482 64.8892 56.484C64.8464 56.4848 64.8069 56.4631 64.7697 56.442C64.308 56.1803 63.8464 55.9186 63.3847 55.6569C63.4828 55.4722 63.7706 55.534 63.9296 55.6699C64.0887 55.8057 64.2283 55.9987 64.4365 56.0189C64.3471 55.866 64.2578 55.713 64.1684 55.5601C64.0348 55.3314 63.8231 55.0676 63.5671 55.1353C63.3599 55.19 63.2691 55.4534 63.3256 55.6601C63.382 55.8669 63.5408 56.0274 63.6934 56.1778C63.9323 56.4131 64.2648 56.6673 64.5684 56.525C64.659 56.4825 64.7465 56.6246 64.696 56.711C64.6455 56.7974 64.5312 56.8205 64.4312 56.8186C64.1449 56.8133 63.8646 56.6678 63.6955 56.4369C63.6365 56.7665 63.5776 57.0962 63.5186 57.4258C63.9056 57.5576 64.2074 57.9129 64.2746 58.3161C64.3084 58.5187 64.5814 58.5552 64.7862 58.5397ZM69.6185 29.5969C69.3948 29.6073 69.1866 29.716 68.9643 29.7437C68.6896 29.778 68.4014 29.6791 68.2056 29.4834C67.9594 29.2374 67.215 28.6024 66.9511 28.8422C66.6872 29.0819 66.6326 30.0213 66.9365 30.5286C66.9942 30.6248 66.9371 30.7539 66.85 30.8247C66.7629 30.8954 66.652 30.929 66.555 30.9856C66.2825 31.1448 66.1461 31.5043 66.2444 31.8043C66.3427 32.1042 66.6655 32.3133 66.9793 32.2803C66.7516 32.0019 66.7801 31.5488 67.0409 31.3012C67.3018 31.0535 67.7558 31.0486 68.0219 31.2906C68.1934 31.4465 68.4658 31.4133 68.6779 31.3198C68.89 31.2264 69.0834 31.0824 69.3106 31.037C69.6083 30.9775 69.9355 31.1134 70.1034 31.3663C70.2712 31.6192 70.2694 31.9736 70.0989 32.2247C69.9389 32.4605 70.0744 32.8356 70.348 32.9147C70.6217 32.9939 70.9365 32.749 70.927 32.4643C70.9114 31.9932 71.2431 31.5569 71.2038 31.0871C71.1706 30.6918 70.8836 30.369 70.5956 30.0962C70.3224 29.8374 69.9944 29.5794 69.6185 29.5969ZM67.3648 31.4776C67.085 31.5421 66.9889 31.9749 67.215 32.1518C67.4102 31.9803 67.7238 31.9623 67.9373 32.1103C67.8283 32.2955 67.5303 32.1938 67.3427 32.2986C67.1838 32.3873 67.1472 32.5961 67.1321 32.7775C67.0913 33.2683 67.0816 33.7618 67.1033 34.2538C67.1177 34.5818 67.1477 34.9161 67.2793 35.2168C67.4109 35.5175 67.6611 35.7831 67.9813 35.8551C68.2619 35.9183 68.5598 35.8256 68.7988 35.6656C69.0378 35.5057 69.2275 35.2835 69.4099 35.0612C69.6414 34.779 69.8694 34.4868 70.0078 34.1491C70.1462 33.8114 70.1863 33.418 70.0389 33.0842C69.9173 32.8088 69.8629 32.504 69.8819 32.2036C69.8969 31.9647 69.9492 31.6958 69.7996 31.509C69.6176 31.2815 69.2574 31.3289 68.9916 31.4481C68.7257 31.5672 68.4566 31.741 68.1684 31.6981C67.8895 31.6567 67.6396 31.4143 67.3648 31.4776ZM57.0493 47.4854C57.0492 47.6032 57.0806 47.7297 57.1296 47.8216C57.2587 48.0633 58.4297 47.8268 58.6108 47.8087C59.6487 47.705 60.6866 47.6013 61.7246 47.4975C61.8838 47.4816 62.0758 47.4408 62.1256 47.2887C62.1503 47.2134 62.1303 47.1315 62.1103 47.0547C62.0633 46.8752 62.0164 46.6958 61.9695 46.5163C61.9412 46.408 61.9099 46.2945 61.8311 46.215C61.6996 46.0824 61.4868 46.0897 61.3007 46.1062C60.0401 46.2175 58.7796 46.3289 57.519 46.4403C57.352 46.4551 57.1561 46.4888 57.0828 46.6395C57.0507 46.7056 57.05 46.7819 57.0499 46.8554C57.0497 47.0654 57.0495 47.2754 57.0493 47.4854ZM83.9157 46.7818C83.9628 46.8473 84.0561 46.8538 84.1369 46.8542C85.5684 46.8611 86.9999 46.868 88.4314 46.8749C88.5258 46.8754 88.6266 46.874 88.7049 46.8214C88.8349 46.7341 88.8468 46.5508 88.8454 46.3942C88.8437 46.2058 88.841 46.0125 88.7724 45.8371C88.7037 45.6616 88.5536 45.5051 88.3662 45.4852C87.0193 45.3416 85.6703 45.8254 84.3192 45.7292C84.1212 45.7152 83.9474 45.8837 83.887 46.0727C83.8265 46.2618 83.8526 46.4662 83.8793 46.6629C83.8849 46.7044 83.8912 46.7478 83.9157 46.7818ZM83.8571 47.5362C83.819 47.9393 83.8471 48.3486 83.9399 48.7428C85.1277 48.7022 86.3145 48.6353 87.4992 48.542C87.6952 48.5266 87.9523 48.4443 87.9381 48.2483C87.9231 48.0423 87.9082 47.8363 87.8932 47.6303C87.8883 47.5629 87.8818 47.4911 87.8401 47.4379C87.7828 47.3649 87.6798 47.3507 87.5874 47.3426C86.4341 47.2416 85.2738 47.2213 84.1178 47.282C84.0529 47.2854 83.983 47.291 83.9336 47.333C83.877 47.3812 83.8641 47.4622 83.8571 47.5362ZM62.0651 48.1509C62.0446 47.9943 61.8298 47.97 61.6728 47.9876C60.5486 48.114 59.4243 48.2403 58.3001 48.3666C58.2523 48.372 58.202 48.3783 58.1632 48.4068C58.0865 48.463 58.0876 48.5761 58.098 48.6707C58.1301 48.9625 58.1932 49.2804 58.4219 49.4645C58.7305 49.713 59.1792 49.6059 59.5668 49.5236C60.2885 49.3705 61.038 49.35 61.767 49.4634C61.9263 49.4881 62.0762 49.3564 62.129 49.2041C62.1818 49.0518 62.1614 48.8851 62.1405 48.7252C62.1154 48.5338 62.0903 48.3423 62.0651 48.1509ZM69.5082 37.4339C69.6286 37.275 69.7388 37.1083 69.8378 36.9353C69.9134 36.8033 69.9845 36.6498 69.9404 36.5043C69.9118 36.4095 69.8389 36.336 69.7789 36.2573C69.5918 36.0122 69.5194 35.683 69.5865 35.382C69.5922 35.3563 69.5988 35.329 69.5899 35.3041C69.555 35.207 69.4133 35.2997 69.3602 35.3882C69.1316 35.7698 68.7371 36.0479 68.3009 36.1351C68.2059 36.1541 68.2311 36.3017 68.181 36.3744C67.9717 36.6782 67.5405 37.0807 67.9373 37.5512C68.2353 37.9046 68.2986 37.9825 68.382 38.0081C68.8119 38.14 69.2366 37.7924 69.5082 37.4339ZM72.6313 53.7759C72.7486 53.7548 72.8658 53.7337 72.983 53.7126C73.2112 53.6715 73.4475 53.627 73.6368 53.4931C73.8866 53.3162 74.0424 52.9925 74.3399 52.9203C74.412 52.9028 74.5116 52.8287 74.4506 52.7865C74.4357 52.7762 74.4163 52.7761 74.3983 52.7763C73.5998 52.7863 72.8016 52.8217 72.0054 52.8825C72.1045 53.1432 72.2199 53.3976 72.3506 53.644C72.3765 53.6929 72.4058 53.7442 72.4551 53.7693C72.5085 53.7965 72.5724 53.7865 72.6313 53.7759ZM74.9725 52.9324C74.6031 52.9863 74.2879 53.229 74.0344 53.503C73.973 53.5693 74.0372 53.6997 74.1272 53.6914C74.2251 53.537 74.4355 53.5106 74.6181 53.4998C75.0368 53.4751 75.4556 53.4504 75.8744 53.4257C75.7648 53.0689 75.3418 52.8786 74.9725 52.9324ZM70.2306 34.1334C70.1535 34.4398 69.9827 34.722 69.7469 34.9323C69.7619 35.0107 69.8764 35.003 69.951 34.975C70.2192 34.8741 70.4958 34.7637 70.6911 34.5541C70.8865 34.3446 70.9747 34.0064 70.8167 33.7674C70.7628 34.0061 70.2903 33.8961 70.2306 34.1334ZM63.2414 58.1227C63.1502 58.3087 63.1466 58.5761 63.3257 58.6802C63.479 58.7694 63.6991 58.6656 63.7495 58.4956C63.7999 58.3256 63.6938 58.1321 63.5321 58.0595C63.4319 58.0145 63.2897 58.0241 63.2414 58.1227ZM62.4522 53.6913C62.4251 53.7343 62.4179 53.8065 62.4662 53.8223C62.7963 53.7872 63.1293 53.7793 63.4608 53.7987C63.498 53.7184 63.4483 53.6194 63.3739 53.5716C63.2994 53.5237 63.2074 53.5143 63.1193 53.5061C62.8766 53.4835 62.5819 53.485 62.4522 53.6913ZM77.1829 56.2949C77.2382 56.2774 77.2764 56.2168 77.2681 56.1593C76.8825 56.0789 76.4791 56.0844 76.0958 56.1754C76.4205 56.3634 76.825 56.4079 77.1829 56.2949ZM61.2562 56.3331C61.3487 55.9746 61.4136 55.609 61.45 55.2406C61.0905 55.456 60.9927 56.0072 61.2562 56.3331ZM70.394 33.7594C70.5406 33.7475 70.6701 33.6224 70.687 33.4763C70.7039 33.3301 70.6065 33.1787 70.4665 33.1336C70.3342 33.2655 70.2614 33.4548 70.2711 33.6414C70.273 33.6775 70.2798 33.7171 70.3077 33.74C70.3311 33.7592 70.3638 33.7619 70.394 33.7594ZM63.8515 58.975C63.7323 58.8517 63.5167 58.8391 63.3841 58.9478C63.44 59.0745 63.5393 59.1816 63.6613 59.2471C63.7174 59.2772 63.7859 59.2985 63.8437 59.2719C63.9492 59.2235 63.932 59.0585 63.8515 58.975ZM63.9516 58.205C63.9633 58.0233 63.8656 57.8388 63.7087 57.7464C63.5518 57.654 63.343 57.658 63.1898 57.7564C63.4733 57.8458 63.736 58.0004 63.9516 58.205ZM61.777 55.7365C61.754 55.6807 61.7067 55.6223 61.647 55.6305C61.5234 55.8268 61.5244 56.0944 61.6492 56.2899C61.8004 56.156 61.8542 55.9231 61.777 55.7365ZM61.922 59.1751C61.8927 59.2252 61.9192 59.299 61.9737 59.319C62.0537 59.2784 62.1063 59.189 62.1029 59.0994C62.0384 59.0721 61.9544 59.1131 61.9362 59.1808M82.3691 23.3459C82.3316 23.3734 82.2942 23.4009 82.2568 23.4284C82.2802 23.4709 82.3036 23.5134 82.327 23.5559C82.3954 23.5209 82.4231 23.4241 82.3835 23.3583L82.3691 23.3459Z" fill="#00160A"/>
<ellipse cx="67.3299" cy="34.3389" rx="0.144613" ry="0.289226" fill="#FFB61D"/>
</svg>
