<svg width="87" height="70" viewBox="0 0 87 70" fill="none" xmlns="http://www.w3.org/2000/svg">
<path fill-rule="evenodd" clip-rule="evenodd" d="M50.2265 69.0415C60.5205 69.0415 69.5541 61.3843 64.4809 50.9838C59.4076 40.5833 78.258 40.9193 83.7952 33.7311C90.5481 24.9649 88.5925 -12.2463 45.2415 10.4395C38.2971 14.0735 20.4626 6.70094 14.5468 10.359C7.58331 14.665 -2.21391 23.4822 7.58331 32.5142C12.4092 36.9632 -4.89283 48.5107 2.68513 58.8543C10.0793 68.947 15.2625 59.3257 26.5201 61.3843C37.7776 63.4428 42.5814 69.0415 50.2265 69.0415Z" fill="#64FCD9"/>
<path d="M38.2785 50.9477C38.2785 50.9477 40.6487 49.8328 41.5336 49.0571C42.4185 48.2814 43.5186 46.3543 43.5186 46.3543C43.5186 46.3543 55.6025 55.0812 63.4816 53.8363C65.297 53.5495 68.8343 52.3428 69.0599 50.2167C69.6759 44.4111 61.1535 42.9274 63.0151 39.9833C64.1514 38.1862 67.6814 40.8609 67.6814 40.8609L82.3229 48.0626C82.3229 48.0626 77.2646 60.5312 64.9896 61.0309C49.8896 61.6455 38.2785 50.9477 38.2785 50.9477Z" fill="white"/>
<path fill-rule="evenodd" clip-rule="evenodd" d="M26.6703 2.11779C26.5329 2.06384 25.7949 1.16019 24.8579 0.99572C24.4322 0.920982 24.8186 1.46311 24.35 1.46799C22.9545 1.48252 20.6866 1.22033 20.2665 1.46799C19.9543 1.65146 20.6419 2.29242 20.2665 2.32185C16.7245 2.59948 11.321 6.13602 10.1486 7.85177C9.77553 8.3978 12.793 7.4714 12.3123 7.74134C11.7727 8.04431 11.1742 10.0282 10.8164 11.5604C10.5686 12.6155 10.4127 13.9734 10.3576 15.4505C10.3117 16.7258 10.3301 16.9369 10.5136 17.6342C10.7246 18.414 10.8898 18.6434 11.1742 18.5333C11.2751 18.4966 11.321 18.359 11.321 18.1021C11.321 17.9002 11.4311 17.2947 11.5687 16.7534L11.8073 15.7808L11.9082 16.1845C12.0366 16.6524 12.789 18.1021 13.4679 19.1572C13.5045 19.2132 13.6621 19.142 13.8041 18.7986C13.9336 18.4857 13.8811 17.9858 14.101 17.45C14.6019 16.2296 15.5856 14.6429 16.7245 13.3727C18.4078 11.4956 18.9663 9.32318 20.5442 7.57933C23.4889 4.32493 27.1847 2.31974 26.6703 2.11779Z" fill="white"/>
<path fill-rule="evenodd" clip-rule="evenodd" d="M12.3541 8.1842C11.8817 8.56404 11.1805 11.6451 11.1685 11.6966C10.9208 12.7517 10.682 16.4157 10.9261 17.1094C11.1702 17.8031 11.8537 15.3025 11.8537 15.3025C11.8537 15.3025 12.8867 17.985 13.7995 18.7205C13.8385 18.7519 12.7145 15.4016 12.3541 13.4458C11.8783 10.864 12.6229 7.96802 12.3541 8.1842Z" fill="#E7EAEE"/>
<path fill-rule="evenodd" clip-rule="evenodd" d="M29.9606 62.1438C30.8414 61.9511 32.3275 61.2802 32.8965 61.0507C33.4656 60.8213 35.1994 58.3729 35.8233 55.6113C36.2729 53.5745 36.5023 50.6752 36.2454 50.1889C36.2074 50.1199 36.0687 48.8015 36.4381 49.232C37.2593 50.1889 38.2341 51.6912 41.3098 48.9993C42.1476 48.2661 43.2579 47.3199 42.9656 46.4834C42.1476 44.1428 38.6017 39.43 38.0611 39.073C37.4148 38.6461 34.148 39.0088 29.2863 37.5739C23.7728 35.9466 21.4769 31.1546 19.3193 31.7784C17.5745 32.2828 13.3939 35.3829 12.3447 37.3461C7.39145 46.6142 13.3939 53.1085 14.7609 54.9738L16.0881 55.5471L16.134 56.7306L16.1982 57.4738C16.3175 58.8959 16.3634 59.0244 17.0056 59.5014C18.6112 60.7217 21.7766 61.8594 24.6391 62.2631C25.9695 62.4466 28.8596 62.3824 29.9606 62.1438Z" fill="white"/>
<path fill-rule="evenodd" clip-rule="evenodd" d="M16.6101 56.2973L16.6744 57.0405C16.7936 58.4626 16.8395 58.591 17.4818 59.0681C18.429 59.788 19.919 60.4791 21.5694 61.0078C22.7167 61.3753 23.9414 61.6642 25.1153 61.8298C26.4456 62.0133 29.3357 61.9491 30.4367 61.7105C30.9809 61.5926 26.5045 58.0758 23.8675 59.0681C21.8423 59.8302 17.0691 54.0174 19.0098 52.4987C21.1869 50.7952 17.1976 44.076 17.0691 42.6173C16.9407 41.1586 16.4348 40.81 16.42 40.8612C16.4053 40.9124 16.4053 41.0869 16.445 41.5074C16.6162 43.32 16.6101 56.2973 16.6101 56.2973Z" fill="#E7EAEE"/>
<path fill-rule="evenodd" clip-rule="evenodd" d="M16.1322 42.2009C16.3248 42.1634 16.5113 42.2891 16.5488 42.4818C17.2413 46.0393 20.1703 48.4477 25.4078 49.7071C30.6764 50.974 34.2652 50.9057 36.1561 49.5534C36.3157 49.4392 36.1967 50.4168 36.0798 50.4918C34.8465 51.2827 30.6534 52.4627 25.6495 51.3962C19.2515 50.0324 16.2474 44.6526 15.8513 42.6175C15.8138 42.4249 15.9396 42.2384 16.1322 42.2009Z" fill="#FFB61D"/>
<path fill-rule="evenodd" clip-rule="evenodd" d="M13.4641 35.7823C13.6345 35.6849 19.9891 42.9678 28.7098 44.6164C37.4306 46.2649 39.542 45.2165 39.8815 42.9678C39.9107 42.7738 40.0918 42.6403 40.2858 42.6695C40.4799 42.6988 40.6134 42.8799 40.5841 43.0739C40.154 45.9237 36.1187 46.6016 28.5903 45.3169C21.1565 44.0483 16.0599 41.0344 13.3322 36.2672C13.2347 36.0969 13.2938 35.8798 13.4641 35.7823Z" fill="#FFB61D"/>
<path fill-rule="evenodd" clip-rule="evenodd" d="M50.0666 35.3784C49.828 35.2959 49.5711 35.1124 49.406 34.9013L49.1307 34.5619L50.1033 33.5985C51.5988 32.1305 52.7456 30.6258 53.7365 28.8367C54.0668 28.2404 54.9017 26.2494 54.9017 26.0567C54.9017 25.9925 55.0027 25.7356 55.1219 25.4695C55.3054 25.0842 55.4431 24.9374 55.8376 24.7172C56.3055 24.442 56.8376 24.3502 57.067 24.5062C57.5074 24.7998 57.5074 25.7264 57.067 27.3229C56.5807 29.0753 55.9293 30.3322 54.5806 32.1397C54.3696 32.4149 53.9751 32.9563 53.6907 33.3324C52.9291 34.3417 52.4337 34.8279 51.7639 35.2041C51.1033 35.5711 50.718 35.617 50.0666 35.3784ZM56.6541 34.5527L57.3147 34.8463C57.4517 34.9095 58.9628 35.6356 60.778 36.5078C63.7044 37.9139 67.4212 39.6998 67.4438 39.6998C67.4805 39.6998 67.6527 39.3017 67.6915 38.8374C67.7833 37.8373 68.1228 36.4794 68.5173 35.5344C68.7008 35.1124 68.8476 34.5849 68.8476 34.539C68.8476 34.5181 68.6984 34.4579 68.4542 34.3594C68.1635 34.2422 67.7382 34.0706 67.2695 33.8462C64.9574 32.736 60.4342 30.4699 59.8745 30.1304C59.324 29.8093 59.2139 29.7817 59.2139 29.9928C59.2139 30.268 58.6543 31.5433 58.223 32.2314C57.9937 32.6076 57.5441 33.2865 57.223 33.7361L56.6541 34.5527ZM67.2878 38.0484C67.5509 38.2009 67.0952 38.4245 66.9851 38.4612C66.3368 38.5163 65.5736 38.3944 64.9482 38.03C64.6213 37.7982 62.0468 36.3679 60.339 35.4191C59.5582 34.9853 58.9586 34.6522 58.8377 34.5803C58.4524 34.3509 58.0854 34.1032 58.0212 34.0298C57.8285 33.782 58.012 33.6719 58.5533 33.7178C58.8788 33.7454 66.7196 37.719 67.2878 38.0484ZM32.4977 61.1546L32.4978 61.1545C32.6689 61.0823 32.816 61.0202 32.9278 60.9752C33.4969 60.7457 35.2307 58.2973 35.8546 55.5357C36.3042 53.4989 36.5336 50.5996 36.2767 50.1133C36.1218 49.8317 37.042 50.7765 37.7273 51.4801L37.7279 51.4807C37.9354 51.6937 38.1213 51.8846 38.2493 52.0125C42.2495 55.9853 48.204 59.1781 54.3879 60.6736C57.4707 61.426 59.6635 61.6921 62.6086 61.6921C67.5539 61.6921 71.4532 60.7195 74.9947 58.5818C75.163 58.4802 75.3206 58.3869 75.4708 58.2979C76.7054 57.567 77.4408 57.1316 79.4537 54.8659C81.7116 52.3245 83.7201 46.425 84.3898 44.3882C84.6834 43.4707 85.3991 39.8215 85.3991 38.9108C85.3991 37.8326 85.0229 37.3235 84.5091 36.8006C83.6008 35.9106 82.3713 35.5895 81.3529 35.9748L80.8758 36.1583L80.729 35.672C80.518 34.9381 80.0776 34.3509 79.3987 33.9105C78.3894 33.2407 78.2426 33.1948 77.3343 33.1948C76.6279 33.1948 76.4352 33.2315 75.9856 33.4425L75.4626 33.6811L75.3525 33.3508C75.1415 32.6719 74.4337 31.7254 73.8846 31.4516C73.3975 31.2088 72.5545 31.1865 71.967 31.2956C70.6825 31.5342 69.765 32.1305 69.3889 32.9655C69.2788 33.2223 69.1411 33.4242 69.0861 33.4242C69.0402 33.4242 67.2328 32.9194 65.0767 31.9652C64.713 31.8037 64.3713 31.6523 64.0505 31.5101L64.0504 31.5101C60.1787 29.794 59.3395 29.422 59.4158 28.956C59.48 28.5615 59.4616 28.3413 59.3515 28.0018C59.1589 27.433 58.9387 27.277 58.3148 27.277C57.8193 27.277 57.8193 27.277 57.8744 27.0293C58.168 25.6255 58.1588 24.8181 57.8468 24.3043C57.6358 23.9649 57.3881 23.8273 56.8193 23.7447C56.489 23.6988 56.333 23.7263 55.966 23.9282C55.7183 24.0566 55.5072 24.1484 55.4889 24.13C55.4705 24.1117 55.5348 23.6071 55.6357 23.0107C56.388 18.5976 55.8068 14.7952 53.8893 10.7583C53.8711 10.72 53.85 10.6748 53.8259 10.6232L53.8259 10.6231L53.8256 10.6225L53.8253 10.6217C53.2423 9.37014 50.8983 4.33765 44.1946 1.79833C43.8912 1.6834 43.6041 1.57227 43.3282 1.46547L43.3281 1.46544C41.0446 0.581551 39.5265 -0.00605075 35.8638 4.70119e-05C31.7585 0.00688163 30.368 0.58724 27.6614 1.82585C27.2853 2.00017 26.955 2.1011 26.9274 2.0644C26.8999 2.01852 26.7256 1.90843 26.5513 1.81668C26.3769 1.72493 26.0008 1.49556 25.7255 1.31206C24.9365 0.779913 24.4502 0.559716 24.2025 0.614765C23.9181 0.688164 23.9181 0.926712 24.2025 1.03681C24.3218 1.08268 24.4594 1.23866 24.5144 1.39463C24.6337 1.72493 24.7713 1.76163 24.8539 1.48638C24.8906 1.38546 24.9457 1.31206 24.9732 1.33041C24.9836 1.33563 25.0186 1.35198 25.0719 1.37694C25.206 1.43972 25.4564 1.55693 25.7255 1.68823C26.1017 1.87173 26.5146 2.0644 26.6247 2.11027C26.8265 2.18367 26.7623 2.23872 25.8907 2.75252C22.4868 4.75264 19.716 7.86293 18.1654 11.4044C17.9269 11.9366 17.7158 12.2669 17.4956 12.4504C16.936 12.9183 15.835 14.2487 15.5781 14.7716C15.4405 15.0561 15.1469 15.4964 14.9175 15.7533C14.6973 16.0102 14.4588 16.3405 14.3762 16.4782C14.3028 16.625 14.2294 16.7259 14.2019 16.7075C14.1835 16.68 14.211 16.2304 14.2753 15.7075C14.4129 14.4872 14.4129 14.1661 14.3028 14.1386C14.1376 14.0927 13.8991 14.7349 13.7982 15.5331C13.7248 16.0194 13.7064 16.7534 13.7523 17.5058L13.8073 18.6985L13.1559 17.6434C12.9316 17.29 12.7106 16.9367 12.5539 16.686L12.5539 16.6859L12.5537 16.6857C12.4542 16.5265 12.3806 16.4088 12.3485 16.3589C12.11 16.0102 11.9724 15.4873 12.0733 15.313C12.1283 15.212 12.1192 15.1662 12.0274 15.1662C11.8347 15.1662 11.4586 15.7809 11.2108 16.4873C11.0916 16.8176 10.9723 17.0929 10.9356 17.0929C10.798 17.0929 10.8622 13.8083 11.009 12.7532C11.3118 10.6705 12.11 8.10148 12.4678 8.10148C12.5412 8.10148 12.6054 8.06478 12.6054 8.00973C12.6054 7.84458 12.3669 7.90881 12.1742 8.11983C11.743 8.58775 11.1741 10.0282 10.8163 11.5604C10.5686 12.6155 10.4126 13.9734 10.3576 15.4506C10.3117 16.7259 10.3301 16.9369 10.5135 17.6342C10.7246 18.4141 10.8897 18.6434 11.1741 18.5333C11.2751 18.4966 11.3209 18.359 11.3209 18.1021C11.3209 17.9003 11.431 17.2947 11.5687 16.7534L11.8072 15.7809L11.9081 16.1846C12.0366 16.6525 12.7889 18.1021 13.4679 19.1572C13.9358 19.8729 13.945 19.9187 14.1009 21.0381C14.1835 21.6712 14.4404 23.211 15.0368 25.5797C15.5637 27.6725 18.5259 29.7487 19.2656 30.267C19.3631 30.3354 19.4219 30.3766 19.4316 30.3873C19.5233 30.4882 19.6517 30.5433 19.7251 30.5158C19.8077 30.4882 19.8536 30.5249 19.8536 30.6259C19.8536 30.7176 19.9178 30.8369 19.9912 30.8919C20.083 30.9562 20.1472 31.2039 20.1655 31.6351C20.2114 32.4975 20.8537 34.149 21.3491 34.6903C21.6702 35.039 22.34 35.1858 23.0832 35.0573C23.5694 34.9839 23.7071 34.9289 23.6612 34.8188C23.6337 34.7454 23.808 34.8371 24.0465 35.0206C26.8357 37.1492 29.6616 38.4245 32.8361 38.975C34.0655 39.186 36.1023 39.3053 37.2125 39.2227C38.1942 39.1585 38.1942 39.1585 38.1483 39.3512C38.0841 39.6081 38.1667 39.7641 39.5154 42.0486C40.5889 43.8561 40.6806 43.9753 41.8733 45.1956C44.4056 47.8104 47.1673 49.8381 50.2959 51.407C53.241 52.875 57.9432 54.0952 62.2416 54.4806C66.5401 54.8659 69.6274 50.9207 69.6182 49.9115C69.5999 48.5261 69.4072 47.6178 68.9393 46.737C68.4806 45.8837 68.1778 45.5901 66.8015 44.6726C65.2693 43.6542 64.3243 42.8193 63.7004 41.9293C63.3059 41.3697 63.1591 40.7366 63.1591 40.3971C63.1591 40.1769 63.4435 39.6815 63.8656 39.5806C64.2509 39.4796 64.3243 39.4888 64.7555 39.6998C65.0124 39.8191 65.6822 40.131 66.2327 40.3971C66.7924 40.654 67.3337 40.9109 67.4438 40.966C67.7684 41.0561 67.9056 41.6915 67.98 42.0358C67.9966 42.1128 68.0101 42.1752 68.0218 42.2137C68.1503 42.6908 68.7581 43.3069 69.1503 43.5166C69.8391 43.8849 71.536 43.9341 72.0039 43.4295C72.1232 43.3011 72.5186 43.1431 72.6001 43.191C72.6816 43.2388 72.9763 43.6359 72.9763 43.957C72.9854 44.5075 73.2698 45.0121 73.8754 45.5167C75.0223 46.4709 75.9122 46.7003 76.8114 46.2782C77.2793 46.058 77.6628 45.972 77.6628 45.972C77.6628 45.972 78.0453 46.46 78.0683 46.6269C78.2485 47.9305 80.1785 48.4769 80.6923 48.532C80.8101 48.5438 81.0392 48.4934 81.272 48.4422C81.5832 48.3738 81.9009 48.304 81.9677 48.3793C82.0987 48.5271 79.7748 52.3704 79.4537 52.8566C76.3985 57.4441 70.4532 60.2516 63.1775 60.5452C58.4524 60.7379 52.6447 59.4167 47.6077 57.0129C44.3873 55.4623 41.5339 53.5631 38.4786 50.9024C37.9465 50.4436 37.3318 49.9207 37.1116 49.7372C36.8914 49.5628 36.3684 48.9665 35.9647 48.416C35.2858 47.4985 34.9004 47.1682 34.9004 47.4801C34.9004 47.6178 35.3408 48.4619 35.8454 49.2968C36.0473 49.6271 36.1757 49.8564 36.1299 49.8197C36.084 49.783 35.9372 50.4436 35.7996 51.2877C35.35 53.9943 34.6068 56.6642 33.8545 58.3249C33.4416 59.224 32.65 59.8955 32.4114 60.079C31.5306 60.7487 30.2121 61.0498 28.3863 61.2333C26.0742 61.4627 22.6703 60.9489 20.0738 59.9763C19.3857 59.7195 17.6149 58.9763 17.4956 58.8937C17.4885 58.8866 17.4478 58.6226 17.3911 58.2543L17.3397 57.9212C17.0094 55.655 16.5506 46.9296 16.5506 42.8927C16.5506 41.2229 16.5323 40.8559 16.4222 40.8559C16.1928 40.8559 16.1011 41.0761 16.0001 41.8651C15.7708 43.6634 15.8166 53.0493 16.0644 55.0219L16.1194 55.4715L15.8075 55.2971C15.3304 55.0219 13.5137 53.1777 12.8807 52.3245C12.3447 51.595 12.0262 50.6608 11.7879 49.9618L11.7879 49.9618C11.7324 49.7992 11.6814 49.6494 11.6329 49.5178C10.3025 45.8295 10.7704 41.6908 12.6054 37.9658C14.1652 34.7913 16.0827 33.0297 18.8902 32.1764C19.349 32.0388 19.7527 31.892 19.7985 31.8553C19.9729 31.6901 18.8535 31.7727 18.2388 31.9654C16.2387 32.5801 14.1468 34.2591 12.7247 36.406C10.7246 39.4154 9.82543 43.8561 10.4585 47.6453C10.6053 48.5444 11.2017 50.4895 11.3668 50.6271C11.3814 50.6417 11.4568 50.7999 11.5709 51.0391L11.5709 51.0393L11.571 51.0394L11.571 51.0395C11.8866 51.7015 12.4978 52.9836 12.9357 53.5631C13.4679 54.2879 15.0735 55.866 15.7432 56.3523L16.1653 56.655L16.2295 57.3982C16.3488 58.8203 16.3947 58.9488 17.0369 59.4259C18.6425 60.6461 21.8078 61.7838 24.6704 62.1875C26.0008 62.371 28.8909 62.3068 29.9919 62.0682C30.6996 61.9134 31.7981 61.4498 32.4977 61.1546L32.4977 61.1546ZM61.003 53.453C55.6724 52.9851 49.2316 50.4435 44.5708 46.5166C42.6073 44.8559 40.0567 41.6265 39.0475 39.8374C38.8365 39.4704 38.6805 39.2961 38.497 39.2502C38.3043 39.1952 38.4695 39.1401 39.2585 39.0117C42.589 38.4429 45.8277 37.0574 48.4426 35.0848L48.8279 34.8004L48.938 35.0665C49.1857 35.6629 50.1399 36.2684 50.8464 36.2684C51.1308 36.2684 52.085 35.8372 52.663 35.4427L53.0576 35.1766L53.3787 35.4977C53.6723 35.7913 53.7273 35.8097 54.2778 35.8097C54.9109 35.8097 55.6724 35.5252 56.0944 35.1215L56.3238 34.9105L56.9752 35.3417C57.3239 35.5895 58.2964 36.1308 59.1313 36.562C60.3791 37.2042 61.7003 37.9474 62.9573 38.7181L63.1591 38.8466L62.9664 39.1035C62.7646 39.3787 62.3886 39.9017 62.3886 40.6999C62.3886 41.599 63.3235 43.2145 65.1134 44.324C66.5195 45.1956 68.9393 46.91 68.8475 49.416C68.8365 49.7187 68.4989 50.4711 68.0493 51.1501C67.7557 51.5813 66.9392 52.2236 66.196 52.5997C64.9299 53.2328 62.7004 53.5998 61.003 53.453ZM12.0825 12.2669C12.3302 12.322 12.4953 12.4045 12.4586 12.4412C12.3394 12.5605 11.7063 12.5055 11.5595 12.3587C11.3301 12.1385 11.3852 11.9825 11.7063 11.9183C11.8714 11.8908 12.1192 11.7531 12.2568 11.6155C12.3944 11.4779 12.5137 11.4137 12.5137 11.4595C12.5137 11.5788 12.0549 12.0009 11.8256 12.0926C11.6788 12.1568 11.7246 12.1844 12.0825 12.2669ZM15.7341 12.4137C16.0001 12.2669 15.9451 12.1659 15.6331 12.2118C15.3212 12.2577 15.3028 12.221 15.5047 11.909C15.5873 11.7898 15.6331 11.6155 15.6148 11.5237C15.5873 11.4044 15.523 11.4595 15.3762 11.7531C15.2661 11.9641 15.1102 12.1384 15.0368 12.1384C14.8074 12.1384 14.789 12.3219 15.0092 12.4045C15.2937 12.5238 15.5139 12.5238 15.7341 12.4137ZM12.5596 7.40421C12.3394 7.44091 11.6512 7.71615 11.0457 8.01893C10.431 8.31252 9.90802 8.56024 9.87132 8.55107C8.93548 8.45015 10.2383 6.89041 12.6054 5.29398C14.8716 3.76177 16.4038 2.95438 17.826 2.54151C18.7159 2.28461 19.716 2.24791 20.0004 2.45894C20.1564 2.57821 20.1013 2.58739 19.4224 2.59656C17.9544 2.59656 16.257 3.3489 13.4954 5.19306C12.0641 6.14725 10.4035 7.51431 10.4035 7.7345C10.4035 7.78038 10.6695 7.68863 10.9998 7.54183C11.7063 7.22071 12.4311 7.05556 12.7522 7.12896C13.0917 7.22071 13.0183 7.33998 12.5596 7.40421ZM16.1103 8.19323C16.9727 8.01891 17.0094 8.00973 17.0094 7.91798C17.0094 7.87211 16.6791 7.82623 16.2662 7.80788L15.5231 7.78036L16.2112 7.00049C16.5873 6.56927 17.0277 6.13805 17.1837 6.03713C17.5232 5.81693 17.5415 5.66096 17.2663 5.56921L17.0553 5.50498L17.2846 5.42241C17.4131 5.37653 17.6516 5.35818 17.8168 5.38571C18.0645 5.42241 18.1196 5.40406 18.092 5.27561C18.0645 5.14716 17.9636 5.11964 17.514 5.12881C16.202 5.14716 15.6423 5.49581 16.6699 5.66096C16.9543 5.70683 17.1929 5.78023 17.1929 5.8261C17.1929 5.8628 17.147 5.8995 17.092 5.8995C16.9176 5.8995 15.4405 7.39501 15.257 7.76201C14.9726 8.30333 15.1285 8.3859 16.1103 8.19323ZM22.1657 4.63338C21.8996 4.65173 21.8354 4.69761 21.8537 4.82605L21.8566 4.84474C21.8669 4.91261 21.8728 4.9516 21.8576 4.96344C21.837 4.97942 21.778 4.94593 21.6392 4.86722L21.6152 4.85358C21.4409 4.76183 21.4225 4.71595 21.5234 4.64256C21.5877 4.58751 21.762 4.50493 21.8996 4.47741L22.1565 4.41318L21.9638 4.21134C21.8629 4.09206 21.8079 3.98196 21.8354 3.94526C21.9088 3.87186 22.8079 3.97279 22.9364 4.07371C22.9914 4.11959 23.074 4.11041 23.129 4.05536C23.2575 3.92691 23.4318 4.02784 23.4318 4.22969C23.4318 4.33978 23.4043 4.34896 23.3217 4.26639C23.2483 4.19299 23.1841 4.19299 23.1015 4.25721C23.0281 4.32143 22.9731 4.32143 22.9272 4.24803C22.8997 4.20216 22.7253 4.15629 22.5418 4.15629C22.3726 4.15629 22.2925 4.15629 22.2762 4.18855C22.2615 4.21748 22.2981 4.27237 22.3675 4.37648C22.5139 4.60515 22.5052 4.60585 22.1688 4.63313L22.1657 4.63338ZM20.7711 2.19289C20.7711 2.07362 20.661 1.86259 20.5234 1.72497L20.2665 1.46807L21.6427 1.52312C22.4042 1.55982 23.2667 1.6424 23.5694 1.72497C23.8722 1.79837 24.2208 1.85342 24.3493 1.85342C24.542 1.85342 24.5053 1.81672 24.1474 1.62405C23.5236 1.30292 22.7253 1.14695 21.1931 1.03685C19.3582 0.908404 18.4315 1.08273 18.6058 1.54147C18.6333 1.63322 18.7801 1.6791 19.0003 1.6791C19.4499 1.6791 20.1839 1.94517 20.4316 2.19289C20.6977 2.45896 20.7711 2.45896 20.7711 2.19289ZM16.2937 26.4879C17.0369 27.4421 18.0186 28.5248 18.4774 28.8918C18.7526 29.112 18.9912 29.2955 19.0095 29.2955C19.0187 29.2955 18.8168 28.8734 18.5599 28.3596C17.5232 26.2953 16.9176 24.2401 16.6332 21.873C16.569 21.35 16.4681 20.9096 16.358 20.7261C16.1378 20.3591 16.1378 19.882 16.3671 19.4324C16.4864 19.1939 16.5506 18.8911 16.5506 18.5608V18.0562L16.1102 18.5149C15.679 18.9645 15.2661 19.148 15.2661 18.8728C15.2661 18.6709 15.9451 17.6984 16.3029 17.3956C16.5873 17.1571 16.624 17.0745 16.7158 16.3588C16.78 15.9276 16.9268 15.1661 17.0461 14.6615C17.1745 14.1569 17.2479 13.7257 17.2296 13.7073C17.1654 13.6431 15.0093 16.1194 14.7157 16.9093C14.6512 17.0828 14.4771 17.3864 14.3395 17.5699L14.1009 17.8762C14.1009 17.8762 14.175 18.3051 14.2569 18.8441C14.3396 19.3887 14.3784 19.763 14.413 20.0965C14.4593 20.5425 14.4979 20.9153 14.6239 21.5243C14.7707 22.2767 14.9175 22.9281 14.9542 22.974C14.9817 23.029 15.101 23.451 15.2203 23.919C15.4772 24.9557 15.9084 25.9833 16.2937 26.4879ZM53.5255 35.1674L53.3328 34.9747C53.3328 34.9747 56.5307 30.9118 57.1037 29.4147C57.541 28.2723 57.7983 27.9483 58.1456 27.9483C58.3397 27.9483 58.4983 27.9926 58.5717 28.1027C58.7001 28.2954 58.8239 28.5339 58.6588 29.3505C58.3835 30.6717 57.9615 31.5433 56.6953 33.4242C56.4017 33.8554 56.0256 34.3325 55.8604 34.4976C55.4751 34.8555 54.6081 35.2225 54.1035 35.305C53.7824 35.3509 53.6906 35.3325 53.5255 35.1674Z" fill="#00160A"/>
<path d="M78.9308 44.1428C80.0722 41.0328 79.8995 40.3702 79.7015 40.3053C79.7015 40.3053 79.2656 40.5531 79.0729 41.076C78.7151 42.0577 77.4903 44.6267 77.0316 45.0855C76.4903 45.6268 76.4903 45.6268 75.9398 45.6268C75.3893 45.6268 73.8016 44.7977 73.5854 43.9805C73.2396 42.6731 74.7287 38.1309 74.7654 37.874L74.5177 37.6997C74.3525 37.8556 72.2043 44.3698 69.3797 42.6725C69.0563 42.4781 68.3705 41.5623 68.3154 41.076C68.0097 39.6631 69.4125 34.7224 69.651 33.7076C69.8645 32.7992 70.9761 31.9562 72.3432 31.9562C74.4443 31.9562 74.162 33.7928 75.1031 34.4399C75.5202 34.7267 76.2056 34.2068 76.4169 34.1673C77.6004 33.9471 78.0539 34.2035 78.9216 34.8921C79.5914 35.4237 80.0869 36.4757 80.6323 36.8464C80.9353 37.0523 81.2568 36.7708 81.3621 36.7179C81.7938 36.5012 82.72 36.6629 82.9769 36.8464C83.3535 37.0106 84.2764 37.8977 84.4222 38.4137C85.083 40.7522 82.9964 45.9366 82.2087 46.9092C80.9048 48.519 77.7893 47.2528 78.9308 44.1428Z" fill="white"/>
<path fill-rule="evenodd" clip-rule="evenodd" d="M26.1843 35.6212C28.6982 37.2085 31.2904 38.2452 34.2447 38.5296C36.5751 38.7498 39.7173 38.4471 41.9743 37.7131C43.8735 37.0984 46.4425 35.3955 48.1582 33.955C51.4887 31.1658 53.5897 26.8091 54.5072 22.185C54.6357 21.5336 54.8315 19.8961 54.8224 18.2721C54.8224 16.3821 53.9906 11.2172 51.4703 8.23914C46.2723 2.09689 37.7278 -0.670027 30.5468 1.69412C27.9563 2.54694 25.1982 4.09209 23.1155 6.11057C20.4915 8.67036 18.5556 12.1568 17.7849 15.7167C16.9775 19.4784 18.0278 23.9741 19.8536 27.6624C21.3124 30.5984 23.7162 34.0523 26.1843 35.6212ZM50.6813 24.5337C48.9564 29.7175 44.4607 33.5893 38.809 34.7637C37.9465 34.938 37.3501 35.0023 36.1391 35.0206C35.2858 35.0481 34.4325 35.039 34.2582 35.0206C30.3038 34.5435 27.2945 33.0847 24.5236 30.3139C23.3126 29.0936 22.7988 28.433 22.0464 27.1302C20.8629 25.0658 20.2298 22.9556 20.0371 20.4142C19.3765 11.7072 25.6063 4.44985 34.3775 3.69751C37.8181 3.40391 41.6348 4.45903 44.5341 6.5142C45.6076 7.27572 47.5526 9.20245 48.1582 10.1016C48.4059 10.4594 50.8097 13.9734 51.2318 15.9919C51.7731 18.6159 51.5621 21.9005 50.6813 24.5337Z" fill="white"/>
<path fill-rule="evenodd" clip-rule="evenodd" d="M54.8257 18.2721C54.8257 24.4304 51.9126 31.1631 48.1531 34.0384C46.3595 35.4102 44.0155 37.0713 41.9743 37.713C38.9829 38.6535 34.2447 38.5296 34.2447 38.5296C34.2447 38.5296 39.0786 37.8834 40.87 37.1625C46.0068 35.0952 48.811 31.9218 50.5425 28.877C53.9605 22.8666 54.8257 18.1225 54.8257 18.2721Z" fill="#E7EAEE"/>
<path fill-rule="evenodd" clip-rule="evenodd" d="M34.3499 33.9196C31.9002 33.6077 29.4689 32.7361 27.5055 31.4424C26.3403 30.6809 24.5787 28.8918 23.7254 27.6165C22.5051 25.7815 21.6978 23.8181 21.3032 21.7078C21.0188 20.1756 21.028 17.8177 21.3124 16.4506C21.606 15.056 21.9822 13.9918 22.6519 12.643C23.4318 11.0833 24.2576 9.93645 25.4962 8.69784C27.6064 6.58761 30.0561 5.24808 32.9737 4.60583C33.9187 4.40398 37.341 4.23884 37.4602 4.39481C37.4878 4.44068 37.6713 4.55996 37.8639 4.66088C38.0566 4.77098 38.5704 5.15633 38.9924 5.5325C39.6255 6.08299 39.9099 6.43164 40.4604 7.29408C40.8366 7.88127 41.1394 8.41341 41.1394 8.45929C41.1394 8.56021 41.433 8.74371 41.5981 8.74371C41.8275 8.74371 41.9835 8.05559 42.0293 6.84451C42.0569 6.17474 42.1119 5.62425 42.1486 5.62425C42.2771 5.62425 43.69 6.40411 44.3506 6.84451C45.6442 7.70695 46.9379 8.91803 47.8921 10.1842C48.3233 10.753 48.3875 10.8998 48.3875 11.2485C48.3875 11.5696 48.4793 11.8173 48.7637 12.3127C49.4793 13.5605 50.039 15.1294 50.3785 16.8635C50.5987 18.0287 50.5987 20.2307 50.3693 21.4509C49.7454 24.809 47.8921 28.1486 45.4791 30.268C43.4331 32.0571 41.2586 33.1581 38.6897 33.6994C37.8089 33.8921 35.1665 34.0206 34.3499 33.9196ZM27.7899 27.644C27.8725 27.5523 27.9275 27.4146 27.9 27.3504C27.8917 27.3311 27.7769 27.2771 27.6087 27.1981C27.2167 27.0138 26.5352 26.6934 26.2399 26.3595C25.0655 25.02 24.6343 24.0199 24.3682 21.9556C24.1113 19.9463 24.3271 18.5879 24.7902 16.4048C25.0161 15.3398 25.6166 14.4601 25.9902 13.9128C26.2442 13.5407 26.3933 13.3222 26.2485 13.3037C25.8907 13.2486 25.8357 13.2761 25.4595 13.634C24.6521 14.4046 24.2851 15.0194 23.8997 16.2029C23.3034 18.0563 23.1881 23.0648 24.3682 25.3228C25.5482 27.5807 27.5789 27.8826 27.7899 27.644ZM40.8366 19.9371C40.6808 21.3624 40.0201 23.4235 39.2494 24.3227C38.8915 24.7447 37.5781 25.4695 36.4694 25.3227C35.3985 25.1809 34.561 24.6805 33.8453 23.607C33.2306 22.6804 32.9131 21.5555 32.6985 20.1389C32.3278 17.6927 33.9463 14.845 34.6436 14.1385C35.35 13.4137 35.8547 13.1568 36.4969 13.1476C37.1208 13.1476 37.5245 13.2853 38.1576 13.7348C39.3136 14.5422 41.1394 17.1675 40.8366 19.9371ZM28.4688 12.3495C28.6523 12.1385 28.6799 12.0375 28.6248 11.643C28.5881 11.276 28.5147 11.1292 28.322 10.9733C27.9826 10.698 27.5605 10.698 27.2486 10.9916C27.0284 11.2026 27.0009 11.276 27.0284 11.7806C27.0559 12.322 27.0743 12.3587 27.377 12.5238C27.7807 12.744 28.1752 12.6798 28.4688 12.3495ZM34.194 6.68851C32.5425 7.87207 31.8269 8.35834 31.0837 8.81708C30.4965 9.18408 30.313 9.19325 30.313 8.86296C30.313 8.68863 30.4415 8.49596 30.7717 8.19319L31.2305 7.77115L30.3405 7.65187C29.3405 7.52342 28.3679 7.24818 28.1569 7.03715C27.8083 6.67933 28.111 6.59676 29.1019 6.78026C29.5423 6.85366 30.3956 6.9454 31.0011 6.96375L32.1021 7.00963L32.9003 6.43161C34.6527 5.16547 36.4694 4.44983 37.341 4.67003C37.8823 4.79848 37.8181 4.94528 37.2034 5.01868C36.4969 5.10125 36.0657 5.3398 34.194 6.68851Z" fill="white"/>
<path d="M36.5519 24.0658C36.5519 24.0199 36.607 23.9741 36.6804 23.9741C36.7538 23.9741 36.8455 24.0199 36.8731 24.0658C36.9006 24.1209 36.8455 24.1576 36.7446 24.1576C36.6345 24.1576 36.5519 24.1209 36.5519 24.0658Z" fill="white"/>
<path d="M37.1024 23.9832C37.1024 23.8823 37.3318 23.7905 37.5887 23.7905C37.7905 23.7997 37.7905 23.7997 37.6162 23.9282C37.4144 24.0841 37.1024 24.1116 37.1024 23.9832Z" fill="white"/>
<path d="M35.6803 23.7447C35.6528 23.6713 35.6161 23.5429 35.5886 23.4695C35.561 23.3777 35.6069 23.3318 35.7262 23.3318C35.8271 23.3318 35.9097 23.3869 35.9097 23.4603C35.9097 23.5337 35.9372 23.653 35.9647 23.7355C36.0014 23.8365 35.9739 23.8823 35.873 23.8823C35.7904 23.8823 35.6987 23.8181 35.6803 23.7447Z" fill="white"/>
<path d="M36.1666 23.5153C36.1207 23.2401 36.2216 23.1483 36.5519 23.1483C36.6529 23.1483 36.7354 23.2401 36.7721 23.396C36.8455 23.6621 36.7263 23.7906 36.4051 23.7906C36.2583 23.7906 36.1941 23.7263 36.1666 23.5153Z" fill="white"/>
<path d="M35.2307 23.5612C35.0564 23.4236 35.0564 23.4236 35.2491 23.4236C35.3684 23.4236 35.4509 23.4786 35.4509 23.5612C35.4509 23.7264 35.4509 23.7264 35.2307 23.5612Z" fill="white"/>
<path d="M37.0749 23.5521C36.9556 23.4328 37.0107 23.075 37.1575 23.0199C37.4235 22.919 37.5428 22.9649 37.5979 23.2034C37.6346 23.341 37.6529 23.4603 37.6346 23.4695C37.5612 23.5521 37.1299 23.6071 37.0749 23.5521Z" fill="white"/>
<path d="M37.8915 23.3593C37.864 23.3318 37.8364 23.2125 37.8364 23.1024C37.8364 22.9464 37.9098 22.8822 38.13 22.8363C38.3227 22.7996 38.442 22.818 38.497 22.8914C38.5888 23.0382 38.5888 23.2217 38.5062 23.2676C38.341 23.3593 37.9557 23.4144 37.8915 23.3593Z" fill="white"/>
<path d="M34.8087 23.0749C34.8087 22.9648 34.8913 22.8731 35.0105 22.8456C35.2491 22.7813 35.2399 22.7722 35.2858 23.0107C35.3041 23.1483 35.2583 23.2034 35.0656 23.2217C34.8637 23.2492 34.8087 23.2125 34.8087 23.0749Z" fill="white"/>
<path d="M35.506 23.0841C35.3775 22.9465 35.4601 22.6896 35.6344 22.6896C35.7537 22.6896 35.8179 22.7538 35.8179 22.8639C35.8179 23.0382 35.6069 23.185 35.506 23.0841Z" fill="white"/>
<path d="M36.0565 22.8089C35.9831 22.6346 36.1391 22.5061 36.4418 22.5061C36.5795 22.5061 36.6437 22.5612 36.6437 22.6804C36.6437 22.7814 36.5611 22.8731 36.4418 22.9098C36.1391 22.9832 36.1207 22.9832 36.0565 22.8089Z" fill="white"/>
<path d="M38.708 22.7813C38.7356 22.7354 38.7814 22.6896 38.809 22.6896C38.8365 22.6896 38.8273 22.7354 38.7998 22.7813C38.7723 22.8364 38.7264 22.8731 38.6989 22.8731C38.6713 22.8731 38.6805 22.8364 38.708 22.7813Z" fill="white"/>
<path d="M36.8822 22.6253C36.8088 22.4418 36.9006 22.35 37.1941 22.3042C37.3593 22.2858 37.4327 22.3225 37.451 22.451C37.5153 22.7537 36.9923 22.9189 36.8822 22.6253Z" fill="white"/>
<path d="M34.6802 22.4694C34.5977 22.1666 34.616 22.1391 34.8546 22.1391C34.983 22.1391 35.0839 22.1758 35.0839 22.2217C35.0839 22.2675 35.1115 22.3685 35.139 22.4419C35.1665 22.5336 35.1115 22.5887 34.9555 22.6162C34.7812 22.6529 34.7169 22.6162 34.6802 22.4694Z" fill="white"/>
<path d="M37.7447 22.3684C37.7447 22.2033 37.8089 22.1299 37.9832 22.084C38.2401 22.0198 38.3869 22.1482 38.3869 22.4418C38.3869 22.5611 38.3135 22.5978 38.0658 22.5978C37.7814 22.5978 37.7447 22.5703 37.7447 22.3684Z" fill="white"/>
<path d="M34.405 22.3684C34.3775 22.295 34.3958 22.2308 34.4417 22.2308C34.4967 22.2308 34.5334 22.295 34.5334 22.3684C34.5334 22.4418 34.5151 22.506 34.4967 22.506C34.4784 22.506 34.4417 22.4418 34.405 22.3684Z" fill="white"/>
<path d="M35.3316 22.4418C35.2032 22.3226 35.2766 22.0657 35.4417 22.0198C35.5427 21.9923 35.6436 22.0014 35.6711 22.029C35.7812 22.1299 35.717 22.396 35.5794 22.451C35.405 22.5152 35.405 22.5152 35.3316 22.4418Z" fill="white"/>
<path d="M38.6071 22.3777C38.5062 22.1116 38.6163 21.9097 38.8732 21.8822C39.0659 21.8547 39.1209 21.8914 39.1209 22.0382C39.1209 22.341 39.02 22.5061 38.8365 22.5061C38.7356 22.5061 38.6346 22.4511 38.6071 22.3777Z" fill="white"/>
<path d="M35.9739 22.2584C35.8638 22.1574 35.9005 21.9739 36.0565 21.9189C36.2308 21.8547 36.5978 22.0382 36.4969 22.1391C36.3684 22.2492 36.0381 22.3318 35.9739 22.2584Z" fill="white"/>
<path d="M36.7721 22.0289C36.6896 21.9005 36.9832 21.6803 37.2217 21.6803C37.3318 21.6803 37.3777 21.7353 37.3593 21.8363C37.3226 22.0198 36.8547 22.1666 36.7721 22.0289Z" fill="white"/>
<path d="M34.2582 21.9648C34.2582 21.9189 34.2307 21.818 34.2032 21.7354C34.1756 21.6528 34.1848 21.5886 34.2399 21.5886C34.3591 21.5886 34.4509 21.9373 34.3408 22.0107C34.2949 22.0382 34.2582 22.0198 34.2582 21.9648Z" fill="white"/>
<path d="M34.5059 21.7537C34.4509 21.5519 34.561 21.4051 34.772 21.4051C34.8913 21.4051 35.0105 21.7629 34.9371 21.8822C34.8362 22.0382 34.5518 21.9464 34.5059 21.7537Z" fill="white"/>
<path d="M35.1482 21.7996C35.0106 21.662 35.0931 21.3317 35.2766 21.2858C35.4143 21.2491 35.4877 21.295 35.561 21.4602C35.6161 21.5794 35.6436 21.6987 35.6253 21.7171C35.5335 21.7996 35.2032 21.8639 35.1482 21.7996Z" fill="white"/>
<path d="M37.6254 21.7996C37.5061 21.6803 37.5611 21.6069 37.8364 21.506C38.0658 21.4326 38.13 21.4418 38.1759 21.5519C38.2584 21.7721 37.7997 21.9831 37.6254 21.7996Z" fill="white"/>
<path d="M38.4328 21.5886C38.341 21.4418 38.4695 21.3134 38.708 21.3134C38.9924 21.3134 39.075 21.5519 38.8181 21.6253C38.5429 21.6987 38.497 21.6895 38.4328 21.5886Z" fill="white"/>
<path d="M39.2126 21.3684C39.2126 21.2308 39.3778 21.084 39.4512 21.1574C39.5154 21.2216 39.387 21.4969 39.2952 21.4969C39.2493 21.4969 39.2126 21.4418 39.2126 21.3684Z" fill="white"/>
<path d="M34.1389 21.2491C34.1022 21.2216 34.0747 21.1023 34.0839 21.0014C34.0839 20.8271 34.093 20.8271 34.1756 21.0289C34.2674 21.2491 34.249 21.3592 34.1389 21.2491Z" fill="white"/>
<path d="M34.3133 21.1115C34.2307 20.7904 34.2399 20.7629 34.4784 20.7629C34.7445 20.7629 34.9096 21.1023 34.7078 21.2308C34.4968 21.3592 34.3775 21.3225 34.3133 21.1115Z" fill="white"/>
<path d="M37.4694 21.295C37.4694 21.2675 37.5153 21.1207 37.5703 20.9555C37.6988 20.5885 37.9832 20.5702 38.0474 20.928C38.075 21.0656 38.0841 21.1849 38.075 21.1941C38.0291 21.2491 37.4694 21.3317 37.4694 21.295Z" fill="white"/>
<path d="M34.9646 21.0656C34.9279 21.0381 34.9004 20.928 34.9004 20.8271C34.9004 20.6803 34.9279 20.6711 35.038 20.7628C35.1114 20.8271 35.1757 20.9372 35.1757 21.0014C35.1757 21.139 35.0656 21.1757 34.9646 21.0656Z" fill="white"/>
<path d="M38.2677 20.8821C38.2126 20.5977 38.3319 20.4692 38.6163 20.5059C38.7539 20.5243 38.7998 20.6069 38.7998 20.8087C38.7998 21.0381 38.7631 21.0931 38.5612 21.1115C38.3594 21.139 38.3135 21.0931 38.2677 20.8821Z" fill="white"/>
<path d="M39.1667 20.9188C39.0475 20.5518 39.0842 20.4417 39.3319 20.4142C39.5521 20.3867 39.5796 20.4142 39.5796 20.6527C39.5796 20.8546 39.5246 20.9372 39.3869 20.9739C39.286 21.0014 39.1851 20.9739 39.1667 20.9188Z" fill="white"/>
<path d="M34.0013 20.3958C34.0013 20.2215 34.0197 20.1481 34.0472 20.2399C34.0655 20.3224 34.0655 20.4692 34.0472 20.561C34.0197 20.6436 34.0013 20.5702 34.0013 20.3958Z" fill="white"/>
<path d="M34.2307 20.5151C34.1114 20.405 34.1665 20.0472 34.3133 19.9921C34.5243 19.9096 34.6252 20.0105 34.6252 20.3133C34.6252 20.5059 34.5794 20.5793 34.4601 20.5793C34.3683 20.5793 34.2582 20.5518 34.2307 20.5151Z" fill="white"/>
<path d="M34.7812 20.2674C34.7445 20.1298 34.7261 19.983 34.7628 19.9555C34.8546 19.8637 34.9096 20.0105 34.8821 20.2766L34.8546 20.5335L34.7812 20.2674Z" fill="white"/>
<path d="M37.7447 20.2031C37.7447 20.1022 37.7905 20.0472 37.8364 20.0747C37.8915 20.1022 37.9282 20.194 37.9282 20.2674C37.9282 20.3408 37.8915 20.3958 37.8364 20.3958C37.7905 20.3958 37.7447 20.3132 37.7447 20.2031Z" fill="white"/>
<path d="M38.1575 20.3225C38.0291 20.1849 38.13 19.9371 38.341 19.8821C38.6071 19.8179 38.6163 19.8179 38.6989 20.0839C38.7539 20.2491 38.7172 20.2858 38.4787 20.3225C38.3319 20.35 38.1851 20.3408 38.1575 20.3225Z" fill="white"/>
<path d="M39.0016 20.1482C38.9007 20.0564 38.9282 19.7536 39.0291 19.7536C39.0842 19.7536 39.1209 19.7169 39.1209 19.6619C39.1209 19.616 39.0658 19.5701 38.9924 19.5701C38.8365 19.5701 38.708 19.1206 38.8365 18.9921C39.0016 18.827 39.1851 19.0013 39.2952 19.4509C39.3594 19.6894 39.4237 19.9647 39.4512 20.0564C39.4879 20.1757 39.4512 20.2124 39.2769 20.2124C39.1576 20.2124 39.0291 20.1849 39.0016 20.1482Z" fill="white"/>
<path d="M39.4971 19.6619C39.4328 19.3867 39.2677 18.8362 39.1484 18.4325C38.9649 17.8453 38.9466 17.6985 39.0475 17.6343C39.1117 17.5884 39.1943 17.5517 39.2218 17.5517C39.3227 17.5517 39.6897 19.4326 39.653 19.7995L39.6255 20.1665L39.4971 19.6619Z" fill="white"/>
<path d="M33.9095 19.616C33.9095 19.4692 33.9279 19.4141 33.9554 19.5059C33.9738 19.5884 33.9738 19.7169 33.9554 19.7811C33.9279 19.8361 33.9095 19.7719 33.9095 19.616Z" fill="white"/>
<path d="M34.093 19.5976C34.1297 19.2765 34.3958 19.2031 34.4692 19.4967C34.5334 19.7352 34.5518 19.7077 34.2765 19.7994C34.0839 19.8545 34.0655 19.8361 34.093 19.5976Z" fill="white"/>
<path d="M37.9649 19.5151C37.8915 19.249 38.0475 19.093 38.3411 19.1297C38.5612 19.1572 38.6438 19.5518 38.4603 19.671C38.231 19.8178 38.0199 19.7536 37.9649 19.5151Z" fill="white"/>
<path d="M34.6252 19.4417C34.6252 19.2857 34.6711 19.2031 34.772 19.2031C34.8638 19.2031 34.9005 19.2673 34.8821 19.405C34.8362 19.6986 34.6252 19.7261 34.6252 19.4417Z" fill="white"/>
<path d="M33.8086 19.0563C33.8086 18.9554 33.8361 18.9278 33.8637 19.0012C33.8912 19.0655 33.882 19.148 33.8545 19.1756C33.827 19.2123 33.7994 19.1572 33.8086 19.0563Z" fill="white"/>
<path d="M33.9829 19.0288C33.9829 18.8912 34.038 18.8361 34.1756 18.8361C34.3041 18.8361 34.3499 18.882 34.3316 18.9921C34.2857 19.2306 33.9829 19.2582 33.9829 19.0288Z" fill="white"/>
<path d="M34.4876 18.9463C34.4233 18.7811 34.4233 18.7811 34.6986 18.7077C34.8637 18.6527 34.9004 18.6802 34.9004 18.8178C34.9004 19.038 34.5701 19.1481 34.4876 18.9463Z" fill="white"/>
<path d="M37.8089 18.8178C37.7447 18.5884 37.8639 18.4691 38.185 18.4691C38.341 18.4691 38.3869 18.5242 38.3869 18.6985C38.3869 18.8361 38.3318 18.9279 38.2584 18.9279C38.185 18.9279 38.0658 18.9554 37.9924 18.9829C37.9098 19.0104 37.8456 18.9554 37.8089 18.8178Z" fill="white"/>
<path d="M38.6071 18.6068C38.5337 18.4233 38.6438 18.2856 38.8548 18.2856C38.9833 18.2856 39.0292 18.3499 39.0292 18.515C39.0292 18.6802 38.9833 18.7444 38.8457 18.7444C38.7447 18.7444 38.6346 18.6802 38.6071 18.6068Z" fill="white"/>
<path d="M33.8912 18.4783C33.8912 18.2856 34.1022 18.0654 34.194 18.1663C34.2307 18.1939 34.2582 18.3223 34.2582 18.4416C34.2582 18.5884 34.2032 18.6526 34.0747 18.6526C33.9554 18.6526 33.8912 18.5884 33.8912 18.4783Z" fill="white"/>
<path d="M34.3958 18.3682C34.3224 18.1388 34.405 18.0379 34.717 17.992C35.0014 17.9553 35.0931 18.2581 34.8454 18.4416C34.6069 18.6159 34.4601 18.5884 34.3958 18.3682Z" fill="white"/>
<path d="M37.7172 18.3132C37.6529 18.2581 37.6254 17.9186 37.6805 17.9186C37.6896 17.9186 37.8273 17.8819 37.9924 17.8361C38.2676 17.7535 38.286 17.7627 38.2768 18.0104C38.2676 18.1939 38.2126 18.2856 38.075 18.3223C37.8273 18.3866 37.7906 18.3866 37.7172 18.3132Z" fill="white"/>
<path d="M37.3777 18.1021C37.3777 18.0379 37.4052 18.0104 37.4419 18.0379C37.4694 18.0746 37.4694 18.1297 37.4419 18.1664C37.4052 18.1939 37.3777 18.1664 37.3777 18.1021Z" fill="white"/>
<path d="M38.4053 17.9553C38.4328 17.7994 38.7172 17.57 38.7815 17.6434C38.809 17.6709 38.8549 17.781 38.8824 17.9003C38.9466 18.0838 38.9191 18.1021 38.6622 18.1021C38.442 18.1021 38.3778 18.0654 38.4053 17.9553Z" fill="white"/>
<path d="M33.9829 17.9461C33.9829 17.9002 34.0288 17.8085 34.0747 17.7351C34.1481 17.625 34.1664 17.6341 34.1664 17.8085C34.1664 17.9186 34.1297 18.0103 34.0747 18.0103C34.0288 18.0103 33.9829 17.9828 33.9829 17.9461Z" fill="white"/>
<path d="M34.2582 17.7443C34.2582 17.4874 34.4509 17.4048 34.5977 17.5975C34.6894 17.7351 34.6894 17.781 34.5977 17.8452C34.405 17.9645 34.2582 17.9278 34.2582 17.7443Z" fill="white"/>
<path d="M37.0474 17.625C36.8822 17.4415 36.8822 17.4323 37.0382 17.4874C37.13 17.5241 37.2492 17.5516 37.2951 17.5516C37.341 17.5516 37.3777 17.6158 37.3777 17.6892C37.3777 17.8819 37.2492 17.8636 37.0474 17.625Z" fill="white"/>
<path d="M35.0748 17.6159C34.6803 17.3131 34.6252 16.6342 34.9922 16.6342C35.2399 16.6342 35.4693 17.0195 35.4326 17.3773C35.4051 17.7076 35.295 17.781 35.0748 17.6159Z" fill="white"/>
<path d="M37.5887 17.6709C37.6254 17.6433 37.6804 17.6433 37.7171 17.6709C37.7447 17.7076 37.7171 17.7351 37.6529 17.7351C37.5887 17.7351 37.5612 17.7076 37.5887 17.6709Z" fill="white"/>
<path d="M38.9741 17.313C39.0016 17.2305 39.0291 17.1479 39.0291 17.1295C39.0291 17.1112 39.075 17.0928 39.1209 17.0928C39.1759 17.0928 39.2126 17.1754 39.2126 17.2763C39.2126 17.3864 39.1484 17.4598 39.0658 17.4598C38.9649 17.4598 38.9374 17.414 38.9741 17.313Z" fill="white"/>
<path d="M34.1664 17.2856C34.1664 17.0746 34.3591 16.726 34.4692 16.726C34.6619 16.726 34.5243 17.3131 34.3224 17.3498C34.2398 17.3682 34.1664 17.3407 34.1664 17.2856Z" fill="white"/>
<path d="M36.2308 17.1846L35.9556 17.1204L36.2033 17.0562C36.4602 16.9828 36.6437 17.0378 36.6437 17.1938C36.6437 17.2856 36.6345 17.2856 36.2308 17.1846Z" fill="white"/>
<path d="M35.9097 16.7442C35.9097 16.368 36.1207 16.313 36.3134 16.6433C36.4418 16.8635 36.451 16.9094 36.3317 16.9094C36.2583 16.9094 36.139 16.9369 36.0565 16.9644C35.9464 17.0103 35.9097 16.9552 35.9097 16.7442Z" fill="white"/>
<path d="M37.5061 16.8727C37.0933 16.6892 36.8272 16.2029 36.8272 15.6249C36.8272 15.212 36.8639 15.1111 37.1116 14.8817C37.2676 14.7349 37.4235 14.6157 37.4694 14.6157C37.6713 14.6157 38.4144 15.3221 38.6622 15.7625L38.9466 16.2671L38.6438 16.5883C38.2952 16.9553 37.9098 17.0562 37.5061 16.8727Z" fill="white"/>
<path d="M35.5886 16.6341C35.561 16.5882 35.5794 16.5424 35.6253 16.5424C35.6803 16.5424 35.7262 16.5882 35.7262 16.6341C35.7262 16.6892 35.7078 16.7259 35.6895 16.7259C35.662 16.7259 35.6161 16.6892 35.5886 16.6341Z" fill="white"/>
<path d="M34.3867 16.4873C34.4142 16.4048 34.4417 16.3222 34.4417 16.3039C34.4417 16.2855 34.5243 16.2672 34.6252 16.2672C34.8546 16.2672 34.8638 16.4139 34.6344 16.5424C34.3867 16.6708 34.3224 16.6617 34.3867 16.4873Z" fill="white"/>
<path d="M35.1114 16.3772C34.9004 16.3497 34.8362 16.2304 34.9738 16.1478C35.0105 16.1203 35.1757 16.0744 35.3408 16.0377C35.5885 15.9827 35.6344 16.001 35.6344 16.157C35.6344 16.3497 35.4417 16.4323 35.1114 16.3772Z" fill="white"/>
<path d="M35.8179 16.0653C35.8179 15.9552 35.8271 15.8909 35.8455 15.9093C35.8546 15.9276 35.928 16.0194 35.9923 16.1111C36.1024 16.2396 36.0932 16.2671 35.9647 16.2671C35.873 16.2671 35.8179 16.1937 35.8179 16.0653Z" fill="white"/>
<path d="M34.5334 16.0011C34.5334 15.946 34.5793 15.8818 34.6252 15.8543C34.6802 15.8268 34.7169 15.8635 34.7169 15.9369C34.7169 16.0194 34.6802 16.0837 34.6252 16.0837C34.5793 16.0837 34.5334 16.047 34.5334 16.0011Z" fill="white"/>
<path d="M34.8729 15.8634C34.7995 15.6799 35.451 15.4781 35.5611 15.6524C35.6436 15.7992 35.5611 15.8634 35.2124 15.9368C35.0014 15.9827 34.9096 15.9643 34.8729 15.8634Z" fill="white"/>
<path d="M35.7354 15.5698C35.7354 15.4689 35.7629 15.4414 35.7904 15.5148C35.8179 15.579 35.8087 15.6616 35.7812 15.6891C35.7537 15.7258 35.7262 15.6708 35.7354 15.5698Z" fill="white"/>
<path d="M34.9555 15.4231C35.0656 15.2212 35.3867 14.8909 35.4693 14.8909C35.561 14.8909 35.5702 15.3222 35.4785 15.3772C35.4326 15.3955 35.2858 15.4414 35.1482 15.4781C34.9463 15.524 34.9005 15.5148 34.9555 15.4231Z" fill="white"/>
<path d="M35.6895 15.212C35.5885 14.9368 35.6344 14.8175 35.8546 14.7808C36.084 14.7349 36.084 14.7349 35.9372 15.0194C35.7537 15.3864 35.7629 15.3864 35.6895 15.212Z" fill="white"/>
<path d="M35.6344 14.6615C35.6344 14.6432 35.8179 14.5147 36.0473 14.3863C36.3225 14.2211 36.5152 14.1661 36.6528 14.2028C36.818 14.2578 36.7721 14.2945 36.3684 14.4872C35.9189 14.689 35.6344 14.7624 35.6344 14.6615Z" fill="white"/>
<path d="M40.7265 6.53254C40.4788 6.17472 39.9558 5.5967 39.5796 5.24806C39.2035 4.89941 38.9558 4.61499 39.0292 4.61499C39.231 4.61499 40.7724 5.03704 41.1577 5.20218C41.4788 5.33981 41.488 5.35816 41.4055 5.64258C41.3596 5.80773 41.3229 6.2206 41.3229 6.56007C41.3229 6.90871 41.2954 7.18396 41.2587 7.18396C41.2128 7.18396 40.9834 6.89036 40.7265 6.53254Z" fill="white"/>
<path d="M22.0556 34.3233C21.6794 34.1306 21.5968 34.0205 21.1197 33.0755C20.4316 31.736 20.4133 31.424 21.0647 32.1856C21.3216 32.4883 21.918 33.1122 22.3859 33.571C23.1841 34.3417 23.2208 34.3967 22.9547 34.36C22.762 34.3325 22.6886 34.3508 22.7345 34.4242C22.8446 34.5894 22.496 34.5435 22.0556 34.3233Z" fill="white"/>
<path fill-rule="evenodd" clip-rule="evenodd" d="M37.4317 51.0392C37.3555 50.8583 37.4404 50.65 37.6213 50.5738L37.8189 50.49C39.7408 49.6677 40.8439 49.1737 41.5935 48.3893C42.343 47.6049 42.4327 46.4528 42.5735 45.7518C42.6122 45.5594 43.0478 45.8973 43.2402 45.9359C43.4326 45.9746 43.5572 46.1619 43.5186 46.3543C43.3493 47.1971 42.8933 48.0007 42.1593 48.7635C41.4278 49.5238 40.0114 50.3386 37.897 51.2288C37.7162 51.3049 37.5078 51.2201 37.4317 51.0392Z" fill="#00160A"/>
<path fill-rule="evenodd" clip-rule="evenodd" d="M46.1227 14.4314C46.2913 14.331 46.5093 14.3864 46.6097 14.555C47.6147 16.2433 48.1531 18.1733 48.1531 20.1812C48.1531 26.2645 43.2217 31.1959 37.1385 31.1959C35.522 31.1959 33.9542 30.8473 32.5185 30.183C32.3404 30.1006 31.6676 29.4445 32.3452 29.7114C33.0228 29.9782 35.6445 30.5772 37.1573 30.5772C42.8481 30.5772 46.874 25.872 46.874 20.1812C46.874 18.3021 46.1227 16.6342 45.9991 14.9185C45.9848 14.7196 45.954 14.5318 46.1227 14.4314Z" fill="#00160A"/>
<path fill-rule="evenodd" clip-rule="evenodd" d="M10.9333 41.323C11.0589 41.1722 11.2829 40.8676 11.4337 40.9932C12.0522 41.5084 12.7123 42.1053 13.4184 42.2205C14.1531 42.3404 15.0247 42.3404 16.0322 42.2184C16.227 42.1949 16.404 42.3337 16.4276 42.5285C16.4512 42.7233 16.3124 42.9003 16.1176 42.9239C15.0477 43.0534 14.1102 43.0534 13.3039 42.9219C12.4689 42.7856 11.6924 42.4178 10.9789 41.8234C10.8281 41.6978 10.8077 41.4738 10.9333 41.323Z" fill="#00160A"/>
<path d="M18.4774 28.8917C18.0186 28.5247 17.0369 27.4421 16.2938 26.4879C15.9084 25.9833 15.4772 24.9557 15.2203 23.9189C15.101 23.451 14.9817 23.029 14.9542 22.9739C14.9175 22.9281 14.7707 22.2766 14.6239 21.5243C14.4037 20.46 14.4503 20.1171 14.2569 18.8441C14.1751 18.3051 14.101 17.8762 14.101 17.8762L14.3395 17.5699C14.4771 17.3864 14.6512 17.0828 14.7157 16.9093C15.0093 16.1193 17.1654 13.6431 17.2296 13.7073C17.2479 13.7256 17.1745 14.1569 17.0461 14.6615C16.9268 15.1661 16.78 15.9276 16.7158 16.3588C16.624 17.0745 16.5873 17.157 16.3029 17.3956C15.9451 17.6984 15.2662 18.6709 15.2662 18.8727C15.2662 19.148 15.679 18.9645 16.1103 18.5149L16.5506 18.0562V18.5608C16.5506 18.8911 16.4864 19.1939 16.3672 19.4324C16.1378 19.882 16.1378 20.3591 16.358 20.7261C16.4681 20.9096 16.569 21.35 16.6332 21.8729C16.9176 24.2401 17.5232 26.2952 18.56 28.3596C18.8168 28.8734 19.0187 29.2954 19.0095 29.2954C18.9912 29.2954 18.7526 29.1119 18.4774 28.8917Z" fill="white"/>
<path fill-rule="evenodd" clip-rule="evenodd" d="M56.6541 34.5527L57.3147 34.8463C57.4517 34.9095 58.9628 35.6356 60.778 36.5078C63.7044 37.9139 67.4211 39.6998 67.4438 39.6998C67.4805 39.6998 67.6527 39.3017 67.6915 38.8374C67.7833 37.8373 68.1227 36.4794 68.5173 35.5344C68.7008 35.1123 68.8476 34.5849 68.8476 34.539C68.8476 34.5181 68.6984 34.4579 68.4542 34.3594C68.1635 34.2422 67.7382 34.0706 67.2695 33.8462C64.9574 32.736 60.4342 30.4698 59.8745 30.1304C59.324 29.8093 59.2139 29.7817 59.2139 29.9928C59.2139 30.268 58.6542 31.5433 58.223 32.2314C57.9936 32.6076 57.5441 33.2865 57.223 33.7361L56.6541 34.5527ZM67.2878 38.0484C67.5509 38.2009 67.0951 38.4245 66.985 38.4612C66.3368 38.5163 65.5736 38.3944 64.9482 38.03C64.6212 37.7982 62.0467 36.3679 60.339 35.4191C59.5582 34.9853 58.9586 34.6522 58.8377 34.5803C58.4524 34.3509 58.0854 34.1032 58.0212 34.0298C57.8285 33.782 58.012 33.6719 58.5533 33.7178C58.8787 33.7454 66.7195 37.719 67.2878 38.0484Z" fill="white"/>
<path d="M50.0665 35.3785C49.828 35.2959 49.5711 35.1124 49.406 34.9014L49.1307 34.5619L50.1032 33.5985C51.5988 32.1306 52.6997 30.5262 53.6906 28.7371C54.0209 28.1408 55.0026 25.7356 55.1219 25.4696C55.3054 25.0842 55.443 24.9374 55.8376 24.7172C56.3055 24.442 56.8376 24.3502 57.067 24.5062C57.5074 24.7998 57.5074 25.7265 57.067 27.3229C56.5807 29.0753 55.9293 30.3323 54.5806 32.1397C54.3696 32.415 53.9751 32.9563 53.6906 33.3325C52.9291 34.3417 52.4337 34.828 51.7639 35.2041C51.1033 35.5711 50.718 35.617 50.0665 35.3785Z" fill="white"/>
<path d="M53.5255 35.1674L53.3328 34.9747C53.3328 34.9747 56.5307 30.9118 57.1037 29.4147C57.541 28.2723 57.7983 27.9483 58.1456 27.9483C58.3397 27.9483 58.4983 27.9926 58.5717 28.1027C58.7001 28.2954 58.8239 28.5339 58.6587 29.3505C58.3835 30.6717 57.9614 31.5433 56.6953 33.4242C56.4017 33.8554 56.0255 34.3325 55.8604 34.4976C55.475 34.8554 54.6081 35.2224 54.1035 35.305C53.7824 35.3509 53.6906 35.3325 53.5255 35.1674Z" fill="white"/>
<path fill-rule="evenodd" clip-rule="evenodd" d="M58.897 30.9189C59.0821 30.4956 59.2139 30.1264 59.2139 29.9928C59.2139 29.7817 59.324 29.8093 59.8745 30.1304C60.4342 30.4698 64.9574 32.736 67.2695 33.8462C68.1319 34.2591 68.8476 34.4931 68.8476 34.539C68.8476 34.5849 58.7009 31.3677 58.897 30.9189Z" fill="#E7EAEE"/>
<path fill-rule="evenodd" clip-rule="evenodd" d="M27.5054 31.4424C26.3402 30.6809 24.5786 28.8918 23.7254 27.6165C22.5051 25.7815 21.6977 23.8181 21.3032 21.7079C21.0188 20.1757 21.028 17.8177 21.3124 16.4506C21.606 15.0561 21.9821 13.9918 22.6519 12.6431C23.4318 11.0833 24.2575 9.93647 25.4961 8.69786C26.7108 7.48323 21.3124 12.5062 22.6519 21.4934C23.7254 29.0246 28.3387 31.9915 27.5054 31.4424Z" fill="#E7EAEE"/>
</svg>
