<svg width="86" height="75" viewBox="0 0 86 75" fill="none" xmlns="http://www.w3.org/2000/svg">
<path d="M31.1277 66.384C51.7042 69.9341 62.3223 62.8276 62.3763 62.6164C62.9523 62.2773 63.5337 61.9422 64.079 61.5574C64.9467 60.9452 65.7921 60.3009 66.6354 59.6551C67.0511 59.3368 67.4573 59.0022 67.8372 58.6425C68.1101 58.3841 68.3116 58.0507 68.5814 57.7882C69.2006 57.1854 69.8665 56.6293 70.4693 56.0112C71.5517 54.9011 72.6172 53.7735 73.6604 52.6264C74.5032 51.6997 75.3151 50.744 76.1172 49.7816C76.6748 49.1128 77.1935 48.4115 77.728 47.7236C78.173 47.1509 78.6559 46.6024 79.0493 45.9961C79.5143 45.2793 79.921 44.5222 80.3167 43.7635C80.7239 42.9826 81.1222 42.1934 81.4608 41.3813C81.8661 40.4091 82.4086 39.4845 82.452 38.3793C82.4871 37.4825 82.6422 36.591 82.6941 35.6942C82.7551 34.6401 82.6294 33.5938 82.4415 32.5559C82.2792 31.6599 82.0468 30.7789 81.606 29.9815C81.1412 29.1407 80.6368 28.318 80.0965 27.5236C79.4478 26.5697 78.6729 25.7279 77.7288 25.0411C76.8475 24.4 75.8874 23.9186 74.8861 23.5135C73.9498 23.1348 72.9968 22.7978 72.0569 22.4278C71.5176 22.2154 70.9931 21.9656 70.4559 21.7476C69.585 21.3942 68.7002 21.074 67.8375 20.702C66.4925 20.1219 65.3013 19.3224 64.3198 18.2126C63.6806 17.4899 62.9861 16.8157 62.3087 16.1273C61.6421 15.4499 60.9596 14.7882 60.2968 14.1071C60.0187 13.8212 59.7964 13.479 59.508 13.2054C59.0813 12.8008 58.6237 12.428 58.1693 12.0538C57.7201 11.6838 57.2963 11.2608 56.7945 10.981C55.6848 10.3624 54.5834 9.72043 53.3449 9.3582C52.2693 9.04361 51.2218 8.66193 50.1019 8.47672C48.9451 8.28542 47.7967 8.10842 46.6235 8.10978C45.1194 8.11152 43.6153 8.10604 42.1112 8.11317C41.7413 8.11492 41.3668 8.12309 41.0028 8.18099C40.0221 8.33699 39.0439 8.51055 38.0688 8.69802C37.2905 8.84765 36.517 9.02317 35.7435 9.19628L35.7163 9.20237C35.1524 9.32855 34.5878 9.45488 34.0306 9.60692C33.0598 9.87177 32.093 10.1514 31.1277 10.4355C29.8092 10.8236 28.6384 11.5833 27.3012 11.9386C26.5893 12.1278 25.9038 12.427 25.2206 12.7107C24.048 13.1976 22.883 13.7033 21.7219 14.2172C21.1819 14.4563 20.6756 14.7791 20.1242 14.9832C19.0129 15.3945 17.9758 15.9439 16.9939 16.5926C16.1887 17.1246 15.4362 17.7359 14.6384 18.2799C13.5235 19.0401 12.464 19.8606 11.6191 20.9226C11.014 21.683 10.3781 22.4289 9.86319 23.2487C9.13562 24.4068 8.46925 25.6079 7.84696 26.8265C7.26523 27.9657 6.76281 29.1463 6.24907 30.319C5.91223 31.0878 5.57674 31.8617 5.3143 32.6577C5.00867 33.5845 4.80856 34.5459 4.51528 35.4773C4.28076 36.2221 4.19439 36.9766 4.2028 37.7481C4.20506 37.9558 4.25959 38.1628 4.26225 38.3705C4.28813 40.3959 4.30235 42.4214 4.33504 44.4466C4.34088 44.808 4.4052 45.1701 4.46204 45.5287C4.56146 46.1562 4.67124 46.7821 4.78572 47.4071C4.88125 47.9285 4.9471 48.4606 5.10055 48.9653C5.54141 50.4153 6.10844 51.8177 6.86287 53.1359C7.35965 54.0039 7.87522 54.8617 8.40368 55.7108C8.56821 55.9751 8.80476 56.1942 9.00425 56.4373C9.40805 56.9295 9.72193 57.3545 10.2168 57.9123C16.0638 64.5037 24.3423 65.2132 31.1277 66.384Z" fill="#64FCD9"/>
<path d="M2.28352 47.9336C1.86456 46.9476 1.53597 45.9698 1.3667 44.9352C1.23223 44.1132 1.0117 43.3057 0.861679 42.4858C0.781062 42.0452 0.782628 41.5903 0.722032 41.1453C0.617835 40.38 0.494208 39.6174 0.378368 38.8537C0.321244 38.4771 0.246247 38.1023 0.2088 37.7238C0.072649 36.3476 -0.0348055 34.9696 0.0105399 33.5844C0.034457 32.8539 0.00697705 32.118 0.0877681 31.394C0.190055 30.4773 0.386393 29.5715 0.527838 28.6587C0.627613 28.0149 0.68084 27.3633 0.795186 26.7224C0.988877 25.6368 1.32067 24.5927 1.88079 23.6352C2.12694 23.2145 2.4062 22.8131 2.67371 22.405C2.85443 22.1293 3.42078 21.8882 3.66457 21.9402C3.99934 22.0117 4.12037 22.258 4.09042 22.5305C4.03248 23.0576 3.9452 23.5874 3.80551 24.0983C3.51673 25.1547 3.14919 26.1904 2.88407 27.2522C2.69075 28.0264 2.60554 28.8279 2.47933 29.6184C2.32359 30.5939 2.17152 31.5699 2.02634 32.5469C1.98785 32.806 1.97167 33.0693 1.96062 33.3313C1.9336 33.9714 1.91823 34.612 1.893 35.2522C1.8763 35.6763 1.81727 36.1014 1.83564 36.5236C1.88017 37.5472 1.95074 38.57 2.0267 39.592C2.07626 40.2588 2.1404 40.9252 2.2228 41.5887C2.28854 42.1181 2.39242 42.6428 2.47813 43.1698C2.56555 43.7073 2.6315 44.2493 2.74395 44.7815C2.84587 45.2639 2.98376 45.74 3.13035 46.2113C3.51182 47.4375 3.89833 48.6624 4.29915 49.8825C4.59922 50.7958 4.92701 51.7 5.23772 52.6099C5.37448 53.0105 5.28889 53.2443 4.98048 53.2458C4.73479 53.2469 4.53609 53.0906 4.42749 52.8568C4.33488 52.6574 4.25771 52.4508 4.16573 52.2511C3.73463 51.315 3.29183 50.3841 2.87161 49.4432C2.65569 48.9597 2.47832 48.459 2.28352 47.9336Z" fill="#64FCD9"/>
<path d="M77.4943 14.33C76.621 14.5464 75.7856 14.7879 74.9375 14.9708C74.3335 15.101 73.7015 15.2675 73.1021 15.2097C72.3596 15.1382 71.5719 15.3639 70.8726 14.9742C70.4123 14.7177 69.9624 14.4354 69.5377 14.124C68.7445 13.5423 68.2225 12.7385 67.794 11.8689C67.3326 10.9323 67.0416 9.9393 66.8504 8.91751C66.7779 8.52975 66.7041 8.12845 66.7287 7.73953C66.7657 7.15551 66.8806 6.57556 66.9777 5.99644C67.0981 5.27756 67.3523 4.60141 67.6553 3.94046C68.0718 3.0319 68.8185 2.43372 69.5991 1.87635C70.5128 1.2239 71.5112 0.712637 72.5854 0.394466C73.2199 0.206551 73.8929 0.138896 74.5528 0.0490255C75.8288 -0.124731 77.0648 0.196445 78.2757 0.495074C80.011 0.923036 81.0053 2.19576 81.5059 3.84174C81.78 4.74317 81.9167 5.68714 82.1016 6.61468C82.2038 7.12752 82.3211 7.64358 82.3505 8.16277C82.3744 8.58465 82.3089 9.01946 82.2276 9.43777C82.0686 10.2564 81.7203 11.0032 81.2617 11.6978C80.8876 12.2644 80.3518 12.6696 79.8387 13.0946C79.1532 13.6624 78.344 14.0052 77.4943 14.33Z" fill="#64FCD9"/>
<path d="M80.6808 20.5815C80.4734 20.3091 80.2469 20.0708 80.1046 19.7899C80.0241 19.631 80.0259 19.3815 80.0895 19.2092C80.202 18.904 80.5232 18.9217 80.7564 18.9894C81.0001 19.0601 81.239 19.2172 81.4289 19.3919C82.4402 20.3224 83.3304 21.367 84.0847 22.5103C84.7228 23.4775 85.2216 24.5298 85.399 25.694C85.5149 26.4542 85.6168 27.2205 85.6558 27.9876C85.7285 29.4178 85.7848 30.8506 85.7837 32.2822C85.7827 33.4979 85.5777 34.69 85.081 35.8165C84.9174 36.1876 84.3688 36.6664 83.9097 36.6398C83.5487 36.6189 83.197 36.3566 83.2064 35.9983C83.22 35.4774 83.282 34.956 83.3532 34.4389C83.4357 33.8399 83.5588 33.2465 83.6489 32.6484C83.726 32.1362 83.8265 31.6216 83.836 31.1066C83.8518 30.2508 83.854 29.3885 83.7664 28.5389C83.6841 27.7399 83.4989 26.9489 83.3214 26.1629C83.1112 25.2321 82.892 24.2953 82.4127 23.458C81.8606 22.4933 81.2706 21.5502 80.6808 20.5815Z" fill="#64FCD9"/>
<path d="M8.21278 17.1402C7.94765 17.441 7.6877 17.7168 7.45203 18.0119C6.86922 18.7419 6.29924 19.4821 5.72031 20.2151C5.55111 20.4293 5.31847 20.5645 5.06086 20.4353C4.80523 20.3071 4.84034 20.0243 4.85435 19.7822C4.88674 19.2221 5.17213 18.755 5.48307 18.3251C6.13567 17.4227 6.82259 16.5418 7.63573 15.775C8.48572 14.9734 9.37985 14.226 10.3581 13.5777C10.8847 13.2287 11.3911 12.8584 12.0272 12.7473C12.1678 12.7227 12.4187 12.7335 12.4494 12.803C12.5102 12.9404 12.5142 13.1743 12.4317 13.2892C12.2519 13.5391 12.0135 13.7512 11.7802 13.9574C11.3729 14.3174 10.9421 14.6511 10.5377 15.0142C9.76204 15.7106 8.99792 16.42 8.21278 17.1402Z" fill="#64FCD9"/>
<path d="M19.7795 35.8587L25.3584 44.553H39.0519L39.7039 43.0315H35.2119L30.2127 35.8587H19.7795Z" fill="white"/>
<path d="M39.7486 48.8426C38.349 48.8426 36.9819 48.851 35.6149 48.8401C34.3469 48.83 33.0791 48.8015 31.8113 48.7769C30.8896 48.7591 29.9681 48.7348 29.0465 48.7126C28.1682 48.6915 27.2896 48.6777 26.4117 48.6455C25.5095 48.6125 24.6079 48.5632 23.7062 48.5174C22.9124 48.477 22.1184 48.4391 21.3255 48.386C20.4969 48.3305 19.6696 48.2569 18.8415 48.1938C18.2429 48.1481 17.6434 48.1125 17.0454 48.0601C16.8546 48.0433 16.8213 48.1089 16.8233 48.2874C16.8336 49.1746 16.8346 50.062 16.8266 50.9492C16.8094 52.8592 16.7797 54.7691 16.7667 56.6791C16.7636 57.1353 16.8268 57.5919 16.8235 58.048C16.8175 58.8832 16.7738 59.718 16.7675 60.5532C16.7642 60.9985 16.8275 61.4443 16.8242 61.8896C16.8118 63.6012 16.7864 65.3126 16.7625 67.0241C16.7436 68.3823 16.7185 69.7403 16.6989 71.0985C16.6928 71.5235 16.4532 71.7616 16.0175 71.7632C15.6547 71.7645 15.4061 71.4922 15.3985 71.1008C15.3801 70.1575 15.3528 69.2144 15.336 68.271C15.3277 67.8022 15.3264 67.3329 15.3372 66.8642C15.3457 66.4975 15.3974 66.1313 15.3949 65.7651C15.3913 65.2329 15.3476 64.7011 15.337 64.1688C15.3261 63.6243 15.3285 63.0793 15.3358 62.5347C15.3538 61.191 15.3851 59.8475 15.3955 58.5039C15.3991 58.044 15.3424 57.584 15.3375 57.1238C15.3277 56.2075 15.3346 55.2911 15.3346 54.3748C15.3346 53.8409 15.3261 53.3068 15.337 52.7731C15.3476 52.2516 15.391 51.7307 15.3966 51.2093C15.4068 50.2751 15.3974 49.3408 15.4029 48.4065C15.4035 48.3199 15.452 48.2335 15.4783 48.147C15.5012 48.1575 15.5382 48.1626 15.5448 48.1795C15.5787 48.2667 15.6173 48.3551 15.6307 48.4466C15.6506 48.582 15.6614 48.7207 15.6574 48.8574C15.6401 49.4403 15.5964 50.0231 15.5989 50.6057C15.6026 51.4554 15.6482 52.3048 15.6548 53.1545C15.6582 53.5926 15.5977 54.0312 15.599 54.4696C15.6007 54.9946 15.6519 55.5194 15.6546 56.0444C15.6566 56.4394 15.5996 56.8346 15.5991 57.2297C15.5985 57.5995 15.6581 57.9694 15.6548 58.3389C15.6486 59.0263 15.6014 59.7134 15.599 60.4008C15.5971 60.9327 15.655 61.4649 15.6545 61.9969C15.6539 62.5652 15.6017 63.1333 15.599 63.7016C15.597 64.1291 15.6562 64.5568 15.6545 64.9843C15.6524 65.5201 15.5989 66.0558 15.5991 66.5916C15.5992 67.1382 15.6544 67.6848 15.6545 68.2314C15.6546 68.7708 15.5924 69.3107 15.6016 69.8497C15.6093 70.2976 15.6628 70.7476 15.7381 71.1895C15.7549 71.2879 15.9441 71.4137 16.0606 71.421C16.1599 71.4273 16.2979 71.3004 16.365 71.1974C16.4267 71.1026 16.4355 70.9612 16.4357 70.8403C16.4392 68.0811 16.4384 65.3219 16.4384 62.5627C16.4384 60.687 16.43 58.8113 16.4408 56.9357C16.4516 55.0619 16.4901 53.1882 16.4992 51.3143C16.5028 50.566 16.4539 49.8175 16.4423 49.0689C16.4389 48.851 16.4883 48.6328 16.5019 48.4141C16.5261 48.0229 16.4596 47.9625 16.0775 47.9315C15.368 47.8739 14.6569 47.824 13.9512 47.7342C12.8016 47.5879 11.6341 47.5267 10.5266 47.1482C10.0741 46.9934 9.63184 46.7945 9.20955 46.5695C8.8344 46.3695 8.75333 45.9864 8.78004 45.5919C8.80537 45.2177 9.03363 44.9584 9.37081 44.8484C10.1255 44.6022 10.8863 44.3689 11.6565 44.1783C11.9997 44.0933 12.374 44.143 12.7301 44.0984C13.2914 44.028 13.8481 43.9218 14.4088 43.8455C14.8219 43.7892 15.2374 43.744 15.6533 43.7162C16.1737 43.6815 16.6971 43.6882 17.2164 43.6439C18.0476 43.5731 18.8762 43.4731 19.7062 43.3895C19.9887 43.3611 20.2722 43.3379 20.5558 43.325C21.1417 43.2983 21.728 43.2802 22.3142 43.2586C22.9003 43.2369 23.4866 43.2173 24.0725 43.1908C24.1392 43.1877 24.2042 43.1454 24.2699 43.1213C24.2408 43.0538 24.2206 42.9804 24.1811 42.9196C23.5929 42.0158 22.9988 41.1158 22.413 40.2105C21.8891 39.4007 21.3721 38.5863 20.8548 37.7722C20.485 37.1902 20.1116 36.6101 19.7563 36.0192C19.5977 35.7553 19.6555 35.6264 19.9511 35.5655C20.1324 35.5282 20.3267 35.5489 20.515 35.5526C20.5847 35.5539 20.6535 35.5937 20.7231 35.5949C22.1208 35.619 23.5185 35.6372 24.9162 35.6626C25.8162 35.679 26.7224 35.6466 27.6142 35.7436C28.4424 35.8337 29.2339 35.6773 30.0415 35.6091C30.1751 35.5978 30.3747 35.7139 30.4554 35.8317C31.2497 36.9923 32.0198 38.1695 32.8078 39.3344C33.5578 40.4431 34.3166 41.5461 35.0831 42.6435C35.2077 42.8219 35.3671 42.9436 35.6412 42.9441C37.8613 42.9476 40.0813 42.9782 42.3014 42.9981C42.8424 43.003 43.3836 42.9912 43.9244 43.0006C44.8137 43.0159 45.7028 43.0396 46.5918 43.0646C47.1998 43.0817 47.8074 43.1082 48.4153 43.1284C49.1096 43.1514 49.8042 43.1664 50.4983 43.195C51.4112 43.2327 52.3237 43.2782 53.2362 43.3241C54.0408 43.3645 54.845 43.4115 55.6496 43.4528C56.1274 43.4774 56.6068 43.4805 57.0831 43.5218C57.9356 43.5958 58.7859 43.6949 59.6378 43.7767C60.1602 43.8269 60.6856 43.8493 61.2065 43.9114C61.9863 44.0044 62.7644 44.1135 63.541 44.2306C64.1898 44.3284 64.8419 44.4193 65.4807 44.5655C66.0671 44.6996 66.6571 44.8572 67.2093 45.0904C67.7053 45.2998 67.656 45.4759 67.5247 45.8978C67.4627 46.0971 67.3142 46.2783 67.2881 46.4785C67.203 47.1317 66.703 47.2465 66.2038 47.3449C65.2505 47.5328 64.294 47.7059 63.3353 47.8639C62.9033 47.9351 62.4636 47.9632 62.0263 47.9969C61.1122 48.0673 60.1974 48.1278 59.283 48.1935C58.6949 48.2357 58.1074 48.2874 57.5188 48.3214C56.6499 48.3716 55.7804 48.4126 54.9109 48.4523C53.8902 48.4988 52.8691 48.5364 51.8484 48.5839C51.0221 48.6223 50.1963 48.671 49.3702 48.7121C48.8707 48.737 48.3711 48.7703 47.8714 48.7753C45.1746 48.802 42.4778 48.821 39.7486 48.8426ZM66.143 45.0766C65.9599 45.0234 65.7797 44.9558 65.5933 44.9197C64.9409 44.793 64.2887 44.6617 63.6319 44.5624C63.1669 44.4921 62.6935 44.48 62.2258 44.4253C61.3607 44.3242 60.4984 44.1988 59.6325 44.1068C59.025 44.0422 58.4131 44.0208 57.8038 43.9716C57.062 43.9117 56.3216 43.8328 55.5792 43.7804C54.5246 43.706 53.4691 43.6435 52.4135 43.5846C51.512 43.5344 50.6099 43.4924 49.7078 43.4547C49.0244 43.4262 48.3406 43.4076 47.6569 43.389C46.7678 43.3649 45.8785 43.3431 44.9892 43.324C43.8836 43.3002 42.778 43.2672 41.6722 43.2614C39.7244 43.2512 37.7764 43.2573 35.8285 43.2631C35.7499 43.2634 35.6715 43.3307 35.593 43.3667C35.6679 43.3956 35.7425 43.4491 35.8176 43.4496C36.6617 43.4555 37.5058 43.4494 38.3498 43.4586C38.4485 43.4597 38.5465 43.5329 38.6448 43.5726C38.567 43.5998 38.4901 43.6297 38.4113 43.6533C38.334 43.6765 38.2548 43.7098 38.1762 43.7105C37.5811 43.7152 36.9858 43.7151 36.3907 43.7119C36.2113 43.7109 36.032 43.6955 35.8527 43.6867C35.9613 43.8798 36.069 44.0734 36.1794 44.2654C36.1951 44.2926 36.2215 44.3161 36.2479 44.334C36.298 44.3679 36.3523 44.4244 36.4037 44.4231C37.0009 44.4081 37.5978 44.3756 38.195 44.3703C38.3006 44.3693 38.4071 44.4717 38.5132 44.5264C38.4074 44.5583 38.3018 44.617 38.1957 44.6179C37.3046 44.6253 36.4134 44.6143 35.5224 44.6239C34.1353 44.6388 32.7484 44.674 31.3613 44.6846C29.9437 44.6955 28.526 44.687 27.1084 44.687C26.7547 44.687 26.4002 44.6996 26.0477 44.6796C25.9374 44.6734 25.8321 44.5795 25.7245 44.5257C25.8312 44.4712 25.9345 44.4078 26.0459 44.3661C26.1028 44.3448 26.1743 44.3624 26.2393 44.3624C29.2153 44.3624 32.1912 44.3627 35.1672 44.3604C35.2442 44.3603 35.3212 44.3306 35.3982 44.3147C35.364 44.2423 35.3392 44.1634 35.2942 44.0984C34.6595 43.1812 34.0236 42.2647 33.3849 41.3503C32.8685 40.6112 32.3458 39.8766 31.8298 39.1373C31.2207 38.2648 30.6133 37.391 30.0139 36.5119C29.9703 36.4479 29.9974 36.3358 29.9916 36.246C30.0623 36.2917 30.1555 36.3216 30.2004 36.3855C30.8116 37.2563 31.4167 38.1315 32.0223 39.0062C32.9945 40.4106 33.9653 41.816 34.9383 43.2199C35.1952 43.5905 35.4565 43.9582 35.721 44.3235C35.7472 44.3598 35.8102 44.3695 35.8561 44.3915C35.8589 44.3316 35.8863 44.2568 35.8605 44.2142C35.6766 43.9102 35.4914 43.6061 35.289 43.3143C34.2678 41.8425 33.2371 40.3774 32.2181 38.904C31.5969 38.0058 30.9931 37.0954 30.3755 36.1946C30.2776 36.0517 30.1463 35.956 29.9435 35.9822C29.6516 36.0199 29.3557 36.0505 29.062 36.047C28.4107 36.039 27.7597 36.005 27.1084 35.987C26.2193 35.9625 25.3301 35.9392 24.4407 35.9223C23.1187 35.8971 21.7966 35.8781 20.4744 35.8565C20.4528 35.8561 20.431 35.8582 20.4095 35.8562C20.2588 35.8416 20.1082 35.8262 19.9576 35.8111C20.0398 35.9574 20.1157 36.1078 20.2054 36.2494C20.8626 37.2871 21.5164 38.3269 22.1829 39.3585C23.226 40.973 24.2791 42.581 25.3236 44.1945C25.3706 44.2671 25.3898 44.3669 25.3931 44.4551C25.3951 44.5066 25.34 44.5603 25.3105 44.613C25.275 44.5797 25.2304 44.552 25.2056 44.512C25.0511 44.2628 24.9231 43.993 24.7406 43.7669C24.643 43.6459 24.4499 43.5235 24.3066 43.531C23.607 43.5678 22.9105 43.6603 22.2112 43.7093C21.6371 43.7495 21.0605 43.7535 20.4853 43.7787C19.5508 43.8195 18.6161 43.8583 17.6823 43.9103C17.1475 43.9401 16.6135 43.9879 16.0803 44.0392C15.2391 44.1202 14.3981 44.2046 13.5584 44.3003C13.1913 44.3422 12.8266 44.4086 12.463 44.4762C11.8815 44.5844 11.2996 44.6924 10.7223 44.8205C10.3192 44.9098 9.91944 45.0202 9.52697 45.1481C9.41279 45.1853 9.32887 45.3154 9.23108 45.4029C9.32197 45.4824 9.40293 45.5797 9.50607 45.6373C9.66239 45.7246 9.82799 45.8119 10.0005 45.8504C10.459 45.9528 10.9244 46.023 11.3849 46.1169C12.1023 46.2632 12.8127 46.454 13.5357 46.5613C14.5029 46.7048 15.478 46.7997 16.452 46.8908C17.3432 46.9741 18.2375 47.0246 19.1305 47.0894C19.7294 47.1329 20.3282 47.1778 20.9272 47.2189C21.8958 47.2854 22.8638 47.3676 23.8335 47.4091C24.8625 47.4531 25.8932 47.4538 26.923 47.4807C27.3688 47.4924 27.8142 47.5213 28.2597 47.5442C29.0859 47.5867 29.9116 47.6502 30.7383 47.6696C32.2873 47.706 33.8369 47.7209 35.3863 47.7373C36.2086 47.7459 37.0312 47.7443 37.8536 47.7377C40.1822 47.7191 42.5108 47.7059 44.8391 47.6695C46.0336 47.6509 47.2273 47.5833 48.4216 47.5461C48.8506 47.5328 49.2806 47.5514 49.7099 47.5423C50.4477 47.5267 51.1855 47.5035 51.9231 47.478C52.3905 47.4619 52.8579 47.442 53.3246 47.4128C54.2936 47.3522 55.2621 47.2851 56.2308 47.219C56.8406 47.1774 57.45 47.1281 58.06 47.0906C58.8426 47.0426 59.6261 47.0083 60.4085 46.9577C60.9215 46.9245 61.4361 46.8941 61.945 46.825C62.7701 46.7129 63.5926 46.5785 64.4135 46.4379C65.311 46.2842 66.2012 46.1148 67.05 45.7498C67.3597 45.6166 67.2216 45.5221 67.0902 45.4522C66.8091 45.3027 66.5035 45.1991 66.143 45.0766ZM20.7563 47.9985C21.42 48.0418 22.0834 48.0899 22.7475 48.1272C23.6058 48.1754 24.4643 48.2197 25.3232 48.257C26.4304 48.3052 27.538 48.3445 28.6455 48.3882C29.1776 48.4092 29.7095 48.4375 30.2417 48.4517C31.2282 48.478 32.2149 48.5175 33.2014 48.5141C36.7309 48.5022 40.2604 48.4781 43.7898 48.451C44.863 48.4427 45.9361 48.4121 47.0092 48.3873C47.7686 48.3698 48.5279 48.3453 49.2872 48.3231C50.7517 48.2801 52.2163 48.2371 53.6808 48.1931C54.3536 48.1728 55.0263 48.1499 55.6991 48.1285C55.7423 48.1272 55.7859 48.1319 55.8288 48.1279C56.7453 48.042 57.6613 47.9505 58.5782 47.8703C59.1763 47.8181 59.7779 47.8014 60.3742 47.7345C61.3934 47.6202 62.4064 47.4271 63.428 47.3647C64.3418 47.3088 65.2193 47.1157 66.0931 46.8854C66.3578 46.8156 66.6857 46.8442 66.8644 46.5598C66.9056 46.494 66.9228 46.4132 66.9511 46.3393C66.8709 46.3353 66.7812 46.3056 66.7119 46.331C65.5674 46.7516 64.3555 46.8286 63.1674 47.0162C62.3444 47.1461 61.5092 47.1994 60.6792 47.2838C59.8063 47.3725 58.9342 47.4724 58.0596 47.5397C57.2351 47.6031 56.4079 47.6332 55.5816 47.6729C55.0281 47.6995 54.4739 47.7112 53.9205 47.7403C53.2131 47.7774 52.5067 47.8339 51.7992 47.8667C50.7029 47.9175 49.6063 47.9756 48.5093 47.9942C46.3651 48.0306 44.2206 48.042 42.0762 48.0632C41.8777 48.0651 41.6792 48.065 41.4807 48.0632C39.0658 48.0419 36.6508 48.0238 34.2359 47.9968C33.2384 47.9856 32.2411 47.9576 31.2438 47.933C29.6493 47.8938 28.0535 48.0092 26.4592 47.8157C25.5546 47.706 24.6354 47.7153 23.7226 47.6745C23.1582 47.6493 22.5932 47.6369 22.0291 47.6073C21.3325 47.5708 20.6361 47.527 19.9403 47.4779C19.0904 47.4179 18.2404 47.3559 17.3916 47.282C16.7791 47.2287 16.168 47.1574 15.5569 47.0888C14.6167 46.9832 13.6793 46.8166 12.7366 46.7792C11.5718 46.7329 10.4943 46.3643 9.39701 46.0512C9.35973 46.0405 9.29707 46.0215 9.28593 46.0363C9.26069 46.0698 9.23766 46.1346 9.25413 46.1642C9.29694 46.241 9.34746 46.3372 9.41996 46.3696C9.69352 46.4918 9.9687 46.6321 10.2585 46.692C11.0006 46.8455 11.7509 46.9589 12.4977 47.0897C13.234 47.2186 13.9668 47.3736 14.7071 47.4721C15.4334 47.5688 16.1672 47.6102 16.8979 47.6732C17.1916 47.6986 17.4862 47.7137 17.7799 47.7394C18.7505 47.8243 19.7209 47.9119 20.7563 47.9985Z" fill="#00160A"/>
<path d="M18.258 43.5386C18.258 44.0588 17.5044 44.5529 16.6641 44.5529C15.8238 44.5529 15.0701 44.0588 15.0701 43.5386C15.0701 43.0184 14.7803 41.5824 16.7365 42.0171C18.4754 41.9446 18.258 43.0184 18.258 43.5386Z" fill="white"/>
<path d="M18.986 43.2122C18.6311 43.3746 18.5249 43.6634 18.3587 43.9793C18.1166 44.4393 17.6406 44.759 17.0335 44.739C16.459 44.72 15.8804 44.7858 15.3438 44.4837C15.0536 44.3204 14.8487 44.055 14.823 43.7795C14.7836 43.3565 14.8457 42.9108 14.9416 42.4924C15.0325 42.0961 15.4078 41.9349 15.7634 41.8579C16.4362 41.7123 17.1134 41.7511 17.7669 41.9828C17.914 42.0349 18.0315 42.1656 18.175 42.2345C18.2957 42.2925 18.4554 42.3742 18.5608 42.338C18.7948 42.2574 19.0226 42.1024 19.2213 42.3536C19.389 42.5658 19.2888 42.9091 19.0246 43.1735C19.0171 43.181 19.0095 43.1886 18.986 43.2122ZM15.1221 43.6771C15.2316 43.8374 15.3063 44.0522 15.4568 44.1486C16.0727 44.543 16.7663 44.4877 17.4288 44.3373C18.0294 44.201 18.3382 43.5112 18.084 42.9964C18.0292 42.8856 17.8732 42.78 17.7492 42.7593C17.5847 42.7318 17.4023 42.8234 17.234 42.8052C16.6766 42.7451 16.1229 42.6527 15.566 42.5873C15.4467 42.5733 15.2282 42.5927 15.2121 42.6449C15.1164 42.9566 14.9659 43.2748 15.1221 43.6771ZM17.2705 42.17C16.7877 42.17 16.3048 42.1679 15.8221 42.1738C15.7808 42.1743 15.7402 42.2285 15.6993 42.2577C15.7452 42.2926 15.7895 42.3555 15.8372 42.3581C16.3534 42.3864 16.8699 42.4122 17.3867 42.4225C17.5505 42.4257 17.7153 42.3807 17.8797 42.3578C17.7087 42.2952 17.5377 42.2325 17.3664 42.1705C17.357 42.1671 17.3452 42.17 17.2705 42.17ZM18.9379 42.5548C18.7925 42.636 18.5896 42.6841 18.5182 42.8079C18.4487 42.9285 18.5136 43.1267 18.5195 43.2908C18.5938 43.2176 18.6681 43.1445 18.7421 43.0711C18.8094 43.0043 18.8989 42.9478 18.9368 42.8671C18.9748 42.7864 18.961 42.6813 18.9379 42.5548Z" fill="black"/>
<path d="M15.9558 45.6331C15.5997 45.5656 15.2652 45.5272 14.9565 45.4167C14.8259 45.37 14.5357 45.3201 14.6701 45.0272C14.7876 44.7713 15.0364 44.6644 15.26 44.7815C15.3095 44.8074 15.3396 44.8705 15.3786 44.9165C15.3334 44.9416 15.2869 44.9645 15.2435 44.9923C15.1804 45.0327 15.1197 45.0766 15.058 45.119C15.1155 45.1448 15.1706 45.1831 15.2309 45.1945C15.8216 45.3062 16.4096 45.3703 17.0143 45.2592C17.3134 45.2042 17.6311 45.2563 17.9399 45.2456C18.1343 45.2389 18.3292 45.181 18.521 45.1927C18.6512 45.2007 18.7764 45.2898 18.9039 45.3426C18.7995 45.3967 18.6978 45.4917 18.5905 45.4984C17.7235 45.5527 16.8555 45.5903 15.9558 45.6331Z" fill="black"/>
<path d="M43.1899 73.5163C42.1871 73.4297 41.2171 73.3381 40.2461 73.2589C39.8126 73.2235 39.3771 73.2094 38.9423 73.1926C38.2914 73.1674 37.6401 73.1527 36.9892 73.1257C36.044 73.0864 35.0995 73.0208 34.154 73.0019C33.0579 72.9801 31.961 72.9895 30.8645 72.9985C28.9151 73.0144 26.9656 73.0367 25.0163 73.0639C24.4299 73.072 23.8441 73.1103 23.2578 73.1249C22.8648 73.1346 22.4712 73.1344 22.0782 73.1249C21.4595 73.11 20.8411 73.0782 20.2224 73.0629C19.1711 73.0371 18.1197 73.011 17.0682 72.9991C16.1341 72.9885 15.194 73.0612 14.2674 72.9768C13.5056 72.9074 12.7643 72.6363 12.0053 72.5038C11.5901 72.4314 11.2815 72.235 11.0541 71.9143C10.7347 71.464 11.0082 70.7399 11.5821 70.4571C12.0201 70.2412 12.4569 70.0748 12.95 70.0719C13.071 70.0711 13.1915 70.0146 13.3127 70.013C13.8248 70.006 14.3375 70.0008 14.849 70.0199C14.9268 70.0228 15.035 70.1446 15.0675 70.2338C15.1353 70.4199 14.9845 70.4122 14.8675 70.398C14.5494 70.3594 14.2333 70.2905 13.9145 70.2767C13.6437 70.2649 13.3626 70.2806 13.0995 70.342C12.6599 70.4445 12.2206 70.5665 11.8012 70.7314C11.5003 70.8498 11.2983 71.0826 11.3032 71.4558C11.3076 71.7907 11.4822 71.9914 11.7642 72.0822C12.4244 72.2947 13.094 72.4778 13.7603 72.6711C13.7903 72.6798 13.8249 72.6717 13.8574 72.6723C15.0062 72.6938 16.1549 72.7309 17.3037 72.7324C18.2793 72.7337 19.264 72.5999 20.2287 72.6923C22.0844 72.87 23.9384 72.7645 25.7924 72.7968C26.4466 72.8082 27.1018 72.7555 27.7566 72.7386C28.0739 72.7303 28.3916 72.7398 28.7091 72.7367C30.8316 72.7159 32.9542 72.6794 35.0767 72.6793C35.9244 72.6793 36.7723 72.7548 37.6196 72.8034C38.2621 72.8402 38.9039 72.8877 39.5459 72.9322C40.4713 72.9962 41.3971 73.0541 42.3215 73.1294C42.9449 73.1802 43.5682 73.2423 44.1881 73.3253C44.8705 73.4168 45.5481 73.5431 46.2292 73.6441C46.5991 73.6989 46.972 73.7339 47.3437 73.7758C48.1192 73.8632 48.8934 73.9694 49.6711 74.0285C50.1767 74.0669 50.6883 74.0189 51.1961 74.039C52.5978 74.0946 53.9983 74.1938 55.4004 74.2198C56.2253 74.2352 57.0524 74.1468 57.8782 74.0998C58.5638 74.0608 59.2513 74.0362 59.9337 73.9651C60.7354 73.8814 61.5366 73.7777 62.3304 73.639C62.9987 73.5223 63.6744 73.396 64.312 73.1739C64.7701 73.0143 65.2293 72.7534 65.5845 72.4255C66.278 71.7854 66.0435 71.169 65.4109 70.7393C64.6855 70.2467 63.8837 69.875 62.974 69.8106C62.4148 69.771 61.8585 69.6887 61.3023 69.6146C61.2545 69.6082 61.1782 69.5122 61.1851 69.469C61.1953 69.406 61.2724 69.3008 61.3146 69.3038C61.8257 69.3396 62.338 69.3754 62.8452 69.4454C63.2478 69.5009 63.6671 69.5465 64.0378 69.6974C64.7836 70.0012 65.5665 70.2617 66.0712 70.9714C66.5111 71.59 66.3125 72.1069 65.9156 72.5607C65.3364 73.2229 64.5336 73.523 63.7011 73.7029C62.8304 73.891 61.9476 74.0269 61.0663 74.1605C60.5909 74.2326 60.1083 74.2654 59.6276 74.2927C58.6939 74.3456 57.7595 74.3857 56.8251 74.4244C55.6854 74.4716 54.5362 74.6208 53.4083 74.5249C52.2538 74.4268 51.104 74.3807 49.9485 74.3517C49.2169 74.3333 48.485 74.2493 47.7575 74.1601C47.085 74.0777 46.4195 73.9403 45.7485 73.8442C45.3253 73.7836 44.8965 73.7631 44.4722 73.7086C44.0543 73.655 43.6389 73.5812 43.1899 73.5163Z" fill="#00160A"/>
<path d="M60.981 70.6593C60.981 70.8974 60.9815 71.103 60.9809 71.3086C60.98 71.6199 60.7327 71.8363 60.388 71.8281C60.0896 71.821 59.8747 71.6231 59.8802 71.3238C59.8922 70.658 59.9357 69.9926 59.9374 69.3269C59.9388 68.7733 59.8888 68.2197 59.8798 67.6658C59.8689 66.9985 59.8772 66.3309 59.8772 65.6634C59.8772 65.5877 59.8772 65.5119 59.8772 65.4362C59.8772 64.6463 59.8845 63.8563 59.8743 63.0666C59.8687 62.6317 59.8166 62.1972 59.8152 61.7625C59.8086 59.6921 59.8123 57.6217 59.8123 55.5513C59.8123 53.2824 59.8123 51.0135 59.8123 48.7446C59.8123 48.6689 59.7879 48.5803 59.8191 48.521C59.8504 48.4615 59.9372 48.4312 59.9997 48.3881C60.0238 48.4352 60.0686 48.4823 60.0689 48.5296C60.0734 49.2366 60.0639 49.9437 60.0747 50.6506C60.0824 51.1579 60.1268 51.6645 60.1342 52.1718C60.1448 52.9111 60.1428 53.6508 60.1339 54.3902C60.1305 54.6773 60.0793 54.9639 60.0767 55.2509C60.0747 55.469 60.1339 55.6874 60.1341 55.9057C60.138 59.682 60.1369 63.4584 60.1369 67.2347C60.1369 68.5368 60.1366 69.839 60.1374 71.1412C60.1375 71.275 60.099 71.4205 60.3181 71.4435C60.5245 71.4652 60.6043 71.351 60.6528 71.1931C60.6741 71.1239 60.6564 71.0428 60.6564 70.967C60.6564 70.545 60.6541 70.123 60.6567 69.701C60.6777 66.3665 60.7018 63.032 60.7182 59.6974C60.7199 59.3494 60.6587 59.0011 60.661 58.6531C60.6643 58.1642 60.7155 57.6756 60.7166 57.1867C60.7175 56.7521 60.6568 56.3172 60.6605 55.8828C60.6701 54.723 60.696 53.5634 60.723 52.4039C60.7343 51.9182 60.7844 51.4329 60.7816 50.9477C60.7774 50.1992 60.7408 49.4508 60.7234 48.7022C60.7204 48.5753 60.6685 48.379 60.8854 48.397C61.0482 48.4106 61.1678 48.5155 61.0509 48.7212C61.0184 48.7785 61.0486 48.87 61.0455 48.9456C61.0247 49.4561 60.9878 49.9664 60.9857 50.4769C60.984 50.8827 61.038 51.2886 61.0413 51.6947C61.0437 51.9814 60.9904 52.2682 60.9856 52.5554C60.9826 52.73 61.0422 52.9052 61.043 53.0803C61.0486 54.2597 61.0516 55.4392 61.043 56.6185C61.0398 57.0533 60.9858 57.4879 60.9858 57.9226C60.9858 58.3573 61.0453 58.7921 61.0424 59.2266C61.0288 61.2627 60.9964 63.2988 60.9849 65.3349C60.9815 65.9355 61.0449 66.5364 61.0415 67.1369C61.035 68.3003 61.0027 69.4636 60.981 70.6593Z" fill="#00160A"/>
<path d="M34.6191 69.9451C33.7843 69.9668 32.9816 69.9801 32.1796 70.0124C31.3641 70.0452 30.5496 70.1004 29.7343 70.139C28.7356 70.1863 27.7366 70.229 26.7375 70.2689C26.0759 70.2953 25.4118 70.2862 24.7528 70.3409C23.7355 70.4255 22.7217 70.5517 21.7062 70.6583C21.6313 70.6662 21.5549 70.6594 21.4792 70.6594C20.4839 70.6594 19.4881 70.679 18.4937 70.6505C18.0431 70.6377 17.5939 70.5369 17.1475 70.4571C17.0752 70.4441 17.0207 70.332 16.9579 70.2656C17.0324 70.2237 17.1117 70.1394 17.1805 70.1472C17.496 70.1832 17.8084 70.2457 18.1221 70.2972C18.2139 70.3123 18.3065 70.3326 18.3988 70.3331C19.0587 70.3362 19.7201 70.3638 20.3781 70.3283C21.5659 70.2643 22.7515 70.1614 23.9382 70.0755C23.992 70.0716 24.0463 70.0765 24.1004 70.0748C24.7621 70.0535 25.4241 70.0369 26.0856 70.0088C26.9874 69.9706 27.8942 69.971 28.7892 69.8698C30.4262 69.6848 32.0657 69.6899 33.7075 69.6825C35.8405 69.6728 37.9755 69.5805 40.1055 69.6492C41.0266 69.6789 41.9508 69.8178 42.8817 69.8197C43.8896 69.8218 44.8977 69.8817 45.9054 69.8729C46.7099 69.8659 47.5135 69.7845 48.3182 69.7524C49.5981 69.7013 50.8791 69.6763 52.1585 69.6163C53.0846 69.5729 54.0086 69.4868 54.9341 69.4273C55.4113 69.3966 55.89 69.3883 56.3674 69.3595C57.3793 69.2986 58.3912 69.2378 59.402 69.1611C59.6529 69.1421 59.6324 69.2437 59.5486 69.3951C59.5234 69.4405 59.4518 69.4843 59.3995 69.4868C58.8137 69.5145 58.2276 69.5339 57.6416 69.5555C56.4696 69.5988 55.2875 69.564 54.129 69.7123C53.3302 69.8146 52.5402 69.8747 51.7397 69.8832C51.4348 69.8864 51.1305 69.9349 50.8254 69.943C49.8068 69.9702 48.7877 69.9801 47.7693 70.0124C46.7376 70.0451 45.7064 70.0952 44.6751 70.1406C44.2836 70.1579 43.8923 70.2038 43.5012 70.2004C42.742 70.1939 41.9713 70.2383 41.2261 70.1255C39.0382 69.7941 36.8421 70.0178 34.6191 69.9451Z" fill="#00160A"/>
<path d="M36.7334 14.1954L38.9794 14.2678V29.5553H36.9508L36.7334 14.1954Z" fill="white"/>
<path d="M36.7618 27.4155C36.7402 27.2513 36.6999 27.1197 36.6997 26.988C36.6959 24.4673 36.6997 21.9466 36.694 19.4259C36.6931 19.0237 36.6374 18.6217 36.635 18.2195C36.627 16.9068 36.6372 15.594 36.6272 14.2813C36.6253 14.0444 36.6902 13.9622 36.9344 13.9696C37.4857 13.9862 38.038 13.9838 38.5894 13.9713C38.9005 13.9642 39.0859 14.0538 39.0959 14.5069C39.1097 15.1341 39.0993 15.7618 39.0993 16.3892C39.0993 17.1178 39.0993 17.8463 39.0993 18.5749C39.0993 19.1952 39.0993 19.8156 39.0993 20.4359C39.0993 21.2872 39.0993 22.1384 39.0993 22.9897C39.0993 23.7723 39.1068 24.555 39.0977 25.3376C39.082 26.6776 39.0462 28.0174 39.0417 29.3574C39.0406 29.6696 38.8214 29.6633 38.6525 29.6798C38.1878 29.7253 37.7194 29.7404 37.2522 29.7502C36.8483 29.7587 36.717 29.5312 36.7502 29.1245C36.783 28.7225 36.7137 28.3129 36.7046 27.9062C36.7012 27.754 36.7415 27.6007 36.7618 27.4155ZM36.9566 16.7993C36.9566 17.5816 36.9513 18.3639 36.9576 19.1462C36.9765 21.4622 37.0003 23.7782 37.0211 26.0942C37.0243 26.4547 37.0216 26.8153 37.0216 27.1759C37.0216 27.85 37.0295 28.5243 37.017 29.1982C37.0129 29.418 37.0708 29.5179 37.3029 29.4952C37.6068 29.4655 37.9132 29.4606 38.2164 29.426C38.7753 29.3624 38.7747 29.3567 38.7747 28.7883C38.7747 26.0271 38.7747 23.2659 38.7747 20.5046C38.7747 18.7312 38.773 16.9577 38.7775 15.1843C38.7779 15.0201 38.8115 14.855 38.841 14.6923C38.8974 14.3813 38.8369 14.3006 38.5264 14.2997C38.0938 14.2986 37.6612 14.3054 37.2288 14.2972C36.9828 14.2925 36.8826 14.3989 36.8895 14.6415C36.8985 14.9586 36.8834 15.2763 36.8938 15.5933C36.9064 15.9739 36.935 16.354 36.9566 16.7993Z" fill="#00160A"/>
<path d="M31.4444 17.0935H33.2557L33.473 29.5553H31.4444V17.0935Z" fill="white"/>
<path d="M31.4375 16.9616C31.5799 16.9399 31.6891 16.9056 31.8 16.8989C32.245 16.8718 32.6904 16.8529 33.1356 16.8319C33.3438 16.822 33.4469 16.9152 33.452 17.1312C33.4692 17.8577 33.5057 18.5839 33.5107 19.3105C33.5137 19.7484 33.4641 20.1865 33.4544 20.6249C33.4508 20.7884 33.512 20.9529 33.5124 21.117C33.517 22.8149 33.5077 24.5128 33.5181 26.2106C33.5244 27.2399 33.5604 28.269 33.5791 29.2983C33.5848 29.6117 33.4457 29.749 33.1231 29.7518C32.6364 29.7561 32.1494 29.7424 31.6633 29.7576C31.438 29.7647 31.3691 29.6949 31.368 29.4674C31.3531 26.3976 31.3316 23.3279 31.3051 20.2582C31.3011 19.7912 31.2547 19.3246 31.2452 18.8575C31.2343 18.3204 31.2348 17.7827 31.25 17.2458C31.2527 17.1497 31.3509 17.0562 31.4375 16.9616ZM31.5673 20.4354C31.5673 21.467 31.5601 22.4987 31.5689 23.5303C31.585 25.4294 31.6106 27.3285 31.6322 29.2277C31.6327 29.2709 31.6144 29.33 31.6359 29.3543C31.6848 29.4097 31.7539 29.4881 31.8131 29.4867C32.2156 29.4775 32.6175 29.4441 33.02 29.4306C33.2353 29.4234 33.334 29.3227 33.3191 29.1144C33.3035 28.8958 33.2615 28.6781 33.258 28.4595C33.2318 26.7914 33.2036 25.1232 33.1948 23.455C33.1912 22.7679 33.2492 22.0806 33.2508 21.3933C33.2521 20.8143 33.2017 20.2353 33.1932 19.6561C33.1824 18.9097 33.1853 18.1629 33.1942 17.4164C33.1965 17.2229 33.1364 17.1405 32.939 17.1549C32.5696 17.1817 32.1995 17.2162 31.8299 17.2151C31.6051 17.2144 31.5602 17.3062 31.5643 17.5028C31.5738 17.9608 31.5673 18.4191 31.5673 18.8772C31.5673 19.375 31.5673 19.8727 31.5673 20.4354Z" fill="#00160A"/>
<path d="M26.0829 20.7161H27.8942L28.1116 29.5553H26.0829V20.7161Z" fill="white"/>
<path d="M28.126 25.2728C28.1476 26.4094 28.1701 27.5136 28.1902 28.6178C28.1947 28.8591 28.167 29.1036 28.1968 29.3413C28.2361 29.655 27.9957 29.6702 27.8253 29.6788C27.3187 29.7046 26.8097 29.6972 26.3021 29.6832C26.119 29.6782 25.9726 29.6059 25.9787 29.3604C25.9929 28.7914 25.9875 28.2218 25.9825 27.6525C25.9627 25.3991 25.9394 23.1457 25.9189 20.8922C25.9153 20.5046 25.9541 20.4682 26.3347 20.468C26.7886 20.4677 27.2427 20.476 27.6964 20.4647C27.9508 20.4584 28.0621 20.5504 28.0654 20.8143C28.0704 21.2163 28.1197 21.6177 28.123 22.0195C28.1317 23.0931 28.126 24.1667 28.126 25.2728ZM27.8662 23.4872C27.8446 23.15 27.8116 22.813 27.804 22.4755C27.7933 21.9961 27.7993 21.5162 27.8022 21.0366C27.8035 20.8262 27.7078 20.7172 27.496 20.7286C27.1694 20.7464 26.8425 20.7945 26.5171 20.7852C26.2496 20.7775 26.1666 20.8525 26.1721 21.1275C26.2057 22.7987 26.2257 24.4702 26.2413 26.1417C26.2504 27.1189 26.2459 28.0962 26.2403 29.0735C26.2393 29.2528 26.2741 29.42 26.47 29.4213C26.8503 29.4238 27.2312 29.3644 27.6112 29.3706C27.8684 29.3749 27.9458 29.298 27.9361 29.0419C27.9018 28.1427 27.8792 27.2428 27.8687 26.343C27.8578 25.4128 27.8662 24.4824 27.8662 23.4872Z" fill="#00160A"/>
<path d="M16.3735 28.0648C16.9181 28.2595 17.4499 28.4258 17.8335 28.8467C18.4138 29.4834 18.5369 30.2351 18.4075 31.0694C18.2136 32.3199 17.6031 33.3979 17.0442 34.498C16.8707 34.8396 16.6516 35.1582 16.4512 35.486C16.2001 35.8968 15.9614 36.2891 15.9675 36.8182C15.9743 37.4071 15.8368 37.9963 15.7938 38.5877C15.749 39.2047 15.8884 39.7912 16.1752 40.3427C16.2122 40.4138 16.2021 40.5095 16.2138 40.5938C16.1372 40.5445 16.0415 40.5106 15.987 40.4434C15.6098 39.9782 15.5152 39.4055 15.4753 38.8427C15.4143 37.9835 15.5109 37.1249 15.7337 36.2922C15.8176 35.9785 15.977 35.6721 16.1579 35.3996C16.9983 34.1334 17.7154 32.8078 18.0485 31.3154C18.1557 30.8352 18.2493 30.3284 18.1004 29.8199C17.8736 29.0452 17.3029 28.6486 16.5788 28.4642C16.0432 28.3278 15.4872 28.2366 14.9357 28.2045C13.9622 28.1477 12.9821 28.1913 12.0105 28.1179C11.1332 28.0516 10.237 28.1048 9.38491 27.806C8.82651 27.6103 8.5049 27.2114 8.39734 26.6438C8.38304 26.5683 8.50898 26.4663 8.56997 26.3766C8.63884 26.4692 8.75643 26.5562 8.76809 26.6555C8.81676 27.0703 9.07021 27.3213 9.42714 27.437C9.84991 27.5741 10.2922 27.7085 10.731 27.7276C12.0296 27.7842 13.3317 27.7606 14.6304 27.8156C15.2031 27.8398 15.771 27.9782 16.3735 28.0648Z" fill="white"/>
<path d="M7.13709 30.6133C6.78999 30.4721 6.55916 30.2535 6.48991 29.8967C6.4778 29.8343 6.5152 29.7623 6.52973 29.6948C6.60361 29.7209 6.70019 29.7265 6.74633 29.7776C6.82575 29.8657 6.86223 29.9912 6.93689 30.085C7.32751 30.5756 7.88679 30.489 8.39939 30.4557C8.94029 30.4205 9.47542 30.2951 10.0128 30.2073C10.9347 30.0566 11.8563 29.9038 12.7782 29.7532C13.587 29.621 14.35 29.7321 15.0366 30.2037C15.5846 30.5801 15.8053 31.1428 15.85 31.7739C15.9513 33.2037 15.5432 34.5413 15.0393 35.8506C14.7855 36.51 14.6851 37.1847 14.7587 37.8719C14.8671 38.8827 15.0255 39.8895 15.6463 40.7478C15.6809 40.7956 15.7197 40.8558 15.7192 40.9098C15.7184 40.9882 15.6836 41.0662 15.6633 41.1443C15.6021 41.1074 15.5202 41.085 15.4828 41.0315C14.9886 40.3251 14.7014 39.5343 14.5574 38.6897C14.5019 38.3636 14.4608 38.0343 14.4271 37.7051C14.3326 36.781 14.6569 35.9517 14.9918 35.1161C15.1928 34.6145 15.3512 34.0871 15.4526 33.5568C15.5506 33.0442 15.5925 32.5122 15.5829 31.9902C15.5729 31.4445 15.4942 30.8742 15.0113 30.518C14.743 30.3201 14.415 30.1622 14.0907 30.0893C13.2913 29.9097 12.4949 30.0611 11.7011 30.2042C10.7819 30.3699 9.86219 30.5485 8.93484 30.6482C8.34845 30.7113 7.74765 30.6404 7.13709 30.6133Z" fill="white"/>
<rect x="20.5765" y="23.1795" width="2.02867" height="6.37582" fill="white"/>
<path d="M20.3992 25.9869C20.3992 25.1864 20.3985 24.4184 20.3995 23.6504C20.4002 23.1622 20.5651 23.0001 21.0559 23.0001C21.5211 23.0001 21.9864 23.0076 22.4513 22.9972C22.7154 22.9912 22.8057 23.1041 22.8049 23.3614C22.799 25.3301 22.8024 27.2989 22.801 29.2676C22.8008 29.6189 22.7281 29.6878 22.3806 29.6879C21.8505 29.6881 21.3204 29.6839 20.7904 29.6899C20.5629 29.6924 20.4653 29.5973 20.4619 29.3675C20.4453 28.2514 20.4209 27.1354 20.3992 25.9869ZM22.3796 29.3633C22.4337 29.2902 22.5315 29.2181 22.5333 29.1437C22.5379 28.9585 22.4777 28.7719 22.4813 28.5866C22.4893 28.1732 22.5363 27.7604 22.539 27.3472C22.5472 26.092 22.5401 24.8367 22.5436 23.5814C22.5443 23.3518 22.4447 23.2475 22.2166 23.2595C21.7819 23.2822 21.3465 23.2952 20.9132 23.3329C20.8452 23.3388 20.7374 23.4495 20.7319 23.5185C20.6948 23.9774 20.6628 24.4381 20.6637 24.8981C20.6648 25.416 20.7145 25.9337 20.7211 26.4518C20.7316 27.2741 20.7239 28.0966 20.7239 28.919C20.7239 29.4182 20.7238 29.4176 21.2189 29.3641C21.2724 29.3583 21.3271 29.3618 21.3811 29.3635C21.7031 29.3739 22.0252 29.3849 22.3796 29.3633Z" fill="#00160A"/>
<path d="M26.5027 40.6613C26.2319 40.6312 26.1563 40.4493 26.2688 40.2936C26.6034 39.83 26.9747 39.3925 27.342 38.9535C27.3917 38.8941 27.5005 38.8841 27.582 38.8512C27.5755 38.939 27.591 39.0361 27.5586 39.113C27.4226 39.4351 27.2742 39.7521 27.1262 40.069C27.05 40.2323 27.1149 40.2432 27.2558 40.2098C27.3275 40.1928 27.4092 40.1944 27.4813 40.2104C27.5476 40.2252 27.6071 40.2705 27.6696 40.3023C27.6403 40.3545 27.6164 40.4108 27.5808 40.4583C27.1848 40.9866 26.7878 41.5141 26.3879 42.0395C26.3523 42.0864 26.295 42.1167 26.2477 42.1547C26.2245 42.0959 26.1698 42.0285 26.1832 41.9797C26.268 41.6703 26.3722 41.3663 26.4606 41.0578C26.4975 40.9291 26.511 40.7937 26.5027 40.6613Z" fill="#FFB61D"/>
<path d="M27.8176 36.9765C27.9096 36.9769 27.9853 36.9935 28.0611 37.0101C28.0419 37.0668 28.0375 37.1359 28.0015 37.1781C27.5794 37.6716 27.1543 38.1626 26.7244 38.6494C26.6756 38.7046 26.5926 38.7295 26.5254 38.7685C26.5328 38.6811 26.5113 38.5751 26.5531 38.5096C26.6744 38.3198 26.8141 38.1403 26.9593 37.9674C27.2353 37.6386 27.5202 37.3172 27.8176 36.9765Z" fill="#00160A"/>
<path d="M24.8308 42.5605C24.6428 42.6115 24.5562 42.5715 24.6749 42.3942C24.8683 42.1052 25.0631 41.8162 25.2766 41.5423C25.3193 41.4875 25.4483 41.5001 25.5374 41.4816C25.5138 41.5644 25.5102 41.6615 25.463 41.7275C25.2648 42.0049 25.0535 42.2729 24.8308 42.5605Z" fill="#00160A"/>
<path d="M42.1673 53.3921L43.399 56.6525L45.2827 55.4208L44.7031 53.0299L46.5144 51.7982L47.1665 48.248H52.6004L51.2963 56.1453L50.7891 60.2026L50.5717 64.0426L51.3687 64.9121L52.3831 65.4192H53.7597L54.7015 65.2019L56.4404 61.5068L57.8894 57.6668L59.8457 50.2767L60.9324 49.6246C60.9324 49.6246 61.9468 46.5091 61.9468 44.9152C61.9468 43.3212 62.6024 38.5872 61.657 35.2065C60.8697 32.3914 58.2517 28.5409 58.2517 28.5409L56.4404 26.6572L56.7302 20.4262L51.0065 19.7017L50.0646 22.31C50.0646 22.31 50.5717 24.556 51.3687 25.4255C51.8735 25.9761 52.9627 25.8602 52.9627 25.8602L53.6148 29.0481L52.9627 30.3522L51.2963 34.6994L51.0065 38.3945L45.9349 39.7711L48.036 41.0027L40.1386 42.162C40.1386 42.162 38.3998 43.0314 38.9794 46.4367C39.559 49.8419 40.9356 53.0299 40.9356 53.0299L42.1673 53.3921Z" fill="white"/>
<path d="M59.1937 50.4941C59.8718 50.111 60.4832 49.9685 60.9279 49.4338C62.1635 47.8749 62.1198 35.285 61.5846 35.5689C61.0445 35.8553 61.1219 38.2544 61.2223 38.7568C61.7295 41.2926 60.3629 47.2716 60.2442 47.5236C60.1355 48.8277 58.4101 49.3352 57.2374 49.842C56.6286 50.1052 55.8001 50.1813 55.7884 50.4941C55.7782 50.7665 56.2771 51.0337 56.6286 50.994C57.4645 50.8996 58.5146 50.8777 59.1937 50.4941Z" fill="#E7EAEE"/>
<path d="M53.418 63.8187C53.2456 64.265 53.2247 64.7046 53.205 65.1824C53.4699 65.3207 53.7949 65.4026 54.0874 65.3207C54.1654 65.2988 54.2463 65.2874 54.3253 65.2695C54.4232 65.2472 54.4504 65.2024 54.5244 65.1381C54.6708 65.0111 54.8138 64.8698 54.9227 64.7094C55.3346 64.103 55.7184 63.4444 55.9794 62.7565C56.0882 62.4697 56.2487 62.1872 56.4013 61.9186L56.4109 61.9018C56.4847 61.7719 56.5187 61.6097 56.5907 61.4731C56.6655 61.3309 56.7038 61.1797 56.7456 61.025C56.8301 60.7121 56.9926 60.4237 57.0637 60.1039C57.1272 59.8179 57.2726 59.5499 57.3513 59.2685C57.4341 58.9728 57.5316 58.6826 57.592 58.3806C57.622 58.2305 57.6932 58.0264 57.6473 57.8758C57.6013 57.7246 57.3954 57.8811 57.314 57.938C56.9764 58.1743 56.7634 58.4067 56.61 58.7955C56.4087 59.3059 56.0799 59.7793 55.6945 60.1647C55.3044 60.5548 54.9739 61.0049 54.6489 61.4482C54.3235 61.8919 53.9946 62.3487 53.7665 62.8506C53.6922 63.0142 53.6203 63.1788 53.5535 63.3457C53.4922 63.4989 53.477 63.666 53.418 63.8187Z" fill="#E7EAEE"/>
<path d="M42.747 58.1017C41.4576 59.3194 39.3242 61.1304 40.2111 62.6662C40.9643 63.9703 43.3918 61.6779 44.8481 60.4202C46.2176 59.2374 47.716 57.2267 47.0941 56.4353C46.2971 55.4209 44.0511 56.87 42.747 58.1017Z" fill="white"/>
<path fill-rule="evenodd" clip-rule="evenodd" d="M50.3017 19.1602C50.5518 19.0049 50.7961 18.8398 51.0586 18.6618C51.2291 18.6804 51.2984 18.7279 51.1169 18.8425C50.646 19.14 50.1751 19.4432 49.91 19.962C49.876 20.0284 49.8792 20.1141 49.8824 20.1998C49.8838 20.2393 49.8853 20.2789 49.8831 20.3165C49.9197 20.3055 49.9573 20.2962 49.9949 20.287C50.0784 20.2664 50.1618 20.2459 50.2351 20.2061C50.3395 20.1495 50.4391 20.0839 50.5387 20.0181C50.6171 19.9664 50.6955 19.9146 50.7764 19.8673C50.808 19.8487 50.8587 19.8601 50.904 19.8702C50.9128 19.8722 50.9214 19.8741 50.9297 19.8758C50.9365 19.8771 50.9451 19.9412 50.9318 19.963C50.7929 20.1898 50.702 20.442 50.611 20.6945C50.4565 21.1233 50.3017 21.553 49.9107 21.8609C49.6493 22.0668 49.6955 22.4962 49.936 22.6567C50.0804 22.7531 50.6689 22.6986 50.8069 22.5733C50.8321 22.5504 50.8533 22.5231 50.8746 22.4958L50.8747 22.4957C50.8844 22.4832 50.8941 22.4707 50.9042 22.4586C50.8878 22.4493 50.8713 22.4375 50.8547 22.4256C50.8184 22.3995 50.782 22.3734 50.7469 22.3749C50.6918 22.3773 50.6368 22.3896 50.582 22.4019C50.5162 22.4167 50.4507 22.4314 50.3856 22.4288C50.3124 22.4258 50.2401 22.3977 50.1679 22.3696C50.136 22.3572 50.1041 22.3447 50.0722 22.3345C50.0841 22.3024 50.0943 22.2692 50.1046 22.2359L50.1046 22.2357C50.1274 22.1615 50.1502 22.0872 50.1924 22.0267C50.233 21.9684 50.2851 21.9167 50.3369 21.8654C50.4082 21.7946 50.479 21.7245 50.5181 21.6387C50.7515 21.1274 50.969 20.6076 51.1657 20.0809C51.2482 19.86 51.3581 19.7309 51.595 19.7578C51.6829 19.7677 51.7718 19.7752 51.8607 19.7827C52.1034 19.803 52.3469 19.8234 52.5739 19.8951C53.7104 20.2536 54.4701 20.9103 54.5311 22.3572C54.5365 22.4842 54.5199 22.6119 54.5033 22.7398C54.4914 22.8319 54.4794 22.9241 54.4756 23.0162C54.4738 23.0593 54.4993 23.1035 54.5249 23.1477L54.5249 23.1478C54.5366 23.168 54.5483 23.1883 54.5574 23.2084C54.5758 23.1987 54.5953 23.1901 54.6148 23.1815C54.6585 23.1622 54.7022 23.1429 54.7337 23.1112C54.7744 23.0701 54.8067 23.0208 54.8391 22.9714L54.8392 22.9712C54.8578 22.9428 54.8765 22.9142 54.8969 22.8872C54.9387 22.8317 54.9782 22.7732 55.0178 22.7147C55.1144 22.572 55.211 22.4291 55.3403 22.3297C55.4759 22.2253 55.7123 22.169 55.8747 22.2096C56.0362 22.2501 56.1005 22.4458 56.0977 22.6596C56.093 23.0071 55.957 23.2662 55.7575 23.5372L55.7408 23.5598C55.5577 23.8082 55.3087 24.1461 55.3635 24.3764C55.4783 24.8589 55.6542 25.3262 55.8303 25.794L55.8304 25.7941C55.9241 26.0431 56.018 26.2923 56.1026 26.5439C56.141 26.658 56.1239 26.8538 56.0498 26.9339C55.5171 27.5104 54.9723 28.0755 54.4275 28.6406L54.4258 28.6425C54.2985 28.7745 54.1713 28.9064 54.0443 29.0385C54.0165 29.0674 53.9844 29.0919 53.9522 29.1164C53.9372 29.1278 53.9223 29.1393 53.9077 29.1511C53.8989 29.1341 53.8883 29.1173 53.8776 29.1005C53.8548 29.0645 53.832 29.0284 53.8265 28.9898C53.6819 27.9881 53.4435 27.0156 52.9893 26.1048C52.9669 26.0597 53.0251 25.9146 53.0653 25.9057C53.6123 25.7845 54.1159 25.5672 54.5725 25.2416C54.6124 25.2131 54.6401 25.167 54.6678 25.121C54.6806 25.0997 54.6934 25.0783 54.7075 25.0588C54.6818 25.055 54.6549 25.0479 54.6279 25.0408C54.5695 25.0254 54.511 25.01 54.466 25.0282C54.3224 25.0864 54.1815 25.1521 54.0407 25.2178C53.8372 25.3128 53.6338 25.4077 53.4225 25.4795C52.3638 25.8396 51.5179 25.6078 50.9914 24.6722C50.8184 24.3648 50.7369 24.0053 50.6554 23.645C50.6144 23.4639 50.5733 23.2826 50.5205 23.1077C50.5038 23.0522 50.4596 23.0052 50.4153 22.9583C50.3949 22.9365 50.3744 22.9148 50.3566 22.8922C50.3403 22.9196 50.3183 22.9482 50.2962 22.9768C50.2485 23.0387 50.2008 23.1006 50.2109 23.1504C50.2982 23.5781 50.4022 24.0033 50.5236 24.4226C50.725 25.1182 51.1823 25.577 51.8486 25.8365C51.9359 25.8705 52.0587 25.9545 52.0666 26.0264C52.0899 26.2379 52.0968 26.4626 52.0509 26.6686C51.8668 27.4944 51.348 28.1249 50.8297 28.7546L50.7069 28.9038L50.706 28.905L50.705 28.9061C50.3647 29.3194 50.024 29.7331 49.7074 30.1644C49.5517 30.3766 49.4387 30.6345 49.576 30.9174C49.7967 31.3721 50.2746 31.3825 50.782 31.2841C51.4946 31.146 52.0576 30.7222 52.5892 30.2505C52.6148 30.2278 52.6476 30.2135 52.6804 30.1991C52.6956 30.1925 52.7109 30.1858 52.7254 30.1783C52.7315 30.1992 52.74 30.2205 52.7484 30.2418C52.7668 30.2881 52.7852 30.3344 52.7798 30.3777C52.7482 30.6338 52.7123 30.8906 52.6554 31.1419C52.6202 31.2972 52.5611 31.4528 52.483 31.5911C52.4276 31.689 52.3615 31.7824 52.2956 31.8755C52.1885 32.0268 52.0819 32.1774 52.0226 32.3458C51.7484 33.1257 51.4948 33.9151 51.2809 34.7138C50.9832 35.8253 50.7016 36.9448 50.8453 38.1173C50.8535 38.184 50.8344 38.3056 50.7989 38.3183C50.7161 38.3478 50.6324 38.3828 50.5483 38.418L50.5471 38.4185C50.3089 38.518 50.0679 38.6188 49.8363 38.6022C49.4319 38.5733 49.0769 38.5997 48.7045 38.76C48.4566 38.8667 48.1883 38.9274 47.9217 38.9878C47.8635 39.001 47.8053 39.0141 47.7475 39.0277C47.5998 39.0625 47.4506 39.0916 47.3014 39.1206C47.0817 39.1634 46.862 39.2062 46.6474 39.2672C46.5228 39.3026 46.3263 39.4687 46.3407 39.5368C46.375 39.6994 46.3173 39.6936 46.2176 39.6835L46.2104 39.6828C46.0397 39.6658 45.8689 39.6492 45.698 39.6327C45.2269 39.587 44.7557 39.5414 44.2859 39.4848C43.9628 39.4459 43.6407 39.3992 43.3185 39.3525C43.0192 39.3091 42.7198 39.2657 42.4196 39.2286C42.1599 39.1964 41.8991 39.1733 41.6383 39.1502L41.6365 39.15L41.6357 39.1499C41.4405 39.1326 41.2453 39.1153 41.0506 39.0942C40.8674 39.0743 40.6845 39.0512 40.5015 39.028C40.1294 38.9808 39.7572 38.9337 39.3837 38.9145C39.2427 38.9072 39.0118 39.0556 38.9642 39.1856C38.881 39.4124 39.1136 39.5201 39.292 39.5457C39.8771 39.6297 40.4657 39.6906 41.0543 39.747C41.8138 39.8197 42.5738 39.8896 43.3348 39.9423C43.9031 39.9817 44.4718 40.015 45.0405 40.0483H45.041C45.5558 40.0785 46.0708 40.1087 46.5853 40.1433C46.8189 40.159 47.0517 40.1856 47.2845 40.2122L47.2859 40.2123C47.4657 40.2328 47.6456 40.2534 47.8258 40.2689C48.0007 40.284 48.1807 40.2897 48.3529 40.2632C48.4065 40.2549 48.4538 40.2045 48.501 40.1541C48.5225 40.1312 48.5439 40.1084 48.566 40.0894C48.5381 40.0742 48.5106 40.0556 48.4831 40.0369C48.4236 39.9967 48.3641 39.9564 48.3013 39.9503C47.9363 39.9149 47.5705 39.8869 47.2047 39.859L47.2028 39.8588C47.0049 39.8437 46.8069 39.8286 46.6092 39.8123C46.5722 39.8092 46.5361 39.7943 46.5001 39.7793C46.4834 39.7724 46.4666 39.7655 46.4498 39.7597C46.4654 39.7463 46.4804 39.7304 46.4954 39.7146C46.528 39.6802 46.5605 39.6458 46.5993 39.6354L46.6753 39.6151L46.6754 39.615C46.9427 39.5432 47.2111 39.4711 47.4833 39.4257C47.5855 39.4087 47.6883 39.3942 47.7911 39.3798C48.2203 39.3197 48.6485 39.2596 49.0275 39.0088C49.0601 38.9872 49.1013 38.9669 49.1386 38.9666C49.2207 38.966 49.3029 38.9652 49.385 38.9644H49.3867C49.7174 38.961 50.0483 38.9577 50.3785 38.9697C50.5403 38.9756 50.8052 39.3533 50.7816 39.5172C50.7465 39.7616 50.7078 40.0066 50.6487 40.2459C50.6283 40.3283 50.5533 40.4443 50.4847 40.4595C50.3675 40.4854 50.2503 40.5127 50.133 40.5401L50.1305 40.5406L50.129 40.541L50.1286 40.541C49.6909 40.6429 49.2518 40.7451 48.8082 40.7798C48.4537 40.8076 48.0957 40.7856 47.7372 40.7636C47.532 40.751 47.3267 40.7384 47.1219 40.7351C47.0576 40.7341 46.9927 40.772 46.9278 40.8099C46.8978 40.8274 46.8679 40.8449 46.8379 40.8586C46.8681 40.8793 46.8978 40.9044 46.9275 40.9295C46.9921 40.9843 47.0568 41.0391 47.1268 41.0473C47.318 41.0696 47.5107 41.0789 47.7034 41.0882C47.8795 41.0967 48.0557 41.1052 48.2307 41.1236C48.6462 41.1673 49.0556 41.1066 49.4651 41.0459C49.921 40.9783 50.3769 40.9107 50.841 40.9871C51.0011 41.0135 51.1636 41.0276 51.3259 41.0416C51.5468 41.0607 51.7673 41.0798 51.9811 41.1298L52.0748 41.1517C53.1466 41.4027 54.2159 41.653 55.3269 41.6461C55.6798 41.6439 55.8253 41.7948 55.8272 42.1521C55.8284 42.3834 55.8305 42.6147 55.8325 42.846V42.8475C55.8395 43.6432 55.8465 44.4391 55.8213 45.2337C55.8061 45.7152 55.763 46.1956 55.72 46.6761C55.6894 47.0176 55.6588 47.3591 55.6382 47.701C55.5815 48.6404 55.5435 49.581 55.5123 50.5216C55.5082 50.6431 55.5595 50.8038 55.6434 50.8847C56.0256 51.2534 56.5104 51.4203 57.014 51.3013L57.1444 51.2706C57.9376 51.0841 58.7361 50.8963 59.4618 50.4918C59.5218 50.4584 59.5948 50.449 59.6679 50.4397C59.7017 50.4354 59.7356 50.431 59.7682 50.4243C59.756 50.4478 59.7438 50.4713 59.7316 50.4948L59.7314 50.4953C59.7026 50.5506 59.6739 50.6059 59.6457 50.6615C59.6396 50.6736 59.6329 50.6856 59.6262 50.6977C59.6082 50.7303 59.59 50.763 59.5822 50.7979C59.5124 51.1114 59.4464 51.4258 59.3803 51.7403C59.2406 52.4054 59.1008 53.0706 58.9256 53.7261C58.5787 55.0242 58.1885 56.3114 57.7856 57.5932C57.6876 57.9053 57.5651 58.2097 57.4426 58.5141C57.3057 58.8542 57.1689 59.1943 57.0663 59.5447C56.5547 61.2917 55.7174 62.8836 54.862 64.4712C54.5406 65.0678 54.0169 65.2381 53.4081 65.2232C53.1066 65.2158 52.8054 65.1716 52.5051 65.1275C52.4359 65.1173 52.3666 65.1071 52.2974 65.0974C51.5476 64.9922 50.7553 64.4568 50.7826 63.5246C50.7975 63.0152 50.8092 62.5058 50.8208 61.9964L50.8209 61.9949C50.8302 61.5883 50.8395 61.1817 50.8505 60.7751C50.8515 60.7369 50.864 60.6993 50.8766 60.6616C50.8868 60.6309 50.897 60.6001 50.9012 60.5687C50.9239 60.3975 50.9471 60.2264 50.9703 60.0552L50.9704 60.055C51.0409 59.5348 51.1116 59.0144 51.1676 58.4925C51.1868 58.3146 51.1904 58.1344 51.1941 57.9544C51.199 57.7165 51.2038 57.479 51.2443 57.2474C51.3941 56.3904 51.5615 55.5365 51.7289 54.6826L51.7293 54.6806C51.8026 54.3066 51.8759 53.9326 51.9478 53.5583C51.9988 53.2922 52.0506 53.0262 52.1024 52.7601C52.2488 52.0083 52.3952 51.2564 52.5255 50.5018C52.6048 50.0427 52.6614 49.5796 52.718 49.1166C52.741 48.9285 52.7639 48.7405 52.7884 48.5528C52.799 48.4722 52.8063 48.3909 52.8136 48.3097L52.8138 48.3086C52.8272 48.1604 52.8406 48.0124 52.873 47.8686C52.9337 47.5996 53.0037 47.3327 53.0738 47.0659C53.1197 46.8909 53.1656 46.716 53.2089 46.5404C53.2168 46.5083 53.2054 46.4713 53.194 46.4343C53.1888 46.4172 53.1835 46.4 53.1801 46.3834C53.1659 46.3903 53.1506 46.3963 53.1352 46.4022C53.1013 46.4153 53.0673 46.4285 53.0453 46.4527L53.0416 46.4568C52.9809 46.5236 52.915 46.5963 52.8865 46.6788C52.7812 46.9838 52.6767 47.2905 52.5998 47.6036C52.5465 47.8199 52.4475 47.9527 52.2227 47.9817C52.126 47.9942 52.0295 48.0075 51.9332 48.0207L51.9327 48.0208L51.9322 48.0208C51.4436 48.0879 50.9572 48.1546 50.4532 48.1256C49.959 48.0972 49.4615 48.1245 48.9642 48.1519C48.7797 48.162 48.5953 48.1721 48.411 48.1794C48.348 48.1819 48.2852 48.1954 48.2225 48.2089C48.1541 48.2236 48.0858 48.2382 48.0173 48.2386C47.9727 48.2388 47.9275 48.2399 47.8821 48.2409C47.6802 48.2456 47.4742 48.2504 47.296 48.1846C47.2343 48.1619 47.2141 48.0253 47.1937 47.8876C47.1841 47.823 47.1745 47.7581 47.1605 47.7048C47.1571 47.6917 47.1481 47.6801 47.1392 47.6686C47.1353 47.6635 47.1313 47.6584 47.1279 47.6532C47.0868 47.5914 47.0457 47.5297 47.0045 47.4679L46.9546 47.393C46.9424 47.4242 46.9274 47.4553 46.9125 47.4864C46.8796 47.5545 46.8468 47.6226 46.8433 47.6921C46.8282 47.9891 46.8195 48.2887 46.8416 48.5848C46.8817 49.1227 46.7546 49.6304 46.6274 50.1384C46.586 50.3037 46.5446 50.4691 46.509 50.6356C46.4516 50.9036 46.2863 50.9607 46.0528 50.9208C45.4571 50.8189 44.8637 50.7253 44.2567 50.8526C44.0727 50.8912 43.8853 50.918 43.6981 50.9447C43.3875 50.989 43.0774 51.0333 42.7845 51.1315C42.2202 51.3207 41.6657 51.5747 41.1576 51.8851C40.9034 52.0405 40.8334 52.0275 40.739 51.7847C40.6439 51.54 40.5463 51.2961 40.4487 51.0523C40.2213 50.4842 39.994 49.9161 39.7978 49.3372C39.6999 49.0484 39.649 48.7439 39.5979 48.4389C39.5691 48.2665 39.5402 48.094 39.5028 47.9242C39.4782 47.8121 39.4531 47.7001 39.4281 47.5882L39.4281 47.5879C39.1677 46.4226 38.9085 45.2623 39.0639 44.0397C39.168 43.2213 39.6281 42.6231 40.3612 42.3611C41.4509 41.9718 42.5858 41.7971 43.72 41.6226L43.7237 41.622C43.8113 41.6085 43.8988 41.595 43.9863 41.5815C44.4865 41.5039 44.9887 41.4388 45.4909 41.3737L45.4927 41.3735L45.493 41.3735C45.8083 41.3326 46.1237 41.2918 46.4386 41.2478C46.4731 41.243 46.5043 41.2134 46.5354 41.1839C46.5499 41.1701 46.5644 41.1564 46.5792 41.1451C46.5655 41.1288 46.552 41.1082 46.5385 41.0876C46.5094 41.0431 46.4802 40.9985 46.4491 40.9971C46.4146 40.9955 46.3801 40.9937 46.3455 40.992C46.0889 40.9793 45.83 40.9665 45.577 40.9963C45.1118 41.051 44.6489 41.1263 44.1862 41.2015C44.0816 41.2186 43.977 41.2356 43.8724 41.2523C43.755 41.2711 43.6376 41.2897 43.5202 41.3082C43.0515 41.3821 42.5826 41.456 42.1175 41.5491C41.8244 41.6078 41.5343 41.6819 41.2442 41.7561L41.2439 41.7561C41.0453 41.8069 40.8467 41.8576 40.647 41.9035C39.8716 42.0814 39.2869 42.5062 38.9043 43.2177C38.7065 43.5855 38.6835 43.9806 38.6907 44.3799C38.699 44.8393 38.7172 45.2995 38.7566 45.7572C38.7885 46.1289 38.8473 46.4993 38.9136 46.8667C38.9691 47.1743 39.0329 47.4803 39.0967 47.7864C39.1332 47.9616 39.1697 48.1368 39.2046 48.3122C39.2284 48.4314 39.247 48.5523 39.2657 48.6732C39.3038 48.9198 39.3418 49.1663 39.4229 49.3976C39.5789 49.8428 39.7571 50.28 39.9353 50.7174C40.0377 50.9687 40.1402 51.2202 40.2384 51.4731C40.2812 51.5832 40.3312 51.6911 40.3812 51.7991C40.5331 52.1268 40.6852 52.4551 40.636 52.8464C40.6278 52.9116 40.6792 52.9876 40.7272 53.0585C40.7403 53.0777 40.7531 53.0967 40.7644 53.1149C40.9886 53.4768 41.3554 53.4971 41.7066 53.5166C41.745 53.5187 41.7833 53.5209 41.8212 53.5234C42.0408 53.5383 42.1533 53.6289 42.2193 53.8054C42.3168 54.0659 42.4103 54.3278 42.5038 54.5898C42.5895 54.8299 42.6752 55.0701 42.764 55.3091C42.8407 55.5155 42.9209 55.7206 43.0011 55.9258C43.0929 56.1605 43.1847 56.3953 43.2712 56.632C43.3573 56.8677 43.471 56.8969 43.6794 56.7628C43.9317 56.6003 44.187 56.4423 44.4422 56.2844L44.4428 56.284C44.7464 56.0962 45.0499 55.9084 45.3486 55.7129C45.4244 55.6633 45.4917 55.5022 45.4706 55.4158C45.3833 55.0588 45.2814 54.7055 45.1796 54.3521L45.1795 54.3516L45.1794 54.3514C45.1384 54.2091 45.0974 54.0668 45.0573 53.9243C45.0346 53.8432 45.0068 53.7621 44.979 53.6809C44.9132 53.4885 44.8473 53.2959 44.8473 53.1036C44.8474 52.8783 45.0139 52.8201 45.1856 52.7602C45.3009 52.7199 45.4184 52.6788 45.4895 52.5859C45.5211 52.5446 45.5784 52.5242 45.6364 52.5036C45.6681 52.4923 45.7 52.4809 45.728 52.4661C46.242 52.1934 46.6901 51.8729 46.7716 51.2203C46.8137 50.8839 46.902 50.556 46.9904 50.2279C47.1248 49.729 47.2593 49.2296 47.2313 48.6997C47.2291 48.6582 47.3003 48.578 47.3422 48.5745C47.7098 48.5433 48.0783 48.5126 48.4469 48.5066C48.7162 48.5022 48.9856 48.5042 49.255 48.5063H49.2555C49.6221 48.5091 49.9888 48.512 50.3549 48.4985C50.5382 48.4917 50.7225 48.4993 50.9069 48.5069C51.334 48.5244 51.7618 48.542 52.1805 48.3817C52.2763 48.3451 52.5072 48.2744 52.4659 48.5584C52.4301 48.8046 52.396 49.051 52.3619 49.2975L52.3618 49.2978C52.2921 49.8017 52.2223 50.3056 52.1383 50.8071C52.0506 51.3304 51.9475 51.8511 51.8444 52.3718L51.8444 52.3721L51.8436 52.3759C51.8015 52.5889 51.7593 52.8019 51.7182 53.0151C51.6841 53.192 51.6493 53.3687 51.6146 53.5454C51.5523 53.8619 51.49 54.1784 51.4317 54.4956L51.414 54.5915C51.3285 55.0561 51.243 55.5209 51.1742 55.9882C51.0575 56.7802 50.9519 57.5739 50.8507 58.3681C50.8362 58.4822 50.8322 58.5983 50.8283 58.7143C50.8225 58.8862 50.8166 59.0576 50.7764 59.2209C50.5835 60.0035 50.503 60.7928 50.5226 61.5973C50.5302 61.9086 50.5284 62.2201 50.5267 62.5317C50.5255 62.7429 50.5244 62.9541 50.5261 63.1652C50.5269 63.2616 50.5224 63.36 50.5179 63.4586C50.5067 63.7054 50.4955 63.9532 50.5665 64.1731C50.7958 64.8835 51.3827 65.249 52.063 65.4153C52.6373 65.5557 53.2261 65.6308 53.8302 65.5651C54.3069 65.5133 54.7147 65.331 54.9611 64.9447C55.3455 64.342 55.6979 63.711 55.9921 63.0589C56.4752 61.9884 56.9198 60.8989 57.3437 59.8029C57.5291 59.3235 57.6857 58.8328 57.8423 58.3421L57.8435 58.3385C57.9256 58.0813 58.0077 57.8241 58.094 57.5685C58.1799 57.314 58.2687 57.0605 58.3576 56.807L58.3577 56.8067C58.5053 56.3857 58.6528 55.9648 58.7868 55.5396C58.9632 54.9798 59.1134 54.4108 59.2547 53.8407C59.4531 53.0399 59.6373 52.2354 59.8176 51.4302C59.8316 51.3676 59.8478 51.3041 59.8641 51.2402C59.9237 51.0064 59.9847 50.7672 59.9454 50.55C59.9039 50.3208 59.9883 50.2734 60.1225 50.2145C60.1692 50.1939 60.2162 50.1739 60.2632 50.1539C60.6557 49.987 61.0467 49.8207 61.2178 49.3649C61.2396 49.3068 61.2618 49.2487 61.284 49.1907L61.2842 49.19C61.3661 48.9756 61.4481 48.761 61.5125 48.5412C61.5425 48.4391 61.5735 48.3371 61.6045 48.235C61.7213 47.8508 61.8384 47.4654 61.8989 47.0719C62.0058 46.376 62.063 45.6698 62.0976 44.9658C62.1434 44.0359 62.1558 43.1039 62.164 42.1726C62.1662 41.9175 62.1489 41.6624 62.1315 41.4072C62.121 41.2538 62.1106 41.1005 62.1044 40.9471C62.0894 40.5779 62.0772 40.2086 62.0649 39.8392V39.8381C62.0399 39.0822 62.0148 38.3262 61.9669 37.5717C61.9192 36.8213 61.8367 36.0691 61.7071 35.329C61.5217 34.2701 61.2488 33.2283 60.7433 32.272C60.698 32.1863 60.6527 32.1005 60.6075 32.0147C60.1526 31.1527 59.6968 30.2889 59.1778 29.4671C58.838 28.9292 58.4005 28.4318 57.9251 28.0104C57.7808 27.8825 57.6285 27.7635 57.4761 27.6444C57.174 27.4084 56.8716 27.1721 56.6302 26.8654C56.5837 26.8063 56.5549 26.719 56.5539 26.6443C56.5535 26.6139 56.6476 26.5581 56.7012 26.5547C57.315 26.5155 57.7867 26.1773 58.1836 25.7599C58.8904 25.0167 59.3593 24.1383 59.5929 23.1172C59.6056 23.0621 59.6183 23.0071 59.6311 22.9522L59.6312 22.9518C59.777 22.3247 59.9205 21.7072 59.7727 21.0615C59.5273 19.9893 59.014 19.0451 58.2565 18.2707C57.0894 17.0775 55.6565 16.7219 54.0416 17.0834C53.9759 17.0981 53.901 17.0899 53.834 17.0755C53.771 17.062 53.7082 17.0428 53.6455 17.0236C53.5319 16.9889 53.4186 16.9542 53.305 16.954C52.8935 16.9531 52.4765 16.9559 52.0721 17.022C51.7317 17.0777 51.3992 17.191 51.0696 17.3033L51.0694 17.3034C51.0281 17.3175 50.9867 17.3316 50.9454 17.3456C50.8838 17.3664 50.8354 17.427 50.787 17.4876C50.7648 17.5155 50.7426 17.5434 50.719 17.5674C50.752 17.5776 50.7853 17.5915 50.8187 17.6054C50.8918 17.6358 50.965 17.6662 51.0337 17.6582C51.1948 17.6394 51.3541 17.6056 51.5135 17.5717C51.6128 17.5506 51.7121 17.5295 51.8119 17.5121C51.8557 17.5044 51.9023 17.5124 51.9488 17.5205C51.9702 17.5242 51.9916 17.5279 52.0127 17.53C51.997 17.5511 51.9828 17.5747 51.9685 17.5983C51.9374 17.6496 51.9064 17.7008 51.8611 17.7264C51.7513 17.7885 51.6372 17.8439 51.5232 17.8993C51.3386 17.9889 51.1543 18.0784 50.9891 18.1958C50.9305 18.2374 50.87 18.2776 50.8092 18.3178C50.5392 18.4969 50.2648 18.6788 50.1367 19.0084C50.1225 19.0448 50.1235 19.0873 50.1245 19.1298C50.125 19.1495 50.1255 19.1692 50.1244 19.1883C50.1433 19.1856 50.1632 19.1848 50.1831 19.1839C50.2263 19.182 50.2695 19.1802 50.3017 19.1602ZM57.2887 28.2588C56.7648 28.9217 56.2865 29.6183 56.0232 30.4385C55.3765 31.6431 55.1576 32.8996 55.2536 34.2095C55.2856 34.6452 55.3495 35.0784 55.4134 35.5117L55.4136 35.5123C55.4454 35.7279 55.4772 35.9436 55.505 36.1595C55.5232 36.2999 55.5394 36.4406 55.5556 36.5813L55.5556 36.5815C55.5812 36.8039 55.6068 37.0264 55.64 37.2477C55.6479 37.3 55.6853 37.3478 55.7227 37.3955C55.7399 37.4175 55.7572 37.4396 55.7715 37.462C55.7911 37.4342 55.8158 37.4064 55.8405 37.3785C55.8946 37.3178 55.9486 37.2569 55.9489 37.1959C55.9504 36.9012 55.9209 36.605 55.8842 36.3118C55.863 36.1419 55.8352 35.9726 55.8075 35.8035C55.7664 35.5529 55.7254 35.3024 55.7055 35.0501C55.6608 34.4839 55.6431 33.9146 55.6382 33.3465C55.6303 32.4474 55.8649 31.599 56.2185 30.7817C56.251 30.7067 56.2831 30.6315 56.3152 30.5562L56.3153 30.556L56.3154 30.5559C56.461 30.2149 56.6069 29.8732 56.7844 29.5496C56.9807 29.1917 57.2201 28.8546 57.4679 28.5297C57.6943 28.2328 57.836 28.2289 58.065 28.5228C58.0995 28.5671 58.1341 28.6113 58.1687 28.6555C58.5747 29.175 58.9788 29.6919 59.2704 30.3024C59.495 30.7726 59.7507 31.2274 60.0064 31.6824L60.0067 31.6828C60.241 32.0997 60.4755 32.5168 60.686 32.9456C60.8473 33.2742 60.9291 33.6455 61.01 34.0124C61.0279 34.0937 61.0458 34.1748 61.0645 34.2552C61.1943 34.8137 61.3012 35.3779 61.4049 35.9421C61.4249 36.0515 61.4462 36.1609 61.4676 36.2703L61.4677 36.2708C61.5433 36.6593 61.6191 37.0488 61.6414 37.4407C61.6743 38.0175 61.6837 38.5956 61.6931 39.1738V39.1752C61.6992 39.546 61.7053 39.9168 61.7175 40.2873C61.7295 40.6503 61.7497 41.0135 61.7699 41.3765L61.7699 41.3767C61.8068 42.041 61.8437 42.7052 61.8305 43.3684C61.8204 43.8726 61.766 44.3757 61.7116 44.8789C61.6629 45.3299 61.6141 45.781 61.5972 46.2331C61.5717 46.9162 61.3803 47.555 61.1893 48.1927C61.1166 48.4353 61.0439 48.6778 60.9805 48.9225C60.8899 49.2718 60.6412 49.6105 60.1981 49.7652C59.9085 49.8663 59.6342 50.0119 59.3599 50.1575L59.3596 50.1575C59.0932 50.2989 58.8266 50.4404 58.5459 50.5412C58.1721 50.6755 57.7713 50.736 57.3722 50.7963C57.2558 50.8139 57.1395 50.8315 57.024 50.8509C56.8421 50.8814 56.6375 50.9002 56.4665 50.8474C55.9507 50.6883 55.8802 50.586 55.8967 50.0455C55.9303 48.9418 55.9736 47.8384 56.0257 46.7355C56.0423 46.385 56.0688 46.0349 56.0954 45.6849C56.1153 45.4217 56.1353 45.1584 56.151 44.895C56.1559 44.813 56.161 44.731 56.1662 44.649L56.1662 44.6485C56.192 44.239 56.2178 43.8289 56.21 43.4198C56.202 43.0017 56.1444 42.5828 56.084 42.1679C56.0258 41.7681 56.1843 41.6493 56.5906 41.7179C57.4854 41.8688 58.3653 41.7848 59.1585 41.3095C59.6595 41.0093 59.8542 40.4643 59.9566 39.9249C60.0082 39.6533 60.0222 39.3747 60.0362 39.0959C60.0493 38.8345 60.0625 38.573 60.1066 38.3171C60.2984 37.2053 60.3012 36.0875 60.2896 34.9674C60.2864 34.6604 60.2579 34.3529 60.2222 34.0479C60.2153 33.9891 60.177 33.9342 60.1387 33.8792L60.1386 33.8791C60.1211 33.854 60.1035 33.8288 60.089 33.8032C60.0698 33.8277 60.0467 33.8516 60.0236 33.8755C59.9726 33.9283 59.9216 33.981 59.9126 34.0402C59.8903 34.1869 59.8959 34.3384 59.9015 34.489V34.4893L59.9015 34.4898C59.9028 34.5247 59.9041 34.5595 59.905 34.5942C59.9112 34.8238 59.9216 35.0536 59.9319 35.2834C59.9546 35.7854 59.9772 36.2874 59.9564 36.7876C59.9418 37.1385 59.881 37.487 59.82 37.8359C59.7809 38.06 59.7417 38.2843 59.7147 38.5095C59.6925 38.6956 59.6858 38.8836 59.6791 39.0715C59.6721 39.2674 59.6651 39.4634 59.6405 39.6571C59.5677 40.2298 59.3731 40.7817 58.8579 41.0734C58.5273 41.2605 58.1077 41.3584 57.7255 41.366C57.2442 41.3756 56.762 41.3366 56.2797 41.2975C56.0753 41.281 55.8708 41.2644 55.6665 41.2516C55.552 41.2444 55.4372 41.2396 55.3225 41.2347H55.322C55.0785 41.2245 54.8349 41.2143 54.5944 41.1815C54.138 41.1191 53.6833 41.0439 53.2286 40.9687C53.0062 40.9319 52.7838 40.8951 52.5612 40.8599C52.4461 40.8416 52.3311 40.8216 52.2161 40.8016L52.2143 40.8014C51.9046 40.7477 51.5947 40.6939 51.2828 40.6732C51.0064 40.6549 51.0189 40.4934 51.0482 40.3279C51.0667 40.2234 51.0996 40.1211 51.1326 40.0191C51.1715 39.8984 51.2103 39.7779 51.2251 39.6542C51.2606 39.3566 51.1852 39.0805 50.9111 38.8984C50.7211 38.7723 50.7157 38.7362 50.9347 38.6441C51.1553 38.5513 51.3949 38.4563 51.6281 38.451C52.5762 38.4295 53.5265 38.4098 54.4731 38.453C54.9873 38.4765 55.4993 38.5578 56.0106 38.6389C56.1629 38.6631 56.3151 38.6873 56.4673 38.7099C56.5174 38.7174 56.5611 38.7619 56.6057 38.8073C56.632 38.834 56.6585 38.8611 56.6869 38.8811C56.733 38.9136 56.8049 38.9625 56.8382 38.9466C56.8822 38.9254 56.9267 38.8469 56.9245 38.795C56.908 38.402 56.889 38.0087 56.8524 37.6172C56.842 37.5063 56.8196 37.3964 56.7972 37.2866C56.7721 37.1635 56.747 37.0403 56.7389 36.916C56.7159 36.5635 56.7033 36.2103 56.6906 35.8571L56.6906 35.8559C56.684 35.674 56.6775 35.4921 56.6696 35.3103C56.6633 35.1658 56.6522 35.021 56.6412 34.8763C56.6179 34.5719 56.5946 34.2675 56.6158 33.9663C56.6462 33.536 56.7152 33.1084 56.7842 32.6809C56.8096 32.5238 56.835 32.3666 56.8584 32.2094C56.8677 32.1473 56.8759 32.0847 56.8842 32.022L56.8842 32.0218L56.8843 32.0217C56.9112 31.8174 56.9383 31.6123 57.0003 31.4192C57.1172 31.055 57.3094 30.7165 57.7381 30.6761C57.8655 30.6641 57.9962 30.6931 58.1275 30.7223C58.2031 30.7391 58.2788 30.7559 58.3543 30.765C58.44 30.7753 58.5269 30.7747 58.6139 30.7741C58.653 30.7738 58.692 30.7735 58.731 30.7742C58.7044 30.7386 58.68 30.6966 58.6556 30.6547C58.6028 30.5639 58.5501 30.4731 58.4748 30.4461C57.8317 30.2147 57.1907 30.2569 56.8719 31.0241C56.6986 31.4412 56.5502 31.8845 56.4878 32.3298C56.4703 32.4555 56.4518 32.5811 56.4333 32.7069C56.3285 33.4188 56.2235 34.1329 56.28 34.8601C56.3162 35.3257 56.3474 35.7917 56.3786 36.2578C56.4105 36.7338 56.4424 37.2098 56.4796 37.6853C56.4911 37.8325 56.5195 37.9783 56.548 38.1242C56.567 38.2213 56.586 38.3185 56.6 38.4162C56.6027 38.4349 56.5217 38.4932 56.4918 38.4853C56.3671 38.4528 56.243 38.4111 56.1191 38.3696C55.8763 38.2881 55.634 38.2068 55.388 38.1939C54.2778 38.1354 53.164 38.1095 52.0528 38.132C51.7124 38.1389 51.6834 38.0636 51.6816 37.766C51.6741 36.5058 51.9948 35.3188 52.4146 34.1499C52.4191 34.1374 52.4299 34.1252 52.4401 34.1136C52.4529 34.0991 52.4648 34.0856 52.4624 34.0739C52.4463 33.993 52.4245 33.9132 52.4028 33.8335C52.3952 33.8056 52.3875 33.7777 52.3802 33.7497C52.3609 33.7736 52.3388 33.7965 52.3168 33.8195C52.2692 33.8691 52.2216 33.9186 52.2017 33.9777C52.1513 34.1273 52.0986 34.2766 52.0459 34.4259C51.8899 34.8675 51.7337 35.3096 51.6378 35.7645C51.5378 36.2386 51.4871 36.7232 51.4364 37.2079L51.4363 37.2084C51.4142 37.4198 51.392 37.6312 51.3658 37.8417C51.3619 37.8735 51.3635 37.9098 51.3651 37.9462C51.3704 38.0639 51.3758 38.1837 51.1938 38.1635C51.1315 38.1566 51.0363 37.9306 51.0514 37.8182C51.0723 37.6622 51.0926 37.5059 51.1128 37.3495C51.2016 36.6634 51.2905 35.9761 51.4428 35.3039C51.6109 34.5619 51.8375 33.8329 52.0639 33.1047L52.0648 33.1015C52.1144 32.942 52.164 32.7825 52.213 32.6229C52.2546 32.4873 52.3355 32.3637 52.4162 32.2404L52.4162 32.2403L52.4163 32.2401C52.448 32.1917 52.4797 32.1433 52.5089 32.0943C52.6399 31.8745 52.7734 31.6561 52.9068 31.4378L52.9832 31.3128C53.028 31.2394 53.0738 31.1666 53.1196 31.0939C53.1406 31.0605 53.1615 31.0272 53.1824 30.9938C53.2021 31.0281 53.2245 31.0617 53.2469 31.0954C53.2964 31.1695 53.3458 31.2436 53.3652 31.325C53.3929 31.4413 53.4097 31.5605 53.4265 31.6795C53.4472 31.8271 53.468 31.9745 53.5095 32.1159C53.551 32.257 53.6709 32.4578 53.7797 32.4749C53.9224 32.4974 54.1484 32.4103 54.2359 32.2924C54.7797 31.5602 55.3084 30.8164 55.837 30.0726C55.9768 29.876 56.1166 29.6793 56.2567 29.4828C56.2917 29.4337 56.3293 29.3805 56.3427 29.3237C56.3502 29.2916 56.3412 29.2555 56.3321 29.2194C56.3281 29.2034 56.3241 29.1874 56.3216 29.1718C56.3075 29.1776 56.2918 29.1821 56.2762 29.1865C56.2425 29.1962 56.2088 29.2058 56.1907 29.2283L56.1412 29.2897C55.8831 29.6101 55.6248 29.9306 55.3778 30.2595C55.0962 30.6345 54.8187 31.0125 54.5412 31.3906C54.3967 31.5875 54.2521 31.7844 54.107 31.9809C54.0952 31.9969 54.0803 32.0108 54.0655 32.0246C54.0485 32.0404 54.0315 32.0563 54.0192 32.0752C53.9889 32.1219 53.9622 32.171 53.9355 32.2201C53.9243 32.2406 53.9132 32.261 53.9018 32.2813C53.8869 32.2498 53.8679 32.2184 53.8489 32.1869C53.8075 32.1185 53.7662 32.05 53.7664 31.9817C53.7677 31.5897 53.6995 31.2191 53.4976 30.8832C53.4842 30.8608 53.472 30.8357 53.4595 30.8102C53.4026 30.694 53.3413 30.5687 53.148 30.6527C53.1395 30.6564 53.0606 30.5493 53.0512 30.488C52.994 30.1146 53.1375 29.9039 53.4609 29.681C53.9281 29.3591 54.3953 29.0267 54.8111 28.6421C55.1537 28.3251 55.4709 27.9802 55.7882 27.6352C55.9355 27.475 56.0828 27.3148 56.2327 27.1574C56.2472 27.1421 56.2604 27.1259 56.2729 27.1104C56.3352 27.0334 56.3802 26.9777 56.5009 27.1681C56.6237 27.3618 56.8096 27.5148 56.9956 27.6677C57.0755 27.7334 57.1554 27.7992 57.2303 27.8681L57.2327 27.8704C57.3553 27.9833 57.4428 28.0639 57.2887 28.2588ZM43.6152 51.2269L43.6684 51.2151C43.7762 51.2449 43.8948 51.2931 43.9204 51.3721C44.1472 52.0704 44.3624 52.7726 44.5775 53.4747L44.6495 53.7094C44.6753 53.7936 44.7014 53.8778 44.7276 53.9619C44.8271 54.2824 44.9266 54.603 45.0096 54.9279C45.0674 55.1544 45.0493 55.3458 44.7998 55.514C44.5389 55.6898 44.2996 55.898 44.0601 56.1064C43.9296 56.2199 43.799 56.3335 43.6648 56.442C43.506 56.5704 43.4567 56.4191 43.4261 56.3254C43.4226 56.3145 43.4193 56.3043 43.4161 56.2955C43.2722 55.8983 43.1465 55.4943 43.0232 55.0899C43.0031 55.024 42.9746 54.9495 42.9456 54.8738C42.868 54.6715 42.787 54.46 42.8543 54.379C42.9966 54.208 43.2145 54.1008 43.4321 53.9938C43.5188 53.9512 43.6056 53.9085 43.6875 53.8619C43.7066 53.851 43.7276 53.8432 43.7485 53.8355C43.7748 53.8257 43.801 53.8161 43.8232 53.8003C43.8778 53.7614 43.9295 53.7181 43.9811 53.6748C44.0025 53.6569 44.0238 53.639 44.0454 53.6214C44.0084 53.6064 43.9684 53.5844 43.9284 53.5624C43.841 53.5145 43.7537 53.4665 43.6973 53.4911C43.4229 53.6107 43.1501 53.7581 42.9189 53.9476C42.73 54.1024 42.6465 54.0872 42.5689 53.8736L42.5379 53.7882C42.3151 53.1749 42.0924 52.5616 41.8757 51.9462C41.8671 51.9217 41.9186 51.8627 41.9543 51.8374C42.4541 51.4838 43.0347 51.3553 43.6152 51.2269ZM44.6433 52.4682C44.6338 52.4053 44.6242 52.3418 44.574 52.3258C44.5234 52.1422 44.4699 51.9837 44.4193 51.8338C44.3868 51.7375 44.3554 51.6446 44.3268 51.5509C44.228 51.2271 44.314 51.1023 44.6462 51.1207C44.9801 51.1393 45.3134 51.1677 45.6468 51.196C45.8536 51.2136 46.0605 51.2312 46.2675 51.2465C46.4623 51.2609 46.4029 51.356 46.342 51.4538L46.3413 51.4548C46.0248 51.9624 45.524 52.2209 45.025 52.4786C44.9637 52.5103 44.9025 52.5419 44.8416 52.574C44.6728 52.6629 44.6582 52.5664 44.6433 52.4682ZM41.0454 52.9538C40.8955 52.7558 40.8219 52.5904 41.0163 52.3911C41.2341 52.2365 41.4167 52.1098 41.607 51.9961C41.6371 51.9781 41.6795 51.9809 41.7218 51.9837C41.7413 51.985 41.7607 51.9863 41.779 51.9855C41.7747 51.9996 41.7687 52.014 41.7627 52.0284C41.7496 52.0595 41.7366 52.0906 41.741 52.1189C41.7508 52.1808 41.7592 52.2434 41.7676 52.3061C41.7931 52.4956 41.8186 52.6858 41.8824 52.8615C41.9597 53.0742 41.8957 53.1389 41.7105 53.1398C41.6728 53.14 41.6348 53.1417 41.5969 53.1434C41.3986 53.1522 41.2021 53.1609 41.0454 52.9538Z" fill="#00160A"/>
<path d="M50.8902 72.9953C50.9569 72.9929 51.0238 72.9904 51.091 72.9881C51.3506 72.9609 51.5939 72.9439 51.8374 72.9407C52.1262 72.9368 52.3628 72.8311 52.4616 72.5511C52.7529 71.7255 53.031 70.8951 53.3018 70.0624C53.3137 70.0257 53.3358 69.9885 53.3583 69.9507C53.4223 69.8431 53.4894 69.7301 53.3355 69.607C53.3054 69.6487 53.2725 69.6891 53.2396 69.7296C53.1676 69.8181 53.0957 69.9066 53.053 70.0076C52.8658 70.4515 52.684 70.8997 52.5378 71.3584C52.4594 71.6045 52.2907 71.6748 52.0891 71.6931C51.6792 71.7304 51.2664 71.7676 50.8558 71.7583C49.4835 71.7274 48.1111 71.6891 46.7399 71.6258C46.2043 71.6011 45.8313 71.1267 45.9456 70.5966C45.9784 70.4447 46.1514 70.2893 46.2992 70.2132C46.3454 70.1894 46.4464 70.2701 46.5423 70.3467C46.5776 70.375 46.6122 70.4026 46.6431 70.4243C46.6768 70.4479 46.7075 70.4761 46.7382 70.5042C46.7697 70.5329 46.8011 70.5617 46.8358 70.5857C46.9443 70.6608 47.0244 70.6473 47.0315 70.4947C47.0418 70.2738 46.6592 69.8767 46.4362 69.8677C45.823 69.843 45.6212 70.2603 45.5484 70.757C45.4753 71.2556 46.0367 71.9097 46.6965 71.9577C47.0964 71.9868 47.4971 72.0119 47.8979 72.0226C48.9124 72.0498 49.927 72.077 50.9418 72.0855C51.2045 72.0877 51.4673 72.0715 51.7302 72.0553L51.731 72.0553L51.7346 72.0551C51.9032 72.0447 52.0717 72.0343 52.2403 72.0289C52.2751 72.0277 52.3108 72.055 52.3465 72.0824C52.363 72.095 52.3795 72.1077 52.396 72.1175C52.3522 72.1688 52.3109 72.2293 52.2697 72.2899C52.1783 72.424 52.087 72.5581 51.9677 72.5919C51.6974 72.6686 51.4042 72.6708 51.1147 72.6729C51.054 72.6734 50.9936 72.6738 50.9335 72.6749C50.3734 72.6855 49.8124 72.6948 49.2529 72.6732C49.1726 72.6701 49.0922 72.6672 49.0117 72.6644C48.4935 72.6463 47.9723 72.628 47.466 72.5354C46.7679 72.4076 46.0768 72.2406 45.3857 72.0735L45.3847 72.0732L45.3838 72.073L45.3829 72.0728C45.1317 72.0121 44.8806 71.9513 44.6291 71.8925C44.6174 71.8898 44.6055 71.887 44.5936 71.8843C44.3428 71.8263 44.0609 71.761 44.0045 71.4752C43.9602 71.2505 44.1194 71.1159 44.276 70.9837C44.3281 70.9396 44.3799 70.8958 44.4238 70.8491C44.4264 70.8463 44.4323 70.8472 44.4386 70.8481C44.4446 70.849 44.4509 70.8499 44.4551 70.8478C44.5272 70.8129 44.5994 70.7783 44.6715 70.7436L44.6719 70.7434L44.6721 70.7433L44.6723 70.7432C44.906 70.6309 45.1398 70.5186 45.3696 70.3987C45.4163 70.3743 45.452 70.3285 45.4878 70.2827C45.5042 70.2616 45.5207 70.2406 45.5382 70.2216C45.5149 70.2119 45.4902 70.1979 45.4655 70.1839C45.4122 70.1537 45.3589 70.1235 45.3194 70.1364L45.2742 70.1511C44.7673 70.3165 44.2518 70.4847 43.8978 70.9181C43.5228 71.3773 43.6404 71.9224 44.1465 72.0846C44.5095 72.201 44.8773 72.3016 45.2452 72.4022L45.246 72.4024L45.2462 72.4025L45.2464 72.4025C45.4977 72.4713 45.7491 72.54 45.9989 72.6138C46.9168 72.8848 47.8586 72.9214 48.8001 72.958C49.0955 72.9695 49.3907 72.981 49.6852 72.9997C50.082 73.0249 50.4814 73.0103 50.8902 72.9953Z" fill="#00160A"/>
<path d="M42.5526 57.6343C42.3917 57.7902 42.2295 57.942 42.0684 58.0928C41.7035 58.4343 41.3443 58.7705 41.018 59.1367C40.637 59.5644 40.3149 60.0522 40.0146 60.5433C39.9253 60.6891 39.9035 60.8785 39.882 61.0654C39.8745 61.1303 39.8671 61.195 39.8569 61.2574C39.8514 61.2908 39.8753 61.3292 39.8991 61.3675C39.9101 61.3852 39.9211 61.4029 39.9293 61.4201C39.9415 61.4055 39.9553 61.3914 39.9691 61.3773C39.9992 61.3467 40.0293 61.3161 40.0432 61.2792C40.0703 61.2078 40.0914 61.133 40.1125 61.0583C40.1496 60.9265 40.1867 60.7952 40.2561 60.684C40.2946 60.6221 40.3329 60.5596 40.3713 60.4969C40.5763 60.1618 40.7845 59.8216 41.0584 59.5546C41.7998 58.8318 42.5667 58.1355 43.3334 57.4392L43.3353 57.4375L43.3364 57.4365L43.3368 57.4361L43.339 57.4342C43.5545 57.2385 43.77 57.0428 43.9849 56.8465C44.0266 56.8084 44.0858 56.7899 44.145 56.7715C44.1726 56.7629 44.2001 56.7543 44.2259 56.7437C44.2191 56.7765 44.2157 56.8128 44.2123 56.8491C44.205 56.9276 44.1977 57.0062 44.1552 57.0493C43.8174 57.3907 43.4738 57.7287 43.1086 58.0395C42.3422 58.6915 41.6036 59.3627 41.008 60.1899C40.6877 60.6347 40.4569 61.1061 40.2831 61.6201C40.1676 61.9617 40.281 62.2677 40.3918 62.5667L40.3921 62.5677L40.3924 62.5684C40.3975 62.5822 40.4026 62.5959 40.4076 62.6097C40.4833 62.8148 40.9549 62.8845 41.2739 62.7803C42.0915 62.5133 42.7893 62.0281 43.4093 61.4556C44.2264 60.7013 45.0166 59.911 45.7563 59.0798C46.1064 58.6864 46.3918 58.233 46.6762 57.7811C46.7594 57.6488 46.8426 57.5166 46.9272 57.3862C46.9739 57.3142 46.987 57.2211 47.0003 57.1269C47.0091 57.0643 47.018 57.0012 47.0368 56.9434C47.0495 56.9045 47.0878 56.8741 47.1261 56.8436C47.1436 56.8298 47.161 56.8159 47.176 56.8013C47.1881 56.8192 47.2027 56.8367 47.2173 56.8543C47.2489 56.8922 47.2805 56.9302 47.2866 56.972C47.3413 57.3418 47.2275 57.6703 47.0113 57.9645C46.4105 58.7822 45.7933 59.5836 45.0506 60.282C44.8048 60.5131 44.5768 60.7634 44.3487 61.0137C44.1805 61.1983 44.0121 61.3831 43.8366 61.5602C43.0814 62.3224 42.1616 62.8154 41.1531 63.1312C40.6811 63.279 40.2283 62.9698 40.0422 62.4773C39.9983 62.3612 39.939 62.2511 39.8797 62.141C39.8241 62.0378 39.7685 61.9345 39.7255 61.8263C39.4235 61.0655 39.6428 60.4198 40.0968 59.771C40.8205 58.7367 41.7639 57.9427 42.7111 57.1456L42.7485 57.1141C42.8069 57.0649 42.8915 57.0377 42.9681 57.0239C43.0158 57.0154 43.0943 57.0367 43.1166 57.0719C43.1367 57.1036 43.1168 57.1942 43.084 57.2215C42.9774 57.3106 42.8666 57.3946 42.751 57.4823L42.7509 57.4824L42.7507 57.4826C42.6862 57.5315 42.6202 57.5816 42.5526 57.6343Z" fill="#00160A"/>
<path fill-rule="evenodd" clip-rule="evenodd" d="M52.9174 69.6833C53.093 69.0598 53.2633 68.4347 53.4358 67.7776C53.6471 67.2573 53.7313 66.7438 53.7681 66.2156C53.77 66.1881 53.7762 66.1592 53.7822 66.1312C53.8006 66.045 53.8173 65.9673 53.7019 65.9638C53.6156 65.9612 53.4797 66.1003 53.4458 66.2026C53.4181 66.2861 53.4126 66.3777 53.4071 66.469C53.4011 66.5685 53.3952 66.6676 53.3605 66.7556C53.3047 66.8977 53.1796 67.0516 53.0456 67.1155C52.5697 67.3425 52.099 67.2511 51.6621 66.9883C51.5806 66.9393 51.492 66.7949 51.5058 66.7113C51.5287 66.5725 51.5674 66.4363 51.6061 66.3002C51.6451 66.1631 51.684 66.026 51.7069 65.8863C51.7182 65.8173 51.6765 65.7396 51.6348 65.6618C51.6158 65.6264 51.5968 65.5909 51.5828 65.5562C51.5602 65.5808 51.5339 65.6043 51.5076 65.6278C51.4498 65.6793 51.392 65.7309 51.3732 65.7942C51.3356 65.9213 51.3125 66.0526 51.2894 66.184C51.2697 66.2953 51.2501 66.4067 51.2217 66.5157C51.1769 66.6871 51.1288 66.8578 51.0808 67.0284L51.0807 67.0287C50.9067 67.6465 50.7328 68.2641 50.7152 68.9171C50.7086 69.1605 50.3519 69.4365 50.1011 69.4021C50.0548 69.3957 49.9773 69.2288 49.9938 69.2111C50.0551 69.1447 50.1257 69.0873 50.1964 69.0297C50.2459 68.9894 50.2955 68.9491 50.3421 68.9056C50.3925 68.8584 50.4355 68.7913 50.4518 68.7256C50.4566 68.706 50.3633 68.6407 50.3087 68.6303C49.9718 68.5662 49.4722 69.1218 49.5654 69.4536C49.6185 69.6424 49.6769 69.8298 49.7352 70.0171L49.7493 70.0623C49.7677 70.1216 49.7889 70.1801 49.8101 70.2386C49.8198 70.2653 49.8294 70.2919 49.8388 70.3187C49.8565 70.2933 49.8756 70.2686 49.8947 70.2439C49.9363 70.19 49.978 70.1362 50.0049 70.0756C50.1475 69.7558 50.6787 69.5504 50.9026 69.772C51.3131 70.1784 51.8161 70.1706 52.3092 70.1133C52.5414 70.0864 52.8316 69.988 52.9174 69.6833ZM50.9972 69.1834C51.0026 69.1499 51.0081 69.1164 51.0101 69.0843C51.1287 68.5663 51.22 68.0817 51.2991 67.5951C51.3393 67.3476 51.4367 67.3071 51.6741 67.3927C52.086 67.5413 52.508 67.6898 52.9599 67.522C53.0038 67.5056 53.0607 67.5249 53.1175 67.5441C53.1438 67.553 53.1701 67.5618 53.1951 67.5672C53.1905 67.5887 53.1862 67.6103 53.1818 67.6318C53.1725 67.6783 53.1631 67.7248 53.1511 67.7706C53.1123 67.9194 53.0724 68.0678 53.0324 68.2163C52.9488 68.5272 52.8651 68.8381 52.792 69.1516C52.7008 69.5421 52.4422 69.8086 52.0535 69.8684C51.736 69.9172 51.0995 69.6416 50.9971 69.3887C50.9734 69.3301 50.9853 69.2568 50.9972 69.1834Z" fill="#00160A"/>
<path d="M56.3736 56.925L56.3737 56.9247L56.374 56.9241C56.4995 56.626 56.6235 56.3313 56.7532 56.0392C56.7901 55.9561 56.8721 55.891 56.9501 55.829C56.9663 55.8162 56.9822 55.8036 56.9976 55.7909C57.0232 55.7698 57.1063 55.7747 57.1226 55.7973C57.1505 55.8362 57.1707 55.9097 57.1526 55.9493C56.8229 56.6697 56.492 57.3896 56.1497 58.1039C56.0367 58.3397 55.8361 58.4611 55.5662 58.4345C55.4559 58.4236 55.3455 58.4133 55.2351 58.403L55.2347 58.4029L55.2331 58.4027C54.91 58.3725 54.5869 58.3423 54.2657 58.2981C54.1331 58.2799 53.9966 58.2097 53.8871 58.1285C53.8318 58.0875 53.7963 58.0193 53.7608 57.951C53.745 57.9206 53.7291 57.8901 53.7116 57.8621C53.7488 57.8621 53.7883 57.8577 53.8278 57.8533C53.9134 57.8439 53.999 57.8345 54.0611 57.8686C54.5732 58.1499 55.1282 58.1359 55.6718 58.087C55.7657 58.0786 55.8493 57.953 55.9377 57.8203C55.9806 57.7558 56.0247 57.6896 56.0717 57.6343C56.1755 57.3954 56.275 57.1591 56.3736 56.925Z" fill="#00160A"/>
<path d="M39.8832 45.6928C39.9586 46.1398 40.0348 46.5867 40.1269 47.05C40.1627 47.1969 40.1918 47.3427 40.2205 47.4866C40.2653 47.7114 40.3093 47.9316 40.3763 48.1444C40.521 48.6034 40.7067 49.0501 40.8946 49.4935C40.9161 49.5442 40.9846 49.5747 41.0531 49.6051C41.0848 49.6192 41.1165 49.6332 41.1435 49.6493C41.1437 49.6178 41.1467 49.5852 41.1496 49.5526C41.1561 49.4805 41.1626 49.4085 41.1398 49.3476C41.1112 49.2709 41.0691 49.1983 41.0272 49.126C40.9717 49.0303 40.9165 48.9351 40.8934 48.832C40.7612 48.2415 40.6354 47.6496 40.5097 47.0576C40.3978 46.5305 40.2858 46.0032 40.1692 45.477C40.1523 45.4006 40.0949 45.3334 40.0375 45.2661C40.0108 45.2349 39.9842 45.2037 39.9616 45.1716C39.9507 45.2019 39.9388 45.2321 39.9268 45.2622C39.8987 45.3333 39.8705 45.4044 39.8564 45.4782C39.847 45.527 39.859 45.5803 39.8709 45.6332C39.8754 45.6532 39.8799 45.6732 39.8832 45.6928Z" fill="#00160A"/>
<path d="M54.2767 55.2985C54.1482 55.245 54.052 55.1914 53.9558 55.1378C53.9849 55.1272 54.0143 55.1129 54.0437 55.0987C54.1075 55.0678 54.1712 55.0368 54.231 55.0433C54.4219 55.0641 54.6123 55.0927 54.8026 55.1214L54.8028 55.1214C55.0903 55.1647 55.3777 55.208 55.6666 55.2238C55.9946 55.2418 56.3238 55.2348 56.6532 55.2278H56.6545C56.8702 55.2232 57.0861 55.2186 57.3017 55.221C57.3782 55.2219 57.4543 55.2537 57.5305 55.2856C57.5656 55.3003 57.6007 55.315 57.6358 55.3267C57.6106 55.3444 57.5855 55.3668 57.5604 55.3892C57.5062 55.4376 57.4521 55.486 57.397 55.4871L57.2636 55.4899H57.263C56.6598 55.5025 56.0554 55.5151 55.4534 55.486C55.2016 55.4738 54.9515 55.425 54.6924 55.3744L54.6922 55.3744L54.692 55.3743C54.5566 55.3479 54.4187 55.321 54.2767 55.2985Z" fill="#00160A"/>
<path d="M48.4325 42.768C48.3768 42.7637 48.3197 42.7593 48.261 42.7542C48.231 42.7542 48.205 42.7543 48.1814 42.7545C48.1374 42.7548 48.1024 42.755 48.0674 42.754C47.8926 42.7486 47.7179 42.7431 47.5432 42.7376H47.5424C47.0165 42.7211 46.4906 42.7045 45.9646 42.6919C45.8988 42.6904 45.8246 42.7207 45.7676 42.7573C45.7251 42.7847 45.6902 42.8241 45.6553 42.8635C45.64 42.8807 45.6248 42.8979 45.609 42.9141C45.6316 42.9248 45.6542 42.9383 45.6769 42.9518C45.7255 42.9809 45.7742 43.01 45.8236 43.0113C46.847 43.0392 47.8706 43.0605 48.8942 43.0776C48.9412 43.0784 48.9886 43.0579 49.0359 43.0374C49.0579 43.0278 49.08 43.0183 49.1019 43.0108C49.0854 42.9908 49.0697 42.9665 49.054 42.9421C49.0198 42.8891 48.9855 42.836 48.9426 42.8274C48.7799 42.795 48.6133 42.7821 48.4325 42.768Z" fill="#00160A"/>
<path d="M51.4705 62.0374L51.4707 62.0355C51.5417 61.4685 51.6104 60.9207 51.6983 60.376C51.7101 60.3027 51.7772 60.2385 51.8443 60.1743C51.8753 60.1446 51.9063 60.1149 51.9318 60.0844C51.9404 60.1187 51.953 60.1539 51.9656 60.1891C51.9928 60.2649 52.0201 60.3408 52.0065 60.4082C51.7962 61.4521 51.6667 62.5026 51.6836 63.5702C51.6844 63.6202 51.6471 63.6709 51.6098 63.7215C51.5924 63.7451 51.5751 63.7687 51.5616 63.7922C51.541 63.7618 51.5151 63.7315 51.4891 63.7011C51.4326 63.635 51.3761 63.569 51.3756 63.5025C51.3739 63.2425 51.3909 62.9824 51.4087 62.7111C51.4163 62.5947 51.4241 62.4762 51.4306 62.3548C51.444 62.2483 51.4573 62.1425 51.4705 62.0374Z" fill="#00160A"/>
<path d="M58.4855 52.1839C58.4701 52.2671 58.4542 52.3524 58.4327 52.4402C58.4243 52.4938 58.4235 52.5435 58.4227 52.5908C58.4219 52.6345 58.4212 52.6761 58.4146 52.7166C58.3872 52.8857 58.3573 53.0544 58.3275 53.223L58.3274 53.2234C58.2677 53.5608 58.208 53.8982 58.1677 54.2379C58.1643 54.2659 58.1576 54.297 58.1506 54.3296C58.1199 54.4713 58.0836 54.6394 58.2984 54.6892C58.3248 54.6953 58.4433 54.4094 58.4766 54.2499C58.573 53.7883 58.6515 53.3227 58.7296 52.8574C58.7827 52.5414 58.8323 52.2242 58.8614 51.9054C58.8653 51.8631 58.8214 51.8163 58.7775 51.7695C58.7572 51.7479 58.737 51.7263 58.7214 51.7051C58.7031 51.7232 58.6816 51.7403 58.6602 51.7575C58.6131 51.7951 58.566 51.8327 58.5522 51.8802C58.5237 51.9784 58.5049 52.0794 58.4855 52.1839Z" fill="#00160A"/>
<path d="M45.0106 56.2623C45.5547 55.9475 46.1168 55.9512 46.679 56.0922C46.7825 56.1181 46.8724 56.1989 46.9624 56.2798C47.0037 56.3168 47.045 56.3539 47.0876 56.3857C47.04 56.3882 46.9915 56.3941 46.9431 56.4001C46.838 56.4129 46.7329 56.4258 46.6358 56.4033C45.9769 56.2508 45.3838 56.3859 44.8323 56.7652C44.783 56.7991 44.724 56.8186 44.665 56.8381C44.6377 56.8471 44.6103 56.8562 44.584 56.8666C44.5751 56.8435 44.5621 56.8156 44.5491 56.7877C44.521 56.7274 44.4928 56.6672 44.5067 56.6548C44.6124 56.5601 44.7266 56.475 44.847 56.3855L44.8471 56.3853L44.8473 56.3852L44.8474 56.3851L44.8476 56.385C44.9008 56.3454 44.9552 56.3049 45.0106 56.2623Z" fill="#00160A"/>
<path d="M52.5244 23.6112L52.5241 23.6113C52.5101 23.6166 52.496 23.6219 52.4817 23.6273C52.3354 23.6795 52.1919 23.7265 52.0506 23.7728C51.8823 23.8279 51.7172 23.882 51.5544 23.9425C51.489 23.9668 51.4336 24.0184 51.3782 24.07C51.3529 24.0936 51.3275 24.1172 51.3012 24.1382C51.3315 24.1515 51.3636 24.1705 51.3958 24.1896C51.4654 24.2308 51.535 24.272 51.5854 24.255C52.0652 24.0932 52.5374 23.9079 53.0092 23.7227L53.0408 23.7103C53.076 23.6965 53.1155 23.5919 53.1081 23.5859C53.1029 23.5816 53.0975 23.5771 53.0919 23.5726L53.0918 23.5725C53.041 23.5305 52.979 23.4792 52.9298 23.4871C52.797 23.5084 52.6685 23.5569 52.5269 23.6103L52.5244 23.6112Z" fill="#00160A"/>
<path d="M49.0534 69.9827C49.0314 69.9499 49.0094 69.9185 48.988 69.8879C48.9203 69.7909 48.8581 69.7017 48.8151 69.604C48.7776 69.5187 48.747 69.3539 48.7848 69.327C48.868 69.2677 49.0215 69.2219 49.1017 69.2619C49.3356 69.3785 49.5473 70.2944 49.3979 70.5029C49.3753 70.5346 49.1894 70.51 49.1765 70.4749C49.1437 70.3853 49.1236 70.2909 49.1025 70.1923C49.0881 70.1244 49.0732 70.0545 49.0534 69.9827Z" fill="#00160A"/>
<path d="M47.9981 69.9977C48.0421 70.0796 48.088 70.165 48.1317 70.2603C48.1368 70.2893 48.141 70.3168 48.1451 70.3431C48.1579 70.4269 48.1688 70.4974 48.2006 70.5564C48.2327 70.6157 48.281 70.666 48.3293 70.7164C48.3503 70.7384 48.3714 70.7603 48.3911 70.783C48.4113 70.7594 48.4353 70.7367 48.4593 70.7139C48.5117 70.6642 48.5642 70.6144 48.5773 70.5557C48.6351 70.2974 48.3969 69.6873 48.1283 69.5174C48.0841 69.4894 48.0135 69.5038 47.943 69.5182C47.9105 69.5248 47.8781 69.5314 47.8482 69.5339C47.8517 69.5594 47.8534 69.5858 47.8552 69.6121C47.859 69.6702 47.8628 69.7282 47.8854 69.7775C47.9194 69.8514 47.958 69.9231 47.9981 69.9977Z" fill="#00160A"/>
<path d="M47.6789 70.391C47.6385 70.5652 47.5981 70.7068 47.5578 70.8484C47.5353 70.8097 47.5136 70.7705 47.4919 70.7312C47.4436 70.6439 47.3953 70.5564 47.3385 70.4751C47.3248 70.4554 47.3111 70.4357 47.2974 70.416C47.1821 70.2501 47.0659 70.0828 46.9274 69.9384L46.9237 69.9345C46.8203 69.8268 46.8056 69.8114 46.9401 69.7312C47.1954 69.5791 47.3539 69.736 47.4801 69.9206C47.5519 70.0256 47.5951 70.1505 47.6432 70.2893L47.6432 70.2894C47.6547 70.3225 47.6664 70.3564 47.6789 70.391Z" fill="#00160A"/>
<path d="M53.9457 56.2656L53.9533 56.2133C53.9431 56.018 53.9329 55.8554 53.9228 55.6928L53.9228 55.6925C53.7273 55.7309 53.7082 55.8676 53.687 56.0438C53.6658 56.2194 53.6279 56.3929 53.5901 56.5664C53.5604 56.7028 53.5306 56.8394 53.5089 56.977C53.5024 57.0179 53.6032 57.0979 53.6677 57.1202C53.7063 57.1335 53.8095 57.0781 53.8177 57.0394C53.8694 56.7925 53.9056 56.5423 53.9457 56.2656Z" fill="#00160A"/>
<path d="M51.7702 20.7198C51.7494 20.7018 51.7295 20.6869 51.7113 20.6732C51.68 20.6498 51.6536 20.6299 51.6358 20.604C51.6001 20.5518 51.5708 20.4951 51.5416 20.4383C51.5294 20.4146 51.5172 20.3909 51.5045 20.3675C51.5316 20.3651 51.5622 20.3586 51.5927 20.3521C51.659 20.338 51.7252 20.3239 51.7565 20.351C51.9968 20.5586 52.2273 20.7803 52.4381 21.018C52.4651 21.0484 52.443 21.1232 52.4209 21.1981C52.4107 21.2326 52.4005 21.2672 52.3951 21.2973C52.3762 21.2838 52.3566 21.2709 52.3371 21.2581C52.2942 21.2298 52.2512 21.2015 52.2147 21.1664C52.1111 21.0668 52.0103 20.9641 51.9038 20.8556C51.8604 20.8114 51.8161 20.7662 51.7702 20.7198Z" fill="#00160A"/>
<path d="M51.1441 21.1578C51.1058 21.2099 51.0664 21.2637 51.0263 21.3079C51.0193 21.3409 51.0095 21.3752 50.9996 21.4098C50.9552 21.5655 50.9099 21.724 51.1156 21.7716C51.3848 21.8338 51.4452 21.5938 51.4949 21.3858C51.4961 21.381 51.4955 21.3758 51.495 21.3705C51.4944 21.3646 51.4938 21.3587 51.4957 21.3537C51.5611 21.1782 51.5664 20.9741 51.3621 20.9543C51.298 20.948 51.2236 21.0494 51.1441 21.1578Z" fill="#00160A"/>
<path d="M53.1783 22.9247L53.1724 22.931C53.0559 23.0569 52.9499 23.1713 52.7824 23.0448C52.7099 22.99 52.5922 22.8855 52.6069 22.8441C52.6524 22.7161 52.7336 22.5845 52.8378 22.5012C52.8891 22.4601 53.0645 22.4889 53.1071 22.5452C53.1653 22.6222 53.1763 22.7356 53.1875 22.8513C53.1893 22.8704 53.1912 22.8895 53.1932 22.9086C53.1882 22.914 53.1833 22.9193 53.1783 22.9247Z" fill="#00160A"/>
<path d="M55.247 23.8941C55.193 23.8215 55.1391 23.7489 55.0529 23.6763C54.9451 23.7722 54.8696 23.8682 54.7942 23.9641C54.8127 23.9749 54.8325 23.9898 54.8522 24.0046C54.8958 24.0372 54.9393 24.0698 54.9696 24.0601C55.0406 24.0374 55.1045 23.9924 55.1685 23.9474C55.1945 23.9291 55.2205 23.9109 55.247 23.8941Z" fill="#00160A"/>
<path d="M51.3328 10.7136C51.5084 10.538 51.6708 10.3815 51.8247 10.2171C51.8595 10.1799 51.8644 10.1148 51.883 10.0626C51.8308 10.0835 51.764 10.0904 51.7285 10.1274C51.3495 10.523 50.8817 10.7599 50.3615 10.9053C50.1383 10.9677 49.9153 11.0326 49.6891 11.082C49.6414 11.0924 49.58 11.0396 49.5249 11.0159C49.5532 10.97 49.571 10.8997 49.6116 10.8821C49.8683 10.7708 50.1225 10.6412 50.3916 10.5739C50.9011 10.4464 51.2663 10.1164 51.6749 9.8165C52.194 9.43542 52.2826 8.91154 52.3448 8.37064C52.398 7.90713 52.1566 7.50573 51.9001 7.13256C51.4135 6.42492 50.7485 6.04225 49.8845 5.94975C48.8842 5.84266 48.1098 6.2217 47.4489 6.92889C47.3768 7.00604 47.2561 7.03779 47.1579 7.0906C47.1855 6.95683 47.1701 6.78697 47.2474 6.69483C48.0565 5.72999 49.5058 5.31058 50.8238 5.87817C51.8321 6.31235 52.4785 7.07349 52.6521 8.10968C52.7883 8.92277 52.5545 9.75375 52.0056 10.4199C51.5444 10.9796 50.9845 11.4067 50.2352 11.5465C49.3272 11.7158 48.493 11.5797 47.7356 11.0433C47.0265 10.5411 46.6089 9.86066 46.5124 8.99203C46.4859 8.7527 46.4522 8.51209 46.4559 8.2726C46.4571 8.19261 46.5646 8.11427 46.6236 8.03517C46.6729 8.11311 46.7558 8.18688 46.7661 8.26965C46.8463 8.91766 46.9903 9.54946 47.2846 10.1335C47.618 10.7952 48.2531 11.0938 48.909 11.2649C49.5735 11.4382 50.2571 11.3401 50.8841 11.0192C51.0375 10.9407 51.1729 10.8272 51.3328 10.7136Z" fill="#FFB61D"/>
<path d="M48.5083 9.15521C48.5086 9.05755 48.5251 8.97613 48.5416 8.8947C48.6014 8.92257 48.6721 8.93823 48.7193 8.98027C49.0405 9.26635 49.0045 9.24838 49.2113 8.88898C49.4326 8.50447 49.3731 8.18982 49.1841 7.81804C48.9824 7.42118 49.2057 7.25563 49.5296 7.1294C49.5577 7.11844 49.6054 7.11265 49.6237 7.12825C49.8771 7.3445 50.0942 6.66288 50.2507 7.04961C50.3713 7.34782 50.6226 7.47447 50.7598 7.71492C50.7971 7.78033 50.762 7.88706 50.7601 7.97482C50.685 7.9616 50.5929 7.97178 50.5375 7.9315C50.0442 7.57292 50.0427 7.56934 49.8831 8.14357C49.8649 8.20898 49.8945 8.3023 49.9312 8.36584C50.1067 8.67019 50.425 8.92613 50.1731 9.34677C49.9626 9.69817 49.3319 9.8843 49.0054 9.64382C48.8263 9.51191 48.6836 9.33052 48.5083 9.15521ZM49.4985 8.91172C49.4612 9.01394 49.4023 9.11446 49.3941 9.21898C49.3884 9.29109 49.4527 9.36874 49.4858 9.44391C49.6258 9.3688 49.8045 9.32319 49.8923 9.20818C49.9507 9.13164 49.8961 8.95124 49.86 8.82656C49.8375 8.74867 49.7556 8.68795 49.7004 8.61953C49.6439 8.70611 49.5874 8.79268 49.4985 8.91172ZM49.7258 7.7105C49.7298 7.62789 49.7337 7.54529 49.7377 7.46268C49.6411 7.50803 49.516 7.53203 49.4596 7.60742C49.4299 7.64715 49.5201 7.77661 49.5562 7.86556C49.6019 7.82469 49.6476 7.78383 49.7258 7.7105Z" fill="#FFB61D"/>
<path d="M48.8654 10.9408C48.8588 10.8717 48.8684 10.8188 48.878 10.766C48.9333 10.8027 48.9887 10.8393 49.044 10.876C48.9899 10.903 48.9358 10.93 48.8654 10.9408Z" fill="#FFB61D"/>
<path d="M48.0863 10.5188C48.1566 10.5193 48.2107 10.5361 48.2648 10.5529C48.2379 10.5956 48.2109 10.6382 48.1839 10.6808C48.146 10.6322 48.108 10.5836 48.0863 10.5188Z" fill="#FFB61D"/>
<path d="M14.0197 26.0681C13.5294 25.7165 13.3236 25.2136 13.1642 24.6863C13.143 24.6163 13.1927 24.5249 13.2095 24.4434C13.277 24.4794 13.3669 24.4989 13.4079 24.5545C13.534 24.7256 13.618 24.9321 13.7603 25.0863C14.2482 25.615 14.8816 25.7392 15.5253 25.5175C16.147 25.3034 16.5391 24.7909 16.6213 24.1357C16.7006 23.5033 16.2026 22.4843 15.3081 22.334C14.7806 22.2454 14.3759 22.3994 13.9566 22.6485C13.8833 22.6921 13.7663 22.6622 13.6696 22.6662C13.7131 22.5827 13.7355 22.4712 13.8034 22.42C14.863 21.6212 16.0279 22.0763 16.674 22.9723C16.8902 23.2721 16.9651 23.7057 17.0108 24.0893C17.0862 24.7222 17.002 25.3209 16.5147 25.8281C15.9973 26.3667 14.8854 26.5813 14.2544 26.1831C14.1874 26.1408 14.109 26.1168 14.0197 26.0681ZM14.9125 26.1168C15.59 26.1458 16.1584 25.9423 16.5291 25.3397C16.599 25.2261 16.6313 25.0893 16.6809 24.9633C16.5904 25.0436 16.4899 25.115 16.4112 25.2055C15.7992 25.9093 15.0448 25.9987 14.2036 25.7276C14.1518 25.7109 14.0983 25.6992 14.0455 25.6852C14.0784 25.7425 14.098 25.8309 14.1465 25.8518C14.3759 25.9503 14.6131 26.0302 14.9125 26.1168Z" fill="#FFB61D"/>
<path d="M15.2209 23.1138C15.3129 23.1702 15.3887 23.2105 15.4644 23.2507C15.4074 23.2754 15.352 23.3055 15.2929 23.3237C15.1377 23.3717 15.0658 23.697 15.1864 23.8549C15.2513 23.9397 15.3236 24.0452 15.4154 24.0784C15.7419 24.1965 15.608 24.4731 15.5782 24.6479C15.5296 24.9336 14.8449 25.1937 14.582 25.0693C14.5457 25.0522 14.4925 24.987 14.4955 24.9832C14.5427 24.9249 14.5891 24.8567 14.6527 24.8225C15.0233 24.6228 15.0477 24.2742 14.7031 24.0244C14.4212 23.82 14.4152 23.5813 14.6613 23.3084C14.7377 23.2237 14.763 23.0938 14.8158 22.9866C14.8571 22.9029 14.9047 22.8224 14.9496 22.7404C15.013 22.8145 15.0796 22.8862 15.1384 22.9638C15.1679 23.0028 15.1831 23.0526 15.2209 23.1138ZM15.2047 24.3312C15.2059 24.4406 15.2071 24.55 15.2082 24.6594C15.2308 24.6561 15.2732 24.6524 15.2732 24.6496C15.2711 24.5401 15.2656 24.4307 15.2588 24.3214C15.2583 24.3134 15.2447 24.3063 15.2047 24.3312Z" fill="#FFB61D"/>
<path d="M13.2406 23.8929C13.1702 23.8478 13.0614 23.7755 13.0711 23.7269C13.1239 23.4636 13.1952 23.2022 13.2857 22.9494C13.3073 22.8892 13.427 22.864 13.5015 22.8227C13.525 22.9175 13.5898 23.0257 13.5643 23.1047C13.4793 23.3677 13.3618 23.6202 13.2406 23.8929Z" fill="#FFB61D"/>
<path d="M66.1592 20.9062C66.3218 20.4435 66.4752 19.9987 66.2488 19.53C66.2233 19.4774 66.2316 19.4014 66.2434 19.3399C66.2548 19.2805 66.2909 19.2259 66.3162 19.1693C66.3628 19.2087 66.4281 19.2388 66.4531 19.289C66.7138 19.8105 66.7225 20.3507 66.5041 20.8809C66.0627 21.9529 65.1946 22.3709 64.1386 22.2029C63.4098 22.0869 62.8525 21.633 62.6065 20.8882C62.5867 20.8283 62.6095 20.7543 62.6125 20.6869C62.68 20.7165 62.7709 20.7279 62.8108 20.7791C62.9807 20.9968 63.1026 21.2621 63.3015 21.4455C64.2206 22.2931 65.5951 22.0099 66.1592 20.9062Z" fill="#FFB61D"/>
<path d="M64.5684 20.3218C64.4531 20.1848 64.3481 20.0684 64.2575 19.9417C64.2123 19.8785 64.1465 19.7705 64.1705 19.7274C64.2929 19.5068 64.4725 19.3141 64.4576 19.0366C64.5324 19.0485 64.6624 19.0427 64.6729 19.0753C64.7347 19.2671 64.7995 19.4672 64.8035 19.6657C64.8079 19.879 64.8613 20.0084 65.0628 20.1099C65.5633 20.3618 65.589 20.7672 65.1617 21.1351C65.0979 21.19 65.1037 21.3228 65.0704 21.4171C65.044 21.492 65.007 21.5633 64.9747 21.6361C64.9074 21.5908 64.8337 21.5525 64.7739 21.4988C64.5495 21.2976 64.6159 21.0308 64.6152 20.7774C64.6148 20.6309 64.5954 20.4845 64.5684 20.3218ZM65.0716 20.4354C65.0068 20.4572 64.942 20.479 64.8772 20.5007C64.9589 20.6569 65.0406 20.813 65.1223 20.9691C65.1237 20.8095 65.1255 20.65 65.1257 20.4904C65.1257 20.4829 65.1116 20.4754 65.0716 20.4354Z" fill="#FFB61D"/>
<path d="M63.562 18.5686C63.0862 18.8758 62.8044 19.2821 62.7324 19.8277C62.7234 19.8958 62.6977 19.9643 62.6668 20.0262C62.6452 20.0696 62.6016 20.102 62.5678 20.1393C62.5367 20.0875 62.4853 20.0385 62.4776 19.9835C62.4148 19.5343 62.595 19.1578 62.861 18.8187C63.1895 18.3998 63.6286 18.1414 64.1387 18.0031C64.209 17.9841 64.2968 17.98 64.3625 18.0055C64.4535 18.0407 64.5312 18.1104 64.6146 18.1653C64.5415 18.197 64.4697 18.2323 64.3949 18.2596C64.1232 18.3586 63.8505 18.455 63.562 18.5686Z" fill="#FFB61D"/>
<path d="M64.958 18.244C65.0582 18.1953 65.203 18.1026 65.2856 18.1416C65.5405 18.2619 65.7758 18.4266 66.0084 18.5889C66.0534 18.6203 66.0516 18.7188 66.0713 18.7864C65.9975 18.7946 65.9046 18.8356 65.8528 18.8056C65.5546 18.6331 65.266 18.4438 64.958 18.244Z" fill="#FFB61D"/>
<path d="M42.8653 23.195C42.7354 22.9136 42.5857 22.6724 42.4844 22.4123C42.4363 22.2889 42.4808 22.1293 42.4833 21.9862C42.5674 22.0969 42.6624 22.2011 42.7334 22.3197C42.9455 22.6741 43.1096 23.0644 43.3624 23.3856C43.8859 24.0507 44.6327 24.1311 45.4093 23.8012C46.3439 23.4043 46.8539 22.6056 46.9806 21.6956C47.0814 20.9716 46.856 20.1857 46.162 19.6829C46.1036 19.6406 46.1043 19.5168 46.0775 19.4309C46.1566 19.4302 46.2467 19.4043 46.313 19.4331C46.7335 19.6157 46.9098 20.0138 47.078 20.3906C47.2989 20.8856 47.3882 21.4449 47.2567 21.9544C47.1425 22.3973 46.8332 22.7935 46.591 23.1989C46.1842 23.88 45.5042 24.1691 44.7793 24.2718C44.441 24.3198 44.0304 24.1627 43.7156 23.9861C43.3921 23.8046 43.1455 23.486 42.8653 23.195Z" fill="#FFB61D"/>
<path d="M45.8521 19.9484C45.7674 20.2406 45.4625 20.4988 45.8488 20.765C45.8674 20.7779 45.8538 20.8813 45.8243 20.9072C45.7961 20.9319 45.7041 20.9317 45.6802 20.9057C45.4848 20.6934 45.4528 20.8959 45.3993 21.0153C45.3154 21.203 45.3296 21.357 45.4466 21.5594C45.5843 21.7977 45.721 22.1088 45.4606 22.3814C45.3767 22.4692 45.2725 22.5945 45.1726 22.5994C44.8728 22.614 44.6803 22.7286 44.5653 23.0104C44.5325 23.0907 44.4103 23.1344 44.3291 23.1949C44.3173 23.0886 44.3035 22.9824 44.2943 22.8758C44.2832 22.7462 44.2946 22.6112 44.2611 22.4882C44.2357 22.3949 44.1324 22.323 44.1066 22.2297C44.088 22.1624 44.1184 22.0541 44.1677 22.0053C44.1995 21.9738 44.3286 21.9903 44.3736 22.0306C44.6142 22.246 44.6148 22.1755 44.7113 21.8898C44.8099 21.5977 44.7676 21.4612 44.5669 21.2887C44.3592 21.1104 44.3757 20.8611 44.5002 20.6704C44.5959 20.5239 44.801 20.3513 44.9504 20.3575C45.2726 20.3711 45.4107 20.2276 45.5316 19.9721C45.6637 19.6932 45.7061 19.6952 45.8521 19.9484ZM44.9756 20.6626C44.8998 20.7577 44.7904 20.8438 44.7618 20.9513C44.7464 21.0092 44.8694 21.104 44.93 21.1821C44.9871 21.0969 45.0422 21.0104 45.1021 20.9273C45.1268 20.893 45.1758 20.8714 45.1895 20.8349C45.242 20.6947 45.1834 20.6395 44.9756 20.6626ZM45.2028 21.9288C45.1956 21.8783 45.1885 21.8279 45.1813 21.7774C45.1296 21.8001 45.0604 21.8096 45.0305 21.8489C44.9908 21.9012 44.9742 21.9754 44.9612 22.0428C44.9444 22.1295 44.941 22.2189 44.9319 22.3072C45.0075 22.2607 45.0936 22.2248 45.1546 22.1638C45.191 22.1275 45.1881 22.0517 45.2028 21.9288Z" fill="#FFB61D"/>
<path d="M42.8166 20.2244C43.3381 19.6292 44.042 19.4123 44.7318 19.1724C44.7991 19.149 44.8848 19.156 44.9561 19.1732C45.0209 19.1888 45.0776 19.2376 45.1379 19.2718C45.085 19.3242 45.0415 19.3986 44.9778 19.4255C44.5007 19.6267 44.0176 19.8136 43.5405 20.0147C43.05 20.2215 42.8584 20.6488 42.7303 21.1267C42.7022 21.2315 42.6087 21.3187 42.5453 21.414C42.5088 21.2959 42.4154 21.1594 42.4466 21.0632C42.538 20.7804 42.6789 20.5136 42.8166 20.2244Z" fill="#FFB61D"/>
<path d="M43.9529 24.5423C43.6024 24.5003 43.3518 24.3141 43.1649 24.04C43.1427 24.0075 43.1732 23.9391 43.1793 23.8874C43.2179 23.8947 43.2648 23.8903 43.2937 23.911C43.5338 24.0832 43.7709 24.2593 44.0057 24.4385C44.0121 24.4433 43.9821 24.4958 43.9529 24.5423Z" fill="#FFB61D"/>
</svg>
