<svg width="64" height="75" viewBox="0 0 64 75" fill="none" xmlns="http://www.w3.org/2000/svg">
<path fill-rule="evenodd" clip-rule="evenodd" d="M0.0169258 4.41181C0.473278 9.09949 3.58374 11.9504 5.40702 15.936C6.87308 19.1407 6.78361 23.3127 9.31012 27.9875C11.2569 31.5896 14.0586 34.5822 15.3941 38.5562C17.0005 43.336 16.2298 48.6963 16.1107 53.8392C15.9916 58.9821 16.9048 64.8391 20.5706 67.5965C19.0504 71.3628 37.3045 69.5445 42.1536 69.6679C45.0503 68.7925 48.2164 65.2085 48.7863 60.9674C49.3562 56.7262 48.989 52.1229 50.8216 48.4176C51.7925 46.4546 53.3046 44.9346 54.3092 42.9955C57.0813 37.6446 55.3904 30.7681 55.7869 24.5071C56.4639 13.8172 67.4608 11.872 62.8924 2.38696C60.5812 -2.41156 49.6737 1.52607 35.1358 1.42204C18.3672 1.30204 -0.647339 -2.41156 0.0169258 4.41181Z" fill="#64FCD9"/>
<path fill-rule="evenodd" clip-rule="evenodd" d="M28.8186 18.0076C27.827 20.0811 26.8354 22.1545 25.8438 24.228C24.8117 26.3863 23.7723 28.9217 24.8148 31.075C25.6555 32.8117 27.5718 33.6847 29.1977 34.7235C30.8237 35.7623 32.4148 37.5026 31.9618 39.3782C31.5451 41.1034 29.6227 41.9723 27.8871 42.3435C21.0957 43.7959 13.5885 41.1203 9.24669 35.6998C8.86633 35.2249 8.4908 34.671 8.54522 34.0651C8.61873 33.2465 9.42397 32.715 10.1651 32.3598C13.2911 30.8612 16.8422 30.2622 20.2869 30.6525C20.9681 30.7296 21.6872 30.8395 22.3165 30.5673C23.3162 30.1348 23.6984 28.9303 23.8722 27.8551C24.1768 25.9715 24.1939 24.0416 23.9227 22.1529C23.8353 21.5444 23.6781 20.8758 23.1698 20.5301C22.6615 20.1843 21.7531 20.5127 21.8323 21.1223C22.1189 23.3267 20.2187 25.2824 18.1449 26.0831C16.0712 26.8837 13.7848 26.8984 11.6214 27.4096C8.97263 28.0355 6.50954 29.4274 4.60683 31.3734C3.35754 32.6512 2.32438 34.2232 2.05892 35.9904C1.79347 37.7576 2.42728 39.7276 3.9159 40.7163C6.48361 42.4217 9.05133 44.1271 11.619 45.8324C12.64 46.5105 13.7813 47.8129 13.0061 48.7622C17.4979 50.2354 20.4783 54.7049 21.5041 59.3195C22.5299 63.9341 21.9386 68.7358 21.3432 73.4254C24.9697 74.8132 28.9844 74.6001 32.8604 74.3671C35.7751 74.1919 38.6897 74.0167 41.6044 73.8415C42.4483 73.7908 43.5491 73.4889 43.5577 72.6435C43.5995 68.5531 43.6532 64.3867 44.9283 60.4999C46.2035 56.6131 48.9176 52.9787 52.783 51.64C52.2544 51.1402 52.8564 50.2867 53.4463 49.8611C55.3523 48.4857 57.5017 47.4395 59.2458 45.864C60.9899 44.2885 62.3201 41.9642 61.8757 39.6563C61.6438 38.4523 60.9571 37.3859 60.1983 36.4228C58.7634 34.6012 57.0168 33.0258 55.0574 31.7858C53.4077 30.7417 51.5916 29.9203 50.1661 28.5863C49.2399 27.7194 48.7078 26.5271 48.4692 25.3047C48.3406 24.6458 48.1488 23.9937 48.3619 23.344C48.627 22.5359 47.3528 21.9517 46.6498 22.4303C45.9468 22.9089 45.7654 23.849 45.6429 24.6906C45.2729 27.2325 45.2185 30.4468 47.4856 31.6546C49.3778 32.6628 51.3164 33.7074 52.7139 35.3334C54.1114 36.9594 54.8659 39.3222 54.0232 41.2938C52.7698 44.2264 48.9118 44.8515 45.7268 44.6862C43.8712 44.5898 41.9543 44.3476 40.3692 43.378C38.7842 42.4085 37.6184 40.5382 37.9938 38.7185C38.7172 35.2124 44.033 34.4887 45.1871 31.0999C45.6699 29.6826 45.2871 28.1329 44.9022 26.6859C44.234 24.1733 43.9992 20.7583 42.8974 19.148C41.29 16.7987 41.0376 19.9426 28.8186 18.0076Z" fill="white"/>
<path fill-rule="evenodd" clip-rule="evenodd" d="M28.8186 18.0075C27.3423 18.1255 26.8354 22.1545 25.8438 24.228C24.8117 26.3863 23.7723 28.9216 24.8148 31.075C25.6555 32.8117 27.5718 33.6847 29.1977 34.7235C30.8237 35.7623 32.4148 37.5026 31.9618 39.3781C31.5451 41.1034 29.6227 41.9723 27.8871 42.3435C21.0957 43.7959 13.5885 41.1202 9.24669 35.6997C8.86633 35.2249 8.4908 34.671 8.54522 34.065C8.61873 33.2464 9.42397 32.715 10.1651 32.3597C13.2911 30.8612 16.8422 30.2622 20.2869 30.6524C20.9681 30.7296 21.6872 30.8394 22.3165 30.5672C23.3162 30.1348 23.6984 28.9303 23.8722 27.855C24.1768 25.9714 24.1939 24.0416 23.9227 22.1529C23.8353 21.5444 23.6781 20.8758 23.1698 20.53C22.6615 20.1843 21.7531 20.5126 21.8323 21.1222C22.1189 23.3266 20.2187 25.2823 18.1449 26.083C16.0712 26.8837 13.7848 26.8984 11.6214 27.4096C8.97263 28.0355 6.50954 29.4273 4.60683 31.3734C3.35754 32.6512 2.32438 34.2231 2.05892 35.9903C1.79347 37.7575 2.42728 39.7276 3.9159 40.7163C6.48361 42.4216 9.05133 44.127 11.619 45.8324C12.64 46.5105 13.7813 47.8129 13.0061 48.7622C17.4979 50.2354 20.4783 54.7049 21.5041 59.3195C22.5299 63.9341 21.9386 68.7358 21.3432 73.4253C24.9697 74.8131 28.9844 74.6 32.8604 74.367C35.7751 74.1918 38.6897 74.0166 41.6044 73.8414C42.4483 73.7907 43.5491 73.4888 43.5577 72.6435C43.5995 68.553 43.6532 64.3867 44.9283 60.4999C46.2035 56.613 48.9176 52.9787 52.783 51.64C52.2544 51.1402 52.8564 50.2867 53.4463 49.861C55.3523 48.4857 57.5017 47.4395 59.2458 45.8639C60.9899 44.2884 62.3201 41.9642 61.8757 39.6562C61.6438 38.4522 60.9571 37.3859 60.1983 36.4227C58.7634 34.6012 57.0168 33.0258 55.0574 31.7857C53.4077 30.7416 51.5916 29.9203 50.1661 28.5862C49.2399 27.7194 48.7078 26.5271 48.4692 25.3047C48.3406 24.6458 48.1488 23.9937 48.3619 23.344C48.627 22.5359 47.3528 21.9516 46.6498 22.4302C45.9468 22.9089 45.7654 23.849 45.6429 24.6906C45.2729 27.2325 45.2185 30.4467 47.4856 31.6546C49.3778 32.6627 51.3164 33.7073 52.7139 35.3333C54.1114 36.9593 54.8659 39.3222 54.0232 41.2937C52.7698 44.2264 48.9118 44.8514 45.7268 44.6861C43.8712 44.5898 41.9543 44.3475 40.3692 43.378C38.7842 42.4085 37.6184 40.5382 37.9938 38.7184C38.7172 35.2123 44.033 34.4887 45.1871 31.0999C45.6699 29.6825 45.2871 28.1329 44.9022 26.6859C44.234 24.1732 43.9992 20.7582 42.8974 19.1479C42.1165 18.0066 38.6891 18.6256 35.6446 18.6022C32.4226 18.5774 29.5777 17.9469 28.8186 18.0075ZM42.5233 33.3241C40.9323 34.2538 39.3662 35.3541 38.4091 36.9288C37.452 38.5036 37.2423 40.6552 38.3342 42.1396C38.5509 42.4342 38.2815 42.8424 37.9909 43.0645C36.9644 43.8491 35.5399 43.9797 34.2953 43.6326C33.0508 43.2856 31.9646 42.5125 31.0188 41.6323C32.3233 40.857 32.7928 39.0828 32.3737 37.6244C31.9545 36.1659 30.818 35.0086 29.5445 34.1833C28.2896 33.37 26.8409 32.7923 25.8511 31.6713C24.4004 30.0284 24.3377 27.3306 25.7103 25.622C26.0515 25.1974 26.4663 24.8322 26.7709 24.3807C27.7935 22.8645 27.4053 20.6618 28.5741 19.2552C28.8113 18.9697 29.1751 19.0613 29.536 19.1479C31.7753 19.6855 34.0846 19.3682 36.3856 19.3682C38.2036 19.3682 40.0909 18.9676 41.8557 19.4679C42.0387 19.5198 42.2241 19.5054 42.3685 19.6291C42.5511 19.7854 42.6463 20.0184 42.7286 20.2442C43.0391 21.0956 43.2594 21.9798 43.3847 22.8774C43.4795 23.5572 43.521 24.2496 43.72 24.9066C43.9007 25.5035 44.2062 26.0535 44.4624 26.6222C44.8682 27.5229 45.1549 28.4939 45.1479 29.4817C45.1406 30.4695 44.8173 31.4778 44.1345 32.1917C43.6792 32.6678 43.0921 32.9917 42.5233 33.3241ZM23.5133 43.9362C23.5072 43.647 23.7789 43.4125 24.0629 43.3574C24.3469 43.3023 24.6378 43.3815 24.9162 43.46C24.9933 43.4817 25.0864 43.5235 25.0864 43.6035C25.0865 46.2673 25.0866 48.9312 25.0866 51.5951C25.0866 51.8079 25.115 52.0672 25.3092 52.1541C25.3403 49.4007 25.3393 46.647 25.3062 43.8936C25.3024 43.5742 25.5797 43.3067 25.8854 43.2141C26.1911 43.1214 26.5192 43.1636 26.8357 43.2066C26.7934 46.2474 26.8046 49.2889 26.8696 52.3293C27.0794 52.2483 27.1132 51.9706 27.1129 51.7456C27.1098 48.9032 27.1067 46.0607 27.1036 43.2183C27.1033 43.0033 27.3696 42.9081 27.5816 42.8727C27.9172 42.8167 28.2528 42.7607 28.5883 42.7047C28.5906 53.0131 28.5929 63.3215 28.5952 73.6299C28.5952 73.9339 28.2972 74.1707 27.996 74.2119C27.6948 74.2531 27.3946 74.1494 27.1083 74.0473C27.1103 69.2849 27.1078 64.5225 27.1007 59.7601C26.8691 59.8051 26.817 60.1086 26.817 60.3445C26.8176 64.8666 26.8181 69.3888 26.8186 73.911C26.8187 74.0466 26.6522 74.1086 26.5188 74.1334C26.2755 74.1787 26.0226 74.2237 25.7831 74.1613C25.5435 74.0988 25.3214 73.8962 25.3215 73.6486C25.3243 69.1089 25.3271 64.5691 25.3299 60.0294C25.33 59.8599 25.2024 59.6178 25.0672 59.72C25.106 64.4925 25.1047 69.2652 25.0633 74.0376C24.7482 74.0791 24.4217 74.1198 24.1176 74.0275C23.8136 73.9351 23.5373 73.6709 23.5377 73.3532C23.5431 68.9956 23.5485 64.6381 23.554 60.2806C23.5543 60.0017 23.5137 59.6582 23.2546 59.5548C23.2534 64.0638 23.2521 68.5729 23.2509 73.0819C23.2508 73.2514 23.2482 73.4305 23.1605 73.5755C22.9445 73.9329 22.3456 73.8204 22.1147 73.4724C21.8838 73.1244 21.9113 72.6717 21.9502 72.2559C22.2695 68.841 22.7658 65.3923 22.264 61.9995C22.1393 61.1561 21.9533 60.3219 21.8561 59.4749C21.7488 58.5405 21.7502 57.5975 21.7517 56.6569C21.7588 52.2776 21.7658 47.8983 21.7729 43.519C21.7731 43.4411 21.7748 43.3579 21.819 43.2938C21.888 43.1939 22.0278 43.181 22.1491 43.1776C22.6218 43.1643 23.2632 43.3033 23.2617 43.7763C23.2535 46.2941 23.2453 48.8119 23.2371 51.3296C23.2361 51.6356 23.2595 51.9914 23.5102 52.1668C23.5695 49.4237 23.5705 46.6793 23.5133 43.9362ZM6.02184 41.5926C5.07389 40.9441 4.12245 40.293 3.27359 39.5193C2.95271 39.2269 2.64005 38.9072 2.46902 38.5081C2.28016 38.0674 2.2811 37.5695 2.32785 37.0923C2.64391 33.8662 4.9263 31.0745 7.72338 29.4362C10.5204 27.798 13.7857 27.1577 17.0063 26.79C17.8282 26.6962 18.6736 26.6122 19.4112 26.2378C20.2724 25.8007 20.9046 25.0023 21.3332 24.137C21.7619 23.2716 22.0101 22.3307 22.2863 21.4053C22.3892 21.0602 22.6539 20.6313 22.9908 20.7582C23.1909 20.8336 23.2678 21.0712 23.3152 21.2797C23.8432 23.6008 23.8503 26.0388 23.3359 28.363C23.1459 29.2215 22.7425 30.2042 21.8815 30.3823C21.1394 30.5358 20.4406 30.0027 19.6947 29.869C19.2231 29.7844 18.7393 29.8622 18.2665 29.94C17.363 30.0887 16.4596 30.2374 15.5561 30.3861C14.533 30.5545 13.5074 30.7235 12.5097 31.0058C11.006 31.4314 9.5707 32.1178 8.33156 33.0701C8.00344 33.3222 7.88412 33.7784 7.94066 34.1883C7.9972 34.5983 8.20251 34.9717 8.42441 35.321C10.3005 38.2741 13.4894 40.104 16.6354 41.6347C15.3643 43.1788 14.3465 44.9311 13.6352 46.8004C11.0974 45.0645 8.55963 43.3285 6.02184 41.5926ZM47.3436 22.4215C47.6033 22.5355 47.7702 22.7942 47.8761 23.0573C48.377 24.3021 47.8213 25.7765 48.2941 27.0323C48.6981 28.1052 49.7487 28.7689 50.7203 29.3773C52.4924 30.4871 54.2202 31.6676 55.8981 32.9152C57.5156 34.1178 59.103 35.3991 60.3373 36.9926C60.7867 37.5728 61.1906 38.1996 61.4242 38.8954C61.9663 40.5107 61.5153 42.3352 60.5862 43.7633C59.657 45.1915 58.2986 46.2832 56.9061 47.2649C55.5074 48.2509 54.0494 49.1528 52.5426 49.9641C52.441 50.0188 52.325 50.0747 52.2148 50.0407C52.0815 49.9995 52.0207 49.8493 51.9778 49.7166C51.4906 48.2081 51.0989 46.6686 50.8059 45.1106C50.7673 44.9056 50.7554 44.6432 50.938 44.5423C52.693 43.5721 54.115 42.012 54.9189 40.1748C55.3457 39.1994 55.1057 38.0352 54.558 37.1221C54.0103 36.209 53.1909 35.4963 52.3855 34.7998C51.0657 33.6587 49.7459 32.5176 48.4261 31.3764C47.9815 30.992 47.4805 30.5858 46.8928 30.5911C46.2177 30.5972 45.9104 29.7557 45.8417 29.0841C45.6208 26.9226 45.891 24.7123 46.6263 22.6677C46.7223 22.4008 47.0839 22.3076 47.3436 22.4215ZM29.3022 42.3715C29.6748 42.2433 30.0475 42.1152 30.4201 41.987C30.4241 52.5647 30.4281 63.1424 30.4321 73.72C30.4322 73.813 30.4298 73.9136 30.3732 73.9874C30.3159 74.062 30.2181 74.0901 30.127 74.1138C29.8801 74.1781 29.6227 74.2428 29.3727 74.1917C29.1227 74.1406 28.8843 73.9362 28.8843 73.681C28.8857 63.4387 28.8872 53.1963 28.8886 42.9539C28.8886 42.8202 28.8917 42.6765 28.9701 42.5682C29.0468 42.4622 29.1785 42.414 29.3022 42.3715ZM32.1873 73.6007C32.1872 73.718 32.1836 73.8459 32.1084 73.9359C32.019 74.043 31.8627 74.0578 31.7233 74.0645C31.372 74.0814 31.0207 74.0983 30.6694 74.1152C30.6689 63.3759 30.6684 52.6366 30.6679 41.8973C31.3774 42.2491 32.191 42.759 32.1909 43.551C32.1897 53.5675 32.1885 63.5841 32.1873 73.6007ZM41.111 73.1974C41.111 73.3107 41.1079 73.4335 41.0376 73.5224C40.9574 73.624 40.8161 73.649 40.6878 73.6669C40.457 73.6991 40.2177 73.7307 39.9944 73.6643C39.771 73.598 39.5673 73.4048 39.5674 73.1717C39.5685 63.2422 39.5697 53.3127 39.5708 43.3832C40.2795 43.6453 41.1164 44.0805 41.1162 44.836C41.1145 54.2898 41.1128 63.7436 41.111 73.1974ZM35.6793 44.2732C35.7624 44.3547 35.7678 44.4846 35.7678 44.601C35.7699 54.128 35.772 63.6551 35.7741 73.1821C35.7742 73.4555 35.5394 73.6838 35.2791 73.7674C35.0188 73.8509 34.7375 73.8219 34.4658 73.792C34.3926 73.7839 34.3111 73.7714 34.266 73.7132C34.2289 73.6653 34.2273 73.5997 34.2273 73.5391C34.2285 63.694 34.2298 53.8489 34.231 44.0038C34.6288 44.0621 35.0265 44.1204 35.4243 44.1787C35.5156 44.1921 35.6134 44.2086 35.6793 44.2732ZM36.0988 44.1945C36.1682 44.1143 36.2761 44.0814 36.3781 44.0523C36.7673 43.9409 37.1565 43.8296 37.5457 43.7182C37.549 53.6762 37.5403 63.6341 37.5195 73.592C37.1066 73.6103 36.6938 73.6286 36.2809 73.6468C36.2079 73.6501 36.1268 73.6505 36.0723 73.6018C36.0131 73.5489 36.0088 73.4593 36.0088 73.3799C36.0088 63.7756 36.0088 54.1714 36.0089 44.5672C36.0089 44.4364 36.0132 44.2934 36.0988 44.1945ZM38.9384 73.6244C38.5556 73.6416 38.1704 73.6062 37.7972 73.5193C37.7895 64.1551 37.7818 54.7909 37.7741 45.4268C37.7734 44.5857 37.8082 43.6523 38.3946 43.0494C38.5678 42.8712 38.8447 42.7303 39.0568 42.8596C39.2509 42.9779 39.2726 43.2462 39.2726 43.4735C39.2729 53.4123 39.2732 63.3512 39.2736 73.2901C39.2736 73.3702 39.2716 73.4566 39.2234 73.5206C39.1604 73.6042 39.0429 73.6196 38.9384 73.6244ZM33.9345 44.4762C33.934 54.137 33.9334 63.7979 33.9328 73.4587C33.9328 73.7038 33.7133 73.9045 33.4764 73.967C33.2394 74.0294 32.989 73.9857 32.7479 73.9418C32.6586 73.9256 32.5614 73.9048 32.5043 73.8341C32.4499 73.7667 32.4474 73.6725 32.4474 73.5859C32.4481 63.4588 32.4488 53.3317 32.4495 43.2046C33.1228 43.4027 33.9346 43.7743 33.9345 44.4762ZM42.3276 44.5699C42.6287 44.7119 42.8844 45.0019 42.8844 45.3348C42.8823 54.5234 42.8803 63.7119 42.8783 72.9005C42.8783 73.0253 42.8777 73.1534 42.8328 73.2699C42.6741 73.6816 42.1113 73.7097 41.6723 73.6669C41.5688 73.6568 41.4519 73.6393 41.3923 73.554C41.3501 73.4937 41.3486 73.4149 41.3486 73.3413C41.35 63.6886 41.3514 54.0359 41.3528 44.3832C41.685 44.4044 42.0264 44.4279 42.3276 44.5699ZM44.6412 57.6206C44.6447 58.7321 44.648 59.8474 44.5059 60.9497C44.3092 62.475 43.8376 63.9509 43.5586 65.4633C43.3361 66.6692 43.2369 67.8939 43.138 69.1161C43.1337 61.0597 43.1293 53.0032 43.125 44.9467C43.6253 44.8792 44.1444 44.958 44.6021 45.1708C44.6151 49.3208 44.6282 53.4707 44.6412 57.6206ZM21.4753 43.2062C21.4748 48.1038 21.4742 53.0014 21.4737 57.899C21.2249 56.6473 20.7968 55.4314 20.2065 54.3C19.9777 53.8615 19.9737 53.3444 19.975 52.8497C19.9833 49.5234 19.9917 46.197 20 42.8706C20.5069 42.8896 21.0101 43.004 21.4753 43.2062ZM46.3334 56.0009C46.3341 52.5473 46.3348 49.0936 46.3355 45.64C46.3356 45.5334 46.3385 45.418 46.4043 45.3342C46.4813 45.236 46.6186 45.213 46.7428 45.2009C47.2213 45.1544 47.705 45.1622 48.1818 45.2242C48.1807 47.9196 48.1796 50.6151 48.1786 53.3105C48.1785 53.4594 48.1779 53.6115 48.1293 53.7522C48.0764 53.9051 47.9709 54.0331 47.8674 54.1574C47.3561 54.7719 46.8447 55.3864 46.3334 56.0009ZM19.1918 42.5541C19.4957 42.6923 19.7553 42.9823 19.7548 43.3162C19.7501 46.6426 19.7454 49.9691 19.7407 53.2956C19.2771 52.711 18.8134 52.1265 18.3498 51.5419C18.2053 51.3598 18.1991 51.1077 18.1994 50.8752C18.2034 48.0446 18.2073 45.2141 18.2112 42.3835C18.5448 42.3986 18.8878 42.4158 19.1918 42.5541ZM45.6909 57.4209C45.4319 58.0288 45.173 58.6368 44.914 59.2447C44.9124 54.7341 44.9107 50.2234 44.9091 45.7128C44.9091 45.5518 44.9118 45.3809 44.9985 45.2453C45.1965 44.936 45.7149 45.0301 45.9295 45.3281C46.1441 45.6262 46.1435 46.0226 46.1353 46.3898C46.0686 49.3537 46.0559 52.3189 46.0973 55.2832C46.1029 55.68 46.109 56.0807 46.0262 56.4687C45.9559 56.7984 45.823 57.1108 45.6909 57.4209ZM16.4838 49.999C16.4219 49.8722 16.4209 49.7254 16.421 49.5843C16.4234 47.3742 16.4258 45.1641 16.4282 42.954C16.4287 42.5438 16.4822 42.0456 16.8547 41.8739C17.1834 41.7223 17.5868 41.9467 17.7593 42.2648C17.9319 42.583 17.9342 42.9626 17.9324 43.3245C17.9192 45.9539 17.9059 48.5833 17.8927 51.2126C17.5143 50.9069 17.1359 50.6012 16.7575 50.2954C16.652 50.2102 16.5433 50.1209 16.4838 49.999ZM49.6251 53.0521C49.2419 53.2622 48.8587 53.4723 48.4755 53.6825C48.4734 50.9214 48.4713 48.1604 48.4692 45.3994C48.4691 45.323 48.4715 45.2396 48.5209 45.1813C48.5688 45.1248 48.6475 45.1079 48.7203 45.0942C49.0422 45.034 49.3641 44.9737 49.6859 44.9134C49.7589 44.8997 49.8435 44.889 49.8993 44.938C49.9518 44.984 49.9557 45.0628 49.9557 45.1326C49.956 47.584 49.9563 50.0354 49.9565 52.4868C49.9565 52.6075 49.9547 52.7352 49.892 52.8383C49.832 52.9369 49.7262 52.9966 49.6251 53.0521ZM15.1677 44.3291C15.4892 43.8121 15.8107 43.295 16.1322 42.778C16.133 45.1389 16.1338 47.4999 16.1347 49.8608C15.7248 49.6349 15.3149 49.4089 14.905 49.183C14.8261 49.1395 14.7437 49.0927 14.6972 49.0156C14.6495 48.9365 14.6478 48.839 14.6473 48.7467C14.6428 47.7334 14.6382 46.7201 14.6336 45.7068C14.6313 45.2073 14.904 44.7533 15.1677 44.3291ZM51.438 52.1031C51.0437 52.2968 50.6494 52.4906 50.255 52.6843C50.2535 50.1089 50.252 47.5335 50.2505 44.9581C50.2504 44.8272 50.342 44.6403 50.4515 44.712C50.6423 46.2673 51.0009 47.802 51.5191 49.2808C51.7831 50.0343 51.8739 50.8479 51.7826 51.6411C51.772 51.7327 51.7579 51.8274 51.7075 51.9046C51.6457 51.9992 51.5394 52.0533 51.438 52.1031ZM14.3001 46.0303C14.3762 46.9915 14.3786 47.9585 14.3074 48.9201C14.0828 48.8108 13.8582 48.7015 13.6337 48.5922C13.5332 48.5433 13.4205 48.4789 13.4018 48.3687C13.3911 48.3051 13.4155 48.2414 13.4394 48.1816C13.7263 47.4645 14.0132 46.7474 14.3001 46.0303ZM52.2758 51.2569C52.4452 51.4071 52.314 51.7486 52.0876 51.7466C52.0073 51.437 51.9998 51.1088 52.0658 50.7959C52.1923 50.9152 52.2659 51.0887 52.2637 51.2626C52.2613 51.4627 52.1261 51.1241 52.2758 51.2569Z" fill="#00160A"/>
<path fill-rule="evenodd" clip-rule="evenodd" d="M43.1483 27.7215C43.7253 28.1227 44.0335 28.8769 43.9027 29.5674C43.8346 29.9264 43.6617 30.2552 43.5129 30.5889C43.4753 30.6733 43.4484 30.7923 43.5267 30.8412C43.6066 30.8912 43.7034 30.8106 43.759 30.7345C44.4615 29.7734 44.3483 28.3059 43.5068 27.4638C43.4212 27.3781 43.3214 27.295 43.2012 27.2808C43.081 27.2666 42.9429 27.3531 42.9463 27.4741C42.9494 27.5849 43.0573 27.6583 43.1483 27.7215Z" fill="#00160A"/>
<path fill-rule="evenodd" clip-rule="evenodd" d="M41.2362 21.1083C40.9447 20.6788 40.5081 20.3497 40.015 20.1877C39.9202 20.1566 39.8176 20.1315 39.7219 20.1593C39.6262 20.1871 39.5447 20.2864 39.5704 20.3827C40.0911 20.4825 40.5713 20.7803 40.8921 21.2024C41.2045 21.6134 41.4042 22.1646 41.8808 22.3629C41.9813 22.4047 42.1251 22.4119 42.1712 22.3134C42.2308 22.1859 42.0631 22.0807 41.9414 22.01C41.6078 21.8164 41.4527 21.4275 41.2362 21.1083Z" fill="#00160A"/>
<path fill-rule="evenodd" clip-rule="evenodd" d="M26.8155 26.6854C26.892 26.5946 26.7752 26.4468 26.6567 26.4545C26.5381 26.4622 26.4475 26.5604 26.3773 26.6562C25.7685 27.4881 25.7324 28.6178 25.9475 29.626C25.9806 29.7811 26.0458 29.9627 26.2007 29.9965C26.3406 29.7652 26.2506 29.4713 26.1928 29.2072C26.001 28.3311 26.238 27.3715 26.8155 26.6854Z" fill="#00160A"/>
<path fill-rule="evenodd" clip-rule="evenodd" d="M29.3825 21.5665C29.5648 21.7255 29.8576 21.6721 30.0524 21.5289C30.2472 21.3856 30.3775 21.1736 30.5376 20.9923C30.8721 20.6133 31.3519 20.3659 31.8546 20.313C31.9538 20.3026 31.996 20.1639 31.9446 20.0784C31.8933 19.9929 31.7874 19.9567 31.6881 19.9467C31.1949 19.8968 30.7943 20.3101 30.444 20.6609C30.115 20.9903 29.7597 21.2935 29.3825 21.5665Z" fill="#00160A"/>
<path fill-rule="evenodd" clip-rule="evenodd" d="M36.7499 24.7677C36.7114 24.6756 36.6554 24.5835 36.5653 24.5407C36.4751 24.4979 36.3459 24.5277 36.3123 24.6216C36.509 24.7705 36.5347 25.097 36.3637 25.2748C36.4551 25.4025 36.6769 25.3562 36.7575 25.2214C36.8382 25.0867 36.8104 24.9126 36.7499 24.7677Z" fill="#00160A"/>
<path fill-rule="evenodd" clip-rule="evenodd" d="M34.5609 24.9223C34.636 24.7326 34.7853 24.5735 34.9699 24.4865C34.8042 24.379 34.5642 24.4057 34.4263 24.547C34.2884 24.6883 34.2675 24.929 34.379 25.0919C34.4355 25.1745 34.5427 25.239 34.6338 25.1977C34.7249 25.1565 34.709 24.98 34.6093 24.9879L34.5609 24.9223Z" fill="#00160A"/>
<path fill-rule="evenodd" clip-rule="evenodd" d="M40.1304 21.7749C40.0524 21.5921 39.9551 21.412 39.8062 21.2802C39.4912 21.0016 38.9899 21.0035 38.6282 21.2179C38.2664 21.4324 38.0344 21.8213 37.9248 22.2273C37.8152 22.6333 37.8147 23.0599 37.8235 23.4803C37.8307 23.8265 37.8449 24.1789 37.9599 24.5056C38.0749 24.8322 38.307 25.1345 38.6328 25.2521C38.9959 25.3831 39.4177 25.2581 39.7087 25.0044C39.9996 24.7507 40.1746 24.3868 40.2781 24.015C40.4826 23.2802 40.4296 22.4764 40.1304 21.7749ZM38.5671 22.0044C38.6209 21.7546 38.885 21.5697 39.1382 21.6047C39.3913 21.6398 39.5953 21.8895 39.5791 22.1445C39.5614 22.4248 39.2759 22.658 38.9977 22.6195C38.7194 22.581 38.5081 22.279 38.5671 22.0044Z" fill="#00160A"/>
<path fill-rule="evenodd" clip-rule="evenodd" d="M31.2144 24.9998C31.6559 25.1879 32.1919 24.9932 32.5141 24.6375C32.8364 24.2818 32.9801 23.7991 33.0526 23.3246C33.1522 22.6732 33.1238 21.9656 32.7639 21.4135C32.6446 21.2304 32.4869 21.0663 32.2883 20.9753C31.7977 20.7507 31.1937 21.0477 30.8992 21.4997C30.6046 21.9518 30.5453 22.5133 30.5072 23.0515C30.4811 23.4205 30.4618 23.7971 30.5554 24.155C30.649 24.5129 30.874 24.8548 31.2144 24.9998ZM32.0364 22.3707C31.7175 22.555 31.2473 22.247 31.2887 21.8811C31.3218 21.5884 31.6567 21.3713 31.9374 21.4604C32.1211 21.5186 32.2627 21.6917 32.2835 21.8833C32.3044 22.0749 32.2032 22.2743 32.0364 22.3707Z" fill="#00160A"/>
<path fill-rule="evenodd" clip-rule="evenodd" d="M23.6171 53.3048C23.2403 53.7572 23.2425 54.4075 23.2987 54.9936C23.4008 56.0581 24.4617 56.9341 25.5264 56.8328C25.7205 56.8143 25.9326 56.7719 26.0981 56.875C26.3133 57.0092 26.3319 57.3098 26.3265 57.5634C26.3193 57.8989 26.2854 58.2868 26.0089 58.477C25.8236 58.6044 25.5815 58.6019 25.3567 58.5947C24.78 58.576 24.2034 58.5574 23.6267 58.5388C23.356 58.5301 23.263 58.9507 23.4456 59.1508C23.6282 59.3509 23.9284 59.3777 24.199 59.3913C24.7504 59.4189 25.3019 59.4465 25.8533 59.4741C26.0864 59.4857 26.3304 59.4954 26.5417 59.3963C27.0254 59.1696 27.1005 58.5251 27.1084 57.991C27.1131 57.678 27.1177 57.3649 27.1223 57.0519C27.1257 56.821 27.1257 56.5764 27.0068 56.3784C26.8644 56.1412 26.5802 56.0247 26.3058 55.9896C26.0314 55.9544 25.7525 55.9847 25.4768 55.9622C24.8762 55.9134 24.2577 55.5449 24.1141 54.9596C24.0035 54.5086 24.2062 54.0134 24.5636 53.7169C24.921 53.4204 25.4091 53.3096 25.8714 53.3538C25.9432 53.3607 26.0171 53.3718 26.0781 53.4102C26.3607 53.5878 26.1083 54.0815 26.3159 54.3429C26.4548 54.5178 26.7498 54.4888 26.9109 54.334C27.072 54.1793 27.126 53.9443 27.1435 53.7216C27.1731 53.343 27.0989 52.9216 26.8066 52.6792C26.6827 52.5765 26.5299 52.5149 26.3756 52.4692C25.4003 52.1803 24.2681 52.5232 23.6171 53.3048Z" fill="#00160A"/>
<path fill-rule="evenodd" clip-rule="evenodd" d="M26.7596 29.0927C26.6441 29.8516 27.106 30.5787 27.6353 31.1348C29.2976 32.881 31.7793 33.697 34.1902 33.6855C36.6011 33.674 38.9538 32.9051 41.1295 31.8662C42.0567 31.4234 43.0771 30.7586 43.1418 29.7332C43.2069 28.7006 42.2613 27.9075 41.3649 27.391C39.3227 26.2143 37.001 25.4886 34.6444 25.4488C32.2878 25.4089 29.9011 26.0756 27.9916 27.4573C27.4234 27.8685 26.8651 28.3993 26.7596 29.0927ZM39.7876 32.1898C39.3697 32.347 38.8373 32.4817 38.5273 32.1604C37.3974 30.9896 35.7356 30.4092 34.1085 30.4215C32.4813 30.4339 30.8913 31.0003 29.5014 31.8464C29.1081 32.0858 28.6306 31.7185 28.3315 31.3684C28.0567 31.0469 27.7938 30.7152 27.5436 30.3742C27.3269 30.0788 27.1124 29.757 27.0858 29.3916C27.0432 28.8076 27.4853 28.3064 27.9354 27.9317C29.0773 26.9811 30.4768 26.3428 31.9433 26.1037C31.996 26.4152 32.2807 26.6717 32.596 26.6916C32.9113 26.7116 33.2261 26.4932 33.3177 26.1908C33.4503 25.7531 34.0666 25.76 34.5133 25.8583C34.5883 25.8748 34.6689 25.8946 34.7183 25.9534C34.8267 26.0824 34.7114 26.2906 34.7817 26.4437C34.8363 26.5625 34.9801 26.6056 35.1073 26.6357C35.3378 26.6903 35.5886 26.7431 35.8042 26.6451C36.0198 26.5471 36.1413 26.227 35.966 26.0677C36.1848 26.0074 36.4185 25.9471 36.6347 26.0162C36.8508 26.0852 37.0226 26.3401 36.9193 26.5421C36.8063 26.7629 37.1198 26.9503 37.3621 27.0031C37.5599 27.0462 37.7798 27.0862 37.9544 26.9836C38.1289 26.8809 38.1705 26.5702 37.9818 26.4966C37.8877 26.5479 37.8174 26.6412 37.7941 26.7458C37.5794 26.7785 37.354 26.7353 37.1666 26.6257C37.07 26.4874 37.1881 26.2826 37.3483 26.2294C37.5084 26.1761 37.6825 26.2258 37.8438 26.2755C38.2874 26.4122 38.731 26.5488 39.1747 26.6854C39.3078 26.7265 39.4501 26.7736 39.5335 26.8853C39.617 26.9969 39.5976 27.1927 39.4655 27.2369C39.1482 27.4391 38.8196 26.9938 38.7037 26.6359C38.5008 26.9697 38.6987 27.4726 39.0747 27.5786C39.4506 27.6847 39.8821 27.3593 39.8836 26.9687C40.8857 27.374 41.7959 28.0048 42.5273 28.8007C42.6653 28.9508 42.8009 29.1141 42.8525 29.3113C42.9066 29.5183 42.8612 29.739 42.7871 29.9397C42.3394 31.1512 40.9965 31.7352 39.7876 32.1898ZM38.5698 32.5588C37.8283 32.8594 37.0464 33.0602 36.2517 33.1541C36.3739 32.8364 36.4979 32.4931 36.4136 32.1634C36.3293 31.8336 35.9358 31.5659 35.6425 31.7385C35.1388 32.0349 35.6711 32.9005 35.3393 33.3816C35.2202 32.9949 35.296 32.5676 35.1709 32.1827C35.0458 31.7979 34.5393 31.4828 34.2463 31.762C33.8928 32.0989 34.3387 32.7612 34.0644 33.1653C33.9339 33.3574 33.6447 33.4188 33.4474 33.2963C33.2501 33.1737 33.177 32.8871 33.2915 32.685C33.4069 32.4816 33.264 32.21 33.0558 32.1036C32.8475 31.9971 32.6009 32.0099 32.3675 32.0252C32.2543 32.0327 32.1324 32.0435 32.0464 32.1175C31.7792 32.3475 32.1322 32.8625 31.8897 33.1183C31.026 32.9202 30.1881 32.6099 29.4036 32.1978C30.823 31.3314 32.4394 30.7278 34.1022 30.7093C35.765 30.6908 37.4736 31.3084 38.5698 32.5588ZM34.3435 33.099C34.3439 32.8057 34.3443 32.5124 34.3447 32.2192C34.345 31.9877 34.7131 31.9287 34.8706 32.0984C35.0281 32.2681 35.026 32.5267 35.0146 32.7579C35.0091 32.8703 35.0035 32.9828 34.9979 33.0953C34.9941 33.1729 34.9824 33.264 34.9145 33.3018C34.813 33.3584 34.6549 33.2543 34.5818 33.3446C34.5344 33.4033 34.4319 33.3786 34.3885 33.317C34.345 33.2553 34.3434 33.1745 34.3435 33.099ZM32.9873 32.7288C32.9485 32.8882 33.0463 33.0909 32.9261 33.2026C32.8836 33.2422 32.8235 33.2566 32.7657 33.2621C32.4741 33.2898 32.1589 33.0788 32.1356 32.7868C32.12 32.592 32.2395 32.3952 32.4171 32.3136C32.5947 32.232 32.8181 32.2674 32.9658 32.3954C32.9992 32.4243 33.03 32.4593 33.0399 32.5023C33.0577 32.5789 33.0059 32.6524 32.9873 32.7288ZM35.6471 32.2832C35.6431 32.2182 35.6398 32.1494 35.6701 32.0917C35.7474 31.9448 35.9911 31.986 36.0805 32.1258C36.1699 32.2657 36.1518 32.446 36.1301 32.6106C36.1084 32.7751 36.0893 32.955 36.1772 33.0958C36.1034 33.1645 36.0239 33.2361 35.9247 33.2546C35.8256 33.2731 35.7049 33.2124 35.6986 33.1118C35.6814 32.8356 35.6643 32.5594 35.6471 32.2832ZM35.5121 26.4004C35.3642 26.3954 35.2085 26.388 35.0832 26.3092C34.958 26.2303 34.8816 26.0535 34.9621 25.9294C35.207 25.8506 35.4814 25.8679 35.7144 25.977C35.7137 26.1204 35.7131 26.2638 35.7124 26.4071C35.6456 26.4049 35.5789 26.4026 35.5121 26.4004ZM32.4226 26.3331C32.3209 26.4133 32.1696 26.2562 32.2127 26.1341C32.2559 26.012 32.3983 25.957 32.527 25.9424C32.6557 25.9278 32.7916 25.9372 32.908 25.8803C33.0277 25.8219 33.0911 26.0266 33.0674 26.1577C33.0569 26.2158 33.0443 26.2778 33.0021 26.319C32.8568 26.4605 32.5818 26.2074 32.4226 26.3331Z" fill="#00160A"/>
</svg>
