<svg width="71" height="67" viewBox="0 0 71 67" fill="none" xmlns="http://www.w3.org/2000/svg">
<path d="M56.4503 66.1965C63.8942 66.8462 77.3732 56.6352 67.0049 41.5484C56.2744 24.0673 74.594 11.561 59.5072 1.8756C48.5714 -5.14493 35.4264 10.0239 26.6256 7.01246C7.85187 1.8756 -4.02838 20.853 4.25091 32.9185C10.4376 41.9344 -4.56718 48.1295 1.45704 55.2693C8.16227 63.2163 13.4757 54.6255 23.3112 56.424C37.5909 59.0352 47.8256 65.4437 56.4503 66.1965Z" fill="#64FCD9"/>
<path d="M42.2978 4.52908L42.4162 4.59969L42.5334 4.67102C44.1859 5.68694 43.7616 7.3131 45.9336 9.72936C50.638 14.9629 55.136 20.3933 59.4138 26.0028L59.7511 26.446L59.849 26.5753C61.4411 28.6822 62.1416 30.0364 62.1809 31.6612C62.21 32.8628 63.4431 33.6702 62.5488 34.601L62.5005 34.6506L62.4958 34.6548L62.481 34.6711C62.2683 34.8995 62.0302 35.1024 61.7706 35.2753L61.701 35.3204L61.6793 35.3357C60.5848 36.082 59.2959 36.392 58.094 36.163L58.0297 36.1502L57.9775 36.139L57.9707 36.1849C56.7527 44.2169 54.2698 52.0557 50.642 59.3245L50.5317 59.5446L50.4184 59.7689L50.3534 59.8961L50.287 60.0237C49.9504 60.6641 49.7065 61.0182 49.342 61.3431C48.8325 61.7974 48.1867 62.0507 47.3896 62.1537C46.8253 62.2266 46.2943 62.2259 45.3979 62.1747L45.2405 62.1654C41.6423 61.9471 38.0296 61.9484 34.4292 62.1691L34.0917 62.1904L33.8128 62.2088L33.7721 62.2132C33.2274 62.271 32.7334 62.3126 32.2607 62.3384L32.1429 62.3446L32.0111 62.3505L31.987 62.3526C31.4263 62.4025 30.8661 62.4577 30.3066 62.5183L29.3526 62.6262L28.5496 62.7182L28.1962 62.7568C28.087 62.7684 27.9848 62.7789 27.8851 62.7887L27.5073 62.8238L27.4807 62.8438C27.4673 62.8534 27.4538 62.8628 27.4399 62.872L27.3977 62.899L27.3537 62.9249L27.2114 63.0021L27.1159 62.9308L27.0885 62.9091L27.0624 62.8859L27.0378 62.8615L26.9746 62.8661C25.6022 62.9613 24.4624 62.9263 23.3872 62.7207L23.2897 62.7016L23.1952 62.682C20.7588 62.1662 18.7382 60.5673 18.2089 58.4818C16.2146 50.6233 13.4245 42.967 9.89549 35.6677L9.8475 35.5689L9.82414 35.5827C8.98722 36.0569 7.93562 35.9406 7.00941 35.3396L6.96162 35.3081L6.91308 35.275L6.90187 35.2702C6.6114 35.1414 6.35345 34.9101 6.16951 34.6194L6.14374 34.5775L6.1255 34.5371L6.11863 34.5401C5.81877 34.1721 5.59684 33.7592 5.47277 33.3292L5.4549 33.2646L5.43851 33.1998C5.04127 31.5501 5.55223 29.8503 6.80303 27.6938C7.16649 27.0672 9.37581 23.3723 12.3387 21.6187C15.5981 19.6897 14.9912 19.8605 15.6914 19.2595C16.2335 18.5767 14.0574 14.6565 12.1358 12.6786C10.2142 10.7007 17.778 8.68854 18.366 8.906C18.5201 8.96298 18.6624 9.03355 18.7939 9.11771L18.8496 9.15461L18.8556 9.15886L18.8706 9.12061L18.9144 9.20108L18.936 9.21711C19.202 9.41988 19.4202 9.68557 19.6016 10.0142L19.6352 10.0766L19.663 10.1308C19.8675 10.5363 20.2655 10.7417 20.4553 11.4989L20.5842 12.0229L20.621 12.1703L20.657 12.3109C20.8057 12.8827 21.0762 13.2871 21.2423 13.631L21.2624 13.6719L21.2726 13.6923L21.3191 13.6308C24.0626 10.0194 27.2253 7.22738 31.262 5.16199L31.2326 5.16265C30.7865 5.16264 31.9532 4.63693 34.9048 3.59231L35.0724 3.53358L35.2455 3.47409C37.4261 2.73231 40.0078 3.17762 42.2978 4.52908Z" fill="white"/>
<path d="M58.5739 35.8528L58.5096 35.84L58.4574 35.8287L58.4507 35.8747C57.2327 43.9067 54.7497 51.7455 51.1219 59.0143L51.0116 59.2344L50.8984 59.4586L50.8334 59.5859C50.4613 60.3081 50.21 60.687 49.822 61.0329C49.3124 61.4872 48.6666 61.7405 47.8695 61.8435C47.3052 61.9164 46.9117 61.6868 45.4724 61.5565C50.3691 58.8855 51.1278 53.8356 52.8404 50.5509C57.815 41.0101 54.728 38.4139 58.5739 35.8528Z" fill="#E7EAEE"/>
<path d="M19.7608 18.5509C18.9335 19.4435 17.4852 19.8312 16.4492 19.1906C15.6015 18.6664 15.2352 17.6493 14.8336 16.7392C14.421 15.8044 13.9135 14.9113 13.3213 14.078C12.9274 13.5237 12.3648 12.9392 11.6897 13.0326C11.8173 12.8111 12.1297 12.7547 12.3707 12.8418C12.6116 12.9289 12.7955 13.1231 12.9638 13.3157C13.8113 14.2858 14.5082 15.3862 15.0224 16.5659C15.2753 17.1462 15.4873 17.7512 15.845 18.2739C16.2027 18.7966 16.7407 19.2394 17.3721 19.3053C17.9209 19.3626 18.4544 19.133 18.9582 18.9086C19.2257 18.7894 19.4933 18.6701 19.7608 18.5509Z" fill="#00160A"/>
<path d="M29.4143 53.3085C29.5499 53.451 29.6086 53.6606 29.5442 53.8418C29.4797 54.023 29.2845 54.1615 29.0812 54.1511C28.878 54.1408 28.6935 53.9675 28.7014 53.7766C28.7117 53.5269 28.7797 53.21 29.0413 53.1633C29.1796 53.1385 29.3206 53.2099 29.4143 53.3085ZM28.973 53.6691C28.8701 53.8019 29.0773 53.998 29.2397 53.937C29.4021 53.876 29.4493 53.6649 29.3754 53.5161C29.3521 53.4691 29.3186 53.4252 29.2719 53.3975C29.1199 53.3071 28.892 53.4889 28.9625 53.6443L28.973 53.6691Z" fill="#00160A"/>
<path d="M28.8051 49.236C28.7361 49.3136 28.7843 49.4363 28.8199 49.5354C28.8957 49.7457 28.8966 49.9759 28.8966 50.2005C28.8965 50.7778 28.8965 51.355 28.8964 51.9322C28.8964 52.038 28.8666 52.1786 28.7652 52.1828C28.7616 51.4851 28.758 50.7874 28.7545 50.0897C28.7531 49.8232 28.7463 49.538 28.5992 49.32C28.5087 49.1857 28.7144 49.0099 28.8591 49.0746C29.0038 49.1394 29.0628 49.3181 29.0931 49.4791C29.1582 49.8242 29.1653 50.178 29.1721 50.5297C29.1806 50.9687 29.1891 51.4077 29.1976 51.8467C29.2011 52.0244 29.1666 52.2546 28.9994 52.2892C29.0782 51.7124 29.0753 51.1273 29.0722 50.5447C29.0698 50.0912 29.0578 49.6053 28.8051 49.236Z" fill="#00160A"/>
<path d="M34.4569 44.4694C34.4976 44.4526 34.5385 44.5077 34.5372 44.5594C34.5358 44.6111 34.5076 44.6555 34.4807 44.6958C34.3975 44.8206 34.2976 44.9562 34.1647 44.963C34.1642 44.7474 34.2874 44.5393 34.4569 44.4694Z" fill="#00160A"/>
<path d="M40.9443 47.8886C38.4843 49.3183 36.0179 50.7512 33.4142 51.8978C32.9942 52.0827 32.52 52.2623 32.0891 52.1045C31.7865 51.9936 31.5652 51.735 31.3694 51.4787C30.6891 50.5885 30.1403 49.5977 29.7464 48.5484C29.6475 48.2849 29.5571 48.0097 29.572 47.7287C29.5868 47.4476 29.7287 47.1569 29.9844 47.04C30.6531 46.7345 31.3217 46.429 31.9904 46.1235C32.0984 46.0741 32.2106 46.0215 32.2838 45.928C32.37 45.8179 32.3875 45.6706 32.4017 45.5314C32.5088 44.4869 32.6158 43.4423 32.7229 42.3978C32.7493 42.1405 32.7895 41.8559 32.9882 41.6905C33.1869 41.5251 33.5827 41.6285 33.5671 41.8867C33.5569 42.0554 33.7253 42.1733 33.8728 42.2554C34.6592 42.693 35.4455 43.1306 36.2318 43.5682C36.3793 43.6503 36.5583 43.7337 36.7085 43.6568C37.376 43.3154 38.0568 43.0001 38.7488 42.7117C38.9824 42.6144 39.2424 42.519 39.4821 42.6001C39.6754 42.6656 39.8136 42.833 39.9374 42.9954C40.651 43.9321 41.2398 44.9639 41.6835 46.0551C41.8025 46.3479 41.9129 46.6668 41.84 46.9744C41.7387 47.4022 41.3241 47.668 40.9443 47.8886ZM29.863 48.0092C30.1085 48.8772 30.5451 49.6904 31.1326 50.3743C31.437 50.7286 31.8018 51.0602 32.2538 51.1769C32.8206 51.3232 33.4123 51.1081 33.9516 50.8804C35.5653 50.1989 37.114 49.3742 38.6601 48.5506C39.5576 48.0726 40.4551 47.5946 41.3525 47.1166C41.4754 47.0511 41.609 46.9732 41.6509 46.8404C41.6849 46.733 41.6491 46.6172 41.6121 46.5109C41.1988 45.3256 40.5877 44.2097 39.8118 43.2236C39.6719 43.0456 39.5102 42.8615 39.2895 42.8118C39.0612 42.7603 38.8299 42.8658 38.6197 42.9688C35.7989 44.3501 32.9996 45.7754 30.2232 47.2442C30.0681 47.3263 29.9007 47.4221 29.8398 47.5869C29.7901 47.7214 29.824 47.8712 29.863 48.0092ZM41.3345 47.3528C40.8292 47.6245 40.324 47.8962 39.8187 48.1679C37.8761 49.2125 35.9303 50.2586 33.9024 51.1256C33.2124 51.4207 32.3631 51.6792 31.7598 51.2325C31.4443 50.999 31.2638 50.609 30.9288 50.4044C31.2904 51.1126 31.8142 51.9241 32.6085 51.9084C32.8918 51.9029 33.1595 51.7855 33.4176 51.6685C36.1571 50.4261 38.8055 48.9824 41.3345 47.3528ZM33.5642 42.4159C33.4751 42.433 33.4286 42.5281 33.3708 42.5982C33.3131 42.6682 33.1878 42.7115 33.1424 42.6328C33.1604 42.553 33.1784 42.4731 33.1964 42.3932C33.1674 42.3445 33.0892 42.3506 33.0491 42.3906C33.009 42.4307 32.9971 42.4902 32.9871 42.546C32.8064 43.5589 32.6778 44.5812 32.6018 45.6073C32.5965 45.6794 32.6 45.7681 32.6638 45.802C32.8722 45.7086 32.8498 45.4125 32.8248 45.1853C32.7668 44.6572 32.8938 44.1011 33.2194 43.6816C33.5449 43.262 34.0766 42.9962 34.6055 43.0388C34.6647 42.9896 34.5958 42.8981 34.5309 42.8569C34.2708 42.692 33.9946 42.5528 33.7074 42.4417C33.6616 42.424 33.6125 42.4067 33.5642 42.4159ZM33.5743 44.6058C33.5433 44.7966 33.5209 45.0493 33.3322 45.0903C33.2955 45.2213 33.5231 45.2808 33.6136 45.1794C33.7041 45.0779 33.6954 44.926 33.7073 44.7904C33.7396 44.4203 33.9787 44.0751 34.3136 43.915C34.6485 43.7549 35.0669 43.7859 35.3747 43.9935C35.5365 44.1027 35.7524 44.2582 35.8959 44.1258C35.9831 44.0454 35.9689 43.895 35.8945 43.8026C35.8201 43.7102 35.7035 43.6638 35.5899 43.6298C35.1849 43.5089 34.7367 43.5018 34.3481 43.668C33.9594 43.8343 33.642 44.1881 33.5743 44.6058ZM35.3643 43.3057C34.8236 43.0874 34.1746 43.1625 33.698 43.4986C33.2213 43.8347 32.932 44.4211 32.955 45.0043C32.9603 45.139 32.9811 45.2725 33.0018 45.4057C33.0128 45.4765 33.0436 45.5656 33.1151 45.5663C33.2098 45.5672 33.2176 45.428 33.1993 45.335C33.1003 44.8312 33.2539 44.2841 33.6006 43.9057C33.9473 43.5273 34.4785 43.327 34.9883 43.3824C35.1223 43.3969 35.2865 43.4158 35.3643 43.3057ZM33.8954 45.0894C34.3374 45.0854 34.6338 44.6581 34.9296 44.3293C34.9534 44.3028 34.9796 44.2756 35.014 44.2667C35.0622 44.2542 35.1172 44.2874 35.1288 44.3358C35.0787 44.3932 35.0285 44.4505 34.9784 44.5079C35.1581 44.5451 35.357 44.4413 35.4295 44.2725C35.1582 43.9949 34.6996 43.9238 34.3571 44.1061C34.0147 44.2885 33.8172 44.709 33.8954 45.0894ZM33.1169 42.111C33.2483 42.1417 33.3963 42.0653 33.4476 41.9403C33.3113 41.8125 33.0522 41.8703 32.9829 42.0439C33.0254 42.0706 33.0678 42.0972 33.1103 42.1239L33.1169 42.111ZM36.0896 43.8088C36.0488 43.9084 36.2219 43.9977 36.2858 43.9111C36.3496 43.8244 36.2356 43.6852 36.1347 43.7226C36.1001 43.7354 36.0725 43.7616 36.0459 43.7872L36.0896 43.8088Z" fill="#00160A"/>
<path d="M48.2365 50.2954C47.6938 49.9354 47.5184 49.2294 47.4196 48.5858C47.155 46.8608 47.1323 45.0988 47.3524 43.3675C47.3852 43.1098 47.4292 42.8386 47.5942 42.6379C47.8969 42.2694 48.454 42.2888 48.9304 42.3111C50.1888 42.3701 51.4566 42.2212 52.6671 41.8724C52.8691 41.8142 53.086 41.9527 53.1877 42.1367C53.2894 42.3207 53.3033 42.5387 53.3151 42.7486C53.3787 43.8866 53.4423 45.0247 53.5059 46.1627C53.56 47.1317 53.5967 48.1724 53.0781 48.9929C52.4059 50.0566 51.027 50.404 49.774 50.5227C49.2477 50.5726 48.6771 50.5875 48.2365 50.2954ZM48.3889 42.5019C48.249 42.5118 48.105 42.5295 47.9837 42.5998C47.758 42.7305 47.6662 43.0055 47.6053 43.2591C47.3812 44.1909 47.3286 45.1637 47.4509 46.1143C48.4072 46.1601 49.3676 46.1214 50.3172 45.9987C50.3701 45.9919 50.4256 45.9837 50.468 45.9514C50.5455 45.8924 50.55 45.7796 50.547 45.6823C50.5236 44.941 50.4639 44.2008 50.3683 43.4652C50.3386 43.2368 50.298 42.9929 50.1395 42.8257C49.9976 42.6762 49.787 42.6162 49.5847 42.5764C49.1917 42.499 48.7885 42.4739 48.3889 42.5019ZM49.4409 49.9242C49.7116 49.9048 50.0302 49.8552 50.1518 49.6126C50.1946 49.5271 50.2048 49.4296 50.2143 49.3345C50.284 48.6374 50.3537 47.9403 50.4234 47.2432C50.4345 47.132 50.4433 47.0107 50.3818 46.9174C50.264 46.7389 49.9952 46.7846 49.7897 46.844C49.0617 47.0542 48.3067 47.1708 47.5492 47.19C47.3475 47.7005 47.6362 48.2593 47.709 48.8033C47.7326 48.9794 47.7339 49.1613 47.7972 49.3273C47.909 49.6202 48.2008 49.8144 48.5048 49.8914C48.8089 49.9684 49.128 49.9465 49.4409 49.9242ZM51.9287 49.0247C51.5445 49.4725 50.8631 49.6537 50.6266 50.1942C52.1325 50.0796 53.4085 48.6313 53.332 47.1234C53.2569 45.6401 53.1817 44.1568 53.1065 42.6735C53.1007 42.5579 53.0935 42.4376 53.0368 42.3367C52.912 42.1143 52.6023 42.0767 52.3538 42.1342C52.1052 42.1917 51.8698 42.3167 51.6148 42.323C52.3482 42.7524 52.4314 43.7607 52.4292 44.6104C52.4282 44.996 52.4272 45.3816 52.4262 45.7672C52.6136 45.5852 52.9755 45.7232 53.0398 45.9763C53.1042 46.2295 52.9135 46.5005 52.665 46.5812C52.2879 46.7038 52.289 47.225 52.308 47.621C52.3319 48.1171 52.2521 48.6477 51.9287 49.0247ZM51.2382 42.4228C51.1098 42.4066 50.9798 42.4255 50.8518 42.4444C50.7178 42.4642 50.5839 42.4839 50.4499 42.5037C50.8738 42.8916 51.093 43.4595 51.1869 44.0263C51.2808 44.5931 51.2632 45.1715 51.2909 45.7453C51.2933 45.7953 51.3 45.8527 51.3416 45.8807C51.374 45.9025 51.4167 45.8983 51.4554 45.8934C51.6299 45.8709 51.8043 45.8485 51.9788 45.8261C52.0215 45.8206 52.067 45.8139 52.0994 45.7854C52.1398 45.7498 52.148 45.691 52.1537 45.6374C52.2353 44.8654 52.3147 44.0682 52.0864 43.3262C51.9579 42.9084 51.6719 42.4776 51.2382 42.4228ZM50.1654 50.183C50.4058 50.0809 50.638 49.9238 50.7503 49.6881C50.8311 49.5185 50.8423 49.3253 50.8521 49.1378C50.9088 48.0562 50.9655 46.9746 51.0222 45.893C51.0815 44.7619 51.1008 43.5066 50.3603 42.6493C50.9472 44.68 50.7179 46.8453 50.4836 48.946C50.4275 49.4489 50.2581 50.0763 49.757 50.1474C49.2668 50.1315 48.7767 50.1157 48.2865 50.0998C48.8584 50.4047 49.5687 50.4361 50.1654 50.183ZM52.1296 47.4496C52.1371 47.2413 52.1446 47.033 52.1522 46.8247C51.8234 46.808 51.4918 46.8473 51.176 46.9402C51.1023 47.7209 51.0661 48.5051 51.0676 49.2892C51.0677 49.3053 51.0678 49.322 51.0747 49.3366C51.1015 49.3929 51.1865 49.3662 51.2386 49.3319C51.4146 49.2159 51.5929 49.0978 51.7311 48.9386C52.075 48.5426 52.1107 47.9737 52.1296 47.4496ZM47.6025 47.0507C48.3669 46.9108 49.1314 46.7708 49.8959 46.6309C50.0813 46.5969 50.2955 46.5702 50.4377 46.6939C50.4773 46.592 50.5176 46.4839 50.5 46.376C50.4823 46.2681 50.3829 46.1655 50.2755 46.186C49.4888 46.3365 48.6806 46.3742 47.8833 46.2977C47.7025 46.2803 47.5172 46.3963 47.4537 46.5664C47.3903 46.7365 47.4544 46.9455 47.6025 47.0507ZM52.4733 45.9105C52.1202 45.987 51.7671 46.0635 51.414 46.1401C51.3613 46.1515 51.305 46.1649 51.269 46.2051C51.2241 46.2552 51.225 46.3301 51.2285 46.3972C51.2345 46.5118 51.2404 46.6263 51.2464 46.7408C51.614 46.6597 51.9816 46.5786 52.3493 46.4974C52.4983 46.4645 52.657 46.4263 52.761 46.3147C52.8651 46.2031 52.875 45.9924 52.7419 45.9178C52.662 45.8729 52.5629 45.8911 52.4733 45.9105Z" fill="#00160A"/>
<path d="M42.7944 4.28073L42.9129 4.35134C44.6212 5.38023 45.9456 6.63538 48.1687 9.10849C52.873 14.342 57.3711 19.7724 61.6488 25.3819L61.9861 25.8252L62.084 25.9544C63.6762 28.0614 64.3766 29.4155 64.4159 31.0403C64.445 32.2419 63.9397 33.4218 63.0455 34.3526L62.9972 34.4023L62.9925 34.4065L62.9776 34.4228C62.765 34.6512 62.5269 34.8541 62.2672 35.027L62.1977 35.0721L62.176 35.0873C61.0815 35.8337 59.7925 36.1436 58.5906 35.9147L58.5263 35.9019L58.4741 35.8906L58.4674 35.9366C57.2494 43.9686 54.7664 51.8074 51.1386 59.0762L51.0283 59.2963L50.9151 59.5205L50.8501 59.6477C50.478 60.3699 50.2267 60.7488 49.8387 61.0948C49.3292 61.5491 48.6833 61.8023 47.8863 61.9053C47.3219 61.9782 46.791 61.9776 45.8945 61.9263L45.7372 61.917C42.139 61.6987 38.5262 61.7 34.9258 61.9207L34.5883 61.942L34.3095 61.9604L34.2688 61.9649C33.724 62.0227 33.23 62.0642 32.7573 62.0901L32.6396 62.0962L32.5077 62.1021L32.4837 62.1042C31.9229 62.1541 31.3627 62.2094 30.8032 62.27L29.8493 62.3779L29.0462 62.4699C28.7905 62.4984 28.5811 62.5207 28.3817 62.5403C26.0999 62.6321 24.6007 62.6095 23.8839 62.4724L23.7863 62.4532L23.6918 62.4337C21.2555 61.9178 19.2349 60.319 18.7056 58.2335C16.7112 50.375 13.9212 42.7186 10.3921 35.4194L10.3442 35.3205L10.3208 35.3344C9.48388 35.8086 8.43227 35.6923 7.50607 35.0913L7.45828 35.0598L7.40974 35.0266L7.39853 35.0218C7.10806 34.8931 6.85011 34.6618 6.66616 34.3711L6.64039 34.3291L6.62659 34.3054L6.61529 34.2918C6.31543 33.9237 6.0935 33.5108 5.96943 33.0809L5.95156 33.0163L5.93516 32.9514C5.53793 31.3018 6.04889 29.602 7.29969 27.4455C9.57649 23.5201 12.3744 20.5719 15.7107 18.92L15.8119 18.8703L15.9939 19.1946C13.0476 21.0858 10.4937 23.5857 8.53998 26.4908C7.2004 28.4828 6.46392 30.3134 6.46162 32.055L6.46202 32.1341L6.46306 32.1996L6.4664 32.1933C7.30669 30.5406 8.71087 29.162 10.9526 27.5264L11.0491 27.4562L11.1391 27.3911C13.5886 25.6245 16.2567 23.9583 19.3402 22.2358L19.7539 22.0058C22.0337 20.7436 23.973 19.7375 27.7542 17.8342L31.7005 15.8476C32.784 15.2989 33.5959 14.882 34.5056 14.4079L34.7347 14.2877C36.5874 13.308 37.9927 12.3861 39.1029 11.3432C40.5325 10 41.3475 8.54436 41.4682 6.91304C41.5658 5.59516 41.0776 4.34657 40.1448 3.76246C39.2381 3.19477 38.0735 3.23657 36.4517 3.71426C30.605 5.43646 25.3687 9.16583 21.8298 14.1282C21.6119 14.4336 21.7603 14.7109 21.8298 14.8761C22.2841 15.957 22.0062 17.1718 21.4693 18.2136L21.4395 18.2702L21.0183 19.0549L21.3583 17.1773C21.328 14.1282 20.7567 12.4482 19.4935 9.90613L19.4405 9.80041L19.4093 9.73972L19.3887 9.78034C18.8012 10.9096 17.6727 11.7898 16.296 12.2739L16.2246 12.2986L16.1562 12.3214C15.0146 12.6962 14.0297 12.8065 12.0302 12.8606L11.5571 12.8721L11.5006 12.785C11.1575 12.2567 11.4921 11.5988 12.133 11.0795C13.4949 9.97615 15.0907 9.16336 16.784 8.71062C17.6387 8.48208 18.2746 8.44019 18.8627 8.65764C19.0168 8.71463 19.159 8.7852 19.2905 8.86936L19.3462 8.90626L19.3523 8.9105L19.3672 8.87226L19.411 8.95272L19.4326 8.96876C19.6987 9.17153 19.9168 9.43721 20.0982 9.76587L20.1318 9.82823L20.1597 9.8824C20.3642 10.288 20.4897 10.6766 20.6795 11.4338L20.8083 11.9578L20.8452 12.1052C21.009 12.753 21.1486 13.1917 21.328 13.5631L21.3481 13.6041L21.3583 13.6244L21.4048 13.563C24.9488 8.89774 29.8783 5.29864 35.4015 3.34396L35.569 3.28523L35.7421 3.22574C37.9228 2.48396 40.5044 2.92927 42.7944 4.28073ZM33.3763 35.9613C31.0825 36.0823 28.8338 37.109 27.1946 38.7702C26.452 39.5227 25.974 40.2737 25.7978 41.0665L25.7824 41.1391C25.6794 41.645 25.6867 42.1089 25.7746 43.0209L27.659 61.8777C27.6737 62.0246 27.6913 62.128 27.718 62.2062L27.7248 62.2251L27.8556 62.2142L27.8735 62.1976C28.0974 61.981 28.2465 61.6504 28.2917 61.288L28.2983 61.2279L28.2996 61.2133C28.3302 60.8618 28.2946 60.5656 28.1708 59.9432L28.1358 59.7685L28.0833 59.5003C27.7072 57.542 27.527 55.7442 27.3036 52.3809L27.2334 51.318C26.944 47.0184 26.706 45.0198 26.0876 42.608C25.8085 41.5195 26.1321 40.2848 26.8899 39.3045C27.5318 38.474 28.4436 37.8225 29.6244 37.2732C31.0571 36.6066 32.5484 36.236 34.0069 36.2117C35.1844 36.192 36.3526 36.377 37.9756 36.7799L38.1322 36.8193C39.468 37.1604 40.2577 37.4929 40.9283 38.1042C41.6024 38.7186 42.0378 39.5427 42.4398 40.7635C43.3299 43.4669 43.6713 46.4467 43.6217 50.0364L43.6144 50.4525C43.5905 51.6032 43.537 52.6775 43.4251 54.4152L43.2633 56.8741C43.1867 58.0742 43.1478 58.8127 43.1162 59.6823L43.1128 59.7875C43.0998 60.2626 43.1264 60.516 43.2371 60.7678C43.3462 61.0163 43.5595 61.201 43.7783 61.2493L43.8086 61.255L43.9415 52.241C43.9904 48.5717 43.9576 46.8004 43.7467 44.6678L43.7399 44.5996C43.6261 43.4647 43.4764 42.5295 43.252 41.6545C43.1383 41.2111 43.0022 40.7734 42.8445 40.3437C42.3985 39.129 41.8534 38.2363 41.1032 37.6305C40.2586 36.9484 39.3471 36.6617 37.4701 36.3472L37.302 36.3193C35.3518 36.0002 34.466 35.9038 33.3763 35.9613ZM28.6068 61.6184L28.6056 61.6231C28.5539 61.8188 28.4753 62.0032 28.3717 62.1671L28.7688 62.1257C28.8831 62.1133 29.0061 62.0996 29.1424 62.0842L29.8083 62.0076C29.7585 62.0012 29.7088 61.9945 29.6592 61.9875L29.5392 61.9699L29.3841 61.9464L29.3806 61.7764L29.3638 61.7862C29.2149 61.8687 29.0502 61.9227 28.8809 61.9428L28.8384 61.9472L28.6705 61.9614L28.6068 61.6184ZM23.0345 61.7671L23.0224 61.7837C23.0033 61.8084 22.9819 61.8307 22.9583 61.8508C23.2215 61.9375 23.4923 62.0107 23.769 62.0693C23.8581 62.0881 23.9476 62.1057 24.0377 62.1221C23.7126 62.0333 23.3937 61.922 23.0841 61.7887L23.0345 61.7671ZM33.4428 27.6434C25.6905 28.0696 17.7402 30.1175 9.70228 33.5838L9.42454 33.7042L9.7094 33.8381C10.3593 34.1436 10.7275 34.666 11.2119 35.7283L11.9763 37.4238C13.3883 40.5669 14.2129 42.4797 15.0577 44.613C16.2494 47.6226 17.1662 50.3559 17.8485 53.0283L18.2192 54.5087C18.2663 54.6941 18.3093 54.8613 18.3521 55.024L18.4087 55.2372C18.8038 56.7102 19.179 57.7829 19.6689 58.7327C20.2961 59.9486 21.0784 60.8602 22.0889 61.4809C22.3689 61.6528 22.7108 61.6426 22.745 61.5075L22.7472 61.4953L22.776 61.2357L23.012 61.3475C24.2451 61.9314 25.6543 62.1377 27.0033 61.9356L27.077 61.924L25.2247 43.4909L25.2071 43.3146C25.0887 42.1128 25.0899 41.4302 25.2826 40.702C25.5377 39.7381 26.1519 38.8541 27.0563 38.0262C28.6324 36.5835 30.6744 35.6595 32.7985 35.4277C34.2211 35.2725 35.6588 35.3954 37.6545 35.7624L37.8285 35.7949C39.3731 36.088 40.3247 36.3988 41.1899 36.9896C42.2962 37.7451 43.0586 38.8801 43.553 40.3678C43.9459 41.5498 44.1559 42.8741 44.2818 44.6006C44.6708 49.9355 44.6708 55.2987 44.2818 60.6337C44.245 61.1381 44.9094 61.4783 45.7975 61.5198L45.8421 61.5216L45.9672 61.5258L46.1183 61.5301C47.6584 61.5684 48.5393 61.4101 49.2429 60.8258C49.628 60.5059 49.8851 60.126 50.2826 59.3687L50.3143 59.3081C53.9035 52.4205 56.3713 44.95 57.5918 37.2799L57.6284 37.0474C57.7614 36.1936 57.9046 35.5935 58.138 35.0586C58.4376 34.372 58.8618 33.8915 59.4501 33.6488L59.4981 33.6296L59.5549 33.6077L59.5299 33.5885C59.0415 33.2165 58.4579 32.8684 57.6956 32.4724L57.5262 32.3851C50.4295 28.7559 42.0665 27.1693 33.4428 27.6434ZM33.7979 36.7994C32.5563 36.8485 31.2758 37.1861 29.9761 37.7739C28.1036 38.6206 26.8411 39.8593 26.6528 41.3339C26.6407 41.4287 26.6329 41.5253 26.6293 41.6243L26.6273 41.6966C26.6189 42.116 26.6728 42.495 26.8213 43.1857L26.9364 43.7083C27.3142 45.4442 27.5177 47.1394 27.7197 49.7985L27.8738 51.8922C28.2022 56.2868 28.4667 58.7666 28.9567 61.4608L28.9722 61.546L28.9976 61.5391C29.1467 61.4936 29.2851 61.4113 29.3948 61.301L29.4216 61.2729L29.7359 60.9281L29.75 61.6239L29.8289 61.6347C30.6121 61.7378 31.4318 61.7684 32.3263 61.7367L32.4754 61.731L32.7523 61.7068C33.1294 61.6746 33.5067 61.6447 33.8838 61.6172L34.2693 61.5901L34.5748 61.5565C34.9745 61.5112 35.3568 61.4632 36.0873 61.3686L36.7221 61.2872C38.7445 61.0321 39.7971 60.9453 41.0164 60.9707L41.1813 60.9748L41.6476 60.9907L41.773 60.9933C42.097 60.9975 42.341 60.9806 42.5628 60.9306L42.5835 60.9257L42.5799 60.6622C42.5661 59.3813 42.6082 58.0866 42.7084 56.2883L42.7939 54.8427L42.8748 53.4966C42.9373 52.4256 42.969 51.7665 42.995 50.991C43.1291 46.9857 42.8439 43.9006 41.9148 41.0875C41.4923 39.8084 41.0109 38.9455 40.2893 38.3634C39.6644 37.8593 38.9559 37.6001 37.6299 37.295L37.4364 37.2509C35.8786 36.8993 34.8578 36.7575 33.7979 36.7994ZM44.18 61.3373L44.1781 61.4634L44.3338 61.4702C44.2776 61.4289 44.2261 61.3846 44.18 61.3373ZM42.9582 61.041L42.9615 61.2039L42.8274 61.2453C42.5169 61.3412 42.2042 61.3717 41.7662 61.3657L41.6016 61.362L41.2255 61.3489L41.1706 61.3472C40.5423 61.3292 39.9696 61.3403 39.2965 61.3882C40.6323 61.3722 41.9682 61.3862 43.303 61.4302C43.166 61.3294 43.047 61.1958 42.9582 61.041ZM59.8342 33.834L59.677 33.9523C59.26 34.2662 58.9251 34.6887 58.7124 35.1654L58.6965 35.2017L58.7034 35.2033C59.2529 35.3185 59.5731 35.3259 59.8769 35.2006L59.9053 35.1885C60.3021 35.0135 60.4927 34.4697 60.2467 34.2189C60.1293 34.0992 60.0077 33.9846 59.8801 33.8735L59.8342 33.834ZM9.63924 35.1209L9.44924 35.1864C9.36964 35.2132 9.2973 35.2357 9.23067 35.2536C9.53886 35.2469 9.83502 35.1732 10.1037 35.0285C9.99615 35.0168 9.85813 35.0471 9.63924 35.1209ZM41.4597 4.26401L41.4643 4.27456C42.2209 6.04515 42.1348 8.16335 41.2072 9.8552C40.3131 11.486 38.9382 12.5825 36.3791 14.0198L35.9303 14.2695C34.0243 15.324 32.3054 16.2166 29.2099 17.7756L26.0683 19.3552C22.8235 20.992 21.0782 21.9068 19.0262 23.0603C15.8839 24.8267 13.2099 26.5441 10.7896 28.3957L10.6158 28.5294C9.12974 29.6789 8.18124 30.5841 7.44093 31.6572C6.9391 32.3847 6.70089 33.0292 6.78153 33.636C6.79936 33.7702 6.84118 33.9055 6.90339 34.0332L6.92767 34.0808L6.93429 34.0928L6.93906 34.0987C7.1098 34.3015 7.30491 34.4858 7.51556 34.6439L7.57921 34.6905L7.58991 34.6979L7.61071 34.7061C7.71927 34.7461 7.82907 34.765 7.93768 34.7619L7.94417 34.7614L7.94165 34.7335C7.88785 34.0368 8.52331 33.4354 9.4797 33.017L9.52548 32.9972C18.0875 29.3426 26.5178 27.2635 34.7023 26.9997C43.7742 26.7073 52.5185 28.7156 59.7264 32.9532C59.9464 33.0825 60.134 33.2035 60.2931 33.3237L60.4002 33.4082C60.6979 33.6538 60.8801 33.904 60.9794 34.2244C61.0813 34.5532 60.9991 34.9253 60.8067 35.1993L60.7948 35.2157C61.1744 35.1607 61.551 35.0243 61.9048 34.815L61.9605 34.7814L61.9891 34.7635L62.0347 34.732C62.2338 34.5914 62.423 34.4368 62.599 34.2708L62.6736 34.199L62.7181 34.1546L62.7363 34.1349C62.9974 33.8474 63.2102 33.5217 63.3611 33.1767C63.897 31.9519 63.8185 30.4319 63.2231 28.9701L63.1799 28.8656C62.722 27.776 62.1244 26.8917 60.8493 25.2575C57.3652 20.7922 53.6847 16.3202 49.7884 11.8068L49.4107 11.3699C47.7711 9.4762 46.7384 8.35679 45.5805 7.27894L45.5252 7.22764C44.1926 5.99286 42.8846 5.02302 41.5152 4.29341L41.4597 4.26401ZM9.20439 33.8056L9.17246 33.8216C8.92481 33.9462 8.78463 34.0541 8.67793 34.2066C8.51941 34.4331 8.54475 34.7623 8.7255 34.8741C8.86007 34.9573 9.00427 34.9439 9.34795 34.8274L9.43745 34.7964C9.62904 34.729 9.78157 34.6832 9.91295 34.6622L9.92533 34.6603L9.85201 34.5651C9.7649 34.4536 9.6753 34.3441 9.5833 34.2367L9.49051 34.1299L9.20439 33.8056ZM17.0398 9.31186L16.9954 9.32114L17.0004 9.37054C17.0377 9.75002 16.802 10.0653 16.3936 10.3483L16.3571 10.3732C15.7606 10.7739 15.0966 11.0735 14.4015 11.2557C13.8349 11.4043 13.3873 11.4107 13.0054 11.2036C12.9641 11.1812 12.8689 11.2163 12.7489 11.3159C12.474 11.5441 12.2329 11.8131 12.0357 12.1111L11.995 12.1739L13.4082 12.1652C13.8836 12.1601 14.1493 12.1484 14.4524 12.116L14.4862 12.1124C16.1373 11.9294 17.7062 11.0775 18.7587 9.79226L18.8029 9.73683C18.8988 9.61311 18.9435 9.52694 18.9539 9.43971C18.9645 9.35043 18.9119 9.26265 18.8621 9.25555C18.2576 9.16941 17.6385 9.19053 17.0398 9.31186ZM16.783 9.38627C15.2582 9.51744 13.838 10.2884 13.2099 11.0727C13.2099 11.129 13.2598 11.1642 13.3477 11.1802C13.5523 10.929 13.838 10.6796 14.1819 10.4526C14.3004 10.8038 15.0379 10.6554 15.5507 10.5244C16.237 10.1508 16.783 9.69061 16.783 9.38627ZM40.7077 3.72113L40.7214 3.73318C40.7604 3.76833 40.7984 3.80459 40.8355 3.84193L40.7843 3.74795L40.7214 3.72582L40.7077 3.72113Z" fill="#00160A"/>
<path d="M40.0558 34.4291C43.0308 36.0082 44.5971 38.722 44.254 38.8786C43.9109 39.0352 41.1205 34.1381 34.2201 34.7102C25.3206 35.0185 24.2198 41.171 23.8626 41.0497C23.5054 40.9284 24.8905 37.0086 28.1952 34.9169C31.4998 32.8252 37.0809 32.85 40.0558 34.4291Z" fill="#E7EAEE"/>
</svg>
