<svg width="100%" height="100%" id="svg" viewBox="0 0 1440 400" xmlns="http://www.w3.org/2000/svg" class="transition duration-300 ease-in-out delay-150"><path d="M 0,400 C 0,400 0,133 0,133 C 135.46666666666664,109.26666666666667 270.9333333333333,85.53333333333333 454,101 C 637.0666666666667,116.46666666666667 867.7333333333333,171.13333333333333 1040,183 C 1212.2666666666667,194.86666666666667 1326.1333333333332,163.93333333333334 1440,133 C 1440,133 1440,400 1440,400 Z" stroke="none" stroke-width="0" fill="#7af0e888" class="transition-all duration-300 ease-in-out delay-150 path-0" transform="rotate(-180 720 200)"></path><path d="M 0,400 C 0,400 0,266 0,266 C 134.39999999999998,259.8666666666667 268.79999999999995,253.7333333333333 412,258 C 555.2,262.2666666666667 707.2,276.93333333333334 880,280 C 1052.8,283.06666666666666 1246.4,274.5333333333333 1440,266 C 1440,266 1440,400 1440,400 Z" stroke="none" stroke-width="0" fill="#7af0e8ff" class="transition-all duration-300 ease-in-out delay-150 path-1" transform="rotate(-180 720 200)"></path></svg>