<svg width="100%" height="100%" id="svg" viewBox="0 0 1440 500" xmlns="http://www.w3.org/2000/svg" class="transition duration-300 ease-in-out delay-150"><path d="M 0,500 C 0,500 0,166 0,166 C 179.06666666666666,142.66666666666666 358.1333333333333,119.33333333333333 499,110 C 639.8666666666667,100.66666666666667 742.5333333333333,105.33333333333334 893,117 C 1043.4666666666667,128.66666666666666 1241.7333333333333,147.33333333333331 1440,166 C 1440,166 1440,500 1440,500 Z" stroke="none" stroke-width="0" fill="#f1f1f588" class="transition-all duration-300 ease-in-out delay-150 path-0"></path><path d="M 0,500 C 0,500 0,333 0,333 C 116.26666666666665,358.6 232.5333333333333,384.2 391,370 C 549.4666666666667,355.8 750.1333333333334,301.8 932,289 C 1113.8666666666666,276.2 1276.9333333333334,304.6 1440,333 C 1440,333 1440,500 1440,500 Z" stroke="none" stroke-width="0" fill="#f1f1f5ff" class="transition-all duration-300 ease-in-out delay-150 path-1"></path></svg>