<svg width="134" height="34" viewBox="0 0 134 34" fill="none" xmlns="http://www.w3.org/2000/svg">
<path d="M59.1833 17.6151H59.8924V26.3408H59.1833V17.6151ZM66.6344 28.2497H65.0273V29.1881H66.5141V30.1346H65.0273V32.1553H63.88V27.3032H66.6344V28.2497ZM68.3447 28.9086V30.6977C68.3447 30.8414 68.3576 31.0691 68.5294 31.2208C68.6025 31.2847 68.74 31.3726 68.9763 31.3726C69.1783 31.3726 69.333 31.3087 69.4318 31.2208C69.5865 31.077 69.6123 30.8574 69.6123 30.6977V28.9086H70.6823V30.8015C70.6823 31.1729 70.6436 31.5203 70.3084 31.8438C69.9303 32.2072 69.3717 32.2671 68.9763 32.2671C68.5681 32.2671 68.0181 32.2072 67.6357 31.8438C67.3306 31.5523 67.2704 31.2248 67.2704 30.8694V28.9126H68.3447V28.9086ZM71.5159 28.9086H72.5859V29.296C72.9124 28.8886 73.2992 28.8247 73.6129 28.8247C73.9051 28.8247 74.2832 28.8766 74.5668 29.1522C74.8805 29.4597 74.902 29.8431 74.902 30.1066V32.1593H73.832V30.494C73.832 30.2823 73.8234 30.0148 73.6515 29.8471C73.5699 29.7672 73.4367 29.7033 73.2433 29.7033C73.0199 29.7033 72.8781 29.7911 72.7964 29.879C72.6159 30.0547 72.5859 30.2863 72.5859 30.498V32.1633H71.5159V28.9086V28.9086ZM79.358 32.1553H78.2881V31.7639C78.1248 31.9955 77.8283 32.2671 77.2396 32.2671C76.7497 32.2671 76.3888 32.1153 76.1009 31.8238C75.7571 31.4884 75.5809 31.0251 75.5809 30.5219C75.5809 29.9828 75.7829 29.5396 76.1009 29.24C76.3931 28.9725 76.8013 28.8048 77.2525 28.8048C77.6177 28.8048 78.0173 28.9206 78.2881 29.276V26.852H79.358V32.1553ZM76.9388 29.9229C76.7841 30.0667 76.6767 30.2783 76.6767 30.5419C76.6767 30.7815 76.7798 30.9932 76.9388 31.1369C77.1021 31.2887 77.3126 31.3606 77.4974 31.3606C77.6994 31.3606 77.9357 31.2807 78.1076 31.121C78.2322 31.0052 78.3525 30.8095 78.3525 30.5379C78.3525 30.2624 78.2408 30.0707 78.1162 29.9429C77.9443 29.7672 77.7423 29.7033 77.5146 29.7033C77.2954 29.7033 77.1064 29.7592 76.9388 29.9229V29.9229ZM82.7656 28.9086H83.8356V32.1513H82.7656V31.7599C82.4734 32.1952 82.0566 32.2631 81.7816 32.2631C81.3046 32.2631 80.905 32.1473 80.5397 31.7679C80.1917 31.4045 80.0541 30.9812 80.0541 30.5539C80.0541 30.0068 80.2647 29.5436 80.5698 29.244C80.862 28.9605 81.2616 28.8008 81.7214 28.8008C82.005 28.8008 82.4562 28.8647 82.7656 29.272V28.9086V28.9086ZM81.4034 29.9349C81.2917 30.0427 81.1585 30.2344 81.1585 30.5259C81.1585 30.8175 81.2831 31.0052 81.3819 31.109C81.5323 31.2607 81.7601 31.3646 82.0136 31.3646C82.2285 31.3646 82.4304 31.2767 82.5722 31.1409C82.714 31.0091 82.8343 30.8055 82.8343 30.5299C82.8343 30.2983 82.7441 30.0787 82.5894 29.9349C82.4261 29.7832 82.1855 29.7073 81.9921 29.7073C81.7601 29.7033 81.5452 29.7991 81.4034 29.9349V29.9349ZM87.1658 29.9349C86.9037 29.7233 86.6372 29.6873 86.4653 29.6873C86.1302 29.6873 85.9282 29.8471 85.8552 29.9189C85.7134 30.0587 85.6102 30.2664 85.6102 30.5299C85.6102 30.7695 85.7005 30.9732 85.8337 31.113C85.997 31.2887 86.2419 31.3765 86.4825 31.3765C86.6673 31.3765 86.9208 31.3246 87.1658 31.121V32.0674C86.8822 32.2192 86.6157 32.2631 86.3193 32.2631C85.7606 32.2631 85.3352 32.0674 85.0301 31.7759C84.7766 31.5363 84.5102 31.1289 84.5102 30.5379C84.5102 29.9868 84.7465 29.5475 85.0602 29.256C85.4341 28.9126 85.8724 28.7968 86.3236 28.7968C86.6158 28.7968 86.8822 28.8487 87.1658 28.9805V29.9349V29.9349ZM88.4936 26.9159C88.8416 26.9159 89.1209 27.1834 89.1209 27.5269C89.1209 27.8703 88.8459 28.1379 88.4936 28.1379C88.1455 28.1379 87.8662 27.8703 87.8662 27.5269C87.8662 27.1874 88.1412 26.9159 88.4936 26.9159ZM89.0264 28.9086V32.1513H87.9564V28.9086H89.0264ZM93.1731 31.7399C92.8766 32.0315 92.3695 32.2631 91.7207 32.2631C91.0718 32.2631 90.5647 32.0315 90.2682 31.7399C89.9331 31.4125 89.7698 30.9453 89.7698 30.5339C89.7698 30.1186 89.9331 29.6554 90.2682 29.3279C90.5647 29.0364 91.0718 28.8048 91.7207 28.8048C92.3695 28.8048 92.8766 29.0364 93.1731 29.3279C93.5082 29.6554 93.6715 30.1226 93.6715 30.5339C93.6715 30.9453 93.5082 31.4125 93.1731 31.7399ZM91.1191 29.9229C90.9644 30.0747 90.8741 30.2704 90.8741 30.5339C90.8741 30.8334 90.9944 31.0211 91.1191 31.1449C91.2523 31.2767 91.4456 31.3765 91.7292 31.3765C91.9656 31.3765 92.1675 31.2967 92.3265 31.1449C92.4812 30.9932 92.5715 30.7975 92.5715 30.5339C92.5715 30.2704 92.4812 30.0747 92.3265 29.9229C92.1718 29.7712 91.9699 29.6913 91.7249 29.6913C91.4757 29.6873 91.2781 29.7672 91.1191 29.9229V29.9229ZM92.8035 27.427L91.6734 28.4094L91.1878 28.062L92.1031 26.9558L92.8035 27.427ZM94.3419 28.9086H95.4118V29.296C95.7384 28.8886 96.1251 28.8247 96.4388 28.8247C96.731 28.8247 97.1092 28.8766 97.3928 29.1522C97.7064 29.4597 97.7279 29.8431 97.7279 30.1066V32.1593H96.658V30.494C96.658 30.2823 96.6494 30.0148 96.4775 29.8471C96.3958 29.7672 96.2626 29.7033 96.0693 29.7033C95.8458 29.7033 95.704 29.7911 95.6224 29.879C95.4419 30.0547 95.4118 30.2863 95.4118 30.498V32.1633H94.3419V28.9086V28.9086ZM102.167 28.2497V32.1553H101.019V28.2497H99.9409V27.3032H103.245V28.2497H102.167V28.2497ZM106.687 30.7136H104.208C104.208 30.8893 104.277 31.121 104.41 31.2647C104.573 31.4404 104.797 31.4684 104.96 31.4684C105.115 31.4684 105.282 31.4404 105.394 31.3726C105.407 31.3646 105.536 31.2847 105.626 31.105L106.64 31.2088C106.49 31.6681 106.193 31.9077 106 32.0235C105.677 32.2112 105.321 32.2631 104.951 32.2631C104.453 32.2631 104.015 32.1752 103.628 31.7959C103.336 31.5123 103.129 31.085 103.129 30.5459C103.129 30.0787 103.301 29.5995 103.636 29.264C104.04 28.8727 104.539 28.7968 104.908 28.7968C105.282 28.7968 105.815 28.8607 106.228 29.284C106.623 29.6913 106.696 30.2025 106.696 30.6018V30.7136H106.687ZM105.699 30.0867C105.69 30.0587 105.639 29.855 105.484 29.7073C105.348 29.5866 105.165 29.5206 104.977 29.5236C104.702 29.5236 104.539 29.6314 104.436 29.7352C104.354 29.8231 104.281 29.9389 104.251 30.0827H105.699V30.0867ZM108.458 26.852V32.1553H107.388V26.852H108.458ZM112.725 30.7136H110.245C110.245 30.8893 110.314 31.121 110.447 31.2647C110.611 31.4404 110.834 31.4684 110.997 31.4684C111.152 31.4684 111.32 31.4404 111.431 31.3726C111.444 31.3646 111.573 31.2847 111.663 31.105L112.677 31.2088C112.527 31.6681 112.23 31.9077 112.037 32.0235C111.715 32.2112 111.358 32.2631 110.989 32.2631C110.49 32.2631 110.052 32.1752 109.665 31.7959C109.373 31.5123 109.167 31.085 109.167 30.5459C109.167 30.0787 109.339 29.5995 109.674 29.264C110.078 28.8727 110.576 28.7968 110.946 28.7968C111.32 28.7968 111.852 28.8607 112.265 29.284C112.66 29.6913 112.733 30.2025 112.733 30.6018V30.7136H112.725ZM111.736 30.0867C111.728 30.0587 111.676 29.855 111.521 29.7073C111.385 29.5866 111.203 29.5206 111.014 29.5236C110.739 29.5236 110.576 29.6314 110.473 29.7352C110.391 29.8231 110.318 29.9389 110.288 30.0827H111.736V30.0867ZM114.559 29.7552V32.1553H113.49V29.7552H113.103V28.9126H113.49V28.2736C113.49 27.9102 113.528 27.4949 113.863 27.1475C114.078 26.9238 114.383 26.7761 114.796 26.7761C115.032 26.7761 115.23 26.82 115.406 26.8839V27.8024C115.286 27.7305 115.131 27.6786 114.998 27.6786C114.835 27.6786 114.731 27.7505 114.684 27.8104C114.564 27.9621 114.564 28.2177 114.564 28.3695V28.9166H115.41V29.7592H114.559V29.7552ZM119.063 31.7399C118.766 32.0315 118.259 32.2631 117.61 32.2631C116.962 32.2631 116.459 32.0315 116.158 31.7399C115.823 31.4125 115.66 30.9453 115.66 30.5339C115.66 30.1186 115.823 29.6554 116.158 29.3279C116.455 29.0364 116.962 28.8048 117.61 28.8048C118.259 28.8048 118.762 29.0364 119.063 29.3279C119.398 29.6554 119.561 30.1226 119.561 30.5339C119.561 30.9453 119.398 31.4125 119.063 31.7399ZM117.009 29.9229C116.854 30.0747 116.764 30.2704 116.764 30.5339C116.764 30.8334 116.884 31.0211 117.009 31.1449C117.142 31.2767 117.335 31.3765 117.619 31.3765C117.855 31.3765 118.057 31.2967 118.216 31.1449C118.371 30.9932 118.461 30.7975 118.461 30.5339C118.461 30.2704 118.371 30.0747 118.216 29.9229C118.062 29.7712 117.86 29.6913 117.615 29.6913C117.365 29.6873 117.164 29.7672 117.009 29.9229ZM118.689 27.427L117.559 28.4094L117.073 28.062L117.989 26.9558L118.689 27.427ZM120.232 28.9086H121.302V29.296C121.628 28.8886 122.015 28.8247 122.329 28.8247C122.621 28.8247 122.999 28.8766 123.283 29.1522C123.596 29.4597 123.618 29.8431 123.618 30.1066V32.1593H122.548V30.494C122.548 30.2823 122.539 30.0148 122.367 29.8471C122.286 29.7672 122.152 29.7033 121.959 29.7033C121.736 29.7033 121.594 29.7911 121.512 29.879C121.332 30.0547 121.302 30.2863 121.302 30.498V32.1633H120.232V28.9086V28.9086ZM125.062 26.9159C125.41 26.9159 125.689 27.1834 125.689 27.5269C125.689 27.8703 125.414 28.1379 125.062 28.1379C124.713 28.1379 124.434 27.8703 124.434 27.5269C124.438 27.1874 124.713 26.9159 125.062 26.9159ZM125.599 28.9086V32.1513H124.529V28.9086H125.599ZM129.002 29.9349C128.74 29.7233 128.473 29.6873 128.301 29.6873C127.966 29.6873 127.764 29.8471 127.691 29.9189C127.549 30.0587 127.446 30.2664 127.446 30.5299C127.446 30.7695 127.537 30.9732 127.67 31.113C127.833 31.2887 128.078 31.3765 128.319 31.3765C128.503 31.3765 128.757 31.3246 129.002 31.121V32.0674C128.718 32.2192 128.452 32.2631 128.151 32.2631C127.592 32.2631 127.167 32.0674 126.862 31.7759C126.608 31.5363 126.342 31.1289 126.342 30.5379C126.342 29.9868 126.578 29.5475 126.892 29.256C127.266 28.9126 127.704 28.7968 128.155 28.7968C128.448 28.7968 128.714 28.8487 128.998 28.9805V29.9349H129.002ZM132.263 28.9086H133.333V32.1513H132.263V31.7599C131.971 32.1952 131.554 32.2631 131.279 32.2631C130.802 32.2631 130.403 32.1473 130.037 31.7679C129.689 31.4045 129.552 30.9812 129.552 30.5539C129.552 30.0068 129.762 29.5436 130.068 29.244C130.36 28.9605 130.759 28.8008 131.219 28.8008C131.503 28.8008 131.954 28.8647 132.263 29.272V28.9086V28.9086ZM130.901 29.9349C130.789 30.0427 130.656 30.2344 130.656 30.5259C130.656 30.8175 130.781 31.0052 130.88 31.109C131.03 31.2607 131.258 31.3646 131.511 31.3646C131.726 31.3646 131.928 31.2767 132.07 31.1409C132.212 31.0091 132.332 30.8055 132.332 30.5299C132.332 30.2983 132.242 30.0787 132.087 29.9349C131.924 29.7832 131.683 29.7073 131.49 29.7073C131.258 29.7033 131.039 29.7991 130.901 29.9349V29.9349Z" fill="#8D8D8D"/>
<path d="M63.8542 19.3602H65.3625C65.6805 19.3602 66.1059 19.3962 66.4024 19.6797C66.5743 19.8395 66.7075 20.107 66.7075 20.4704C66.7075 20.7699 66.6301 21.0015 66.4883 21.1892C66.3336 21.3969 66.1489 21.4927 65.9942 21.5407C66.2348 21.5966 66.411 21.7084 66.5313 21.8162C66.7505 22.0239 66.8364 22.2515 66.8364 22.551C66.8364 23.0422 66.6387 23.3617 66.454 23.5414C66.0801 23.9088 65.5258 23.9767 65.0316 23.9767H63.2784L63.8542 19.3602ZM64.473 23.146H64.8684C65.0746 23.146 65.4055 23.1261 65.5774 22.9743C65.6418 22.9184 65.7492 22.7866 65.7492 22.531C65.7492 22.4352 65.7278 22.2874 65.6203 22.1836C65.4656 22.0319 65.1391 22.0239 65.0402 22.0239H64.6148L64.473 23.146V23.146ZM64.7137 21.2372H64.9328C65.1176 21.2372 65.3711 21.2172 65.5344 21.0654C65.6418 20.9696 65.6977 20.8019 65.6977 20.6501C65.6977 20.4624 65.6117 20.3586 65.5473 20.3027C65.4141 20.1989 65.2207 20.1909 65.066 20.1909H64.8383L64.7137 21.2372V21.2372ZM70.403 23.1061H68.6197L68.1728 23.9767H66.9997L69.4877 19.3602H70.4932L71.7608 23.9767H70.6436L70.403 23.1061ZM70.201 22.2874L69.8186 20.6621L69.0279 22.2874H70.201V22.2874ZM74.3305 19.3602C74.7817 19.3602 75.2286 19.4002 75.5809 19.7756C75.7442 19.9433 75.9204 20.2388 75.9204 20.718C75.9204 21.1533 75.7657 21.5007 75.5293 21.7284C75.3231 21.924 75.0395 22.0558 74.7817 22.1037L75.9977 23.9807H74.7258L73.5871 22.1596L73.3593 23.9807H72.2722L72.8523 19.3642H74.3305V19.3602ZM73.673 21.4608H73.9437C74.1199 21.4608 74.3906 21.4408 74.5797 21.2931C74.7688 21.1493 74.8203 20.9456 74.8203 20.754C74.8203 20.6102 74.786 20.4225 74.5926 20.3027C74.4508 20.2108 74.2445 20.1909 73.9996 20.1909H73.8363L73.673 21.4608V21.4608ZM80.0799 23.8329C79.9252 23.9088 79.5428 24.0805 78.9326 24.0805C78.0431 24.0805 77.5232 23.7051 77.2697 23.4655C76.9646 23.166 76.6337 22.6708 76.6337 21.8681C76.6337 21.0654 76.9431 20.4065 77.3857 19.9792C77.781 19.5919 78.4127 19.2604 79.2721 19.2604C80.0026 19.2604 80.4409 19.496 80.6085 19.5919L80.4796 20.718C80.2905 20.5303 79.9295 20.2548 79.2979 20.2548C78.8467 20.2548 78.4771 20.3706 78.1806 20.6901C77.8927 20.9936 77.7552 21.4089 77.7552 21.7763C77.7552 22.1636 77.9099 22.5151 78.1248 22.7227C78.3353 22.9304 78.692 23.0821 79.1217 23.0821C79.5901 23.0821 79.9639 22.8865 80.226 22.6828L80.0799 23.8329ZM83.9172 20.2628H82.3746L82.2628 21.1573H83.7496L83.6379 22.0558H82.1511L82.0222 23.0781H83.5906L83.4789 23.9767H80.8491L81.4292 19.3602H84.0332L83.9172 20.2628ZM86.07 19.3602L85.6016 23.0781H87.0712L86.9595 23.9767H84.3985L84.9786 19.3602H86.07V19.3602ZM91.9699 19.8594C92.3738 20.2388 92.6359 20.8218 92.6359 21.5007C92.6359 22.1596 92.4039 22.8705 91.9054 23.3697C91.3124 23.9647 90.569 24.0805 89.9546 24.0805C89.3659 24.0805 88.717 23.9767 88.1584 23.4216C87.8318 23.0981 87.4924 22.563 87.4924 21.8082C87.4924 20.9976 87.8232 20.3706 88.2701 19.9553C88.8717 19.3962 89.5979 19.2564 90.2081 19.2564C91.1148 19.2564 91.6605 19.5679 91.9699 19.8594V19.8594ZM89.0436 20.6821C88.7686 20.9656 88.6139 21.353 88.6139 21.7403C88.6139 22.1636 88.7772 22.4951 88.9963 22.7107C89.3143 23.0302 89.6967 23.0981 90.0276 23.0981C90.3456 23.0981 90.7366 23.0502 91.0804 22.7028C91.3339 22.4472 91.5187 22.0438 91.5187 21.5686C91.5187 21.2691 91.4542 20.8977 91.1449 20.5982C90.8355 20.2987 90.4573 20.2388 90.1694 20.2388C89.701 20.2388 89.3272 20.3945 89.0436 20.6821V20.6821ZM93.1559 23.9767L93.7446 19.3602H94.6942L96.8642 22.3633L97.2467 19.3602H98.3338L97.7537 23.9767H96.8041L94.6169 20.9576L94.243 23.9767H93.1559ZM101.711 23.1061H99.928L99.4811 23.9767H98.308L100.796 19.3602H101.802L103.069 23.9767H101.952L101.711 23.1061ZM101.509 22.2874L101.127 20.6621L100.336 22.2874H101.509V22.2874Z" fill="#8D8D8D"/>
<path d="M28.2488 0H18.8297L0 17.4993V24.5837H18.8297V33.3333H28.2488V17.4993H9.41485L28.2488 0ZM32.2838 8.74965L41.6986 0H32.2838V8.74965ZM51.1135 8.74965V0H41.6986V8.74965L32.2838 17.4993V26.249H41.6986V17.4993L51.1135 8.74965ZM51.1135 17.4993L41.6986 26.249H51.1135V17.4993Z" fill="#8D8D8D"/>
</svg>
