<svg width="134" height="28" viewBox="0 0 134 28" fill="none" xmlns="http://www.w3.org/2000/svg">
<path d="M4.3685 18.0257C4.3685 19.597 4.70745 20.8034 5.15049 21.5332C5.73136 22.4892 6.59775 22.8942 7.48101 22.8942C8.62025 22.8942 9.66245 22.6065 11.6709 19.7802C13.2799 17.5148 15.1758 14.335 16.4515 12.3415L18.6118 8.96419C20.1125 6.61867 21.8495 4.01127 23.8411 2.24391C25.4669 0.801396 27.2208 0 28.9859 0C31.9494 0 34.7722 1.74733 36.9325 5.02447C39.2968 8.61358 40.4444 13.1343 40.4444 17.7996C40.4444 20.573 39.9072 22.6108 38.993 24.2208C38.1097 25.7778 36.3882 27.3333 33.4923 27.3333V22.8942C35.9719 22.8942 36.5907 20.5758 36.5907 17.9227C36.5907 14.1418 35.7243 9.9459 33.8158 6.94782C32.4613 4.82126 30.706 3.52185 28.775 3.52185C26.6864 3.52185 25.0056 5.12464 23.1167 7.98248C22.1125 9.50084 21.0816 11.3512 19.9241 13.4391L18.6498 15.736C16.09 20.354 15.4416 21.4059 14.1617 23.1417C11.9184 26.1813 10.0028 27.3333 7.48101 27.3333C4.48945 27.3333 2.59775 26.0153 1.42616 24.029C0.469761 22.4105 0 20.2868 0 17.8668L4.3685 18.0257Z" fill="#8D8D8D"/>
<path d="M3.44446 5.33787C5.44727 2.19668 8.33757 0 11.6526 0C13.5724 0 15.481 0.57815 17.474 2.23389C19.654 4.04419 21.9775 7.0251 24.8762 11.9379L25.9156 13.701C28.4248 17.9541 29.8523 20.1422 30.6878 21.174C31.7623 22.4992 32.5148 22.8942 33.4923 22.8942C35.9719 22.8942 36.5907 20.5758 36.5907 17.9227L40.4445 17.7996C40.4445 20.573 39.9072 22.6108 38.993 24.2208C38.1097 25.7778 36.3882 27.3333 33.4923 27.3333C31.692 27.3333 30.0971 26.9355 28.3333 25.2425C26.9775 23.9431 25.3924 21.6348 24.173 19.5598L20.5457 13.3948C18.7258 10.3008 17.0563 7.99393 16.09 6.94925C15.0506 5.82586 13.7145 4.46921 11.5823 4.46921C9.85655 4.46921 8.39101 5.70136 7.16457 7.58607L3.44446 5.33787Z" fill="#8D8D8D"/>
<path d="M11.5823 4.46921C9.85654 4.46921 8.391 5.70136 7.16456 7.58607C5.43038 10.2493 4.3685 14.2162 4.3685 18.0257C4.3685 19.597 4.70745 20.8034 5.15049 21.5332L1.42616 24.029C0.469761 22.4105 0 20.2868 0 17.8668C0 13.4663 1.18706 8.87975 3.44444 5.33787C5.44726 2.19668 8.33755 0 11.6526 0L11.5823 4.46921Z" fill="#8D8D8D"/>
<path d="M48.9368 0.86438H53.9902L62.5823 16.6805L71.1759 0.86438H76.1196V26.8525H71.9972V6.93496L64.4614 20.7276H60.5936L53.0591 6.93496V26.8525H48.9368V0.86438ZM89.0366 10.5541C86.0802 10.5541 84.2996 12.8181 83.8735 15.6215H93.9072C93.7005 12.7336 92.0633 10.5541 89.0366 10.5541ZM79.7863 17.2186C79.7863 11.3197 83.5331 7.02654 89.1084 7.02654C94.5922 7.02654 97.8664 11.2654 97.8664 17.5334V18.6854H83.8735C84.37 21.735 86.3587 23.79 89.5655 23.79C92.1238 23.79 93.723 22.9958 95.2392 21.5433L97.429 24.2723C95.3657 26.2028 92.7413 27.3162 89.4192 27.3162C83.384 27.3162 79.7863 22.8384 79.7863 17.2186V17.2186ZM102.865 10.9262H99.0704V7.49164H102.865V1.81174H106.843V7.49164H112.608V10.9262H106.843V19.6314C106.843 22.6037 107.776 23.6598 110.072 23.6598C111.12 23.6598 111.72 23.5682 112.608 23.418V26.8153C111.502 27.133 110.447 27.279 109.305 27.279C105.011 27.279 102.865 24.892 102.865 20.1136V10.9262ZM129.356 14.2663C128.557 12.2142 126.775 10.7029 124.156 10.7029C120.753 10.7029 118.574 13.1601 118.574 17.1628C118.574 21.0653 120.58 23.6412 123.993 23.6412C126.677 23.6412 128.592 22.0527 129.356 20.0764V14.2663ZM133.333 26.8525H129.429V24.1421C128.338 25.7377 126.352 27.3162 123.135 27.3162C117.962 27.3162 114.505 22.9099 114.505 17.1628C114.505 11.3612 118.045 7.02654 123.354 7.02654C125.979 7.02654 128.038 8.09412 129.429 9.97883V7.49164H133.333V26.8525Z" fill="#8D8D8D"/>
</svg>
