<svg width="134" height="32" viewBox="0 0 134 32" fill="none" xmlns="http://www.w3.org/2000/svg">
<path d="M4.02669 0.0610406C5.00519 -0.0966348 6.00855 0.0529379 6.89839 0.489135C7.78823 0.925333 8.52071 1.62667 8.99482 2.49641C9.46893 3.36615 9.66131 4.36146 9.54542 5.34507C9.42954 6.32868 9.01111 7.25213 8.34782 7.98807C7.68454 8.72402 6.80909 9.23619 5.8422 9.45397C4.87532 9.67174 3.86463 9.58439 2.94952 9.20395C2.03442 8.82352 1.25997 8.16874 0.733003 7.32993C0.20603 6.49111 -0.0475115 5.50958 0.00734236 4.5207C0.0714945 3.43193 0.504336 2.39734 1.23476 1.5869C1.96518 0.776463 2.94974 0.238377 4.02669 0.0610406Z" fill="#8D8D8D"/>
<path d="M15.2327 0.0639589C16.1864 -0.0907401 17.1646 0.0467846 18.0386 0.458423C18.9126 0.870062 19.6413 1.53652 20.1288 2.37004C20.6163 3.20357 20.8398 4.16509 20.7699 5.12801C20.6999 6.09092 20.3397 7.0101 19.7368 7.76451C19.1339 8.51892 18.3165 9.07319 17.3922 9.35436C16.4679 9.63553 15.48 9.63041 14.5587 9.33967C13.6374 9.04893 12.8258 8.4862 12.2307 7.72558C11.6357 6.96495 11.2851 6.0421 11.2251 5.0785C11.1521 3.89493 11.5218 2.72647 12.2623 1.79987C13.0028 0.873275 14.0615 0.254618 15.2327 0.0639589V0.0639589Z" fill="#8D8D8D"/>
<path d="M26.1214 0.143243C27.1448 -0.0979043 28.2191 0.0044021 29.1785 0.434353C30.1379 0.864303 30.9289 1.59797 31.4293 2.52201C31.9297 3.44605 32.1117 4.50904 31.9471 5.54675C31.7825 6.58446 31.2806 7.53914 30.5188 8.26331C29.757 8.98747 28.7777 9.44081 27.7323 9.55329C26.6869 9.66577 25.6335 9.43114 24.7349 8.88563C23.8363 8.34012 23.1424 7.51411 22.7606 6.53519C22.3787 5.55628 22.33 4.47895 22.6221 3.46964C22.8578 2.65495 23.3061 1.91756 23.9211 1.33304C24.536 0.748517 25.2953 0.33789 26.1214 0.143243V0.143243Z" fill="#8D8D8D"/>
<path d="M89.9079 9.10079H92.6815C91.8441 10.1254 90.9803 11.1266 90.1518 12.1718C89.3937 12.1982 88.6357 12.1894 87.8806 12.1718L89.9079 9.08905V9.10079Z" fill="#8D8D8D"/>
<path d="M108.712 9.10663C109.746 8.57229 111.092 9.51766 110.942 10.6685C110.907 11.8429 109.355 12.5505 108.436 11.8047C107.481 11.1647 107.645 9.53821 108.712 9.10663Z" fill="#8D8D8D"/>
<path d="M78.8106 10.1108C79.9536 9.0392 81.643 9.52363 83.0503 9.41794V11.7667C82.4312 11.7316 81.8102 11.7463 81.1935 11.8107C80.4707 12.1043 80.7909 13.0555 80.7263 13.6603H83.0592V16.2087H80.7322V24.4704H78.0644V16.2058H76.2692C76.2692 15.3544 76.2692 14.5039 76.2692 13.6545H78.0614C78.0879 12.4595 77.844 11.0121 78.8106 10.1108V10.1108Z" fill="#8D8D8D"/>
<path d="M37.7181 9.63507H49.3913V12.2774H44.94V24.4585H42.1723C42.1723 20.3972 42.1723 16.3368 42.1723 12.2774C40.6856 12.2774 39.1999 12.2774 37.7152 12.2774C37.7152 11.3966 37.7152 10.5158 37.7152 9.63507H37.7181Z" fill="#8D8D8D"/>
<path d="M60.5854 9.63214H63.2533V24.4673H60.5854V9.63214Z" fill="#8D8D8D"/>
<path d="M14.9035 11.3438C16.0005 11.0852 17.1536 11.2217 18.1597 11.7292C19.1658 12.2367 19.9604 13.0828 20.4035 14.1183C20.8466 15.1538 20.9098 16.3123 20.582 17.3898C20.2541 18.4673 19.5563 19.3947 18.6113 20.0085C17.6664 20.6223 16.535 20.8832 15.4164 20.7452C14.2979 20.6072 13.2639 20.0793 12.4967 19.2543C11.7295 18.4293 11.2782 17.3602 11.2224 16.2354C11.1666 15.1106 11.5099 14.0022 12.1917 13.1054C12.8637 12.2215 13.8224 11.5988 14.9035 11.3438V11.3438Z" fill="#8D8D8D"/>
<path d="M87.957 13.5163C88.7797 13.369 89.6247 13.4033 90.4327 13.6168C91.2407 13.8303 91.9922 14.2179 92.6345 14.7524C95.0349 16.8427 95.0996 21.0088 92.8049 23.2019C90.7864 25.1455 87.2518 25.1719 85.1922 23.2783C82.8417 21.1439 82.8417 17.0042 85.1658 14.8581C85.9416 14.1447 86.9121 13.6777 87.9541 13.5163H87.957ZM88.1156 15.9972C85.7652 16.7194 85.4155 20.2778 87.3047 21.6753C87.8312 22.0608 88.4764 22.2494 89.1277 22.208C89.7791 22.1667 90.3953 21.8982 90.8687 21.4492C92.0116 20.3189 92.1056 18.3577 91.2212 17.0453C90.881 16.565 90.3971 16.2047 89.8391 16.0164C89.2811 15.8281 88.6777 15.8214 88.1156 15.9972V15.9972Z" fill="#8D8D8D"/>
<path d="M98.7193 14.7524C100.429 12.803 103.946 13.0555 105.295 15.2956C105.8 16.1253 106.057 17.0816 106.038 18.0524V24.4556H103.364V18.252C103.385 17.6717 103.196 17.1033 102.83 16.652C101.901 15.5539 99.9093 15.6273 99.1072 16.834C98.8109 17.3105 98.674 17.8688 98.7164 18.4282V24.4556H96.0486V13.6485H98.4931L98.7193 14.7524Z" fill="#8D8D8D"/>
<path d="M116.01 13.7014C117.647 13.2111 119.559 13.3667 120.952 14.4237C121.943 15.2227 122.632 16.3347 122.906 17.5768H120.262C120.009 17.1071 119.747 16.605 119.283 16.3114C118.705 15.9465 118.013 15.8075 117.339 15.9213C116.665 16.0351 116.057 16.3936 115.631 16.928C115.179 17.5501 114.937 18.3 114.941 19.0687C114.945 19.8374 115.194 20.585 115.652 21.2027C116.09 21.7426 116.716 22.098 117.404 22.1987C118.093 22.2993 118.794 22.1376 119.368 21.7458C119.768 21.3893 120.071 20.938 120.25 20.4335H122.894C122.571 21.8486 121.792 23.2255 120.514 23.9771C118.187 25.3276 114.844 24.6994 113.295 22.4622C112.755 21.6493 112.415 20.7201 112.302 19.7506C112.19 18.7811 112.309 17.7988 112.649 16.8839C112.927 16.134 113.374 15.458 113.955 14.9082C114.537 14.3584 115.237 13.9496 116.001 13.7132L116.01 13.7014Z" fill="#8D8D8D"/>
<path d="M126.376 13.9421C127.169 13.5756 128.038 13.4011 128.911 13.4327C129.785 13.4643 130.638 13.7012 131.403 14.1241C131.992 14.4777 132.48 14.9778 132.818 15.5756C133.156 16.1735 133.334 16.8488 133.333 17.5356C133.333 19.8491 133.333 22.1568 133.333 24.4703H131.1C131.024 24.1091 130.95 23.7334 130.883 23.3634C129.396 24.9576 126.699 25.125 124.974 23.8273C123.635 22.835 123.444 20.8004 124.322 19.444C124.927 18.5074 126.026 18.0171 127.102 17.8645C128.291 17.7059 129.499 17.8204 130.701 17.7823C130.668 17.154 130.569 16.4552 130.057 16.0207C129.044 15.1164 127.175 15.5921 126.825 16.9485H124.181C124.274 16.3067 124.523 15.6974 124.906 15.1735C125.288 14.6496 125.793 14.2269 126.376 13.9421V13.9421ZM126.699 20.4011C126.577 20.5638 126.495 20.7526 126.458 20.9526C126.422 21.1526 126.433 21.3583 126.49 21.5534C126.547 21.7486 126.648 21.9278 126.787 22.0768C126.925 22.2259 127.096 22.3407 127.287 22.4122C128.344 22.7616 129.722 22.4885 130.333 21.4962C130.654 20.9971 130.665 20.3894 130.695 19.8168C129.858 19.8168 129.02 19.7904 128.189 19.8168C127.651 19.8462 127.057 19.9636 126.702 20.404L126.699 20.4011Z" fill="#8D8D8D"/>
<path d="M49.7438 15.0225C51.636 13.0701 55.0501 12.8822 57.1185 14.6614C58.6346 15.9033 59.2692 18.0025 58.9166 19.8991C56.2165 19.8991 53.5193 19.8991 50.8192 19.8991C51.0102 20.6653 51.3627 21.4404 52.0326 21.9014C53.2402 22.7821 55.1353 22.5267 55.9785 21.2584H58.7345C58.4806 21.9651 58.0733 22.6069 57.542 23.1378C57.0107 23.6687 56.3684 24.0756 55.6612 24.3294C53.7896 24.9694 51.5478 24.6582 50.0376 23.3341C47.6872 21.2995 47.5814 17.2333 49.7438 15.0108V15.0225ZM51.7065 16.4552C51.2855 16.9183 50.9831 17.4764 50.8251 18.0817H56.384C56.2672 17.5004 56.0122 16.9557 55.6406 16.4934C54.6711 15.3631 52.7348 15.4042 51.7183 16.4494L51.7065 16.4552Z" fill="#8D8D8D"/>
<path d="M66.2002 15.2132C68.0483 13.0935 71.624 12.8234 73.7541 14.6613C75.2702 15.9061 75.9048 18.0024 75.561 19.899C72.8609 19.899 70.1637 19.899 67.4636 19.899C67.6032 20.6464 67.994 21.3238 68.5713 21.8191C69.7671 22.7997 71.7591 22.5648 72.6259 21.2554H75.3642C75.1212 21.9386 74.735 22.5622 74.2313 23.0842C73.7276 23.6062 73.1182 24.0147 72.4437 24.2823C70.5427 24.9928 68.2304 24.6963 66.6821 23.3428C64.3815 21.3464 64.217 17.4534 66.212 15.1927L66.2002 15.2132ZM68.1834 16.6372C67.8572 17.0682 67.6186 17.5589 67.4812 18.0816H73.0166C72.8997 17.5009 72.6459 16.9564 72.2762 16.4933C71.2391 15.2984 69.1383 15.4158 68.1629 16.6372H68.1834Z" fill="#8D8D8D"/>
<path d="M108.042 13.6485H110.707V24.4644H108.042C108.038 20.8591 108.038 17.2538 108.042 13.6485Z" fill="#8D8D8D"/>
<path d="M15.0917 22.5179C17.736 21.9307 20.5625 24.0182 20.7564 26.728C21.1001 29.3322 18.923 31.9011 16.2963 31.9833C13.8048 32.2064 11.4161 30.1601 11.2339 27.6675C11.1258 26.4844 11.4602 25.3032 12.1727 24.3521C12.8852 23.401 13.9252 22.7476 15.0917 22.5179V22.5179Z" fill="#8D8D8D"/>
</svg>
