<svg width="134" height="54" viewBox="0 0 134 54" fill="none" xmlns="http://www.w3.org/2000/svg">
<path d="M91.1394 41.0806H92.6174L94.5529 48.2L96.3829 41.0806H97.8257L99.902 48.2708L101.732 41.0806H103.069L100.676 49.723H99.0222L97.0515 43.0995L95.292 49.723H93.6028L91.1394 41.0806ZM104.371 49.1563C103.914 48.6604 103.667 47.9875 103.703 47.2791C103.667 46.5707 103.949 45.8977 104.442 45.4018C105.286 44.7642 106.307 44.4809 107.327 44.5871H109.122V44.0558C109.122 43.7725 109.087 43.4537 109.016 43.1703C108.946 42.9578 108.84 42.7453 108.7 42.5682C108.172 42.1786 107.538 42.0015 106.905 42.0723C106.131 42.0723 105.357 42.1432 104.582 42.2848L104.512 41.1514C105.357 40.9389 106.236 40.8326 107.116 40.8326C108.066 40.7618 109.052 41.0451 109.791 41.6119C110.072 41.8952 110.248 42.214 110.389 42.5682C110.53 43.0286 110.565 43.4891 110.565 43.985V49.6876H109.368L109.333 49.1563C108.524 49.6876 107.609 49.971 106.623 49.971C105.779 50.0418 104.969 49.7584 104.371 49.1563ZM108.066 48.6604C108.453 48.5542 108.805 48.4125 109.157 48.2354V45.6497H107.574C106.905 45.5789 106.236 45.756 105.638 46.0748C105.321 46.3581 105.11 46.7832 105.145 47.2082C105.11 47.6332 105.286 48.0583 105.603 48.3771C105.99 48.6604 106.447 48.8021 106.905 48.7667C107.292 48.8021 107.679 48.7667 108.066 48.6604ZM115.069 53.9026C114.788 53.8672 114.541 53.8317 114.26 53.7963L114.119 52.6629C114.682 52.7337 115.21 52.7692 115.773 52.7692C116.406 52.84 117.04 52.6629 117.568 52.2733C117.779 52.0962 117.92 51.8482 117.99 51.5649C118.096 51.1752 118.131 50.7856 118.131 50.396V49.2272C117.286 49.723 116.336 50.0064 115.386 50.0064C114.577 50.0772 113.802 49.7939 113.239 49.2626C112.711 48.625 112.465 47.8103 112.535 46.9957V41.116H113.978V46.8186C113.978 47.1019 114.014 47.4207 114.084 47.7041C114.154 47.9166 114.26 48.1291 114.401 48.2708C114.788 48.5896 115.28 48.7667 115.773 48.6959C116.16 48.6959 116.582 48.625 116.97 48.5542C117.392 48.4479 117.779 48.3062 118.131 48.1291V41.0806H119.574V50.396C119.82 52.0962 118.659 53.6901 116.97 53.9734C116.653 54.0089 116.336 54.0089 116.019 53.9734C115.667 53.9734 115.386 53.938 115.069 53.9026ZM121.58 41.0806H122.776L122.846 41.8244C123.515 41.2222 124.395 40.868 125.275 40.868C125.451 40.868 125.662 40.868 125.838 40.9389V42.2494C125.591 42.2494 125.345 42.214 125.099 42.214C124.36 42.214 123.621 42.3911 123.022 42.7807V49.7585H121.58V41.0806ZM127.14 49.1563C126.682 48.6604 126.436 47.9875 126.471 47.2791C126.436 46.5707 126.717 45.8977 127.245 45.4018C128.09 44.7642 129.11 44.4809 130.131 44.5871H131.926V44.0558C131.926 43.7725 131.891 43.4537 131.82 43.1703C131.75 42.9578 131.644 42.7453 131.468 42.5682C130.94 42.1786 130.307 42.0015 129.673 42.0723C128.899 42.0723 128.125 42.1432 127.351 42.2848L127.28 41.1514C128.125 40.9389 129.005 40.8326 129.885 40.8326C130.835 40.7618 131.82 41.0451 132.559 41.6119C132.841 41.8952 133.017 42.214 133.157 42.5682C133.298 43.0286 133.333 43.4891 133.333 43.985V49.6876H132.172L132.066 49.0855C131.257 49.6168 130.342 49.9001 129.357 49.9001C128.547 50.0418 127.738 49.7584 127.14 49.1563ZM130.8 48.6604C131.187 48.5542 131.539 48.4125 131.89 48.2354V45.6497H130.307C129.638 45.5789 128.97 45.756 128.371 46.0748C128.055 46.3581 127.844 46.7832 127.879 47.2082C127.844 47.6332 128.019 48.0583 128.336 48.3771C128.723 48.6604 129.181 48.8021 129.638 48.7667C130.025 48.8021 130.412 48.7667 130.8 48.6604ZM84.3174 50.1547L69.678 0H58.9096L49.584 31.9843L40.2584 0H29.49L20.094 32.1259L10.7332 0H0L14.6394 50.1547H25.5134L34.839 18.2059L44.1646 50.1547H54.933L64.2586 18.2059L73.5842 50.1547H84.3174Z" fill="#8D8D8D"/>
</svg>
