<svg width="377" height="424" viewBox="0 0 377 424" fill="none"  opacity=".15" xmlns="http://www.w3.org/2000/svg">
<ellipse opacity="0.0169492" cx="188.554" cy="212.119" rx="26.6668" ry="220.001" transform="rotate(140 188.554 212.119)" stroke="url(#paint0_linear_42_2)" stroke-width="4"/>
<ellipse opacity="0.0338983" cx="188.554" cy="212.119" rx="26.6668" ry="216.668" transform="rotate(150 188.554 212.119)" stroke="url(#paint1_linear_42_2)" stroke-width="4"/>
<ellipse opacity="0.0508475" cx="188.554" cy="212.119" rx="26.6668" ry="213.334" transform="rotate(160 188.554 212.119)" stroke="url(#paint2_linear_42_2)" stroke-width="4"/>
<ellipse opacity="0.0677966" cx="188.553" cy="212.119" rx="26.6668" ry="210.001" transform="rotate(170 188.553 212.119)" stroke="url(#paint3_linear_42_2)" stroke-width="4"/>
<ellipse opacity="0.0847458" cx="188.553" cy="212.119" rx="26.6668" ry="206.667" transform="rotate(-180 188.553 212.119)" stroke="url(#paint4_linear_42_2)" stroke-width="4"/>
<ellipse opacity="0.101695" cx="188.554" cy="212.119" rx="26.6668" ry="203.334" transform="rotate(-170 188.554 212.119)" stroke="url(#paint5_linear_42_2)" stroke-width="4"/>
<ellipse opacity="0.118644" cx="188.553" cy="212.119" rx="26.6668" ry="200.001" transform="rotate(-160 188.553 212.119)" stroke="url(#paint6_linear_42_2)" stroke-width="4"/>
<ellipse opacity="0.135593" cx="188.554" cy="212.119" rx="26.6668" ry="196.667" transform="rotate(-150 188.554 212.119)" stroke="url(#paint7_linear_42_2)" stroke-width="4"/>
<ellipse opacity="0.152542" cx="188.553" cy="212.119" rx="26.6668" ry="193.334" transform="rotate(-140 188.553 212.119)" stroke="url(#paint8_linear_42_2)" stroke-width="4"/>
<ellipse opacity="0.169492" cx="188.553" cy="212.119" rx="26.6668" ry="190.001" transform="rotate(-130 188.553 212.119)" stroke="url(#paint9_linear_42_2)" stroke-width="4"/>
<ellipse opacity="0.186441" cx="188.553" cy="212.119" rx="26.6668" ry="186.667" transform="rotate(-120 188.553 212.119)" stroke="url(#paint10_linear_42_2)" stroke-width="4"/>
<ellipse opacity="0.20339" cx="188.554" cy="212.119" rx="26.6668" ry="183.334" transform="rotate(-110 188.554 212.119)" stroke="url(#paint11_linear_42_2)" stroke-width="4"/>
<ellipse opacity="0.220339" cx="188.553" cy="212.119" rx="26.6668" ry="180.001" transform="rotate(-100 188.553 212.119)" stroke="url(#paint12_linear_42_2)" stroke-width="4"/>
<ellipse opacity="0.237288" cx="188.554" cy="212.119" rx="26.6668" ry="176.667" transform="rotate(-90 188.554 212.119)" stroke="url(#paint13_linear_42_2)" stroke-width="4"/>
<ellipse opacity="0.254237" cx="188.553" cy="212.119" rx="26.6668" ry="173.334" transform="rotate(-80 188.553 212.119)" stroke="url(#paint14_linear_42_2)" stroke-width="4"/>
<ellipse opacity="0.271186" cx="188.553" cy="212.119" rx="26.6668" ry="170.001" transform="rotate(-70 188.553 212.119)" stroke="url(#paint15_linear_42_2)" stroke-width="4"/>
<ellipse opacity="0.288136" cx="188.553" cy="212.119" rx="26.6668" ry="166.667" transform="rotate(-60 188.553 212.119)" stroke="url(#paint16_linear_42_2)" stroke-width="4"/>
<ellipse opacity="0.305085" cx="188.553" cy="212.119" rx="26.6668" ry="163.334" transform="rotate(-50 188.553 212.119)" stroke="url(#paint17_linear_42_2)" stroke-width="4"/>
<ellipse opacity="0.322034" cx="188.553" cy="212.119" rx="26.6668" ry="160.001" transform="rotate(-40 188.553 212.119)" stroke="url(#paint18_linear_42_2)" stroke-width="4"/>
<ellipse opacity="0.338983" cx="188.553" cy="212.119" rx="26.6668" ry="156.667" transform="rotate(-30 188.553 212.119)" stroke="url(#paint19_linear_42_2)" stroke-width="4"/>
<ellipse opacity="0.355932" cx="188.554" cy="212.119" rx="26.6668" ry="153.334" transform="rotate(-20 188.554 212.119)" stroke="url(#paint20_linear_42_2)" stroke-width="4"/>
<ellipse opacity="0.372881" cx="188.554" cy="212.119" rx="26.6668" ry="150.001" transform="rotate(-10 188.554 212.119)" stroke="url(#paint21_linear_42_2)" stroke-width="4"/>
<ellipse opacity="0.38983" cx="188.553" cy="212.119" rx="26.6668" ry="146.667" stroke="url(#paint22_linear_42_2)" stroke-width="4"/>
<ellipse opacity="0.40678" cx="188.554" cy="212.119" rx="26.6668" ry="143.334" transform="rotate(10 188.554 212.119)" stroke="url(#paint23_linear_42_2)" stroke-width="4"/>
<ellipse opacity="0.423729" cx="188.553" cy="212.119" rx="26.6668" ry="140.001" transform="rotate(20 188.553 212.119)" stroke="url(#paint24_linear_42_2)" stroke-width="4"/>
<ellipse opacity="0.440678" cx="188.553" cy="212.119" rx="26.6668" ry="136.667" transform="rotate(30 188.553 212.119)" stroke="url(#paint25_linear_42_2)" stroke-width="4"/>
<ellipse opacity="0.457627" cx="188.554" cy="212.119" rx="26.6668" ry="133.334" transform="rotate(40 188.554 212.119)" stroke="url(#paint26_linear_42_2)" stroke-width="4"/>
<ellipse opacity="0.474576" cx="188.554" cy="212.119" rx="26.6668" ry="130.001" transform="rotate(50 188.554 212.119)" stroke="url(#paint27_linear_42_2)" stroke-width="4"/>
<ellipse opacity="0.491525" cx="188.554" cy="212.119" rx="26.6668" ry="126.667" transform="rotate(60 188.554 212.119)" stroke="url(#paint28_linear_42_2)" stroke-width="4"/>
<ellipse opacity="0.508475" cx="188.554" cy="212.12" rx="26.6668" ry="123.334" transform="rotate(70 188.554 212.12)" stroke="url(#paint29_linear_42_2)" stroke-width="4"/>
<ellipse opacity="0.525424" cx="188.554" cy="212.119" rx="26.6668" ry="120" transform="rotate(80 188.554 212.119)" stroke="url(#paint30_linear_42_2)" stroke-width="4"/>
<ellipse opacity="0.542373" cx="188.554" cy="212.12" rx="26.6668" ry="116.667" transform="rotate(90 188.554 212.12)" stroke="url(#paint31_linear_42_2)" stroke-width="4"/>
<ellipse opacity="0.559322" cx="188.554" cy="212.12" rx="26.6668" ry="113.334" transform="rotate(100 188.554 212.12)" stroke="url(#paint32_linear_42_2)" stroke-width="4"/>
<ellipse opacity="0.576271" cx="188.554" cy="212.12" rx="26.6668" ry="110" transform="rotate(110 188.554 212.12)" stroke="url(#paint33_linear_42_2)" stroke-width="4"/>
<ellipse opacity="0.59322" cx="188.554" cy="212.119" rx="26.6668" ry="106.667" transform="rotate(120 188.554 212.119)" stroke="url(#paint34_linear_42_2)" stroke-width="4"/>
<ellipse opacity="0.610169" cx="188.554" cy="212.119" rx="26.6668" ry="103.334" transform="rotate(130 188.554 212.119)" stroke="url(#paint35_linear_42_2)" stroke-width="4"/>
<ellipse opacity="0.627119" cx="188.554" cy="212.119" rx="26.6668" ry="100" transform="rotate(140 188.554 212.119)" stroke="url(#paint36_linear_42_2)" stroke-width="4"/>
<ellipse opacity="0.644068" cx="188.554" cy="212.119" rx="26.6668" ry="96.667" transform="rotate(150 188.554 212.119)" stroke="url(#paint37_linear_42_2)" stroke-width="4"/>
<ellipse opacity="0.661017" cx="188.554" cy="212.119" rx="26.6668" ry="93.3337" transform="rotate(160 188.554 212.119)" stroke="url(#paint38_linear_42_2)" stroke-width="4"/>
<ellipse opacity="0.677966" cx="188.553" cy="212.119" rx="26.6668" ry="90.0004" transform="rotate(170 188.553 212.119)" stroke="url(#paint39_linear_42_2)" stroke-width="4"/>
<ellipse opacity="0.694915" cx="188.553" cy="212.119" rx="26.6668" ry="86.667" transform="rotate(-180 188.553 212.119)" stroke="url(#paint40_linear_42_2)" stroke-width="4"/>
<ellipse opacity="0.711864" cx="188.554" cy="212.119" rx="26.6668" ry="83.3337" transform="rotate(-170 188.554 212.119)" stroke="url(#paint41_linear_42_2)" stroke-width="4"/>
<ellipse opacity="0.728814" cx="188.553" cy="212.119" rx="26.6668" ry="80.0003" transform="rotate(-160 188.553 212.119)" stroke="url(#paint42_linear_42_2)" stroke-width="4"/>
<ellipse opacity="0.745763" cx="188.553" cy="212.119" rx="26.6668" ry="76.667" transform="rotate(-150 188.553 212.119)" stroke="url(#paint43_linear_42_2)" stroke-width="4"/>
<ellipse opacity="0.762712" cx="188.553" cy="212.119" rx="26.6668" ry="73.3336" transform="rotate(-140 188.553 212.119)" stroke="url(#paint44_linear_42_2)" stroke-width="4"/>
<ellipse opacity="0.779661" cx="188.554" cy="212.119" rx="26.6668" ry="70.0003" transform="rotate(-130 188.554 212.119)" stroke="url(#paint45_linear_42_2)" stroke-width="4"/>
<ellipse opacity="0.79661" cx="188.554" cy="212.119" rx="26.6668" ry="66.6669" transform="rotate(-120 188.554 212.119)" stroke="url(#paint46_linear_42_2)" stroke-width="4"/>
<ellipse opacity="0.813559" cx="188.554" cy="212.119" rx="26.6668" ry="63.3336" transform="rotate(-110 188.554 212.119)" stroke="url(#paint47_linear_42_2)" stroke-width="4"/>
<ellipse opacity="0.830508" cx="188.554" cy="212.119" rx="26.6668" ry="60.0002" transform="rotate(-100 188.554 212.119)" stroke="url(#paint48_linear_42_2)" stroke-width="4"/>
<ellipse opacity="0.847458" cx="188.554" cy="212.119" rx="26.6668" ry="56.6669" transform="rotate(-90 188.554 212.119)" stroke="url(#paint49_linear_42_2)" stroke-width="4"/>
<ellipse opacity="0.864407" cx="188.554" cy="212.119" rx="26.6668" ry="53.3335" transform="rotate(-80 188.554 212.119)" stroke="url(#paint50_linear_42_2)" stroke-width="4"/>
<ellipse opacity="0.881356" cx="188.554" cy="212.119" rx="26.6668" ry="50.0002" transform="rotate(-70 188.554 212.119)" stroke="url(#paint51_linear_42_2)" stroke-width="4"/>
<ellipse opacity="0.898305" cx="188.553" cy="212.119" rx="26.6668" ry="46.6669" transform="rotate(-60 188.553 212.119)" stroke="url(#paint52_linear_42_2)" stroke-width="4"/>
<ellipse opacity="0.915254" cx="188.554" cy="212.119" rx="26.6668" ry="43.3335" transform="rotate(-50 188.554 212.119)" stroke="url(#paint53_linear_42_2)" stroke-width="4"/>
<ellipse opacity="0.932203" cx="188.554" cy="212.119" rx="26.6668" ry="40.0002" transform="rotate(-40 188.554 212.119)" stroke="url(#paint54_linear_42_2)" stroke-width="4"/>
<ellipse opacity="0.949153" cx="188.553" cy="212.119" rx="26.6668" ry="36.6668" transform="rotate(-30 188.553 212.119)" stroke="url(#paint55_linear_42_2)" stroke-width="4"/>
<ellipse opacity="0.966102" cx="188.554" cy="212.119" rx="26.6668" ry="33.3335" transform="rotate(-20 188.554 212.119)" stroke="url(#paint56_linear_42_2)" stroke-width="4"/>
<ellipse opacity="0.983051" cx="188.554" cy="212.119" rx="26.6668" ry="30.0001" transform="rotate(-10 188.554 212.119)" stroke="url(#paint57_linear_42_2)" stroke-width="4"/>
<circle cx="188.553" cy="212.119" r="26.6668" stroke="url(#paint58_linear_42_2)" stroke-width="4"/>
<defs>
<linearGradient id="paint0_linear_42_2" x1="188.554" y1="-7.88167" x2="188.554" y2="448.62" gradientUnits="userSpaceOnUse">
<stop stop-color="#FF1CF7"/>
<stop offset="1" stop-color="#00F0FF"/>
</linearGradient>
<linearGradient id="paint1_linear_42_2" x1="188.554" y1="-4.5484" x2="188.554" y2="445.037" gradientUnits="userSpaceOnUse">
<stop stop-color="#FF1CF7"/>
<stop offset="1" stop-color="#00F0FF"/>
</linearGradient>
<linearGradient id="paint2_linear_42_2" x1="188.554" y1="-1.21509" x2="188.554" y2="441.453" gradientUnits="userSpaceOnUse">
<stop stop-color="#FF1CF7"/>
<stop offset="1" stop-color="#00F0FF"/>
</linearGradient>
<linearGradient id="paint3_linear_42_2" x1="188.553" y1="2.11842" x2="188.553" y2="437.87" gradientUnits="userSpaceOnUse">
<stop stop-color="#FF1CF7"/>
<stop offset="1" stop-color="#00F0FF"/>
</linearGradient>
<linearGradient id="paint4_linear_42_2" x1="188.553" y1="5.4519" x2="188.554" y2="434.287" gradientUnits="userSpaceOnUse">
<stop stop-color="#FF1CF7"/>
<stop offset="1" stop-color="#00F0FF"/>
</linearGradient>
<linearGradient id="paint5_linear_42_2" x1="188.554" y1="8.78496" x2="188.554" y2="430.703" gradientUnits="userSpaceOnUse">
<stop stop-color="#FF1CF7"/>
<stop offset="1" stop-color="#00F0FF"/>
</linearGradient>
<linearGradient id="paint6_linear_42_2" x1="188.553" y1="12.1182" x2="188.553" y2="427.12" gradientUnits="userSpaceOnUse">
<stop stop-color="#FF1CF7"/>
<stop offset="1" stop-color="#00F0FF"/>
</linearGradient>
<linearGradient id="paint7_linear_42_2" x1="188.554" y1="15.4514" x2="188.554" y2="423.536" gradientUnits="userSpaceOnUse">
<stop stop-color="#FF1CF7"/>
<stop offset="1" stop-color="#00F0FF"/>
</linearGradient>
<linearGradient id="paint8_linear_42_2" x1="188.553" y1="18.785" x2="188.553" y2="419.953" gradientUnits="userSpaceOnUse">
<stop stop-color="#FF1CF7"/>
<stop offset="1" stop-color="#00F0FF"/>
</linearGradient>
<linearGradient id="paint9_linear_42_2" x1="188.553" y1="22.1182" x2="188.554" y2="416.37" gradientUnits="userSpaceOnUse">
<stop stop-color="#FF1CF7"/>
<stop offset="1" stop-color="#00F0FF"/>
</linearGradient>
<linearGradient id="paint10_linear_42_2" x1="188.553" y1="25.4514" x2="188.553" y2="412.786" gradientUnits="userSpaceOnUse">
<stop stop-color="#FF1CF7"/>
<stop offset="1" stop-color="#00F0FF"/>
</linearGradient>
<linearGradient id="paint11_linear_42_2" x1="188.554" y1="28.785" x2="188.554" y2="409.203" gradientUnits="userSpaceOnUse">
<stop stop-color="#FF1CF7"/>
<stop offset="1" stop-color="#00F0FF"/>
</linearGradient>
<linearGradient id="paint12_linear_42_2" x1="188.553" y1="32.1184" x2="188.553" y2="405.62" gradientUnits="userSpaceOnUse">
<stop stop-color="#FF1CF7"/>
<stop offset="1" stop-color="#00F0FF"/>
</linearGradient>
<linearGradient id="paint13_linear_42_2" x1="188.554" y1="35.4518" x2="188.554" y2="402.037" gradientUnits="userSpaceOnUse">
<stop stop-color="#FF1CF7"/>
<stop offset="1" stop-color="#00F0FF"/>
</linearGradient>
<linearGradient id="paint14_linear_42_2" x1="188.553" y1="38.7851" x2="188.554" y2="398.453" gradientUnits="userSpaceOnUse">
<stop stop-color="#FF1CF7"/>
<stop offset="1" stop-color="#00F0FF"/>
</linearGradient>
<linearGradient id="paint15_linear_42_2" x1="188.553" y1="42.1181" x2="188.553" y2="394.869" gradientUnits="userSpaceOnUse">
<stop stop-color="#FF1CF7"/>
<stop offset="1" stop-color="#00F0FF"/>
</linearGradient>
<linearGradient id="paint16_linear_42_2" x1="188.553" y1="45.4516" x2="188.553" y2="391.286" gradientUnits="userSpaceOnUse">
<stop stop-color="#FF1CF7"/>
<stop offset="1" stop-color="#00F0FF"/>
</linearGradient>
<linearGradient id="paint17_linear_42_2" x1="188.553" y1="48.7848" x2="188.553" y2="387.703" gradientUnits="userSpaceOnUse">
<stop stop-color="#FF1CF7"/>
<stop offset="1" stop-color="#00F0FF"/>
</linearGradient>
<linearGradient id="paint18_linear_42_2" x1="188.553" y1="52.1183" x2="188.553" y2="384.12" gradientUnits="userSpaceOnUse">
<stop stop-color="#FF1CF7"/>
<stop offset="1" stop-color="#00F0FF"/>
</linearGradient>
<linearGradient id="paint19_linear_42_2" x1="188.553" y1="55.4518" x2="188.553" y2="380.536" gradientUnits="userSpaceOnUse">
<stop stop-color="#FF1CF7"/>
<stop offset="1" stop-color="#00F0FF"/>
</linearGradient>
<linearGradient id="paint20_linear_42_2" x1="188.554" y1="58.7851" x2="188.554" y2="376.953" gradientUnits="userSpaceOnUse">
<stop stop-color="#FF1CF7"/>
<stop offset="1" stop-color="#00F0FF"/>
</linearGradient>
<linearGradient id="paint21_linear_42_2" x1="188.554" y1="62.1186" x2="188.554" y2="373.37" gradientUnits="userSpaceOnUse">
<stop stop-color="#FF1CF7"/>
<stop offset="1" stop-color="#00F0FF"/>
</linearGradient>
<linearGradient id="paint22_linear_42_2" x1="188.553" y1="65.4519" x2="188.554" y2="369.786" gradientUnits="userSpaceOnUse">
<stop stop-color="#FF1CF7"/>
<stop offset="1" stop-color="#00F0FF"/>
</linearGradient>
<linearGradient id="paint23_linear_42_2" x1="188.554" y1="68.7852" x2="188.554" y2="366.203" gradientUnits="userSpaceOnUse">
<stop stop-color="#FF1CF7"/>
<stop offset="1" stop-color="#00F0FF"/>
</linearGradient>
<linearGradient id="paint24_linear_42_2" x1="188.553" y1="72.1185" x2="188.554" y2="362.62" gradientUnits="userSpaceOnUse">
<stop stop-color="#FF1CF7"/>
<stop offset="1" stop-color="#00F0FF"/>
</linearGradient>
<linearGradient id="paint25_linear_42_2" x1="188.553" y1="75.4522" x2="188.553" y2="359.037" gradientUnits="userSpaceOnUse">
<stop stop-color="#FF1CF7"/>
<stop offset="1" stop-color="#00F0FF"/>
</linearGradient>
<linearGradient id="paint26_linear_42_2" x1="188.554" y1="78.7852" x2="188.554" y2="355.453" gradientUnits="userSpaceOnUse">
<stop stop-color="#FF1CF7"/>
<stop offset="1" stop-color="#00F0FF"/>
</linearGradient>
<linearGradient id="paint27_linear_42_2" x1="188.554" y1="82.1189" x2="188.554" y2="351.87" gradientUnits="userSpaceOnUse">
<stop stop-color="#FF1CF7"/>
<stop offset="1" stop-color="#00F0FF"/>
</linearGradient>
<linearGradient id="paint28_linear_42_2" x1="188.554" y1="85.4519" x2="188.554" y2="348.286" gradientUnits="userSpaceOnUse">
<stop stop-color="#FF1CF7"/>
<stop offset="1" stop-color="#00F0FF"/>
</linearGradient>
<linearGradient id="paint29_linear_42_2" x1="188.554" y1="88.7857" x2="188.554" y2="344.703" gradientUnits="userSpaceOnUse">
<stop stop-color="#FF1CF7"/>
<stop offset="1" stop-color="#00F0FF"/>
</linearGradient>
<linearGradient id="paint30_linear_42_2" x1="188.554" y1="92.1187" x2="188.554" y2="341.12" gradientUnits="userSpaceOnUse">
<stop stop-color="#FF1CF7"/>
<stop offset="1" stop-color="#00F0FF"/>
</linearGradient>
<linearGradient id="paint31_linear_42_2" x1="188.554" y1="95.4524" x2="188.554" y2="337.537" gradientUnits="userSpaceOnUse">
<stop stop-color="#FF1CF7"/>
<stop offset="1" stop-color="#00F0FF"/>
</linearGradient>
<linearGradient id="paint32_linear_42_2" x1="188.554" y1="98.7857" x2="188.554" y2="333.953" gradientUnits="userSpaceOnUse">
<stop stop-color="#FF1CF7"/>
<stop offset="1" stop-color="#00F0FF"/>
</linearGradient>
<linearGradient id="paint33_linear_42_2" x1="188.554" y1="102.119" x2="188.554" y2="330.37" gradientUnits="userSpaceOnUse">
<stop stop-color="#FF1CF7"/>
<stop offset="1" stop-color="#00F0FF"/>
</linearGradient>
<linearGradient id="paint34_linear_42_2" x1="188.554" y1="105.452" x2="188.554" y2="326.786" gradientUnits="userSpaceOnUse">
<stop stop-color="#FF1CF7"/>
<stop offset="1" stop-color="#00F0FF"/>
</linearGradient>
<linearGradient id="paint35_linear_42_2" x1="188.554" y1="108.786" x2="188.554" y2="323.203" gradientUnits="userSpaceOnUse">
<stop stop-color="#FF1CF7"/>
<stop offset="1" stop-color="#00F0FF"/>
</linearGradient>
<linearGradient id="paint36_linear_42_2" x1="188.554" y1="112.119" x2="188.554" y2="319.62" gradientUnits="userSpaceOnUse">
<stop stop-color="#FF1CF7"/>
<stop offset="1" stop-color="#00F0FF"/>
</linearGradient>
<linearGradient id="paint37_linear_42_2" x1="188.554" y1="115.452" x2="188.554" y2="316.036" gradientUnits="userSpaceOnUse">
<stop stop-color="#FF1CF7"/>
<stop offset="1" stop-color="#00F0FF"/>
</linearGradient>
<linearGradient id="paint38_linear_42_2" x1="188.554" y1="118.785" x2="188.554" y2="312.453" gradientUnits="userSpaceOnUse">
<stop stop-color="#FF1CF7"/>
<stop offset="1" stop-color="#00F0FF"/>
</linearGradient>
<linearGradient id="paint39_linear_42_2" x1="188.553" y1="122.119" x2="188.553" y2="308.87" gradientUnits="userSpaceOnUse">
<stop stop-color="#FF1CF7"/>
<stop offset="1" stop-color="#00F0FF"/>
</linearGradient>
<linearGradient id="paint40_linear_42_2" x1="188.553" y1="125.452" x2="188.553" y2="305.286" gradientUnits="userSpaceOnUse">
<stop stop-color="#FF1CF7"/>
<stop offset="1" stop-color="#00F0FF"/>
</linearGradient>
<linearGradient id="paint41_linear_42_2" x1="188.554" y1="128.786" x2="188.554" y2="301.703" gradientUnits="userSpaceOnUse">
<stop stop-color="#FF1CF7"/>
<stop offset="1" stop-color="#00F0FF"/>
</linearGradient>
<linearGradient id="paint42_linear_42_2" x1="188.553" y1="132.119" x2="188.553" y2="298.119" gradientUnits="userSpaceOnUse">
<stop stop-color="#FF1CF7"/>
<stop offset="1" stop-color="#00F0FF"/>
</linearGradient>
<linearGradient id="paint43_linear_42_2" x1="188.553" y1="135.452" x2="188.553" y2="294.536" gradientUnits="userSpaceOnUse">
<stop stop-color="#FF1CF7"/>
<stop offset="1" stop-color="#00F0FF"/>
</linearGradient>
<linearGradient id="paint44_linear_42_2" x1="188.553" y1="138.785" x2="188.553" y2="290.953" gradientUnits="userSpaceOnUse">
<stop stop-color="#FF1CF7"/>
<stop offset="1" stop-color="#00F0FF"/>
</linearGradient>
<linearGradient id="paint45_linear_42_2" x1="188.554" y1="142.119" x2="188.554" y2="287.37" gradientUnits="userSpaceOnUse">
<stop stop-color="#FF1CF7"/>
<stop offset="1" stop-color="#00F0FF"/>
</linearGradient>
<linearGradient id="paint46_linear_42_2" x1="188.554" y1="145.452" x2="188.554" y2="283.786" gradientUnits="userSpaceOnUse">
<stop stop-color="#FF1CF7"/>
<stop offset="1" stop-color="#00F0FF"/>
</linearGradient>
<linearGradient id="paint47_linear_42_2" x1="188.554" y1="148.785" x2="188.554" y2="280.202" gradientUnits="userSpaceOnUse">
<stop stop-color="#FF1CF7"/>
<stop offset="1" stop-color="#00F0FF"/>
</linearGradient>
<linearGradient id="paint48_linear_42_2" x1="188.554" y1="152.119" x2="188.554" y2="276.619" gradientUnits="userSpaceOnUse">
<stop stop-color="#FF1CF7"/>
<stop offset="1" stop-color="#00F0FF"/>
</linearGradient>
<linearGradient id="paint49_linear_42_2" x1="188.554" y1="155.452" x2="188.554" y2="273.036" gradientUnits="userSpaceOnUse">
<stop stop-color="#FF1CF7"/>
<stop offset="1" stop-color="#00F0FF"/>
</linearGradient>
<linearGradient id="paint50_linear_42_2" x1="188.554" y1="158.785" x2="188.554" y2="269.452" gradientUnits="userSpaceOnUse">
<stop stop-color="#FF1CF7"/>
<stop offset="1" stop-color="#00F0FF"/>
</linearGradient>
<linearGradient id="paint51_linear_42_2" x1="188.554" y1="162.119" x2="188.554" y2="265.869" gradientUnits="userSpaceOnUse">
<stop stop-color="#FF1CF7"/>
<stop offset="1" stop-color="#00F0FF"/>
</linearGradient>
<linearGradient id="paint52_linear_42_2" x1="188.553" y1="165.452" x2="188.553" y2="262.286" gradientUnits="userSpaceOnUse">
<stop stop-color="#FF1CF7"/>
<stop offset="1" stop-color="#00F0FF"/>
</linearGradient>
<linearGradient id="paint53_linear_42_2" x1="188.554" y1="168.786" x2="188.554" y2="258.703" gradientUnits="userSpaceOnUse">
<stop stop-color="#FF1CF7"/>
<stop offset="1" stop-color="#00F0FF"/>
</linearGradient>
<linearGradient id="paint54_linear_42_2" x1="188.554" y1="172.119" x2="188.554" y2="255.119" gradientUnits="userSpaceOnUse">
<stop stop-color="#FF1CF7"/>
<stop offset="1" stop-color="#00F0FF"/>
</linearGradient>
<linearGradient id="paint55_linear_42_2" x1="188.553" y1="175.452" x2="188.553" y2="251.536" gradientUnits="userSpaceOnUse">
<stop stop-color="#FF1CF7"/>
<stop offset="1" stop-color="#00F0FF"/>
</linearGradient>
<linearGradient id="paint56_linear_42_2" x1="188.554" y1="178.786" x2="188.554" y2="247.952" gradientUnits="userSpaceOnUse">
<stop stop-color="#FF1CF7"/>
<stop offset="1" stop-color="#00F0FF"/>
</linearGradient>
<linearGradient id="paint57_linear_42_2" x1="188.554" y1="182.119" x2="188.554" y2="244.369" gradientUnits="userSpaceOnUse">
<stop stop-color="#FF1CF7"/>
<stop offset="1" stop-color="#00F0FF"/>
</linearGradient>
<linearGradient id="paint58_linear_42_2" x1="188.553" y1="185.452" x2="188.553" y2="240.786" gradientUnits="userSpaceOnUse">
<stop stop-color="#FF1CF7"/>
<stop offset="1" stop-color="#00F0FF"/>
</linearGradient>
</defs>
</svg>
