<svg width="660" height="659" viewBox="0 0 660 659" fill="none" opacity=".15" xmlns="http://www.w3.org/2000/svg">
<path opacity="0.0714286" d="M518.754 254.826L503.1 460.121C501.416 482.208 484.836 500.275 462.975 503.845L277.05 534.206C257.051 537.471 237.156 527.827 227.332 510.104L122.243 320.517C112.419 302.794 114.782 280.811 128.149 265.582L252.422 123.998C267.035 107.35 291.142 102.864 310.765 113.14L493.16 208.654C510.149 217.551 520.212 235.705 518.754 254.826Z" stroke="url(#paint0_linear_44_79)" stroke-width="4"/>
<path opacity="0.142857" d="M532.885 334.644L438.26 517.503C428.08 537.176 405.76 547.328 384.241 542.072L201.233 497.373C181.548 492.565 167.003 475.914 164.885 455.761L142.227 240.184C140.109 220.031 150.874 200.72 169.129 191.924L338.844 110.152C358.8 100.537 382.743 105.827 396.792 122.953L527.367 282.143C539.529 296.97 541.698 317.613 532.885 334.644Z" stroke="url(#paint1_linear_44_79)" stroke-width="4"/>
<path opacity="0.214286" d="M514.705 413.64L356.154 544.99C339.096 559.121 314.583 559.745 296.829 546.499L145.835 433.846C129.594 421.729 122.711 400.718 128.635 381.34L192.011 174.047C197.936 154.669 215.391 141.098 235.631 140.135L423.806 131.177C445.932 130.123 465.905 144.348 472.145 165.602L530.14 363.156C535.541 381.557 529.473 401.406 514.705 413.64Z" stroke="url(#paint2_linear_44_79)" stroke-width="4"/>
<path opacity="0.285714" d="M467.105 479.252L269.835 538.21C248.612 544.553 225.804 535.549 214.637 516.419L119.663 353.723C109.447 336.223 111.321 314.193 124.346 298.671L263.68 132.619C276.705 117.096 298.075 111.425 317.083 118.447L493.799 183.726C514.577 191.402 527.405 212.3 524.844 234.302L501.038 438.812C498.821 457.861 485.478 473.761 467.105 479.252Z" stroke="url(#paint3_linear_44_79)" stroke-width="4"/>
<path opacity="0.357143" d="M397.651 521.049L193.028 498.24C171.013 495.786 153.536 478.586 150.732 456.613L126.878 269.742C124.312 249.642 134.645 230.095 152.7 220.896L345.839 122.487C363.893 113.287 385.78 116.417 400.534 130.307L537.695 259.446C553.822 274.63 557.465 298.879 546.51 318.132L444.688 497.083C435.205 513.75 416.71 523.173 397.651 521.049Z" stroke="url(#paint4_linear_44_79)" stroke-width="4"/>
<path opacity="0.428571" d="M317.388 532.386L137.943 431.437C118.637 420.577 109.27 397.915 115.274 376.593L166.333 195.257C171.825 175.752 188.974 161.797 209.188 160.383L425.425 145.263C445.639 143.849 464.563 155.282 472.716 173.832L548.515 346.298C557.428 366.577 551.306 390.321 533.699 403.763L370.05 528.703C354.808 540.34 334.102 541.788 317.388 532.386Z" stroke="url(#paint5_linear_44_79)" stroke-width="4"/>
<path opacity="0.5" d="M239.075 511.46L113.339 348.422C99.8115 330.881 100.044 306.361 113.901 289.08L231.755 142.11C244.431 126.301 265.67 120.156 284.829 126.753L489.785 197.325C508.944 203.922 521.897 221.84 522.153 242.102L524.539 430.474C524.82 452.623 509.907 472.088 488.448 477.582L288.99 528.647C270.412 533.404 250.786 526.646 239.075 511.46Z" stroke="url(#paint6_linear_44_79)" stroke-width="4"/>
<path opacity="0.571429" d="M175.164 461.599L123.128 262.393C117.529 240.961 127.324 218.481 146.832 207.988L312.743 118.75C330.589 109.151 352.54 111.793 367.598 125.352L528.686 270.396C543.745 283.955 548.667 305.51 540.986 324.261L469.579 498.591C461.183 519.089 439.85 531.18 417.95 527.852L214.396 496.923C195.436 494.042 180.011 480.154 175.164 461.599Z" stroke="url(#paint7_linear_44_79)" stroke-width="4"/>
<path opacity="0.642857" d="M135.816 390.729L165.753 187.026C168.973 165.11 186.773 148.245 208.83 146.208L396.42 128.891C416.597 127.028 435.771 138.037 444.335 156.402L535.944 352.857C544.508 371.222 540.616 392.987 526.219 407.246L392.373 539.817C376.635 555.405 352.274 558.199 333.415 546.579L158.127 438.574C141.8 428.514 133.028 409.702 135.816 390.729Z" stroke="url(#paint8_linear_44_79)" stroke-width="4"/>
<path opacity="0.714286" d="M127.287 310.12L234.437 134.307C245.965 115.392 268.939 106.822 290.039 113.566L469.483 170.922C488.784 177.092 502.132 194.717 502.84 214.968L510.405 431.601C511.112 451.852 499.026 470.366 480.202 477.867L305.196 547.601C284.618 555.8 261.102 548.853 248.283 530.789L129.13 362.878C118.032 347.239 117.307 326.495 127.287 310.12Z" stroke="url(#paint9_linear_44_79)" stroke-width="4"/>
<path opacity="0.785714" d="M150.933 232.585L318.261 112.615C336.263 99.7083 360.759 100.796 377.547 115.248L520.315 238.159C535.671 251.38 541.071 272.82 533.81 291.737L456.128 494.105C448.866 513.023 430.507 525.342 410.249 524.891L221.908 520.701C199.762 520.209 180.83 504.626 176.088 482.988L132.015 281.87C127.91 263.137 135.348 243.759 150.933 232.585Z" stroke="url(#paint10_linear_44_79)" stroke-width="4"/>
<path opacity="0.857143" d="M202.995 170.453L403.896 125.4C425.511 120.553 447.635 131.126 457.441 150.989L540.834 319.913C549.804 338.083 546.398 359.928 532.322 374.505L381.744 530.432C367.668 545.009 345.955 549.175 327.483 540.845L155.751 463.397C135.559 454.291 124.22 432.549 128.31 410.779L166.323 208.428C169.864 189.58 184.283 174.649 202.995 170.453Z" stroke="url(#paint11_linear_44_79)" stroke-width="4"/>
<path opacity="0.928571" d="M275.195 133.602L477.729 170.63C499.519 174.613 515.753 192.99 517.018 215.105L527.779 403.185C528.936 423.416 517.265 442.194 498.612 450.111L299.079 534.808C280.426 542.726 258.811 538.077 245.063 523.191L117.244 384.799C102.215 368.527 100.273 344.083 112.544 325.642L226.601 154.229C237.224 138.264 256.33 130.154 275.195 133.602Z" stroke="url(#paint12_linear_44_79)" stroke-width="4"/>
<path d="M356.053 127.892L528.019 241.112C546.521 253.293 554.284 276.552 546.807 297.404L483.224 474.736C476.385 493.811 458.304 506.536 438.04 506.536H221.276C201.012 506.536 182.931 493.811 176.092 474.736L112.509 297.404C105.032 276.552 112.795 253.293 131.297 241.112L303.263 127.892C319.28 117.346 340.036 117.346 356.053 127.892Z" stroke="url(#paint13_linear_44_79)" stroke-width="4"/>
<defs>
<linearGradient id="paint0_linear_44_79" x1="260.161" y1="205.034" x2="401.019" y2="459.149" gradientUnits="userSpaceOnUse">
<stop stop-color="#FF1CF7"/>
<stop offset="1" stop-color="#00F0FF"/>
</linearGradient>
<linearGradient id="paint1_linear_44_79" x1="314.305" y1="187.77" x2="344.675" y2="476.722" gradientUnits="userSpaceOnUse">
<stop stop-color="#FF1CF7"/>
<stop offset="1" stop-color="#00F0FF"/>
</linearGradient>
<linearGradient id="paint2_linear_44_79" x1="370.889" y1="193.035" x2="285.942" y2="470.884" gradientUnits="userSpaceOnUse">
<stop stop-color="#FF1CF7"/>
<stop offset="1" stop-color="#00F0FF"/>
</linearGradient>
<linearGradient id="paint3_linear_44_79" x1="420.919" y1="219.991" x2="234.161" y2="442.561" gradientUnits="userSpaceOnUse">
<stop stop-color="#FF1CF7"/>
<stop offset="1" stop-color="#00F0FF"/>
</linearGradient>
<linearGradient id="paint4_linear_44_79" x1="456.438" y1="264.352" x2="197.562" y2="396.256" gradientUnits="userSpaceOnUse">
<stop stop-color="#FF1CF7"/>
<stop offset="1" stop-color="#00F0FF"/>
</linearGradient>
<linearGradient id="paint5_linear_44_79" x1="471.801" y1="319.064" x2="181.965" y2="339.332" gradientUnits="userSpaceOnUse">
<stop stop-color="#FF1CF7"/>
<stop offset="1" stop-color="#00F0FF"/>
</linearGradient>
<linearGradient id="paint6_linear_44_79" x1="464.565" y1="375.431" x2="189.85" y2="280.839" gradientUnits="userSpaceOnUse">
<stop stop-color="#FF1CF7"/>
<stop offset="1" stop-color="#00F0FF"/>
</linearGradient>
<linearGradient id="paint7_linear_44_79" x1="435.879" y1="424.49" x2="219.963" y2="230.078" gradientUnits="userSpaceOnUse">
<stop stop-color="#FF1CF7"/>
<stop offset="1" stop-color="#00F0FF"/>
</linearGradient>
<linearGradient id="paint8_linear_44_79" x1="390.306" y1="458.439" x2="267.517" y2="195.116" gradientUnits="userSpaceOnUse">
<stop stop-color="#FF1CF7"/>
<stop offset="1" stop-color="#00F0FF"/>
</linearGradient>
<linearGradient id="paint9_linear_44_79" x1="335.09" y1="471.884" x2="324.95" y2="181.517" gradientUnits="userSpaceOnUse">
<stop stop-color="#FF1CF7"/>
<stop offset="1" stop-color="#00F0FF"/>
</linearGradient>
<linearGradient id="paint10_linear_44_79" x1="279.01" y1="462.685" x2="383.132" y2="191.438" gradientUnits="userSpaceOnUse">
<stop stop-color="#FF1CF7"/>
<stop offset="1" stop-color="#00F0FF"/>
</linearGradient>
<linearGradient id="paint11_linear_44_79" x1="230.983" y1="432.304" x2="432.812" y2="223.305" gradientUnits="userSpaceOnUse">
<stop stop-color="#FF1CF7"/>
<stop offset="1" stop-color="#00F0FF"/>
</linearGradient>
<linearGradient id="paint12_linear_44_79" x1="198.645" y1="385.574" x2="466.092" y2="272.049" gradientUnits="userSpaceOnUse">
<stop stop-color="#FF1CF7"/>
<stop offset="1" stop-color="#00F0FF"/>
</linearGradient>
<linearGradient id="paint13_linear_44_79" x1="187.136" y1="329.922" x2="477.68" y2="329.922" gradientUnits="userSpaceOnUse">
<stop stop-color="#FF1CF7"/>
<stop offset="1" stop-color="#00F0FF"/>
</linearGradient>
</defs>
</svg>
